<svg xmlns="http://www.w3.org/2000/svg" viewBox="0 0 500 500"><path fill="#fff" d="M91.36 43.66H404.2v203.01H91.36z"/><path fill="#e0e0e0" d="M404.7 247.17H90.86v-204H404.7Zm-312.84-1H403.7v-202H91.86Z"/><path fill="#e0e0e0" d="M143.78 246.67c-.14 0-.26-45.63-.26-101.92s.12-101.92.26-101.92.26 45.62.26 101.92-.12 101.92-.26 101.92Zm52.42 0c-.15 0-.26-45.45-.26-101.5s.11-101.51.26-101.51.26 45.44.26 101.51-.12 101.5-.26 101.5Zm51.64 0c-.15 0-.26-45.45-.26-101.5s.11-101.51.26-101.51.26 45.44.26 101.51-.1 101.5-.26 101.5Zm51.64 0c-.15 0-.26-45.45-.26-101.5s.11-101.51.26-101.51.26 45.44.26 101.51-.12 101.5-.26 101.5Zm51.64 0c-.15 0-.26-45.45-.26-101.5s.11-101.51.26-101.51.26 45.44.26 101.51-.12 101.5-.26 101.5Z"/><path fill="#e0e0e0" d="M404.21 76.19c0 .14-70 .26-156.37.26s-156.37-.12-156.37-.26 70-.26 156.37-.26 156.37.12 156.37.26Zm0 34.81c0 .15-70 .26-156.37.26s-156.37-.11-156.37-.26 70-.26 156.37-.26 156.37.12 156.37.26Zm0 34.82c0 .14-70 .26-156.37.26s-156.37-.08-156.37-.26 70-.26 156.37-.26 156.37.11 156.37.26Zm0 34.81c0 .14-70 .26-156.37.26s-156.37-.12-156.37-.26 70-.26 156.37-.26 156.37.12 156.37.26Zm0 34.81c0 .15-70 .26-156.37.26s-156.37-.11-156.37-.26 70-.26 156.37-.26 156.37.12 156.37.26Z"/><path fill="#cd5c5c" d="M367.33 232.41a26 26 0 0 1-2.63-3.41c-1.65-2.3-4.06-5.71-7.15-10.14-6.17-8.84-15.05-21.72-26.05-37.76h1.5l-23.18 33.59a1.09 1.09 0 0 1-1.51.27 1 1 0 0 1-.34-.38l-53.48-102.3 2.15.24-5.64 6.78-25 29.7a1.27 1.27 0 0 1-2.17-.35c-10.37-26-20.06-50.33-28.71-72l1.91.27-27.77 34.7a.92.92 0 0 1-1.29.15 1.13 1.13 0 0 1-.24-.3c-9.55-18.32-17.24-33.17-22.5-43.46-2.63-5.15-4.65-9.15-6-11.88q-1-2.06-1.5-3.12a4.19 4.19 0 0 1-.43-1.11 4.19 4.19 0 0 1 .67 1c.4.67 1 1.68 1.73 3 1.5 2.65 3.66 6.58 6.43 11.65 5.54 10.15 13.47 24.87 23.23 43.08l-1.54-.14 27.47-34.94a1.12 1.12 0 0 1 1.57-.18 1.15 1.15 0 0 1 .34.45c8.75 21.68 18.54 46 29 71.93l-2.18-.35L249 117.62l5.68-6.77a1.3 1.3 0 0 1 1.83-.17 1.71 1.71 0 0 1 .32.4c19.61 37.88 37.83 73.06 53.07 102.48l-1.86-.12 23.49-33.36a.88.88 0 0 1 1.24-.21.84.84 0 0 1 .23.23c10.81 16.17 19.46 29.2 25.39 38.22 3 4.5 5.23 8 6.75 10.39a28.89 28.89 0 0 1 2.19 3.7Z"/><path fill="#cd5c5c" d="M368.69 207.13c.7 0 .67 11.31-.06 25.35a1.3 1.3 0 0 1-1.37 1.23 1.17 1.17 0 0 1-.27 0l-.78-.21c-13.94-3.76-25.08-7.37-24.89-8.06s11.68 1.75 25.57 5.56l.77.21-1.66 1.13c.8-14.04 2-25.25 2.69-25.21Z"/><path fill="#263238" d="M364.92 411.93h70.81v9.73h-70.81z"/><path fill="#263238" d="M435.85 421.78H364.8v-10h71.05Zm-70.85-.25h70.57v-9.48H365Z"/><path fill="#263238" d="m371.49 418.42 10.19 50.28h37.71l9.85-47.05-57.75-3.23z"/><path fill="#455a64" d="m371.49 463.94 5.43 7.48h45.84l6.48-7.48h-57.75z"/><path fill="#263238" d="M397.66 419.89c-.13 0-.31-23.3-.39-52s0-52 .1-52 .32 23.29.4 52 .03 52-.11 52Zm15.78-58.3a2.66 2.66 0 0 1-.19.54c-.17.4-.38.9-.63 1.51-.15.33-.3.7-.47 1.09s-.3.85-.47 1.32l-.54 1.52c-.19.53-.34 1.12-.53 1.73a70.52 70.52 0 0 0-2 8.66 106.1 106.1 0 0 0-1.09 10.85 144.75 144.75 0 0 0 .56 19.8c.22 2.53.45 4.57.62 6 .07.66.13 1.2.18 1.63a2.05 2.05 0 0 1 0 .57 2.42 2.42 0 0 1-.13-.56l-.27-1.61c-.23-1.41-.52-3.45-.79-6a131.06 131.06 0 0 1-.71-19.87 100.75 100.75 0 0 1 1.14-10.89 66 66 0 0 1 2.1-8.7c.2-.61.36-1.19.56-1.73s.4-1 .59-1.51.35-.91.51-1.31.35-.76.51-1.08l.72-1.47a2.39 2.39 0 0 1 .33-.49Z"/><path fill="#263238" d="M411.63 342.75a5.11 5.11 0 0 1-.23.77c-.18.54-.43 1.26-.73 2.17-.17.47-.35 1-.55 1.56s-.36 1.21-.57 1.88c-.41 1.35-.89 2.88-1.32 4.6-.22.86-.46 1.76-.71 2.69s-.43 1.93-.66 2.95c-.5 2-.85 4.23-1.31 6.53-.78 4.63-1.47 9.74-1.94 15.14s-.64 10.55-.71 15.25 0 8.92.24 12.47c.06 1.77.17 3.37.26 4.78s.17 2.62.26 3.61.13 1.72.18 2.28a4.38 4.38 0 0 1 0 .8 5.66 5.66 0 0 1-.12-.79c-.07-.56-.16-1.32-.27-2.27s-.24-2.2-.35-3.61-.25-3-.34-4.78c-.24-3.55-.33-7.79-.35-12.5s.23-9.87.68-15.29 1.18-10.54 2-15.17c.47-2.31.85-4.51 1.36-6.54.24-1 .47-2 .7-2.95s.5-1.83.74-2.69c.45-1.73.95-3.25 1.4-4.6.21-.67.42-1.29.61-1.87s.4-1.08.58-1.55c.35-.89.62-1.6.83-2.14a4.43 4.43 0 0 1 .32-.73ZM393.19 424a.82.82 0 0 1 0-.28c0-.21 0-.47-.07-.8l-.21-3.08c-.17-2.72-.41-6.59-.71-11.35-.61-9.58-1.5-22.81-3.11-37.36-.83-7.28-1.78-14.19-2.78-20.46-.52-3.12-1-6.1-1.55-8.87s-1-5.35-1.52-7.69-1-4.46-1.41-6.32-.8-3.46-1.13-4.76-.56-2.28-.74-3q-.1-.48-.18-.78a.83.83 0 0 1 0-.28 1.1 1.1 0 0 1 .09.26l.23.77c.2.72.47 1.72.83 3s.78 2.88 1.22 4.74 1 4 1.47 6.31 1.08 4.92 1.6 7.7 1.05 5.74 1.59 8.87c1 6.27 2 13.19 2.82 20.47 1.61 14.57 2.44 27.81 3 37.4.26 4.79.44 8.67.55 11.36.05 1.31.08 2.34.11 3.09v.8c0 .21-.1.26-.1.26Z"/><path fill="#cd5c5c" d="M397.09 327c-.31-3.3-3.65-5.79-7-5.82s-6.4 2-8.43 4.57a26.53 26.53 0 0 0-4.06 9c-2.23 7.78-3.45 15.95-2.5 24s4.22 15.94 10 21.62c.94.92 2.15 1.84 3.44 1.57a4.15 4.15 0 0 0 1.81-1.12A53.66 53.66 0 0 0 407.78 340c-.09-3.06-.49-6.24-2.18-8.78S400 326 397.09 327m-24.75-26.4q-2.34 4.23-4.67 8.45c-.11.2-.25.42-.48.44s-.42-.21-.56-.42q-6.17-9.46-12.34-18.94l2.84-1.61Z"/><path d="M372.34 300.6q-2.34 4.23-4.67 8.45c-.11.2-.25.42-.48.44s-.42-.21-.56-.42q-6.17-9.46-12.34-18.94l2.84-1.61Z" opacity=".2"/><path fill="#cd5c5c" d="M397.37 315.83 355.27 291a2 2 0 0 1-1-1c-.17-.62.3-1.23.75-1.69a29.05 29.05 0 0 1 22.5-8.84 25.7 25.7 0 0 1 20.33 12.65c4.07 7.26 4.2 16.86-.46 23.75"/><path fill="#263238" d="M361.34 283.06a3.06 3.06 0 0 1 .55-.07c.37 0 .9-.08 1.59-.07a30.86 30.86 0 0 1 5.85.46A34.11 34.11 0 0 1 396.57 308a32.07 32.07 0 0 1 1.05 5.76c.07.69 0 .87.06 1.23a2.18 2.18 0 0 1-.32.92 7.39 7.39 0 0 0 .06-2.13 34.59 34.59 0 0 0-28.16-30.09 36 36 0 0 0-5.78-.62c-1.37.01-2.14.04-2.14-.01Z"/><path fill="#263238" d="M391.67 298.69a10 10 0 0 1-2.12 1c-1.35.52-3.22 1.2-5.32 1.87s-4 1.19-5.41 1.53a9.54 9.54 0 0 1-2.3.44 11.48 11.48 0 0 1 2.2-.78l5.36-1.68 5.35-1.72a11.14 11.14 0 0 1 2.24-.66Zm-6.62-17.81a18.19 18.19 0 0 1 .49 4.7 17.45 17.45 0 0 1-.26 4.71 30.41 30.41 0 0 1-.24-4.7 28.58 28.58 0 0 1 .01-4.71Zm-30.14 9.64a18.51 18.51 0 0 1 3-1.07c1.92-.59 4.58-1.34 7.55-2.06s5.68-1.26 7.65-1.61a18.77 18.77 0 0 1 3.22-.43 22.79 22.79 0 0 1-3.15.78c-2 .44-4.64 1-7.6 1.75s-5.63 1.41-7.57 1.91a22.14 22.14 0 0 1-3.1.73Z"/><path fill="#cd5c5c" d="M379.61 319.87c-3.62-2.74-7.44-3.28-12-3.1a36.78 36.78 0 0 0-13.13 3.38c-7.1 3.11-13.77 7.69-18 14.18s-5.72 15.07-2.54 22.14a3.19 3.19 0 0 0 1.44 1.75 3.38 3.38 0 0 0 2.37-.19c8.08-2.63 16.21-5.29 23.63-9.41s14.18-9.86 18.16-17.36a14.93 14.93 0 0 0 1.92-5.76 7.2 7.2 0 0 0-1.86-5.63"/><path fill="#263238" d="M379.69 319a3 3 0 0 1-.58.24l-1.7.58-1.22.41c-.45.16-.92.36-1.43.55-1 .42-2.21.83-3.46 1.44l-2 .9c-.68.31-1.37.7-2.1 1.07-1.46.72-2.94 1.64-4.52 2.57a71.41 71.41 0 0 0-17.81 15.67c-1.12 1.45-2.22 2.8-3.12 4.16-.46.67-.93 1.3-1.34 1.94l-1.14 1.85c-.76 1.16-1.32 2.29-1.86 3.25-.27.48-.52.93-.74 1.35l-.56 1.16c-.32.66-.59 1.19-.79 1.6a3 3 0 0 1-.31.55 2.57 2.57 0 0 1 .22-.59l.7-1.65.53-1.18c.2-.43.45-.88.7-1.37.52-1 1.06-2.12 1.8-3.3l1.13-1.88c.39-.65.86-1.29 1.32-2 .89-1.38 2-2.75 3.1-4.21a68.93 68.93 0 0 1 17.93-15.77c1.59-.93 3.09-1.84 4.57-2.55.74-.36 1.43-.74 2.12-1l2-.88c1.26-.59 2.46-1 3.5-1.37.52-.19 1-.37 1.45-.52l1.24-.37 1.73-.49a2.43 2.43 0 0 1 .64-.16Zm-28.29 15.34a85.69 85.69 0 0 1-8.81 2.83 85 85 0 0 1-8.95 2.36 82.36 82.36 0 0 1 8.81-2.84 83.33 83.33 0 0 1 8.95-2.35Z"/><path fill="#263238" d="M351 353.77a13.92 13.92 0 0 1-.2-2.74v-6.63c0-2.63.21-4.93.35-6.63a14.34 14.34 0 0 1 .35-2.72 15.63 15.63 0 0 1 0 2.74c-.06 1.86-.13 4.12-.2 6.62s-.12 4.76-.17 6.62a15.44 15.44 0 0 1-.13 2.74Zm16.69-8.48c-.14 0-.58-4.76-1-10.64s-.63-10.67-.49-10.68.58 4.75 1 10.64.63 10.67.49 10.68Z"/><path fill="#263238" d="M347 323.51a15.7 15.7 0 0 1 2.83-.09c1.74 0 4.14.06 6.79.15s5.06.2 6.79.3a15.56 15.56 0 0 1 2.82.27 15.54 15.54 0 0 1-2.82.09c-1.74 0-4.15-.07-6.8-.15s-5.06-.2-6.8-.3a16.56 16.56 0 0 1-2.81-.27Zm39.93 57.98a2.05 2.05 0 0 1-.06-.56c0-.43-.05-1-.08-1.62-.06-1.41-.08-3.45 0-6s.21-5.52.52-8.83.8-6.95 1.48-10.74 1.53-7.35 2.39-10.58 1.79-6.08 2.63-8.46 1.57-4.29 2.13-5.59l.64-1.49a2.87 2.87 0 0 1 .25-.51 2.27 2.27 0 0 1-.16.55c-.14.39-.33.9-.55 1.52-.5 1.32-1.18 3.24-2 5.63s-1.66 5.26-2.52 8.47-1.65 6.78-2.34 10.55-1.17 7.39-1.52 10.69-.53 6.29-.63 8.8-.14 4.54-.13 5.95v1.62a3 3 0 0 1-.05.6Z"/><path fill="#263238" d="M389.15 353.93a11.72 11.72 0 0 1-1.68 1.84c-1.09 1.09-2.64 2.55-4.4 4.09s-3.42 2.89-4.64 3.83a10.68 10.68 0 0 1-2 1.42 13.08 13.08 0 0 1 1.82-1.7c1.29-1.12 2.83-2.45 4.52-3.93s3.21-2.83 4.49-4a13.32 13.32 0 0 1 1.89-1.55Zm13.32 10.73a19.85 19.85 0 0 1-1.79-2.47l-4.16-6.08c-1.61-2.28-3.07-4.34-4.24-6a17.47 17.47 0 0 1-1.7-2.54 18.78 18.78 0 0 1 2 2.33c1.17 1.48 2.73 3.57 4.38 5.94s3.06 4.55 4 6.16a16.69 16.69 0 0 1 1.51 2.66Zm-6.98-33.75c.08.11-4.35 3.09-9.88 6.65s-10.09 6.35-10.16 6.23 4.35-3.09 9.88-6.65 10.09-6.35 10.16-6.23ZM408 344.38a82 82 0 0 1-6.69-6.19 85.66 85.66 0 0 1-6.35-6.55 81.1 81.1 0 0 1 6.7 6.19 82.06 82.06 0 0 1 6.34 6.55Z"/><path fill="#cd5c5c" d="m411.11 344.11 3.8-.32a18.65 18.65 0 0 0 7.67-2.35 30.65 30.65 0 0 1 3.58-1.79c4.7-1.89 9.94-1.55 15-1.81a62 62 0 0 0 23.85-6.1 2.26 2.26 0 0 0 1-.94c.78-1.42-.67-2.69-1.92-3.45-6.4-4-12.92-7.94-20.17-9.9s-15.51-1.63-21.7 2.63c-7.27 5-9.92 15.29-11.15 24"/><path fill="#263238" d="M466.13 330.33a3.16 3.16 0 0 1-.64-.3l-1.8-.94c-1.56-.82-3.81-2-6.65-3.39a62.28 62.28 0 0 0-10.3-4 34 34 0 0 0-13.35-1.08 22.8 22.8 0 0 0-12.16 5.22 27.06 27.06 0 0 0-6.34 8.9c-1.33 2.85-2.15 5.27-2.75 6.93l-.68 1.91a3.15 3.15 0 0 1-.27.66 6.86 6.86 0 0 1 .17-.69c.15-.49.35-1.14.59-1.95a63.54 63.54 0 0 1 2.62-7 26.91 26.91 0 0 1 6.35-9.1 23 23 0 0 1 12.41-5.37 33.85 33.85 0 0 1 13.53 1.13 59.4 59.4 0 0 1 10.33 4.09c2.84 1.41 5.06 2.67 6.59 3.55l1.76 1a4.3 4.3 0 0 1 .59.43Z"/><path fill="#263238" d="M457 335.24c-.08.11-5.05-3.1-11.1-7.18s-10.89-7.49-10.82-7.6 5.05 3.1 11.1 7.18 10.91 7.48 10.82 7.6Zm-5.29-15.04a19.3 19.3 0 0 1-7.31.6 24.44 24.44 0 0 1 3.65-.37 22.66 22.66 0 0 1 3.66-.23ZM430 317.36a9.52 9.52 0 0 1-1.63 2.55 11.23 11.23 0 0 1-2.06 2.35 9.52 9.52 0 0 1 1.63-2.55 11.23 11.23 0 0 1 2.06-2.35Zm4.41 20.8a12.51 12.51 0 0 1-2.4-1.29c-1.43-.87-3.37-2.15-5.44-3.65s-3.9-2.93-5.22-4a14.26 14.26 0 0 1-2.06-1.77 15.47 15.47 0 0 1 2.28 1.49l5.29 3.85c2.07 1.5 4 2.81 5.35 3.76a17.25 17.25 0 0 1 2.2 1.61Z"/><path fill="#cd5c5c" d="M416.71 360.25c-3.63-1-7.95 2.57-8.7 6.24s.63 7.43 2.25 10.82a55.25 55.25 0 0 0 15 19.61c6.48 5.17 14.61 8.47 22.91 8.43-1.53-7.11.41-14.55-.45-21.78a28.32 28.32 0 0 0-25.09-24.84c-2.31-.25-5-.62-5.91 1.52"/><path fill="#263238" d="M448.16 405.35a2.26 2.26 0 0 1-.51-.24 9 9 0 0 1-1.36-.91 14.15 14.15 0 0 1-3.58-4.78c-.58-1.13-1.22-2.34-1.85-3.69s-1.27-2.8-1.95-4.31a40.7 40.7 0 0 0-2.4-4.61 35.76 35.76 0 0 0-3.3-4.48c-2.48-2.92-5.14-5.44-7.45-7.85a51 51 0 0 1-5.68-6.82 25 25 0 0 1-2.78-5.3c-.23-.67-.4-1.19-.48-1.55a2.15 2.15 0 0 1-.11-.56s.25.74.78 2a27.57 27.57 0 0 0 2.88 5.17 55.13 55.13 0 0 0 5.73 6.7c2.31 2.38 5 4.89 7.5 7.84a35.94 35.94 0 0 1 3.33 4.55 39.85 39.85 0 0 1 2.4 4.67q1 2.29 1.91 4.33c.6 1.34 1.23 2.58 1.79 3.7a14.46 14.46 0 0 0 3.39 4.8c1.06.99 1.77 1.29 1.74 1.34Z"/><path fill="#263238" d="M429.42 399.44a10.76 10.76 0 0 1 .33-2.44c.29-1.49.75-3.54 1.38-5.78s1.3-4.22 1.84-5.64a11 11 0 0 1 1-2.25 14 14 0 0 1-.65 2.37c-.45 1.44-1.07 3.44-1.69 5.66s-1.15 4.25-1.52 5.72a13.44 13.44 0 0 1-.69 2.36ZM447.47 382a15 15 0 0 1-2.55-.59c-1.56-.41-3.72-1-6.12-1.5s-4.58-1-6.17-1.27a15.4 15.4 0 0 1-2.56-.56 12 12 0 0 1 2.62.21c1.6.21 3.81.58 6.23 1.12s4.56 1.16 6.1 1.66a12.7 12.7 0 0 1 2.45.93ZM416 387a14.13 14.13 0 0 1 .39-2.82c.32-1.73.83-4.11 1.51-6.71s1.4-4.92 2-6.58a15.27 15.27 0 0 1 1-2.66 17.38 17.38 0 0 1-.7 2.76c-.48 1.69-1.14 4-1.82 6.61s-1.23 4.95-1.64 6.66A17.6 17.6 0 0 1 416 387Zm23.16-20.25c0 .13-4.54-.23-10.1-.82S419 364.75 419 364.61s4.54.23 10.11.82 10.06 1.18 10.05 1.32Z"/><path fill="#455a64" d="M435.85 421.61c0 .14-15.91.26-35.52.26s-35.53-.12-35.53-.26 15.9-.25 35.53-.25 35.52.12 35.52.25Zm-11.07 20.47c0 .14-10.72.25-23.93.25s-23.94-.11-23.94-.25 10.72-.25 23.94-.25 23.93.11 23.93.25Zm-.42 2.92c0 .14-10.53.25-23.51.25s-23.52-.11-23.52-.25 10.53-.25 23.52-.25 23.51.12 23.51.25Zm.84-5.33c0 .14-11.09.25-24.76.25s-24.75-.11-24.75-.25 11.08-.25 24.75-.25 24.76.11 24.76.25Z"/><path fill="#263238" d="M468.67 471.42c0 .14-97.25.26-217.19.26s-217.21-.12-217.21-.26 97.23-.26 217.21-.26 217.19.11 217.19.26Z"/><path fill="#e0e0e0" d="m221.81 361.4 1.78 109.69h6.14V361.4h-7.92zm76.72-2.18v111.9l5.97.03V359.22h-5.97z"/><path fill="#e0e0e0" d="M223.67 382.09h75.63v6.66h-75.63z"/><rect width="114.06" height="18.86" x="205.97" y="343.56" fill="#455a64" rx="3.75"/><path fill="#ffbe9d" d="m166.31 244.94.59-30 9.32-20.94s1.23-2.21 2.19-1.08-.21 2.51-.21 2.51 2.14-.43 1.8 1.57-1 4.71-1 4.71.43 2.4-1.81 6.63-2.41 6.11-2.41 6.11 2.83 4 5.07 4.92a5 5 0 0 0 5.79-1.28 30.45 30.45 0 0 1 5.55-3.54L194 218s-4.31 4.69-5.12 6.31-3.2 7.73-5.69 9.84-3.09 9.34-3.09 9.34-1.25 7.51-13.79 1.45Z"/><path fill="#eb996e" d="M169.16 216.5a20.54 20.54 0 0 1 1-3c.69-1.82 1.67-4.31 2.79-7.06l1.6-3.87a5.72 5.72 0 0 1 1-1.61 2.83 2.83 0 0 1 1.46-.85 1.74 1.74 0 0 1 1.38.26 1.65 1.65 0 0 1 .62.84c.16.59-.09.89-.1.86a1.77 1.77 0 0 0-.09-.79 1.45 1.45 0 0 0-1.73-.81 2.48 2.48 0 0 0-1.22.78 5.25 5.25 0 0 0-.87 1.51c-.48 1.21-1 2.51-1.56 3.88-1.12 2.74-2.15 5.22-2.93 7a18.43 18.43 0 0 1-1.35 2.86Zm8.02-20.79c.07.06-.74 1-1.7 2.64a43.59 43.59 0 0 0-3 6.94 39.79 39.79 0 0 1-3.06 7 13.27 13.27 0 0 1-1.34 1.9c-.35.42-.56.63-.59.61s.69-1 1.61-2.7a51.24 51.24 0 0 0 2.89-7 34.89 34.89 0 0 1 3.16-7 11.24 11.24 0 0 1 .76-1.09 7.23 7.23 0 0 1 .64-.77c.38-.35.6-.56.63-.53Zm.91 34.17a3.7 3.7 0 0 1-.49-1.69 8 8 0 0 1 3.36-7.48 3.55 3.55 0 0 1 1.6-.76c0 .08-.56.38-1.37 1.05a8.66 8.66 0 0 0-3.22 7.16c.03 1.05.2 1.69.12 1.72Zm-.91 5.46a2.52 2.52 0 0 0 0-.78 14.58 14.58 0 0 0-.57-2.09c-.56-1.76-1.48-4.15-2.33-6.86a20.09 20.09 0 0 1-.9-3.93 4.53 4.53 0 0 1 .22-1.8q.24-.75.45-1.44a4.93 4.93 0 0 0 .21-2.11c-.08-.49-.23-.75-.19-.77a1.38 1.38 0 0 1 .38.73 4.48 4.48 0 0 1 0 2.24c-.11.46-.26.95-.39 1.47a3.9 3.9 0 0 0-.16 1.64 22.06 22.06 0 0 0 .91 3.82c.85 2.68 1.72 5.1 2.2 6.9a10.92 10.92 0 0 1 .41 2.18c0 .54-.21.83-.24.8Z"/><path fill="#cd5c5c" d="m159.92 430.25 1.83 27.56s-27.44 9.11-27.6 14.23l53.61.39-1.08-43.07Z"/><path fill="#fff" d="M178.24 455a2.19 2.19 0 0 1 1.59 2.45 2.1 2.1 0 0 1-2.41 1.6 2.31 2.31 0 0 1-1.67-2.61 2.18 2.18 0 0 1 2.69-1.38m9.32 17.37-.11-4.34-51.78 1.43a3.69 3.69 0 0 0-2 2.91Z" opacity=".6"/><path fill="#263238" d="M160.87 457.57c0 .26 1.33.34 2.64 1.14s2 1.88 2.27 1.77-.2-1.61-1.8-2.55-3.17-.6-3.11-.36Zm-5.55 2.49c0 .26 1.1.67 2 1.75s1.21 2.24 1.47 2.22.38-1.51-.79-2.83-2.68-1.39-2.68-1.14Zm-2.99 6.82c.24.05.57-1.27-.15-2.68s-2-1.94-2.06-1.72.68 1 1.25 2.13.7 2.25.96 2.27Zm8.82-15.64c.12.23 1.31-.16 2.79-.11s2.65.49 2.78.26-1-1.13-2.76-1.17-2.96.78-2.81 1.02Z"/><path d="m160.29 435.71.32 4.91 26.32-1.04-.1-4.43-26.54.56z" opacity=".3"/><path fill="#263238" d="M160.89 445.67a5 5 0 0 0 2.68-.09 12.22 12.22 0 0 0 2.78-.95 12.5 12.5 0 0 0 1.52-.87 3.15 3.15 0 0 0 .79-.65 1.16 1.16 0 0 0 .08-1.4 1.46 1.46 0 0 0-1.17-.56 3.59 3.59 0 0 0-1 .17 9.73 9.73 0 0 0-1.65.62 9.5 9.5 0 0 0-2.43 1.7c-1.21 1.19-1.6 2.18-1.51 2.23s.7-.76 1.94-1.75a10.12 10.12 0 0 1 3.88-1.94c.56-.16 1-.18 1.2.06s.06.14-.05.31a3.18 3.18 0 0 1-.59.48 14.82 14.82 0 0 1-1.39.85 15.15 15.15 0 0 1-2.56 1.07 19.63 19.63 0 0 0-2.52.72Z"/><path fill="#263238" d="M161.24 446a4.32 4.32 0 0 0 .63-2.61 8.8 8.8 0 0 0-1.19-4.53 2.23 2.23 0 0 0-1.75-1.31 1.27 1.27 0 0 0-1.1.79 3.69 3.69 0 0 0-.25 1 5.73 5.73 0 0 0 .06 1.81 6.11 6.11 0 0 0 1.23 2.73c1.09 1.36 2.19 1.64 2.21 1.55s-.85-.61-1.69-1.92a6.21 6.21 0 0 1-.92-2.5 5.37 5.37 0 0 1 0-1.55c.06-.57.26-1 .48-1s.73.41 1 .85a8.72 8.72 0 0 1 .71 1.44 9.44 9.44 0 0 1 .6 2.66c.08 1.59-.17 2.59-.02 2.59Z"/><path fill="#263238" d="M154.3 438.06s-2.09-94.25-.24-105 8.88-22.35 15.55-23.42 66.1-5.27 66.1-5.27H280l-11.3 42.95-54 .49-16.79.39-5.42 89.91Z"/><path fill="#455a64" d="M196.75 334a6.68 6.68 0 0 1 .8 1.89 24.55 24.55 0 0 1 1 9.78 6.07 6.07 0 0 1-.39 2c-.16 0 .27-3.11-.15-6.9s-1.42-6.72-1.26-6.77Z"/><path fill="#455a64" d="M180.58 342.05s.23-.17.69-.38a16.17 16.17 0 0 1 2-.75 9.09 9.09 0 0 1 3.14-.46 7.29 7.29 0 0 1 3.66 1.32c2.27 1.5 4.27 2.9 5.72 3.92a15.49 15.49 0 0 1 2.27 1.76 16.07 16.07 0 0 1-2.48-1.45c-1.5-.95-3.55-2.31-5.79-3.79a7 7 0 0 0-3.41-1.28 9.61 9.61 0 0 0-3 .33c-1.74.45-2.77.86-2.8.78Zm-14.79 94.58c-.15 0-.26-21.4-.26-47.78s.11-47.79.26-47.79.26 21.39.26 47.79-.12 47.78-.26 47.78Zm22.98-122.54c0 .1-1.85.11-4.7.85a23.94 23.94 0 0 0-16.49 14.69c-1.06 2.76-1.28 4.6-1.39 4.58a5.34 5.34 0 0 1 .14-1.29 20.61 20.61 0 0 1 .9-3.41A23.27 23.27 0 0 1 184 314.58a20.79 20.79 0 0 1 3.49-.51 5.23 5.23 0 0 1 1.28.02Zm21.74-2.39a65 65 0 0 1-8.15 1.28 66.8 66.8 0 0 1-8.21.76 65 65 0 0 1 8.15-1.28 66.64 66.64 0 0 1 8.21-.76Z"/><path fill="#cd5c5c" d="m261.86 430.66-2.59 31.52-9.27 24.34a3.23 3.23 0 0 0 2.09 4.25 3.17 3.17 0 0 0 2.91-.53c5.29-4.1 24.66-19.27 24.72-21.58.07-2.69 4.94-33.07 4.94-33.07Z"/><path fill="#fff" d="M252.12 490.77 280 466.53l-.14 1.34a4.86 4.86 0 0 1-1.48 3c-2.25 2.14-8.57 7.9-23.22 19.36a3.2 3.2 0 0 1-3 .52Zm22.47-35.06a2 2 0 0 0-.81 2.49 1.88 1.88 0 0 0 2.46.81 2.06 2.06 0 0 0 .84-2.64 2 2 0 0 0-2.65-.56" opacity=".6"/><path fill="#263238" d="M260.75 477.79c-.18.07-.72-1.65-2.5-2.74s-3.53-.87-3.55-1.07.41-.28 1.16-.31a5 5 0 0 1 2.76.79 5.1 5.1 0 0 1 1.91 2.16c.3.68.3 1.15.22 1.17Zm-2.68 3.98c-.17.12-1.07-1-2.64-1.65s-3-.52-3-.72 1.51-.68 3.29.08 2.52 2.22 2.35 2.29Zm7.42-8.94c-.16.13-1.54-1.61-3.91-2.82s-4.56-1.36-4.55-1.58 2.35-.36 4.87 1 3.75 3.33 3.59 3.4Zm1.59-9.52c-.1.18-1.76-.73-4-1.05s-4.1 0-4.14-.16 1.83-.89 4.25-.52 4.01 1.6 3.89 1.73Zm1-9.23c-.12.17-1.76-1.06-4.15-1.2s-4.19.79-4.29.6.34-.43 1.11-.77a7.05 7.05 0 0 1 6.34.45c.71.45 1.04.84.99.92Zm-3.91-2.96a2.66 2.66 0 0 1 .08-1.19 8.46 8.46 0 0 1 1.27-3 3.72 3.72 0 0 1 1.76-1.58 1.32 1.32 0 0 1 1.43.44 2.12 2.12 0 0 1 .35 1.47 4.59 4.59 0 0 1-4.44 3.8 5.31 5.31 0 0 1-4.9-3.31 1.85 1.85 0 0 1 .07-1.54 1.3 1.3 0 0 1 1.41-.53 4.52 4.52 0 0 1 1.95 1.3 9 9 0 0 1 1.89 2.67 2.67 2.67 0 0 1 .37 1.13 15.19 15.19 0 0 0-2.59-3.45 4.22 4.22 0 0 0-1.74-1.08.67.67 0 0 0-.76.28 1.22 1.22 0 0 0 0 1 4.73 4.73 0 0 0 4.28 2.82 4 4 0 0 0 3.81-3.16 1.58 1.58 0 0 0-.2-1 .72.72 0 0 0-.79-.26 3.43 3.43 0 0 0-1.51 1.32 12 12 0 0 0-1.74 3.87Z"/><path fill="#cd5c5c" d="m247.64 206.14-15.61-5.35-26.64 9.76-2.03 3.74 26.83-2.92 17.45-5.23z"/><path fill="#263238" d="M294.49 320.36s-27.07 2.44-31.55 7-6.25 15.44-7.43 22.47-2.85 91-2.85 91l39 1.13 5.69-90.91s18.15-1.11 21.11-13.33-4.46-33.4-4.46-33.4l-20.49 4.58Z"/><path fill="#455a64" d="M297.66 335.69a73.62 73.62 0 0 1-.12 8.69 73.43 73.43 0 0 1-.64 8.66 71.07 71.07 0 0 1 .12-8.69 71 71 0 0 1 .64-8.66Zm7 .24a8.44 8.44 0 0 1 0 2.53 19.72 19.72 0 0 1-4.91 11 8.24 8.24 0 0 1-1.88 1.7 24.77 24.77 0 0 0 6.79-15.26Zm-50.81 54.23a6.33 6.33 0 0 1 0-.68v-1.91c0-1.73 0-4.13.05-7.06.07-6 0-14.2.61-23.3s2.22-17.29 4.61-22.8a31.77 31.77 0 0 1 1.75-3.63 21 21 0 0 1 1.58-2.6c.47-.64.84-1.16 1.14-1.56a2.9 2.9 0 0 1 .42-.52 2.88 2.88 0 0 1-.34.59l-1.05 1.6a23.24 23.24 0 0 0-1.49 2.63 32.28 32.28 0 0 0-1.67 3.63c-2.29 5.5-3.84 13.65-4.43 22.7s-.6 17.3-.76 23.26c-.07 3-.14 5.39-.22 7.06 0 .79-.07 1.43-.1 1.92a2.54 2.54 0 0 1-.1.67Zm16.01 44.75a1 1 0 0 1 0-.28v-.8c0-.75 0-1.78-.08-3.1-.06-2.69-.09-6.58-.07-11.4.05-9.62.42-22.92 1.48-37.57s2.64-27.87 4-37.4c.68-4.76 1.27-8.61 1.73-11.27.22-1.29.4-2.31.52-3l.15-.79a1.23 1.23 0 0 1 .07-.27.86.86 0 0 1 0 .28c0 .21-.06.47-.1.8-.11.74-.25 1.76-.43 3.07-.4 2.66-.94 6.51-1.56 11.28-1.26 9.54-2.76 22.74-3.84 37.39s-1.49 27.92-1.63 37.54c-.07 4.81-.1 8.7-.09 11.39v3.9c-.14.14-.15.23-.15.23Z"/><path fill="#ffbe9d" d="M231.05 312.16s-13.24 6.83-16.23 9.39a176.66 176.66 0 0 0-12.81 13l-7.69 15.16s.19 8.31.72 10.35 3.56 2.46 3.56.11.21-7.9.21-7.9l3.63-5.34-1.92 5.13s-.54 11 1.49 11.74 2.92-.18 2.92-2.53.22-8.81.22-8.81l3.58-6-.74 6.9s-.85 8.54.21 9.82 3-.85 3-.85 2.57 4.91 3.63.21 1.71-9.61 1.71-9.61l5.77-14.57 5.55-8.92 9.39-3.41s1.91-11.95-6.2-13.87Z"/><path fill="#eb996e" d="M214.5 345.7a18.45 18.45 0 0 1-.79 2.4 44.82 44.82 0 0 0-2.37 11.9 17.48 17.48 0 0 1-.19 2.53A8.93 8.93 0 0 1 211 360a33.36 33.36 0 0 1 2.39-12 9.33 9.33 0 0 1 1.11-2.3Z"/><path fill="#cd5c5c" d="M240.18 206.32s21-1.57 29.16 1.32 21 7.61 23.12 18.39c0 0 11 33.63 12.09 39.93s5.25 26.8 5.25 26.8 6.57 5.52 6.57 11l-39.93 8.93s-30.48 1-40.73-8.41v-6.57a16.7 16.7 0 0 1-3.41-6l-1.58-6.31s-20.23-16.55-22.86-21.8-18.91-31-18.91-31 .79-11 11-16.29 40.23-9.99 40.23-9.99Z"/><path fill="#cd5c5c" d="M207.86 263.6s-.13.52-.37 1.44c-1.88 7.27-10.53 39.61-15.5 41.82-5.61 2.49-17.41 5.92-25.51-4.67s-4.19-58.62-4.19-58.62l19.45-.35.6 18.18 6.66-28.8 20.79 25.06Z"/><path fill="#263238" d="M246.91 205.89a7.38 7.38 0 0 1 .08 1.33c0 .94 0 2.19.07 3.74-1.27 4.67-3.58 12.34-6.27 21-1.66 5.36-3.19 10.34-4.41 14.47l-.27.91-.15-.93a8 8 0 0 0-2.09-4.18 8.87 8.87 0 0 0-3-2.09 10.36 10.36 0 0 0-3.11-.7 3.33 3.33 0 0 1 .85 0 7.85 7.85 0 0 1 2.35.51 9 9 0 0 1 3.14 2.08 8.33 8.33 0 0 1 2.26 4.35h-.42c1.16-4.15 2.66-9.14 4.32-14.5 2.66-8.57 5-16.14 6.48-20.89 0-1.55.05-2.8.07-3.74a8.8 8.8 0 0 1 .1-1.36Z"/><path fill="#263238" d="M240 207.82a7 7 0 0 1-.45 1.25c-.35.89-.81 2-1.35 3.35-1.14 2.82-2.67 6.74-4.28 11.1l-4.09 11.19-1.27 3.39a6.12 6.12 0 0 1-.53 1.21 6.93 6.93 0 0 1 .34-1.28c.3-.91.67-2.06 1.11-3.44 1-2.89 2.33-6.88 3.95-11.25s3.2-8.27 4.43-11.07c.62-1.39 1.13-2.52 1.51-3.28a5.41 5.41 0 0 1 .63-1.17Zm-34.27 17.69c.05 0-.29.51-.56 1.5a8 8 0 0 0 .08 4.26 12.61 12.61 0 0 0 3.38 5.37 56.72 56.72 0 0 0 6.08 5.1 76.81 76.81 0 0 0 10.28 6.4l-.3.22a10.62 10.62 0 0 1 .88-6 9.47 9.47 0 0 1 .85-1.46 2.39 2.39 0 0 1 .39-.46c.05 0-.46.69-1 2a10.89 10.89 0 0 0-.69 5.87l.07.4-.37-.18a69 69 0 0 1-10.4-6.35 54.15 54.15 0 0 1-6.12-5.18 12.81 12.81 0 0 1-3.39-5.61A7.89 7.89 0 0 1 205 227a5.93 5.93 0 0 1 .5-1.1c.13-.28.21-.4.23-.39ZM248.1 280a2.16 2.16 0 0 1-.46-.1 6.64 6.64 0 0 1-1.24-.51 10.53 10.53 0 0 1-3.65-3.26 20.47 20.47 0 0 1-3-6.63 63.39 63.39 0 0 0-2.61-8.43 63 63 0 0 0-4.29-7.7 55.41 55.41 0 0 1-3.53-6.35 21.34 21.34 0 0 1-1.52-4.66 12.52 12.52 0 0 1-.17-1.32 1.46 1.46 0 0 1 0-.46 16.43 16.43 0 0 1 .39 1.74 23.14 23.14 0 0 0 1.66 4.55 60 60 0 0 0 3.59 6.25 57.68 57.68 0 0 1 4.37 7.74 60.5 60.5 0 0 1 2.59 8.51 21 21 0 0 0 2.83 6.55 11 11 0 0 0 3.45 3.3c.98.57 1.61.78 1.59.78Zm27.49 1.07a8.45 8.45 0 0 1-1.54.51c-1 .3-2.48.68-4.3 1.11a118.22 118.22 0 0 1-14.45 2.39 117 117 0 0 1-14.64.55c-1.88-.05-3.39-.13-4.44-.22a9.6 9.6 0 0 1-1.62-.19 9.48 9.48 0 0 1 1.63 0c1.05 0 2.56.06 4.43.06a141.62 141.62 0 0 0 14.58-.7 144.71 144.71 0 0 0 14.43-2.23c1.83-.38 3.31-.71 4.33-.95a11.15 11.15 0 0 1 1.59-.33Zm5.03 16.93a6.82 6.82 0 0 1-1.45.2c-.93.1-2.29.21-4 .31-3.36.2-8 .34-13.14.22s-9.77-.46-13.12-.82c-1.67-.17-3-.34-3.95-.48a7.21 7.21 0 0 1-1.44-.26 7.66 7.66 0 0 1 1.46.06l4 .32c3.34.26 8 .54 13.09.66s9.76 0 13.12-.07l4-.14a9.1 9.1 0 0 1 1.43 0Z"/><path fill="#263238" d="M257.83 299.17a5.43 5.43 0 0 1-1.89-1.42 11 11 0 0 1-2.69-10.68 5.48 5.48 0 0 1 1-2.14c.08 0-.32.84-.63 2.23a11.66 11.66 0 0 0 2.6 10.34c.93 1.08 1.66 1.6 1.61 1.67Zm-27.11-13.77s-.17-.08-.47-.29l-1.28-.94-2-1.5c-.78-.63-1.64-1.33-2.6-2.09a121.84 121.84 0 0 1-13.9-13.35 94 94 0 0 1-11.28-15.63 70.59 70.59 0 0 1-2.67-5.2c-.26-.59-.46-1.07-.63-1.46a2.55 2.55 0 0 1-.19-.52 1.92 1.92 0 0 1 .29.48l.71 1.41c.63 1.23 1.55 3 2.81 5.11a102.17 102.17 0 0 0 11.35 15.46 136.42 136.42 0 0 0 13.74 13.42l2.54 2.14 2 1.57c.5.41.9.75 1.23 1a3 3 0 0 1 .35.39Zm-43.86 15.25s.17-.8.44-2.24a35 35 0 0 0 .58-6.17 53.18 53.18 0 0 0-.79-9.16c-.57-3.42-1.44-7.14-2.43-11a80.65 80.65 0 0 1-2.43-11.08c-.42-3.47-.49-6.61-.56-9.24s0-4.76 0-6.23v-1.7a2.16 2.16 0 0 1 .05-.59 2.36 2.36 0 0 1 .06.59v1.7c.05 1.54.11 3.65.19 6.22s.22 5.76.66 9.19a85.41 85.41 0 0 0 2.47 11c1 3.89 1.84 7.63 2.39 11.08a51.15 51.15 0 0 1 .69 9.24 31.67 31.67 0 0 1-.75 6.2c-.14.73-.34 1.27-.44 1.64a1.92 1.92 0 0 1-.13.55Zm-6-43.28s-.23.16-.67.36a14.15 14.15 0 0 1-1.92.68 21.46 21.46 0 0 1-6.67.84A22.1 22.1 0 0 1 165 258a15 15 0 0 1-1.87-.81c-.43-.22-.66-.36-.64-.39s1 .35 2.63.85a25 25 0 0 0 13.08.4c1.63-.39 2.62-.76 2.66-.68Z"/><path fill="#cd5c5c" d="m266.09 251.44 5.61 45.46-52 17.43 8.72 18.67s66.26-9.14 68.5-14c1.85-4 3.42-14 3.42-14l-.77-56.69s-11.68-37-21.33-33.6-14.07 21.17-12.15 36.73Z"/><path fill="#263238" d="M285 307.36a12.05 12.05 0 0 0-2.32-4.26 15.32 15.32 0 0 0-4.33-3.49 16.8 16.8 0 0 0-6.85-2.15h.08c-5.1 1.52-11.13 3.28-17.41 5.67-9.45 3.35-18.17 5.87-24.39 7.87-3.12 1-5.63 1.83-7.37 2.42l-2 .68a3.34 3.34 0 0 1-.71.2 4.75 4.75 0 0 1 .67-.3c.45-.18 1.11-.45 2-.77 1.72-.65 4.22-1.54 7.33-2.58 6.21-2.13 14.9-4.7 24.32-8.05 6.29-2.39 12.36-4.13 17.46-5.61h.08a17 17 0 0 1 7 2.28 15.56 15.56 0 0 1 4.35 3.65 10.33 10.33 0 0 1 1.8 3.17 5.08 5.08 0 0 1 .25.93 1.31 1.31 0 0 1 .04.34Z"/><path fill="#263238" d="M265.76 240.59c.15 0 1.55 12.65 3.14 28.3s2.76 28.33 2.61 28.35-1.54-12.65-3.13-28.3-2.76-28.34-2.62-28.35Zm31.06.76a5.37 5.37 0 0 1 .22.75l.55 2.18c.24.95.52 2.11.79 3.47s.63 2.9.91 4.62c.64 3.43 1.24 7.55 1.74 12.14s.8 9.66.89 15-.13 10.41-.47 15-.85 8.74-1.39 12.19c-.24 1.73-.54 3.28-.78 4.64s-.48 2.54-.69 3.49-.37 1.64-.49 2.19a4.33 4.33 0 0 1-.21.76 5.63 5.63 0 0 1 .11-.78c.09-.55.22-1.29.39-2.21s.39-2.13.6-3.5.49-2.92.7-4.65c.5-3.45.94-7.57 1.29-12.16s.48-9.66.42-15-.41-10.36-.85-14.95-1-8.69-1.62-12.12c-.26-1.72-.59-3.26-.84-4.63s-.49-2.52-.7-3.48-.34-1.64-.45-2.2a3.7 3.7 0 0 1-.12-.75ZM240.65 331c-.1 0 .1-1.25.07-3.27a21.73 21.73 0 0 0-.33-3.51 23.18 23.18 0 0 0-3-8 23.57 23.57 0 0 0-2.05-2.88c-1.29-1.54-2.25-2.35-2.19-2.42s.28.15.72.51a14.68 14.68 0 0 1 1.75 1.67 19.8 19.8 0 0 1 2.18 2.87 21.66 21.66 0 0 1 3.06 8.21 20.53 20.53 0 0 1 .22 3.59 14.28 14.28 0 0 1-.23 2.41 3 3 0 0 1-.2.82Zm40.73-112.44c0 .1-1.26.15-3.22.66a19.5 19.5 0 0 0-3.33 1.2 22.06 22.06 0 0 0-3.71 2.24 22.5 22.5 0 0 0-3.14 3 19.5 19.5 0 0 0-2 2.89c-1 1.75-1.4 3-1.49 2.93a2.67 2.67 0 0 1 .21-.87 6.94 6.94 0 0 1 .37-1 9.89 9.89 0 0 1 .59-1.26 17.5 17.5 0 0 1 2-3 21 21 0 0 1 3.2-3.09 20.76 20.76 0 0 1 3.82-2.26 17.48 17.48 0 0 1 3.44-1.12 12.22 12.22 0 0 1 1.37-.23 6.18 6.18 0 0 1 1.05-.09 2.82 2.82 0 0 1 .84 0ZM259 308.27a10.49 10.49 0 0 1 1.77-8.79c.14.08-.88 1.86-1.36 4.3s-.29 4.47-.41 4.49Z"/><path fill="#fafafa" d="M288.42 224.91h-.22l-.62-.1c-.53-.1-1.31-.21-2.27-.3a31.32 31.32 0 0 0-7.54.14 31.69 31.69 0 0 0-7.29 2c-.9.36-1.61.68-2.1.92l-.56.27c-.13.06-.2.09-.21.08a.7.7 0 0 1 .19-.12l.54-.3a22.6 22.6 0 0 1 2.08-1 29.56 29.56 0 0 1 14.9-2.11c1 .12 1.75.25 2.28.37l.61.14a.64.64 0 0 1 .21.01Zm8.69 19.18h-.31l-.88-.13c-.76-.13-1.88-.29-3.25-.46a76.92 76.92 0 0 0-21.57.4c-1.37.22-2.47.42-3.23.57l-.88.17-.31.05a1.31 1.31 0 0 1 .3-.09l.87-.21c.76-.18 1.86-.4 3.22-.64a73.63 73.63 0 0 1 10.8-1 71.28 71.28 0 0 1 10.82.62c1.37.18 2.48.37 3.24.52l.88.17a1.1 1.1 0 0 1 .3.03Zm3.51 17.58a1.34 1.34 0 0 1-.33 0l-.94-.12c-.81-.12-2-.27-3.44-.43a94.71 94.71 0 0 0-11.43-.57 96 96 0 0 0-11.42.82c-1.45.19-2.62.37-3.43.51l-.93.15a1.38 1.38 0 0 1-.33 0l.32-.08.93-.18c.8-.17 2-.36 3.42-.58a88.72 88.72 0 0 1 11.44-.88 87.46 87.46 0 0 1 11.44.63c1.46.18 2.64.35 3.44.5l.93.16Zm1.02 13.56h-.33l-.94-.06c-.82-.05-2-.12-3.47-.18-2.93-.13-7-.19-11.45 0s-8.5.7-11.4 1.13c-1.45.21-2.62.4-3.43.54l-.93.16h-.32a1 1 0 0 1 .32-.08l.92-.19c.8-.17 2-.38 3.42-.61a107.73 107.73 0 0 1 22.88-1.18c1.46.08 2.65.17 3.46.25l.94.1a1.23 1.23 0 0 1 .33.12Zm-.57 17.91a1.11 1.11 0 0 1-.3-.06l-.86-.2c-.73-.19-1.81-.43-3.14-.71a82 82 0 0 0-10.51-1.48 80.88 80.88 0 0 0-10.62-.07c-1.36.08-2.46.17-3.21.24l-.88.08a1 1 0 0 1-.3 0l.3-.05.87-.12c.75-.1 1.85-.21 3.21-.31A73.35 73.35 0 0 1 296.8 292c1.33.29 2.4.56 3.13.77l.85.24ZM296 319.65s0-.12-.12-.34-.19-.61-.3-1a14 14 0 0 0-.52-1.54c-.24-.59-.46-1.28-.81-2a25.38 25.38 0 0 0-1.17-2.33c-.42-.84-1-1.67-1.55-2.56a36.23 36.23 0 0 0-4.42-5.23 35.08 35.08 0 0 0-5.4-4.21c-.91-.53-1.76-1.06-2.62-1.45a22.59 22.59 0 0 0-2.37-1.07c-.73-.33-1.43-.53-2-.74s-1.12-.35-1.56-.46l-1-.26-.35-.1a1.52 1.52 0 0 1 .36.06l1 .23a14.13 14.13 0 0 1 1.58.42c.6.2 1.31.39 2 .71a24.79 24.79 0 0 1 2.4 1.05c.86.39 1.72.92 2.64 1.45a35.32 35.32 0 0 1 5.45 4.22 35.82 35.82 0 0 1 4.42 5.27c.57.9 1.13 1.74 1.55 2.58a23 23 0 0 1 1.15 2.36c.35.72.56 1.42.79 2a11.87 11.87 0 0 1 .48 1.56l.27 1c.04.26.1.38.1.38Zm-23.78 6.28a1.45 1.45 0 0 1-.05-.27c0-.24-.05-.5-.08-.78-.07-.69-.2-1.67-.4-2.88a49.29 49.29 0 0 0-2.44-9.25 50.75 50.75 0 0 0-4.21-8.6c-.65-1-1.2-1.87-1.59-2.43-.17-.24-.32-.45-.45-.65a2 2 0 0 1-.15-.24 1.32 1.32 0 0 1 .18.21l.48.63c.42.55 1 1.37 1.65 2.4a46 46 0 0 1 6.68 17.9c.18 1.22.29 2.21.33 2.9 0 .29 0 .55.05.79a.92.92 0 0 1 0 .27ZM254.31 329v-.98c0-.63.06-1.54 0-2.67a44.31 44.31 0 0 0-1.19-8.7 43.21 43.21 0 0 0-2.87-8.31c-.47-1-.9-1.83-1.21-2.38l-.36-.63a1.43 1.43 0 0 1-.11-.23 1.07 1.07 0 0 1 .15.21l.39.61a26.73 26.73 0 0 1 1.28 2.36 40.62 40.62 0 0 1 2.93 8.32 40.09 40.09 0 0 1 1.13 8.75 24.78 24.78 0 0 1-.08 2.68c0 .26 0 .5-.07.72a1 1 0 0 1 .01.25Z"/><path fill="#fafafa" d="M293.32 311.74a92.58 92.58 0 0 1-9.2 4.15A226.54 226.54 0 0 1 261 323.5c-9.19 2.52-17.61 4.38-23.76 5.47s-10 1.49-10 1.49l.7-.12 2-.28c1.73-.26 4.22-.65 7.28-1.23 6.14-1.13 14.55-3 23.73-5.53a238.76 238.76 0 0 0 23.15-7.55c1.46-.57 2.77-1.08 3.9-1.59s2.13-.89 2.91-1.28l1.81-.85ZM284.49 220s1.52 5 3.38 13.15c1 4.09 1.9 9 2.88 14.45s1.8 11.5 2.5 17.87 1.09 12.45 1.32 18 .21 10.54 0 14.74c0 1-.06 2-.11 3s-.13 1.82-.18 2.66c-.1 1.66-.22 3.09-.36 4.26s-.22 2-.29 2.68-.12.93-.12.93 0-.32.08-.93.14-1.56.25-2.69.23-2.6.32-4.26c.05-.83.11-1.72.17-2.66s.06-1.94.1-3c.17-4.19.1-9.18-.06-14.72s-.67-11.62-1.34-18-1.57-12.39-2.48-17.86-1.9-10.36-2.84-14.45c-.43-2-.88-3.89-1.28-5.51s-.73-3-1-4.14-.51-2-.68-2.61-.26-.91-.26-.91Zm-6.89 79.69a5.41 5.41 0 0 1-.52.28l-1.53.78c-1.34.65-3.29 1.57-5.73 2.63-4.87 2.15-11.71 4.88-19.3 7.75S236 316.45 231 318.2l-6 2-1.63.54-.57.17.56-.21 1.61-.58 5.94-2.1c5-1.78 11.94-4.27 19.54-7.13s14.44-5.57 19.32-7.68c2.45-1.05 4.4-1.94 5.75-2.57l1.55-.74Zm-6.54-77.31c.06 0 2.28 17.55 5 39.21s4.81 39.24 4.75 39.24-2.28-17.54-5-39.21-4.81-39.23-4.75-39.24Z"/><path fill="#fafafa" d="M234.94 332.09a1.26 1.26 0 0 1-.06-.21c0-.2-.08-.4-.12-.62-.1-.54-.26-1.32-.48-2.27a51.8 51.8 0 0 0-5.51-14.21c-.48-.86-.88-1.54-1.17-2l-.33-.54a.92.92 0 0 1-.1-.2.85.85 0 0 1 .14.17c.11.17.23.34.36.52.31.45.73 1.13 1.23 2a47.89 47.89 0 0 1 5.53 14.27c.2 1 .34 1.75.41 2.29l.09.63a.92.92 0 0 1 .01.17Zm2.7-70.34h-1.34c-.83 0-2 .07-3.53.09-3 0-7.11-.05-11.65-.38s-8.64-.85-11.59-1.32c-1.47-.23-2.66-.43-3.48-.59l-.94-.18-.33-.08a1.16 1.16 0 0 1 .33 0l.95.14 3.5.53c3 .42 7 .92 11.57 1.26s8.66.42 11.64.43h4.83Zm29.73-4.17-.28.1-.82.23c-.71.2-1.75.46-3 .76-2.57.61-6.15 1.34-10.15 1.91s-7.64.87-10.28 1c-1.32.07-2.39.1-3.13.11h-1.15.3l.85-.05 3.12-.18c2.64-.17 6.27-.5 10.26-1.07s7.57-1.27 10.15-1.84l3.05-.7.83-.19Zm-36.82-6.89a1.35 1.35 0 0 1-.35 0h-4.71a83.92 83.92 0 0 1-12.16-1.3 85.59 85.59 0 0 1-11.85-3c-1.48-.51-2.67-.94-3.48-1.27l-.94-.38-.32-.15.34.11.95.34c.82.31 2 .72 3.5 1.21a90.38 90.38 0 0 0 24 4.34c1.56.07 2.83.1 3.71.1h1Zm34.8-8.29s-7.17 1.81-16 3.93-16 3.79-16.07 3.73 7.16-1.82 16-3.93 16.05-3.79 16.07-3.73Zm-.46-14.69h-.23l-.66.08-2.44.3c-2.05.26-4.88.69-8 1.33s-5.86 1.38-7.85 2l-2.36.7-.64.18a1.16 1.16 0 0 1-.22.06s.07 0 .21-.1l.63-.22c.55-.2 1.34-.46 2.34-.76 2-.62 4.75-1.37 7.85-2s5.94-1 8-1.28c1-.11 1.87-.19 2.45-.23h.67a.68.68 0 0 1 .25-.06Zm10.69-9.02a1.11 1.11 0 0 1-.3-.06l-.84-.23c-.73-.21-1.79-.49-3.1-.82-2.63-.66-6.28-1.46-10.37-2.06s-7.82-.88-10.53-1c-1.35-.06-2.45-.09-3.2-.1h-.88a1 1 0 0 1-.3 0h4.39a98.86 98.86 0 0 1 10.55.94 95.88 95.88 0 0 1 10.37 2.13c1.32.35 2.37.65 3.09.88l.83.27Zm-35.96 13.93s-.4-.38-1.08-.92a10.36 10.36 0 0 0-6.34-2.22c-.88 0-1.42.08-1.42 0a1.23 1.23 0 0 1 .37-.09 7.3 7.3 0 0 1 1-.1 9.68 9.68 0 0 1 3.42.54 9.51 9.51 0 0 1 3 1.71 6.65 6.65 0 0 1 .75.73 1.23 1.23 0 0 1 .3.35Zm4.38-11.73s-.26-.47-.74-1.16a10.24 10.24 0 0 0-2.27-2.37 10.49 10.49 0 0 0-2.91-1.52c-.81-.26-1.33-.34-1.32-.38s.13 0 .37 0a6.61 6.61 0 0 1 1 .22 9.37 9.37 0 0 1 5.26 4 6.13 6.13 0 0 1 .49.89 1.21 1.21 0 0 1 .12.32Z"/><path fill="#fafafa" d="M242.85 207.09c.06 0-2.21 7.23-5.06 16.11s-5.21 16.06-5.26 16 2.21-7.22 5.06-16.11 5.21-16.02 5.26-16Zm-27.59 34.82s0-.12-.08-.33a4.68 4.68 0 0 1-.06-.93 7.08 7.08 0 0 1 2.61-5.38 4.94 4.94 0 0 1 .77-.52 1.2 1.2 0 0 1 .31-.15s-.4.27-1 .78a7.65 7.65 0 0 0-2.57 5.27c-.02.78.06 1.25.02 1.26Zm-8.38-7.1s0-.12-.1-.35a4.31 4.31 0 0 1-.1-1 6.74 6.74 0 0 1 3.11-5.62 5.11 5.11 0 0 1 .9-.46c.23-.08.35-.12.36-.1s-.49.21-1.18.68a7.06 7.06 0 0 0-2.16 2.4 7 7 0 0 0-.88 3.1c-.03.83.09 1.35.05 1.35Z"/><path fill="#fafafa" d="M225.34 243.57s-.09 0-.25-.14l-.7-.43-2.53-1.63c-2.13-1.39-5.08-3.29-8.3-5.47a24.49 24.49 0 0 1-4.21-3.51 12.82 12.82 0 0 1-2.48-3.72 9.1 9.1 0 0 1-.75-2.92 5.24 5.24 0 0 1 0-1.11s0 .4.08 1.1a10 10 0 0 0 .8 2.87 13 13 0 0 0 2.49 3.65 25.11 25.11 0 0 0 4.19 3.47l8.26 5.52 2.5 1.68.67.47Zm15.85 32.02a.68.68 0 0 1-.22 0h-.6c-.53 0-1.29.05-2.23.06-1.89 0-4.5 0-7.37-.11s-5.48-.32-7.36-.51c-.94-.09-1.7-.18-2.22-.24l-.6-.09h-.21a1.16 1.16 0 0 1 .21 0h.61l2.22.17c1.88.15 4.48.33 7.35.45s5.48.16 7.36.17h3.06Zm26.81.31a.81.81 0 0 1-.24.06l-.7.12a96.61 96.61 0 0 1-11.23 1.08c-3.38.13-6.45 0-8.66-.08-1.11-.06-2-.12-2.62-.18l-.71-.07h-.25a.81.81 0 0 1 .25 0h.71l2.62.12c2.22.08 5.27.13 8.65 0s6.42-.4 8.62-.64l2.6-.31.71-.08Zm-14.62 17.29h-.2l-.57.09c-.51.07-1.24.15-2.14.23a59.54 59.54 0 0 1-7.09.14 58.92 58.92 0 0 1-7.06-.75c-.89-.16-1.61-.3-2.11-.41l-.56-.14-.2-.06h.2l.58.1c.5.09 1.22.21 2.12.34a67.74 67.74 0 0 0 7 .69 68.57 68.57 0 0 0 7.07-.08l2.14-.16.58-.05Zm14.62-1.44c0 .06-2.87.31-6.41.56s-6.43.41-6.43.36 2.86-.31 6.41-.57 6.43-.41 6.43-.35Zm-18.84 12.68a2.66 2.66 0 0 1-.53 0c-.34 0-.84-.06-1.44-.14a31.29 31.29 0 0 1-4.67-1 30.41 30.41 0 0 1-4.46-1.72c-.55-.27-1-.49-1.28-.66a1.77 1.77 0 0 1-.45-.29l.48.21 1.31.61a38.31 38.31 0 0 0 4.46 1.65 36.89 36.89 0 0 0 4.63 1.06l1.42.21a2.25 2.25 0 0 1 .53.07Z"/><path fill="#fafafa" d="M260.46 283.88s-.31-1.1-.8-3.1-1.17-4.9-1.93-8.5c-1.52-7.21-3.35-17.22-5.16-28.31a48.89 48.89 0 0 1-.58-8.19 29.08 29.08 0 0 1 1.2-7.55A40 40 0 0 1 259 216.7a73 73 0 0 1 5.45-6.8c1.38-1.54 2.18-2.34 2.18-2.34s-.18.22-.54.62L264.5 210a75.29 75.29 0 0 0-5.4 6.84 40.07 40.07 0 0 0-5.73 11.5 29.13 29.13 0 0 0-1.17 7.5 49.61 49.61 0 0 0 .57 8.15c1.81 11.08 3.62 21.1 5.11 28.31.74 3.6 1.39 6.51 1.86 8.51q.33 1.46.54 2.31Zm-.02 12.99a3 3 0 0 1-.35-.35 9.27 9.27 0 0 1-.86-1.06 12.95 12.95 0 0 1-2.26-8.53 9.68 9.68 0 0 1 .22-1.35 2.77 2.77 0 0 1 .13-.48c.05 0-.12.7-.2 1.84a13.72 13.72 0 0 0 2.24 8.44c.64.94 1.11 1.46 1.08 1.49Zm-10 8.42a4 4 0 0 1-.52-1 11.82 11.82 0 0 1-.77-2.65 12 12 0 0 1-.14-2.76 5 5 0 0 1 .16-1.13 9.06 9.06 0 0 1 0 1.14 15 15 0 0 0 .21 2.71 14.81 14.81 0 0 0 .69 2.64 10.35 10.35 0 0 1 .37 1.05ZM240 297.55a3 3 0 0 1-.26-.43 12.2 12.2 0 0 1-.56-1.23 15.54 15.54 0 0 1-1-4.34 15.81 15.81 0 0 1 .27-4.45 10.23 10.23 0 0 1 .35-1.3 2.43 2.43 0 0 1 .18-.47s-.18.69-.38 1.8a16.69 16.69 0 0 0 .74 8.71c.38 1.07.71 1.69.66 1.71Zm.15 9.73a1.54 1.54 0 0 1-.08-.37c0-.25-.1-.6-.15-1-.1-.88-.2-2.11-.24-3.46s0-2.58.06-3.46c0-.44.06-.8.09-1.05a1.17 1.17 0 0 1 .07-.38 12.25 12.25 0 0 1 0 1.43v3.46c0 1.35.11 2.56.18 3.44a10.61 10.61 0 0 1 .07 1.39Zm-27.73-64.89c.05 0 6.14 9.34 13.6 20.92s13.48 21 13.43 21-6.14-9.33-13.6-20.92-13.47-20.97-13.43-21Zm23.77 3.38s.05.14.13.4l.35 1.15c.29 1 .73 2.46 1.3 4.24 1.13 3.57 2.83 8.46 5 13.75s4.41 9.95 6.11 13.28c.85 1.67 1.56 3 2.06 3.93.22.42.41.77.56 1.07s.19.37.19.37l-.22-.35-.6-1.05c-.52-.91-1.25-2.24-2.12-3.9-1.74-3.32-4-8-6.18-13.27s-3.84-10.2-4.94-13.78c-.55-1.79-1-3.25-1.24-4.26l-.31-1.17c-.07-.27-.09-.41-.09-.41ZM218 273.63s-.15-.13-.43-.41l-1.2-1.22c-.53-.53-1.18-1.18-1.88-2s-1.54-1.67-2.37-2.73-1.78-2.17-2.7-3.45-1.89-2.65-2.88-4.12a82.75 82.75 0 0 1-9.75-20.83c-.49-1.7-1-3.31-1.32-4.85s-.68-3-.92-4.29-.42-2.51-.58-3.57-.26-2-.32-2.71l-.16-1.71v-.6s0 .2.08.59.12 1 .2 1.72.18 1.65.36 2.7.31 2.25.6 3.56.54 2.75.94 4.27.85 3.14 1.34 4.84a93 93 0 0 0 4.16 10.72 90.88 90.88 0 0 0 5.57 10.05c1 1.47 1.9 2.88 2.86 4.13s1.83 2.42 2.68 3.46 1.65 1.94 2.34 2.75 1.32 1.47 1.85 2l1.19 1.25Z"/><path fill="#fafafa" d="M206.78 235.93a5.38 5.38 0 0 1-.7-.12l-1.88-.38c-1.59-.32-3.79-.73-6.24-1.11s-4.67-.66-6.28-.84l-1.91-.21-.7-.09a3.87 3.87 0 0 1 .71 0l1.92.15a97.313 97.313 0 0 1 12.53 1.95c.79.17 1.43.33 1.87.44a4.6 4.6 0 0 1 .68.21Zm-2.13 23.96-.17.49c-.14.37-.31.83-.51 1.39-.45 1.2-1 3-1.68 5.16-1.33 4.39-2.64 10.6-4.26 17.41a82.85 82.85 0 0 1-5.72 17 44.87 44.87 0 0 1-2.67 4.74c-.71 1.07-1.14 1.63-1.14 1.63l.27-.43c.18-.29.47-.69.8-1.24a47.73 47.73 0 0 0 2.6-4.76 84.79 84.79 0 0 0 5.65-17c1.62-6.81 3-13 4.33-17.4a61.18 61.18 0 0 1 2.5-6.99Zm-8.86-13.41c.05 0-2.13 6.84-4.88 15.23s-5 15.19-5.09 15.17 2.13-6.84 4.89-15.23 5.02-15.19 5.08-15.17Z"/><path fill="#fafafa" d="M204.91 274.91a1.77 1.77 0 0 1-.16-.27l-.42-.79c-.36-.68-.91-1.66-1.63-2.84a53.14 53.14 0 0 0-14.62-15.69 45.71 45.71 0 0 0-2.72-1.82l-.75-.48c-.17-.11-.26-.17-.25-.18a1.2 1.2 0 0 1 .27.14l.78.45c.67.38 1.62 1 2.76 1.77a50.73 50.73 0 0 1 14.66 15.74c.7 1.19 1.23 2.18 1.57 2.88.14.3.27.56.39.8a2.94 2.94 0 0 1 .12.29Zm-6.6 19.57a1.3 1.3 0 0 1 0-.27v-.78c0-.29 0-.74-.11-1.21s-.1-1-.22-1.6a25.39 25.39 0 0 0-1.06-4.07 26 26 0 0 0-5.2-8.81 26.34 26.34 0 0 0-3-2.89c-.46-.39-.91-.69-1.3-1a10 10 0 0 0-1-.68l-.65-.42-.23-.15a19.63 19.63 0 0 1 3.28 2.1 24.73 24.73 0 0 1 3.1 2.88 25.18 25.18 0 0 1 5.24 8.88 23.48 23.48 0 0 1 1 4.1 19.6 19.6 0 0 1 .15 3.92Zm-13.21 15.26.06-.18.2-.52c.18-.44.42-1.09.71-1.9a51.42 51.42 0 0 0 1.88-6.41 54.06 54.06 0 0 0 1-6.6c.07-.86.13-1.55.15-2l.05-.55v-.19.75c0 .48 0 1.17-.1 2a46.55 46.55 0 0 1-1 6.64 46.06 46.06 0 0 1-1.94 6.42c-.31.8-.58 1.44-.78 1.87l-.23.5c.04.12.01.18 0 .17Zm-12.89-50.63s.14.72.32 2 .39 3.24.56 5.62c.4 4.76.41 11.36 1.16 18.59a62.12 62.12 0 0 0 1.9 10.05 39.84 39.84 0 0 0 3 7.77 31.37 31.37 0 0 0 3.05 4.73c.39.54.76.91 1 1.18s.34.42.34.42-.54-.47-1.36-1.47a30 30 0 0 1-3.11-4.71 39.81 39.81 0 0 1-3.11-7.78 61.53 61.53 0 0 1-1.91-10.09c-.75-7.24-.75-13.84-1.11-18.6-.15-2.37-.33-4.29-.49-5.62-.08-.61-.14-1.11-.19-1.52s-.05-.57-.05-.57Zm-1.33-14.51a3.67 3.67 0 0 1 .16.53c.09.35.2.85.33 1.48a41.24 41.24 0 0 1 .64 4.93 40 40 0 0 1 0 5c0 .64-.08 1.15-.13 1.5a3.56 3.56 0 0 1-.08.55 2.6 2.6 0 0 1 0-.55c0-.48 0-1 .06-1.51 0-1.26 0-3-.09-4.95s-.38-3.68-.59-4.93c-.09-.52-.18-1-.26-1.48a2.66 2.66 0 0 1-.04-.57Z"/><path fill="#fafafa" d="M183.23 266.21a14.79 14.79 0 0 1-3 1.6 18.89 18.89 0 0 1-3.52 1.08 20 20 0 0 1-8.94-.17 18.79 18.79 0 0 1-3.47-1.21 15.66 15.66 0 0 1-2.92-1.71s.08 0 .21.11l.58.34a8.89 8.89 0 0 0 .92.52c.37.18.78.42 1.27.61a20.1 20.1 0 0 0 3.45 1.16 23 23 0 0 0 4.42.56 22 22 0 0 0 4.44-.4 20.57 20.57 0 0 0 3.5-1c.49-.17.91-.4 1.29-.57a8.09 8.09 0 0 0 .94-.48l.59-.32Zm3.15 12.79a7.19 7.19 0 0 1-.62.79 11.55 11.55 0 0 1-2 1.85 17.2 17.2 0 0 1-8.5 2.94 35.31 35.31 0 0 1-9-.64c-1.14-.21-2.06-.4-2.69-.54l-.73-.16-.25-.07a.86.86 0 0 1 .26 0l.73.12 2.71.47a36.78 36.78 0 0 0 9 .58 17.52 17.52 0 0 0 8.44-2.85 12.32 12.32 0 0 0 2.06-1.78c.35-.48.57-.77.59-.71Zm1.16 12.21a7.37 7.37 0 0 1-.34.92 10.5 10.5 0 0 1-1.39 2.28 14.5 14.5 0 0 1-7.35 4.69 25.91 25.91 0 0 1-8.75.7c-1.13-.08-2-.18-2.66-.27l-.72-.1a.79.79 0 0 1-.25-.05 1.29 1.29 0 0 1 .26 0l.72.06c.63.06 1.53.14 2.65.2a26.83 26.83 0 0 0 8.7-.75 14.65 14.65 0 0 0 7.28-4.58 11.45 11.45 0 0 0 1.44-2.22c.27-.56.39-.89.41-.88Zm125.09 5.24c0 .06-2.67 1.19-6 2.52s-6.09 2.39-6.11 2.33 2.68-1.18 6-2.52 6.09-2.38 6.11-2.33Zm-5.45-14.57a2.71 2.71 0 0 1-.68.54 9.28 9.28 0 0 1-1.9.95 8.91 8.91 0 0 1-2.06.5 2.64 2.64 0 0 1-.88 0 21.41 21.41 0 0 0 2.87-.71 22.23 22.23 0 0 0 2.65-1.28ZM304.76 267a5.86 5.86 0 0 1-1.54.25 6 6 0 0 1-1.56 0 5.44 5.44 0 0 1 1.54-.24 6.29 6.29 0 0 1 1.56-.01Zm-2.82-9.36a3.24 3.24 0 0 1-1-.55 3.28 3.28 0 0 1-.85-.72 2.79 2.79 0 0 1 1 .55 3 3 0 0 1 .85.72Z"/><path fill="#fafafa" d="M298.91 248.21s.06.2.15.57.23 1 .38 1.64c.33 1.43.76 3.51 1.22 6.09a140.88 140.88 0 0 1 2 20.34 65.09 65.09 0 0 0 .92 11.2 23.42 23.42 0 0 0 1.44 4.67c.61 1.4 1.31 2.66 1.87 3.84a12.7 12.7 0 0 1 1.58 6 6.48 6.48 0 0 1-.25 1.67 3.69 3.69 0 0 1-.19.56s.06-.2.15-.57a6.8 6.8 0 0 0 .21-1.66 12.85 12.85 0 0 0-1.63-5.89c-.57-1.18-1.27-2.43-1.9-3.84a23.73 23.73 0 0 1-1.47-4.7 64.55 64.55 0 0 1-.94-11.23 146.6 146.6 0 0 0-2-20.33c-.43-2.58-.84-4.66-1.14-6.09-.15-.67-.26-1.22-.35-1.65s-.05-.62-.05-.62Z"/><path d="M182.91 264.43a73.91 73.91 0 0 1 6.73 11.1 29.32 29.32 0 0 1 3 12.54c0 3.47-1.12 7.24-4 9.18a110 110 0 0 0-5.72-32.46m23.24-31.51c0 3.42 2.63 6.2 5.08 8.58 4.82 4.69 10 9.59 16.62 10.91.1-2.77.19-5.53.29-8.3a34.81 34.81 0 0 1 6.53 7.68 39.21 39.21 0 0 0 6.62-14.78 116.88 116.88 0 0 0 2.34-16.14L235.85 246a9.54 9.54 0 0 0-3.13-5.34 5.38 5.38 0 0 0-3.45-1.44 5 5 0 0 0-4.26 3.41 14.86 14.86 0 0 0-.63 5.72 77.51 77.51 0 0 1-18.08-14.74m33.58 73.53a34 34 0 0 1 10.66-4.94c2.85-.75 5.87-1.17 8.34-2.77 2.31-1.49 3.89-3.86 5.4-6.15a21.63 21.63 0 0 0 3.36-6.72 18.43 18.43 0 0 0 .16-5.93c-.52-5.32-1.7-10.54-2.29-15.85S265 254 266.78 249c1.41 16.08 3.32 32.19 4.73 48.27-10.29 3.26-21.07 6.49-31.37 9.75" opacity=".3"/><path fill="#ffbe9d" d="M217.9 177.43c.14-.19 6.18-6.46 10.18 1.08s-4.4 10-4.53 9.79-5.65-10.87-5.65-10.87Z"/><path fill="#eb996e" d="M224.34 184.23h.46a1.43 1.43 0 0 0 1-.5c.64-.71.64-2.33 0-3.71a4.81 4.81 0 0 0-1.36-1.69 1.73 1.73 0 0 0-1.53-.48.76.76 0 0 0-.58.77c0 .26.14.39.1.42s-.22 0-.33-.38a.94.94 0 0 1 0-.63 1.14 1.14 0 0 1 .62-.58 2.09 2.09 0 0 1 2 .44 5 5 0 0 1 1.57 1.86c.76 1.55.74 3.38-.19 4.28a1.55 1.55 0 0 1-1.3.43c-.35-.06-.48-.21-.46-.23Z"/><path fill="#263238" d="M183.9 162.51c-3.7 2.25-7.46 4.54-10.62 9.78-2 3.3-2.34 6.83-2.08 10.67a18.5 18.5 0 0 0 3 8.73c1.67 2.43 2.75 4.19 5.16 5.88"/><path fill="#ffbe9d" d="m238.49 211-22.16-39.6a23 23 0 0 0-30.61-9.18 23 23 0 0 0-9.67 31.31c5.08 9.4 10.67 19.51 13.79 24.41 6.71 10.53 18.34 5.6 18.34 5.6s1.69 3.3 3.81 7.38l15.86 8.78Z"/><path fill="#eb996e" d="M208.18 223.5a29.71 29.71 0 0 0 11.1-12.5s1.5 9.71-9.67 15.32Z"/><path fill="#263238" d="M184.63 198.38a1.78 1.78 0 0 0 2.37.62 1.71 1.71 0 0 0 .72-2.33 1.79 1.79 0 0 0-2.41-.62 1.71 1.71 0 0 0-.68 2.33Zm-3.63-2.71c.31.08.93-1.48 2.56-2.48s3.33-.94 3.39-1.25c0-.14-.38-.37-1.14-.43a4.83 4.83 0 0 0-2.86.75 4.75 4.75 0 0 0-1.89 2.22c-.3.7-.25 1.16-.06 1.19Zm19.55-7.3a1.78 1.78 0 0 0 2.45.63 1.7 1.7 0 0 0 .71-2.33 1.76 1.76 0 0 0-2.4-.62 1.69 1.69 0 0 0-.76 2.32Zm-3.39-2.37c.31.08.94-1.48 2.57-2.48s3.33-.94 3.38-1.25c0-.14-.38-.38-1.14-.43a4.86 4.86 0 0 0-2.86.75 4.66 4.66 0 0 0-1.88 2.22c-.23.74-.23 1.19-.07 1.19Zm1.59 15.79a13 13 0 0 0-2.95 1.21c-.44.21-.89.37-1.13.13a2.44 2.44 0 0 1-.49-1.4c-.23-1.25-.48-2.56-.73-3.93-1.09-5.57-2.16-10-2.38-10s.48 4.59 1.57 10.16c.27 1.37.54 2.68.79 3.92a2.86 2.86 0 0 0 .8 1.77 1.21 1.21 0 0 0 1.06.18 2.91 2.91 0 0 0 .77-.34 12.13 12.13 0 0 0 2.69-1.7Zm4.49 5.74c.29-.12-.62-2 .32-4.1s3-2.89 2.92-3.16-.62-.14-1.47.25a5.21 5.21 0 0 0-2.49 2.53 4.51 4.51 0 0 0-.15 3.38c.32.82.75 1.17.87 1.1ZM201 176.35c-.43-.35-2 .85-4 1.77s-3.94 1.33-4 1.88c0 .27.53.52 1.41.58a7.64 7.64 0 0 0 6.08-2.78c.51-.71.7-1.28.51-1.45Zm-19 10.23c-.54 0-1.08 1.25-2.11 2.46s-2.15 2-2 2.55c.07.24.54.37 1.24.2a4.44 4.44 0 0 0 2.27-1.51 4.36 4.36 0 0 0 1-2.52c.06-.76-.16-1.15-.4-1.18Z"/><path fill="#263238" d="M218.51 174.66s1.14 2.43 1.69 3.62c.2.43 2.63 5.33 1.67 6.23s-3.22 1.05-5.2-.31-6.29-4.87-7.36-7A33.89 33.89 0 0 0 204 169a14 14 0 0 0-8.39-4.64 8.88 8.88 0 0 0-8.51 3.71c-1.06 1.71-1.38 3.78-2.24 5.61a7.47 7.47 0 0 1-3.69 3.82 4.86 4.86 0 0 1-5.1-.72 5.3 5.3 0 0 1-1.05-5.51 12.1 12.1 0 0 1 3.49-4.73 29.26 29.26 0 0 1 14.49-7.49 21.12 21.12 0 0 1 15.74 3.1c5.19 3.65 7.07 6.75 9.8 12.51"/><path fill="#263238" d="M175.66 176.24c-.44-.49-.45-.91-.9-.94s-.77 1-.85 1.46c0 .14-.48 0-.62 0a2.35 2.35 0 0 1-.62-.6c-.19-.41.36-.88.48-1.32a3.44 3.44 0 0 1 .66-1.18 1.11 1.11 0 0 1 1-.53 1.1 1.1 0 0 1 .66.59 2.31 2.31 0 0 1 .31.84 1.23 1.23 0 0 1-.18.86"/><path fill="#eb996e" d="M195.69 223.29s-.12 0-.33-.12a7.77 7.77 0 0 1-.9-.48 13.64 13.64 0 0 1-2.86-2.41c-2.21-2.29-4.5-6-6.77-10.25s-4.41-8-5.9-10.76L177.2 196a7.42 7.42 0 0 1-.58-1.25 7.07 7.07 0 0 1 .75 1.15c.5.84 1.13 1.92 1.88 3.21 1.57 2.72 3.71 6.49 6 10.69s4.49 7.94 6.59 10.25a17.88 17.88 0 0 0 3.85 3.24Z"/><circle cx="82.6" cy="152.26" r="40.65" fill="#fff" transform="rotate(-77.32 82.59 152.255)"/><path fill="#263238" d="M125.8 181.83s-.45.07-1.17.37a5.35 5.35 0 0 0-2.47 2.12 5 5 0 0 0-.76 2.11 4.48 4.48 0 0 0 .44 2.5 4.89 4.89 0 0 0 9.16-.55 4.5 4.5 0 0 0 .14-2.53 5.07 5.07 0 0 0-1-2 5.53 5.53 0 0 0-2.7-1.81c-.76-.21-1.21-.18-1.21-.22s.11 0 .32 0a1.93 1.93 0 0 1 .4 0 2.84 2.84 0 0 1 .52.09 5.29 5.29 0 0 1 2.88 1.78 5.39 5.39 0 0 1 1.1 2.1 4.74 4.74 0 0 1-.12 2.73 5.62 5.62 0 0 1-1.71 2.48 4.93 4.93 0 0 1-6.1.36 5.51 5.51 0 0 1-2-2.26 4.71 4.71 0 0 1-.45-2.69 5.49 5.49 0 0 1 3.49-4.33 2.64 2.64 0 0 1 .52-.15 2.41 2.41 0 0 1 .38-.07 1.17 1.17 0 0 1 .34-.03Zm12.94 12.87s-.28.06-.73.25a3.44 3.44 0 0 0-1.52 1.34 2.86 2.86 0 0 0-.18 2.84 3 3 0 0 0 5.64-.33 2.9 2.9 0 0 0-.52-2.81 3.37 3.37 0 0 0-1.67-1.14c-.47-.14-.75-.13-.75-.17a1.52 1.52 0 0 1 .79 0 3.46 3.46 0 0 1 2.55 2.46 3 3 0 0 1-.07 1.75 3.35 3.35 0 0 1-6.29.38 3 3 0 0 1-.28-1.73 3.46 3.46 0 0 1 .55-1.42 3.43 3.43 0 0 1 1.7-1.33 1.47 1.47 0 0 1 .78-.09Zm-15.09-39.24v-4.1c0-.53-.08-1.11-.12-1.73s-.1-1.3-.16-2a6.16 6.16 0 0 0-.15-1.11q-.11-.57-.21-1.17a38.91 38.91 0 0 0-3.68-11.24 40.74 40.74 0 0 0-9.48-12.41l-1.66-1.45c-.59-.46-1.21-.88-1.83-1.33l-.93-.67a9 9 0 0 0-1-.64l-2-1.18-1-.6-1.1-.5-2.23-1c-.76-.32-1.57-.55-2.36-.84l-1.2-.41c-.2-.06-.4-.14-.6-.19l-.62-.15a38.63 38.63 0 0 0-5.12-1c-.88-.1-1.76-.26-2.65-.31l-2.71-.07c-.46 0-.92-.05-1.37 0l-1.38.1c-.92.08-1.85.11-2.78.23a43.81 43.81 0 0 0-5.57 1.17l-1.39.39-.7.2-.68.27-2.73 1.07c-.9.4-1.77.87-2.66 1.31-.44.24-.91.43-1.33.7l-1.25.8a45.68 45.68 0 0 0-4.93 3.57l-2.26 2.12-.56.54c-.18.19-.35.39-.52.58l-1 1.18-1 1.18-.92 1.28-.93 1.28-.46.65c-.15.22-.27.46-.41.69l-1.61 2.77-1.4 2.93a40.55 40.55 0 0 0-2 25.75l.87 3.11c.39 1 .77 2 1.16 3l.29.74.36.71.72 1.42.71 1.4.84 1.33.84 1.33.42.65.48.62 1.89 2.45a47.34 47.34 0 0 0 4.33 4.29l1.13 1c.37.34.8.6 1.2.9.81.57 1.59 1.18 2.42 1.72l2.54 1.47.63.37c.21.11.44.2.66.31l1.31.6a43 43 0 0 0 5.32 2c.9.26 1.81.44 2.71.66l1.34.31c.45.1.91.13 1.36.2l2.69.35c.9.08 1.79.07 2.67.1a39.09 39.09 0 0 0 5.21-.19l.64-.05c.21 0 .42-.07.63-.1l1.24-.22c.83-.16 1.66-.26 2.46-.46l2.36-.66 1.17-.32 1.12-.43 2.2-.85a10 10 0 0 0 1-.48l1-.52c.67-.35 1.36-.67 2-1l1.87-1.18a40.76 40.76 0 0 0 11.28-10.78c.34-.47.68-.93 1-1.39l.83-1.42.8-1.36c.12-.23.26-.44.38-.67s.21-.46.31-.68c.42-.9.81-1.77 1.19-2.59s.59-1.66.87-2.42l.39-1.13a6.21 6.21 0 0 0 .32-1.07c.17-.7.32-1.36.47-2s.29-1.17.39-1.69.14-1 .19-1.43c.12-.84.21-1.49.27-1.94s.11-.66.11-.66 0 .23-.07.67-.13 1.09-.23 1.94c0 .43-.11.91-.18 1.43s-.24 1.09-.37 1.7l-.45 2a7.55 7.55 0 0 1-.31 1.07c-.13.37-.25.75-.39 1.13-.27.77-.5 1.61-.86 2.44s-.76 1.7-1.18 2.61l-.31.68c-.11.23-.25.45-.38.68l-.79 1.37-.83 1.43c-.31.47-.66.93-1 1.4A41 41 0 0 1 105 186.89l-1.87 1.19c-.66.36-1.35.69-2 1l-1 .53a9.25 9.25 0 0 1-1.06.48l-2.21.87-1.13.43-1.17.33-2.38.67c-.81.2-1.64.31-2.47.47l-1.26.22c-.21 0-.42.08-.63.1l-.65.05a39.6 39.6 0 0 1-5.25.21c-.88 0-1.79 0-2.69-.1l-2.78-.34c-.45-.07-.91-.1-1.37-.19l-1.35-.32c-.91-.22-1.83-.4-2.74-.66a43.58 43.58 0 0 1-5.36-2l-1.33-.61c-.22-.1-.45-.19-.67-.31l-.63-.36-2.56-1.49c-.84-.54-1.63-1.15-2.45-1.73-.4-.3-.83-.57-1.21-.9l-1.14-1a47 47 0 0 1-4.37-4.33l-1.91-2.47-.48-.62-.43-.66-.84-1.35-.85-1.34-.76-1.41-.72-1.43-.36-.71-.3-.75-1.17-3c-.29-1-.59-2.09-.88-3.14a40.92 40.92 0 0 1 2-26c.45-1 .9-2 1.36-3s1.08-1.87 1.62-2.79l.41-.7.47-.65.93-1.3.94-1.28 1-1.2 1-1.18c.17-.2.34-.4.52-.59l.57-.54 2.28-2.14a46.55 46.55 0 0 1 5-3.6l1.28-.81c.43-.27.9-.47 1.34-.71.9-.44 1.78-.92 2.68-1.32l2.76-1.08.69-.26c.23-.08.47-.14.7-.2l1.41-.4a44.77 44.77 0 0 1 5.61-1.17c.94-.12 1.88-.15 2.81-.23l1.39-.1h1.38l2.73.08c.9.06 1.79.21 2.68.32a39.09 39.09 0 0 1 5.15 1l.63.15.61.2 1.2.42c.8.29 1.61.52 2.37.84l2.25 1 1.11.51c.35.19.69.4 1 .6l2 1.2a7.85 7.85 0 0 1 1 .64l.93.68c.62.46 1.25.88 1.84 1.34l1.67 1.47a41 41 0 0 1 9.69 12.58 39 39 0 0 1 3.64 11.31c.07.41.14.8.2 1.18a7.32 7.32 0 0 1 .14 1.11c0 .73.1 1.4.14 2s.1 1.21.11 1.74 0 1 0 1.44c0 .85-.06 1.51-.08 2s-.08.68-.08.68Z"/><path fill="#cd5c5c" d="m76.77 130.5 1.48 23.41a3.8 3.8 0 0 0 3.57 3.55 3.8 3.8 0 0 0 4-3.38l2.6-23.52a3 3 0 0 0-3-3.31l-5.71.08a3 3 0 0 0-2.94 3.17ZM88 170.62a5.71 5.71 0 1 1-3.62-7.22 5.7 5.7 0 0 1 3.62 7.22Z"/></svg>