<svg xmlns="http://www.w3.org/2000/svg" viewBox="0 0 500 500"><ellipse cx="250" cy="370.86" fill="#f5f5f5" rx="243.71" ry="121.02"/><g fill="#e0e0e0"><path d="m106.64 426.92-16.47-9.52-17.08 9.86 2.85-8.26-17.08 3.29 19.92-11.51-63.64-36.7a1.11 1.11 0 0 1 0-2.1l119.61-68.74a4 4 0 0 1 3.64 0l91.31 52.64a1.11 1.11 0 0 1 0 2.1l-119.42 68.94a4 4 0 0 1-3.64 0Z"/><ellipse cx="406.99" cy="377.43" rx="73.47" ry="42.42"/></g><path fill="#cd5c5c" d="M110.29 192.6s-7.78-1.75-13.87-11c-4.89-7.46-4.48-12.64-3.61-13s4.07 1.87 9.62 10.1c2.31 3.39 7.86 13.9 7.86 13.9Zm13.53 11.4c-.77-.5-6.82-7.07-11-15.58-2.21-4.54-2-7.5-.87-7.56.66 0 3.82 2.25 7.16 9.15s5.48 14.48 4.71 13.99Zm-7.98-6c-.69-.65-3.72-1.68-9-2.5-3.55-.56-7.65-1.48-8.1-.38s3.19 3.94 7.31 4.6 10.48-1.05 9.79-1.72Zm13.61 10.12c-.87-.65-7.14-1.24-10-1.49s-6.26 0-7.11 1.28 2.59 3.23 7.49 3.26 10.49-2.4 9.62-3.05Zm6.89 3.32c-.87-.08-4.13-4.32-6.87-8.62s-4.93-10.07-3.1-10.25 4.41 2.47 6.83 7.28c2.68 5.34 4.01 11.67 3.14 11.59Zm6.59 3.35c-.35-.44-4.82.33-9.47.76s-6.58.61-6.89 2 2.22 3.27 7.31 2.3 9.4-4.63 9.05-5.06Z"/><path fill="#e0e0e0" d="M95.08 173.53a96.72 96.72 0 0 0 12.16 16.52A114.79 114.79 0 0 0 122.35 204a70.9 70.9 0 0 0 17.84 10.34c6.46 2.38 13.56 3.66 20.35 2.4a.06.06 0 0 0 .06-.08.06.06 0 0 0-.07-.06 45.29 45.29 0 0 1-19.8-3.65 84.61 84.61 0 0 1-17.67-9.95 113.12 113.12 0 0 1-15.28-13.5 96.06 96.06 0 0 1-12.57-16.09.08.08 0 0 0-.1 0 .07.07 0 0 0-.03.12ZM75.76 97.27c.78-11.13 4.78-13.58 7.4-17.62 3.31-5.11 3.25-8.88 3.25-8.88 1.21 3.15 2 12-2.28 17.1-3.57 4.25-6.91 5.06-8.37 9.4ZM69 82.13c-6.73-1.74-11.64-6.21-13.19-12.77a22.43 22.43 0 0 0-4.88-10C65.2 64.69 68.85 77.16 69 82.13Zm16.36 99.38a31.34 31.34 0 0 1-5.61-8c.13-6.94 2.64-14-.55-20.63-.12-.24-.54-.35-.52 0 .07 2-.9 4.05-1.15 6a30.14 30.14 0 0 0-.28 3.54 12.49 12.49 0 0 0 2.26 6.91c-.11 1.08-.19 2.17-.21 3.25-.75-1.48-1.45-3-2.14-4.48-2.16-4.6-4.16-9.34-6.04-14.1a21.74 21.74 0 0 0 .33-3.16 12.08 12.08 0 0 0-.08-3.12c1.88-1 2.5-3.31 2.73-5.48 2-4.82 2.27-10.53 5.34-14.84a30.3 30.3 0 0 0 2.43-3.09 19.69 19.69 0 0 0 1.83-3.53 17.11 17.11 0 0 0 1-3.56 17.74 17.74 0 0 0 .17-4.12c0-.53-.1-1-.12-1.58a6.76 6.76 0 0 1 0-1.49c0-.28.22-.74-.1-.88-.1-.11-.23-.18-.34 0a5.62 5.62 0 0 0-.7.68c-.23.3-.41.62-.65.9a13.74 13.74 0 0 0-1.25 2c-.74 1.21-1.52 2.38-2.18 3.64-.43.84-.87 1.67-1.23 2.54a8.87 8.87 0 0 0-.58 2.44c0 .47-.07.91-.08 1.38v5.81a2.79 2.79 0 0 0-.07.69 22.91 22.91 0 0 0-1.18 3.32c-.75 2.38-1.55 4.84-2.2 7.31.07-3.93-.67-7.84-1.13-11.73 0-.22-.38-.51-.53-.22-3.31 6.25-4.2 12.62-1.7 19.25a17.36 17.36 0 0 1 0 4.2c0 .46-.14.94-.21 1.43A117.41 117.41 0 0 1 66 138.33c-.3-1.28-.57-2.56-.84-3.83a.16.16 0 0 0 0-.23c0-.05-.06-.07-.09-.12-.26-1.23-.5-2.46-.75-3.68a13.9 13.9 0 0 1 .6-1.75c.73-1.79 1.73-3.44 2.63-5.14a18.19 18.19 0 0 0 1-2.31 19.49 19.49 0 0 0 1.21-5.27c0-.59.06-1.19.11-1.79 0-.38.06-.77.08-1.15a8.74 8.74 0 0 0 .06-1.84c-.09-.67-.6-.17-.81.15-.55.86-1 1.77-1.47 2.67s-1 1.5-1.39 2.3c-.12.23-.26.46-.4.68a2.54 2.54 0 0 1-.36.54c-.09-.1-.09-.35-.12-.47-.06-.3-.13-.6-.18-.9A6.3 6.3 0 0 0 65 115c-.11-.32-.17-.65-.25-1a3.32 3.32 0 0 0-.34-.71 8.3 8.3 0 0 1-.55-1.92 16.15 16.15 0 0 1-.45-4.85v-.67c0-.22-.32-.7-.5-.34a26.72 26.72 0 0 0-2.24 7 18.7 18.7 0 0 0-.49 4.34c0 .61 0 1.2.11 1.81s.23 1.28.38 1.91c.53 2.16 1.72 3.69 2.43 5.74.07 1 .17 2 .32 3.07a7.53 7.53 0 0 0-1.37-1.52 12.58 12.58 0 0 0-2.76-1.58 22.09 22.09 0 0 1-4.42-2.85c-.17-.14-.35 0-.31.21.42 2.14 1 4.39 2.6 6 2 2.07 4.74 2.84 7.1 4.31.34 1.56.71 3.1 1 4.61.6 2.74 1.33 5.45 2.16 8.12a16.93 16.93 0 0 0-9.32-5.7c-.32-.06-.21.34 0 .45 2.89 1.54 3.31 6.12 5.44 8.55a9.25 9.25 0 0 0 2.33 1.89 15.93 15.93 0 0 0 3.84 1.41c.2.54.39 1.09.6 1.63 2.11 5.54 4.52 11 7 16.32a38 38 0 0 0 7.3 11.22c.58.55 1.2-.45.75-.94ZM64.11 114a10.74 10.74 0 0 1 .79 3.49 9.45 9.45 0 0 1-.31 2.24 17.16 17.16 0 0 1-.5 1.69 5.37 5.37 0 0 0-.3.85q-.1.51-.24 1a7.75 7.75 0 0 0-.27 1.08 2.79 2.79 0 0 0 0 1.15 29.16 29.16 0 0 0-1.3-3.11 13.2 13.2 0 0 1-.61-1.58 9.49 9.49 0 0 1-.45-1.49 8 8 0 0 1-.18-1.38v-1.08a11.21 11.21 0 0 1 .14-1.63 40 40 0 0 1 .87-4.05 34.56 34.56 0 0 1 1.15-3.75 14.56 14.56 0 0 0 .34 3.66 23.08 23.08 0 0 0 .87 2.91Zm4 6.14a41 41 0 0 1-1.92 4.6c-.33.72-.73 1.44-1.07 2.18-.19.4-.36.81-.52 1.24a3.24 3.24 0 0 0-.34 1.23 18.08 18.08 0 0 1-.26-5c0-.31.07-.63.11-.94a12.07 12.07 0 0 1 .44-1.67 43 43 0 0 1 1.94-4.39q.38-.81.78-1.59c.51-1 1.08-1.93 1.58-2.91.07-.13.27-.65.44-.71s.16.51.15.64c0 .83-.2 1.66-.27 2.48 0 .33 0 .67-.07 1-.1.71-.29 1.41-.45 2.12a10.17 10.17 0 0 1-.3 1c0 .09-.07.19-.1.29s-.08.29-.12.47Zm-4 13a27 27 0 0 0-3.09-1.61c-2.2-1.18-5.42-3.39-5.56-6.21-.08-1.61.33-.37 1.22.22a18.46 18.46 0 0 0 2.21 1.14c1.88.88 3.78 2 4.71 3.83.19.91.4 1.79.55 2.66Zm14.16-5.24v-1.75c0-.6 0-1.2-.08-1.79a19 19 0 0 1 .2-3c.43-3.49 2.48-6.51 4.38-9.37.16-.23.62-1 1-1.1s.35 2.24.36 2.52a22.2 22.2 0 0 1-.61 5.5 15.5 15.5 0 0 1-1.45 3.84 18.52 18.52 0 0 1-2.26 3.41c-.3.35-.56.66-.81 1a4.64 4.64 0 0 0-.69.77Zm-6.93 19.18c-.78-3.22-1.8-6-1.42-9.44a25 25 0 0 1 2.75-8.64c.54 3.77 1.65 8.81 1 13 0 .22-.1.44-.14.65a8.8 8.8 0 0 1-2.15 4.46Zm-5 4.25a10.07 10.07 0 0 1-4.05-4.33c-.69-1.29-1.14-2.72-1.94-4 0 0-.86-.91-1.25-1.35.75.54 3.22 1.58 3.65 1.84a15 15 0 0 1 5.41 5.25c.43 1.26.86 2.54 1.32 3.79a29.41 29.41 0 0 1-3.08-1.17Zm13.18 17.36a13.89 13.89 0 0 1-1.73-6.92 30.62 30.62 0 0 1 .71-5.22c.2-.8.46-1.6.6-2.42 1.9 4.73 1.02 9.67.48 14.59Z"/><path fill="#cd5c5c" d="M395.71 192.6s7.78-1.75 13.87-11c4.89-7.46 4.48-12.64 3.61-13s-4.07 1.87-9.62 10.1c-2.31 3.39-7.86 13.9-7.86 13.9ZM382.18 204c.77-.5 6.82-7.07 11-15.58 2.21-4.54 2-7.5.87-7.56-.66 0-3.82 2.25-7.16 9.15s-5.48 14.48-4.71 13.99Zm7.98-6c.69-.65 3.72-1.68 9-2.5 3.55-.56 7.65-1.48 8.1-.38s-3.19 3.94-7.31 4.6-10.48-1.05-9.79-1.72Zm-13.61 10.12c.87-.65 7.14-1.24 10-1.49s6.26 0 7.11 1.28-2.59 3.23-7.49 3.26-10.49-2.4-9.62-3.05Zm-6.89 3.32c.87-.08 4.13-4.32 6.87-8.62s4.93-10.07 3.1-10.25-4.41 2.47-6.83 7.28c-2.68 5.34-4.01 11.67-3.14 11.59Zm-6.59 3.35c.35-.44 4.82.33 9.47.76s6.58.61 6.89 2-2.22 3.27-7.31 2.3-9.4-4.63-9.05-5.06Z"/><path fill="#e0e0e0" d="M410.92 173.53a96.72 96.72 0 0 1-12.16 16.52A114.79 114.79 0 0 1 383.65 204a70.9 70.9 0 0 1-17.84 10.34c-6.46 2.38-13.56 3.66-20.35 2.4a.06.06 0 0 1-.06-.08.06.06 0 0 1 .07-.06 45.29 45.29 0 0 0 19.8-3.65 84.61 84.61 0 0 0 17.67-9.95 113.12 113.12 0 0 0 15.28-13.5 96.06 96.06 0 0 0 12.57-16.09.08.08 0 0 1 .1 0 .07.07 0 0 1 .03.12Zm19.32-76.26c-.78-11.13-4.78-13.58-7.4-17.62-3.31-5.11-3.25-8.88-3.25-8.88-1.21 3.15-2 12 2.28 17.1 3.57 4.25 6.91 5.06 8.37 9.4ZM437 82.13c6.73-1.74 11.64-6.21 13.19-12.77a22.43 22.43 0 0 1 4.88-10c-14.27 5.33-17.92 17.8-18.07 22.77ZM421.3 182.5a38 38 0 0 0 7.3-11.22c2.51-5.35 4.92-10.78 7-16.32.21-.54.4-1.09.6-1.63a15.93 15.93 0 0 0 3.84-1.41 9.25 9.25 0 0 0 2.36-1.92c2.13-2.43 2.55-7 5.44-8.55.18-.11.29-.51 0-.45a16.93 16.93 0 0 0-9.32 5.7c.83-2.67 1.56-5.38 2.16-8.12.32-1.51.69-3.05 1-4.61 2.36-1.47 5.08-2.24 7.1-4.31 1.59-1.61 2.18-3.86 2.6-6 0-.19-.14-.35-.31-.21a22.09 22.09 0 0 1-4.42 2.85 12.58 12.58 0 0 0-2.76 1.58 7.53 7.53 0 0 0-1.37 1.52c.15-1 .25-2 .32-3.07.71-2 1.9-3.58 2.43-5.74.15-.63.29-1.27.38-1.91s.07-1.2.11-1.81a18.7 18.7 0 0 0-.49-4.34 26.72 26.72 0 0 0-2.24-7c-.18-.36-.53.1-.5.34s0 .45.05.67a16.15 16.15 0 0 1-.45 4.85 8.3 8.3 0 0 1-.55 1.92 3.32 3.32 0 0 0-.34.71c-.08.32-.14.65-.25 1a6.3 6.3 0 0 0-.27 1.14c-.05.3-.12.6-.18.9 0 .12 0 .37-.12.47a2.54 2.54 0 0 1-.36-.54c-.14-.22-.28-.45-.4-.68-.42-.8-1-1.5-1.39-2.3s-.92-1.81-1.47-2.67c-.21-.32-.72-.82-.81-.15a8.74 8.74 0 0 0 .06 1.84c0 .38.05.77.08 1.15.05.6.06 1.2.11 1.79a19.49 19.49 0 0 0 1.16 5.28 18.19 18.19 0 0 0 1 2.31c.9 1.7 1.9 3.35 2.63 5.14a13.9 13.9 0 0 1 .6 1.75c-.25 1.22-.49 2.45-.75 3.68l-.09.12a.16.16 0 0 0 0 .23c-.27 1.27-.54 2.55-.84 3.83a117.41 117.41 0 0 1-4.6 14.35c-.07-.49-.16-1-.21-1.43a17.36 17.36 0 0 1 0-4.2c2.5-6.63 1.61-13-1.7-19.25-.15-.29-.5 0-.53.22-.46 3.89-1.2 7.8-1.13 11.73-.65-2.47-1.45-4.93-2.2-7.31a22.91 22.91 0 0 0-1.18-3.32 2.79 2.79 0 0 0-.07-.69v-.72c0-1 0-2.11.05-3.16v-1.93c0-.47 0-.91-.08-1.38a8.87 8.87 0 0 0-.58-2.44c-.36-.87-.8-1.7-1.23-2.54-.66-1.26-1.44-2.43-2.18-3.64a13.74 13.74 0 0 0-1.25-2c-.24-.28-.42-.6-.65-.9a5.62 5.62 0 0 0-.7-.68c-.11-.13-.24-.06-.34 0-.32.14-.13.6-.1.88a6.76 6.76 0 0 1 0 1.49c0 .53-.08 1-.12 1.58a17.74 17.74 0 0 0 .17 4.12 17.11 17.11 0 0 0 1.05 3.56 19.69 19.69 0 0 0 1.83 3.53 30.3 30.3 0 0 0 2.43 3.09c3.07 4.31 3.3 10 5.34 14.84.23 2.17.85 4.47 2.73 5.48a12.08 12.08 0 0 0-.08 3.12 21.74 21.74 0 0 0 .33 3.16c-1.85 4.81-3.88 9.55-6 14.23-.69 1.5-1.39 3-2.14 4.48 0-1.08-.1-2.17-.21-3.25a12.49 12.49 0 0 0 2.26-6.91 30.14 30.14 0 0 0-.28-3.54c-.25-2-1.22-4-1.15-6 0-.38-.4-.27-.52 0-3.19 6.65-.68 13.69-.55 20.63a31.34 31.34 0 0 1-5.61 8c-.56.49.06 1.49.55.99Zm21.51-71.35a14.56 14.56 0 0 0 .34-3.66 34.56 34.56 0 0 1 1.15 3.75 40 40 0 0 1 .87 4.05 11.21 11.21 0 0 1 .14 1.63V118a8 8 0 0 1-.18 1.38 9.49 9.49 0 0 1-.45 1.49 13.2 13.2 0 0 1-.61 1.58 29.16 29.16 0 0 0-1.3 3.11 2.79 2.79 0 0 0 0-1.15 7.75 7.75 0 0 0-.27-1.08q-.13-.51-.24-1a5.37 5.37 0 0 0-.3-.85 17.16 17.16 0 0 1-.5-1.69 9.45 9.45 0 0 1-.31-2.24 11 11 0 0 1 .79-3.49 23.08 23.08 0 0 0 .87-2.91Zm-5.08 8.61c0-.1-.07-.2-.1-.29a10.17 10.17 0 0 1-.3-1c-.16-.71-.35-1.41-.45-2.12 0-.33-.05-.67-.07-1-.07-.82-.26-1.65-.27-2.48 0-.13-.07-.73.15-.64s.37.58.44.71c.5 1 1.07 1.93 1.58 2.91q.41.78.78 1.59a43 43 0 0 1 1.94 4.39 12.07 12.07 0 0 1 .44 1.67c.05.31.09.63.11.94a18.08 18.08 0 0 1-.26 5 3.24 3.24 0 0 0-.34-1.23c-.16-.43-.33-.84-.52-1.24-.34-.74-.74-1.46-1.07-2.18a41 41 0 0 1-1.92-4.6c-.04-.19-.09-.29-.14-.43Zm4.63 10.78c.93-1.86 2.83-2.95 4.71-3.83a18.46 18.46 0 0 0 2.21-1.14c.89-.59 1.3-1.83 1.22-.22-.14 2.82-3.36 5-5.56 6.21a27 27 0 0 0-3.09 1.61c.15-.87.36-1.75.51-2.63ZM427 127.16c-.25-.32-.51-.63-.81-1a18.52 18.52 0 0 1-2.26-3.41 15.5 15.5 0 0 1-1.45-3.84 22.2 22.2 0 0 1-.61-5.5c0-.28-.1-2.62.36-2.52s.79.87.95 1.1c1.9 2.86 3.95 5.88 4.38 9.37a19 19 0 0 1 .2 3c0 .59-.06 1.19-.08 1.79v1.75a4.64 4.64 0 0 0-.68-.74Zm5.47 15.56c0-.21-.1-.43-.14-.65-.65-4.19.46-9.23 1-13a25 25 0 0 1 2.71 8.64c.38 3.45-.64 6.22-1.42 9.44a8.8 8.8 0 0 1-2.16-4.43Zm4.06 9.8c.46-1.25.89-2.53 1.32-3.79a15 15 0 0 1 5.41-5.25c.43-.26 2.9-1.3 3.65-1.84-.39.44-1.23 1.35-1.25 1.35-.8 1.24-1.25 2.67-1.94 4a10.07 10.07 0 0 1-4.11 4.41 29.41 29.41 0 0 1-3.09 1.12Zm-9.68 1.64c.14.82.4 1.62.6 2.42a30.62 30.62 0 0 1 .71 5.22 13.89 13.89 0 0 1-1.73 6.92c-.55-4.92-1.43-9.86.41-14.56Z"/><path d="m95.89 416.35 2.87-1.66a4.67 4.67 0 0 0-2.41-.17c-.76.36-.46 1.83-.46 1.83Z"/><path d="M93.91 414.54a3.49 3.49 0 0 1 5.13 0c2.79 2.56 2.94 5.11 4.1 5.07s1.14-20.51 1.14-20.51l-11 10.25Z"/><path fill="#455a64" d="m209.43 340.11.18-.1-1.77-1-76.07-43.92L20.92 366.8c-1.83 1.06-2.16 2.59-.73 3.41l2.6 1.49 71.11 41.08.5-.37Z"/><path fill="#cd5c5c" d="m103.39 389.41-5.51-1.13v22.05c3.32 1.41 5.43 2.74 5.78 5.52Z"/><path fill="#ebebeb" d="M95.44 410.62 25 370a4.9 4.9 0 0 1-2.21-3.83v-21.79l71.12 41.42s.85 3.07 3.37 4 .6 2 .6 2v18.54c-2.18-.27-2.44.28-2.44.28Z"/><path fill="#37474f" d="M101.94 388.66c-.73-.42-1.3-.45-1.3-.05v.69c0 .76-1.17.72-2.61-.11s-2.61-2.12-2.61-2.88v-.69c0-.4-1-1.28-2.19-2L207.84 318l1.77 1a1.64 1.64 0 0 1 .44.95v.69c0 .76 1.16 2.05 2.59 2.88s2.61.87 2.61.11v-.69c0-.4.57-.37 1.3.05Z"/><path fill="#455a64" d="m209.43 319.1.18-.1-1.77-1-76.07-43.92-110.85 64c-1.83 1.05-2.16 2.58-.73 3.4l2.6 1.49 71.12 42.83Zm5.84 3.16-114.52 66.12 4 3.14 114.15-65.91a4.45 4.45 0 0 0-1.53-2.13Z"/><path fill="#455a64" d="m218.46 355.23.21-.15a.49.49 0 0 0 .13-.12 1.92 1.92 0 0 0 .23-.31.91.91 0 0 0 .11-.16 2.66 2.66 0 0 0 .29-.64 5.79 5.79 0 0 0 .23-.74c.07-.28.12-.56.17-.87a3 3 0 0 0 .06-.52v-20.34a15.71 15.71 0 0 0-1.06-5.77l-114.07 65.91-.48 29.64 114.14-65.91Z"/><path d="M104.76 391.52s89.9-42.08 98.08-45.93c5.4-2.55 4.77 3.83 1 8.76-3 3.94-29.48 26.34-29.48 26.34l29.37-17 14.69-8.48.21-.15a.49.49 0 0 0 .13-.12 1.92 1.92 0 0 0 .23-.31.91.91 0 0 0 .11-.16 2.66 2.66 0 0 0 .29-.64 5.79 5.79 0 0 0 .23-.74c.07-.28.12-.56.17-.87a3 3 0 0 0 .06-.52v-20.32a15.71 15.71 0 0 0-1.06-5.77Z" opacity=".1"/><path fill="#37474f" d="M105.82 397.29h-2.56a11.54 11.54 0 0 0-1.24-5.58 3.41 3.41 0 0 1-2.09.69 6.68 6.68 0 0 1-3.18-1 9.8 9.8 0 0 1-3-2.59c-.05-.08-.11-.15-.15-.23a4.24 4.24 0 0 1-.77-2.19l-67.42-38.95-2.29-1.33-2.93-1.68a1.55 1.55 0 0 1-.89-1.32v-3a1.58 1.58 0 0 0 .89 1.36L28 346l65.25 37.67c1.21.71 2.21 1.59 2.21 2v.69a2.12 2.12 0 0 0 .6 1.21 7.28 7.28 0 0 0 2 1.67c1.45.83 2.61.87 2.61.1v-.69c0-.39.57-.37 1.3.06l1.29.75c1.39.77 2.56 4.31 2.56 7.83Z"/><path fill="#37474f" d="M103.26 397.29V417l-.07.64a.17.17 0 0 1 0 .07c-.23-2-2.17-3.85-3.86-4.81a6.5 6.5 0 0 0-3.12-1 3.37 3.37 0 0 0-2.28.85l-.23-.13-.45-.27L28 374.7l-3.74-2.15-1.07-.63-3.19-1.83a1.5 1.5 0 0 1-.7-1.22v3A1.45 1.45 0 0 0 20 373l1.16.68.73.42c.43.24.85.5 1.25.73s.54.32.78.44l.55.32 1 .57 51.83 29.9 16.54 9.56c1.18.69 2.14.93 2.2.57a.62.62 0 0 0 0-.12v-.67c0-.83 1.16-.83 2.6 0a3.48 3.48 0 0 1 2 2.61v.82a1.22 1.22 0 0 0 .38 1l.39.21.81.48 1 .59a1 1 0 0 0 1.29-.12.45.45 0 0 0 .13-.11 1.39 1.39 0 0 0 .23-.31 1 1 0 0 0 .12-.16 3.76 3.76 0 0 0 .29-.64 5.34 5.34 0 0 0 .23-.74c.06-.28.11-.56.17-.87a4.12 4.12 0 0 0 .06-.52v-20.35Z"/><path d="m218.91 325.61-108.49 62.64-82-47.35c-1.23-.7-1.23-1.85 0-2.56l107.35-62L207.83 318l1.78 1a1.66 1.66 0 0 1 .43.95v.69c0 .76 1.17 2.05 2.6 2.89a1.63 1.63 0 0 0 .23.11l2.39-1.38 1.13.65.16.08.85.49a4.42 4.42 0 0 1 1.51 2.13Z" opacity=".1"/><path fill="#cd5c5c" d="m34.52 341.37 3.26-1.74-3-.71a2.23 2.23 0 0 0-.26 2.45Z"/><path d="m34.52 341.37 3.26-1.74-3-.71a2.23 2.23 0 0 0-.26 2.45Z" opacity=".5"/><path fill="#cd5c5c" d="M121 384.92a7.33 7.33 0 0 1-6.64 0l-74.52-43 111.55-63.36L154 277l74.52 42c1.83 1.06 1.83 2.79 0 3.83Z"/><path fill="#cd5c5c" d="m93 304.69-26 15-16.83-9.72-19.55 11.27v13.06c0 1.71 1.92 4.14 2.62 3.74a18.88 18.88 0 0 1 3.76 1.33 27.88 27.88 0 0 1 5.4 4l59.72-33.43Z"/><path d="m93 304.69-26 15-16.83-9.72-19.55 11.27v13.06c0 1.71 1.92 4.14 2.62 3.74a18.88 18.88 0 0 1 3.76 1.33 27.88 27.88 0 0 1 5.4 4l59.72-33.43Z" opacity=".15"/><path fill="#37474f" d="M41.36 322.81V337l-.23-.14a6.67 6.67 0 0 0-3.18-1 3.28 3.28 0 0 0-2.09.49v-16.72Z"/><path fill="#e0e0e0" d="M45 341.86a4.38 4.38 0 0 0-.94-2.42 7.52 7.52 0 0 0-.92-1.05l-.31-.3-.41-.35-.34-.25a8.73 8.73 0 0 0-.74-.5v-14.12L45 325v-.07Z"/><path d="M30.62 334.3c0 1.71 1.92 4.14 2.62 3.74l2.61-1.7v-10.77l-2.62-4.51-1.42-.51-1.19.69Z" opacity=".4"/><path fill="#ebebeb" d="M117.67 366.87V383a4.48 4.48 0 0 1-2.21-.52l-8.18-4.72L45 341.85v-16.94Z"/><path d="m49.72 335.75 17.43 10.07s-1.81-1.89-8.71-5.83c-6.72-3.83-8.72-4.24-8.72-4.24Z" opacity=".15"/><path fill="#f5f5f5" d="M226.64 306.1v12.22a4.9 4.9 0 0 1-2.21 3.83L128 377.8l-8.16 4.72a4.51 4.51 0 0 1-2.21.52v-14.35Z"/><path fill="#cd5c5c" d="M151.38 257.51 39.83 321.92v1.5c0 .83-1.17 1.13-2.6.3s-2.6-1.86-2.6-3.29l-.14-1.43 113.66-65.62.46-.27a1.46 1.46 0 0 1 .19.69v.69c0 .84 1.2 2.17 2.58 3.02Z"/><path d="M151.38 257.51 39.83 321.92v1.5c0 .83-1.17 1.13-2.6.3s-2.6-1.86-2.6-3.29l-.14-1.43 113.66-65.62.46-.27a1.46 1.46 0 0 1 .19.69v.69c0 .84 1.2 2.17 2.58 3.02Z" opacity=".1"/><path fill="#cd5c5c" d="m114.35 365-72.87-42.13c-.93-.48-1.77-.87-2.13-.68l.48-.27 111.55-64.41 1.31-.76c.72-.41 2.29-.18 3.51.53L228.51 299c1.83 1.06 1.83 2.78 0 3.83L121 365a7.33 7.33 0 0 1-6.65 0Z"/><path fill="#455a64" d="m132.93 286.32.58-.34 1.72 1 11.77-6.79-1.73-1 .58-.34 6.58 3.8-.58.34-1.85-1.06-11.77 6.79 2.22 1.29a5.26 5.26 0 0 0 1.36.53 6.64 6.64 0 0 0 3.15-.32l2.65-.81.63.36-4.77 2.65ZM154 298.46l.58-.33 1.53.88 2.52-3.32-4.29-2.48-5.69 1.49 1.21.7.21.15c.16.12.07.29-.28.48l-4-2.29.58-.33 1.38.79 17.07-4.4 1.6.92-7.27 10.07.65.37a1.27 1.27 0 0 1 .21.15c.16.13.07.29-.28.49Zm8.06-7.27-6.85 1.81 3.77 2.18Zm9.09 17.2a1.28 1.28 0 0 1-.48-.42q-.16-.36.63-1.41l3.73-4.84-10.56 2.81-.43-.25a1.14 1.14 0 0 1-.48-.42q-.17-.35.63-1.41l6.55-8.56-1.08-.62.58-.34 5.85 3.37-.58.34-1.73-1-6 7.4 7.86-2.11 2.61-3.39 5 2.88-.58.34-1.7-1L175 307l12.27-3.57-1.73-1 .58-.33 3.56 2.05-.58.34-1.08-.63-16.47 4.76Z"/><path fill="#fff" d="M111.59 357.48a.81.81 0 0 1-.36-.1l-54.74-31.51a.71.71 0 0 1 0-1.24 3.34 3.34 0 0 0 0-5.79.7.7 0 0 1-.36-.61.73.73 0 0 1 .36-.63l91.39-52.75a.7.7 0 0 1 .71 0 11.53 11.53 0 0 0 11.45 0 .7.7 0 0 1 .71 0l54.65 31.55a.71.71 0 0 1 .35.62.72.72 0 0 1-.35.62 3.34 3.34 0 0 0 0 5.78.72.72 0 0 1 .35.62.71.71 0 0 1-.35.62l-91.3 52.71a.71.71 0 0 1-.72 0 11.49 11.49 0 0 0-11.43 0 .75.75 0 0 1-.36.11Zm-53.45-32.31 53.46 30.77a12.93 12.93 0 0 1 12.13 0l90-52a4.78 4.78 0 0 1 0-6.86l-53.37-30.81a12.94 12.94 0 0 1-12.15 0l-90.1 52a4.78 4.78 0 0 1 0 6.87Z"/><path fill="#cd5c5c" d="m148.61 253.12-.46.27L34.49 319a.9.9 0 0 0-.25-.31l-.38-.22L33 318l-1-.59a1.05 1.05 0 0 0-1.29.12.25.25 0 0 0-.12.11 2.2 2.2 0 0 0-.35.48 3.12 3.12 0 0 0-.29.64 5.34 5.34 0 0 0-.23.74c-.07.28-.12.56-.17.86a3.07 3.07 0 0 0-.06.53v1.42-3.2a6.81 6.81 0 0 1 3.27-5.11l107.53-62.09c1.84-1.06 4.49-1.24 5.92-.42l1.35.79h.05l.58.33a1.09 1.09 0 0 1 .42.51Zm-34.26 131.8-4.5-2.61-67.47-38.95a4.33 4.33 0 0 0-.92-2.42 9.65 9.65 0 0 0-3-2.59 6.68 6.68 0 0 0-3.18-1 3.43 3.43 0 0 0-2.1.69 11.63 11.63 0 0 1-1.18-5.58h-2.56c0 3.53 1.16 7.07 2.59 7.88l1.29.76c.73.42 1.31.45 1.31 0v-.69c0-.77 1.16-.73 2.6.1s2.6 2.12 2.6 2.89v.69c0 .39 1 1.28 2.21 2l65.24 37.67 7.07 4.08a7 7 0 0 0 3.31.78v-3a6.68 6.68 0 0 1-3.31-.7Z"/><path d="m114.35 384.92-4.5-2.61-67.47-38.95a4.33 4.33 0 0 0-.92-2.42 9.65 9.65 0 0 0-3-2.59 6.68 6.68 0 0 0-3.18-1 3.43 3.43 0 0 0-2.1.69 11.63 11.63 0 0 1-1.18-5.58h-2.56c0 3.53 1.16 7.07 2.59 7.88l1.29.76c.73.42 1.31.45 1.31 0v-.69c0-.77 1.16-.73 2.6.1s2.6 2.12 2.6 2.89v.69c0 .39 1 1.28 2.21 2l65.24 37.67 7.07 4.08a7 7 0 0 0 3.31.78v-3a6.68 6.68 0 0 1-3.31-.7Z" opacity=".3"/><path fill="#cd5c5c" d="m114.37 365-4.5-2.61L58 332.44l-16.55-9.56c-1.17-.69-2.13-.93-2.19-.58v.76c0 .83-1.16.83-2.59 0a3.47 3.47 0 0 1-2-2.61v-.82a1.19 1.19 0 0 0-.39-1l-.38-.22c-.23-.12-.51-.29-.82-.47l-1-.59a1.05 1.05 0 0 0-1.29.12.25.25 0 0 0-.12.11 1.39 1.39 0 0 0-.23.31.52.52 0 0 0-.12.17 3.12 3.12 0 0 0-.29.64 5.34 5.34 0 0 0-.23.74c-.07.28-.12.56-.17.86a3.07 3.07 0 0 0-.06.53v11.56H32v-10.87l.06-.63a.1.1 0 0 1 0-.07c.23 2 2.17 3.85 3.86 4.81a6.46 6.46 0 0 0 3.11 1 3.4 3.4 0 0 0 2.29-.85l.23.13.45.27 65.24 37.67 7.07 4.08a6.9 6.9 0 0 0 3.26.75v-2.95a6.85 6.85 0 0 1-3.2-.73Z"/><path d="m114.37 365-4.5-2.61L58 332.44l-16.55-9.56c-1.17-.69-2.13-.93-2.19-.58v.76c0 .83-1.16.83-2.59 0a3.47 3.47 0 0 1-2-2.61v-.82a1.19 1.19 0 0 0-.39-1l-.38-.22c-.23-.12-.51-.29-.82-.47l-1-.59a1.05 1.05 0 0 0-1.29.12.25.25 0 0 0-.12.11 1.39 1.39 0 0 0-.23.31.52.52 0 0 0-.12.17 3.12 3.12 0 0 0-.29.64 5.34 5.34 0 0 0-.23.74c-.07.28-.12.56-.17.86a3.07 3.07 0 0 0-.06.53v11.56H32v-10.87l.06-.63a.1.1 0 0 1 0-.07c.23 2 2.17 3.85 3.86 4.81a6.46 6.46 0 0 0 3.11 1 3.4 3.4 0 0 0 2.29-.85l.23.13.45.27 65.24 37.67 7.07 4.08a6.9 6.9 0 0 0 3.26.75v-2.95a6.85 6.85 0 0 1-3.2-.73Z" opacity=".3"/><path fill="#cd5c5c" d="M229.88 300.91v3a2.29 2.29 0 0 1-1.32 1.89h-.05L128 363.83l-7 4.07a6.86 6.86 0 0 1-3.31.78v-2.95A6.68 6.68 0 0 0 121 365l4.48-2.59 103-59.5a2.28 2.28 0 0 0 1.4-2Z"/><path d="M229.88 300.91v3a2.29 2.29 0 0 1-1.32 1.89h-.05L128 363.83l-7 4.07a6.86 6.86 0 0 1-3.31.78v-2.95A6.68 6.68 0 0 0 121 365l4.48-2.59 103-59.5a2.28 2.28 0 0 0 1.4-2Z" opacity=".2"/><path fill="#cd5c5c" d="M229.88 320.87v3a2.3 2.3 0 0 1-1.32 1.89h-.05L128 383.79l-7 4.08a7 7 0 0 1-3.31.78v-3a6.68 6.68 0 0 0 3.32-.79l4.48-2.59 103-59.5a2.28 2.28 0 0 0 1.39-1.9Z"/><path d="M229.88 320.87v3a2.3 2.3 0 0 1-1.32 1.89h-.05L128 383.79l-7 4.08a7 7 0 0 1-3.31.78v-3a6.68 6.68 0 0 0 3.32-.79l4.48-2.59 103-59.5a2.28 2.28 0 0 0 1.39-1.9Z" opacity=".2"/><path fill="#cd5c5c" d="M52.63 337.43v40.25l5.81-6.71 5.81 13.42v-40.25l-11.62-6.71z"/><path d="M52.63 337.43v40.25l5.81-6.71 5.81 13.42v-40.25l-11.62-6.71z" opacity=".5"/><path fill="#cd5c5c" d="M78.77 389.75v10.92a10.15 10.15 0 0 1-5.06 8.78l-15.27 8.81L73 416.59 70.06 425l15.27-8.81a10.15 10.15 0 0 0 5.06-8.78v-10.95Z"/><path d="M78.77 389.75v10.92a10.15 10.15 0 0 1-5.06 8.78l-15.27 8.81L73 416.59 70.06 425l15.27-8.81a10.15 10.15 0 0 0 5.06-8.78v-10.95Z" opacity=".5"/><path d="m75.39 387.8 17.43 10.07S91 396 84.11 392c-6.71-3.79-8.72-4.2-8.72-4.2Z" opacity=".15"/><path fill="#cd5c5c" d="M454.14 334.29c-26-15-68.26-15-94.3 0-13 7.52-19.49 17.37-19.46 27.22v10.2c0 9.85 6.44 19.7 19.46 27.22 26 15 68.26 15 94.3 0 13-7.52 19.49-17.37 19.47-27.22v-10.2c.02-9.85-6.44-19.7-19.47-27.22Z"/><path d="M454.14 334.29c-26-15-68.26-15-94.3 0-13 7.52-19.49 17.37-19.46 27.22v10.2c0 9.85 6.44 19.7 19.46 27.22 26 15 68.26 15 94.3 0 13-7.52 19.49-17.37 19.47-27.22v-10.2c.02-9.85-6.44-19.7-19.47-27.22Z" opacity=".5"/><ellipse cx="406.99" cy="361.51" fill="#cd5c5c" rx="66.68" ry="38.5"/><ellipse cx="406.99" cy="361.51" opacity=".35" rx="66.68" ry="38.5"/><path fill="#cd5c5c" d="M442.92 328.05c-19.84-11.45-52-11.45-71.86 0-9.92 5.73-14.85 13.24-14.83 20.75v6.75c0 7.51 4.91 15 14.83 20.75 19.85 11.45 52 11.45 71.86 0 9.93-5.73 14.85-13.24 14.84-20.75v-6.75c.01-7.51-4.91-15.02-14.84-20.75Z"/><path d="M442.92 328.05c-19.84-11.45-52-11.45-71.86 0-9.92 5.73-14.85 13.24-14.83 20.75v6.75c0 7.51 4.91 15 14.83 20.75 19.85 11.45 52 11.45 71.86 0 9.93-5.73 14.85-13.24 14.84-20.75v-6.75c.01-7.51-4.91-15.02-14.84-20.75Z" opacity=".15"/><ellipse cx="406.99" cy="348.8" fill="#455a64" rx="50.81" ry="29.34"/><path fill="#37474f" d="M374.39 323.91c-5.93-3.91-95.95-48.55-103.87-52.91s-6.95-11.58-5-14.89 6.92-6 13.84-2.27c4.51 2.42 100.25 60.65 100.25 60.65s3.16 4.34-5.22 9.42Z"/><path fill="#263238" d="m371.63 322.33 6.61-1.45a11 11 0 0 0 .76-.88c-6-2.94-37.67-18.5-71-36.5-36.92-20-44-25-40.73-29.38a8.35 8.35 0 0 0-1.71 2c-2 3.31-3 10.54 5 14.89 7.27 3.99 84.63 42.38 101.07 51.32Z"/><path fill="#37474f" d="M445.48 276c-12.13-7-22.48-4.22-26.57 5.76-.78 1.91-3.79 9.19-4.51 11a22.72 22.72 0 0 0-1.47 8.49c0 14.59 10.24 32.34 22.88 39.64a22.68 22.68 0 0 0 8.12 3l11.67 1.57c10.72 1.48 18.34-6.09 18.34-20.12 0-18.19-12.74-40.26-28.46-49.34Z"/><path fill="#263238" d="M435.81 288c-12.64-7.3-22.88-1.38-22.88 13.21s10.24 32.34 22.88 39.64 22.89 1.38 22.89-13.21-10.25-32.32-22.89-39.64Z"/><path fill="#cd5c5c" d="M407 290c4.44-2.55 10.56-2.18 17.34 1.73 13.66 7.8 24.66 26.9 24.66 42.6 0 7.84-2.76 13.34-7.21 15.9-1.49.86-41.24 24.08-42.73 24.95-4.45 2.58-10.59 2.22-17.39-1.7-13.6-7.86-24.62-27-24.62-42.65 0-7.85 2.76-13.35 7.22-15.91 1.48-.86 41.25-24.11 42.73-24.92Z"/><path d="M407 290c4.44-2.55 10.56-2.18 17.34 1.73 13.66 7.8 24.66 26.9 24.66 42.6 0 7.84-2.76 13.34-7.21 15.9-1.49.86-41.24 24.08-42.73 24.95-4.45 2.58-10.59 2.22-17.39-1.7-13.6-7.86-24.62-27-24.62-42.65 0-7.85 2.76-13.35 7.22-15.91 1.48-.86 41.25-24.11 42.73-24.92Z" opacity=".3"/><path d="m369.53 362.77 76.25-44.29a45.13 45.13 0 0 1 3.22 15.85c0 7.84-2.76 13.34-7.21 15.9-1.49.86-41.24 24.08-42.73 24.95-4.45 2.58-10.59 2.22-17.39-1.7a45.23 45.23 0 0 1-12.14-10.71Z" opacity=".15"/><path fill="#263238" d="M381.66 316.6c-13.6-7.85-24.62-1.49-24.62 14.21s11 34.8 24.62 42.65 24.62 1.49 24.62-14.21-11.02-34.8-24.62-42.65Z"/><path fill="#37474f" d="M397.24 363.15c0-14.6-10.24-32.35-22.88-39.64a22.18 22.18 0 0 0-8.66-3c-.1 0-9.73-1.1-11.81-1.35-10.54-1.28-18 6.28-18 20.16 0 18.15 12.74 40.22 28.45 49.29 12 6.92 22.22 4.29 26.42-5.39.85-1.95 4-9.32 4.82-11.09a22.25 22.25 0 0 0 1.66-8.98Z"/><path fill="#455a64" d="M364.34 322.85c-15.71-9.07-28.45-1.71-28.45 16.43s12.74 40.22 28.45 49.3 28.46 1.71 28.46-16.44-12.74-40.21-28.46-49.29Z"/><path fill="#263238" d="M316.31 396.75a54.82 54.82 0 0 0-12-9.18c-28.31-16.37-74.31-16.37-102.65 0a54.51 54.51 0 0 0-12 9.18l-9.3 3.75v16.71c0 10.73 7.09 21.45 21.26 29.64 28.36 16.37 74.33 16.37 102.68 0 14.17-8.18 21.26-18.91 21.26-29.64V400.5Z"/><ellipse cx="253" cy="400.32" fill="#37474f" rx="72.6" ry="41.92"/><path fill="#455a64" d="M253 360.31c19.06 0 36.95 4.27 50.38 12 13.1 7.56 20.31 17.5 20.31 28s-7.21 20.42-20.31 28c-13.43 7.75-31.32 12-50.38 12s-36.95-4.27-50.38-12c-13.1-7.56-20.31-17.5-20.31-28s7.21-20.43 20.31-28c13.43-7.75 31.32-12 50.38-12m0-1.91c-18.58 0-37.16 4.09-51.34 12.28-28.35 16.37-28.35 42.91 0 59.28 14.18 8.18 32.76 12.27 51.34 12.27s37.16-4.09 51.34-12.27c28.35-16.37 28.35-42.91 0-59.28-14.18-8.19-32.76-12.28-51.34-12.28Z"/><path fill="#263238" d="M305.42 378a45 45 0 0 0-9.91-7.6c-23.48-13.55-61.54-13.55-85 0a45 45 0 0 0-9.91 7.6l-7.7 2.56V395c0 8.88 5.87 17.76 17.61 24.54 23.48 13.56 61.54 13.56 85 0 11.74-6.78 17.61-15.66 17.61-24.54v-14.44Z"/><path fill="#455a64" d="M253 346.42c-15.39 0-30.77 3.39-42.51 10.17-23.48 13.55-23.48 35.53 0 49.09 11.74 6.78 27.12 10.16 42.51 10.16s30.77-3.38 42.51-10.16c23.48-13.56 23.48-35.54 0-49.09-11.74-6.78-27.12-10.17-42.51-10.17Z"/><path fill="#263238" d="M254.62 37.71c-8.56-3-20.47-.81-25.07 5.64s-6.44 14.74-6.46 22.09 2.13 9.47-8.62 15.74-3.63 18.63-7.94 24.55-12.9 4.44-20.7 9.68-9.41 17.25-6.45 22.53 3.76 13.27-1.88 14.05-5-4.46-5-4.46-3.49 5.11 2.56 10.22 14.52 1.48 17.88-2.42a21.65 21.65 0 0 0 4.43 21.51c9 10.35 24.69 4.17 24.69 4.17s5.35 10.71 24.48 7.91 27.51-38.43 25.67-59.26c-.85-9.66-4.69-30.1-8.57-49.27 17.06-34.79-9.02-42.68-9.02-42.68Z"/><path fill="#ffa8a7" d="M349.92 63.75c-2.85 3.86-10.53 10.48-17 15.58-5.88 4.66-13.57 10.09-13.57 10.09-5.4-.78-11.8-1.34-18.26-2-7.5-.77-15.13-.11-16.64-1.33a25.5 25.5 0 0 0-18.78-4.91l9.74 22.72c7.74 2.48 39.66 2.45 43.42 2.48 4.72 0 7.24.26 10.1-2.53 3-3 6.54-5.78 9.33-9 5.09-5.85 10-13.08 12.9-16.12Z"/><path fill="#ffa8a7" d="M342.82 71.05c4.06-4.16 6.18-5.74 5.64-10.15s-1.82-6.81-1.59-7.85 3.1-5.68 3.79-7.86 1.47-2.63 3.37-3.08 6-1.38 7.12-1.85A2.75 2.75 0 0 1 360 44l-2.61 1.68s1.72 1.62 2.53 2.29.76 1.32.05 3.93c0 0 1.22.36 1.5 1.25a5.36 5.36 0 0 1-.13 2.73 2.42 2.42 0 0 1 1.23 1c.45.74 0 2.91-.61 4.78-.47 2.23-.27 5.1-.82 7s-3.13 3.74-4.93 4.89L344.61 87l-13.29-6.39s8.52-6.51 11.5-9.56Z"/><path fill="#f28f8f" d="M349.46 53.6a8.29 8.29 0 0 0 2.62-4.67c.27-1.79.45-3.79 1-3.88 1-.15 3 1.49 2.83 4.44s-1.09 6.19-1.09 7a13.1 13.1 0 0 0 1.67 4 7.64 7.64 0 0 1-1.49 8.63 7 7 0 0 0 3.06-4.29c1-3.21-1.25-6.07-1.8-7.49s-.66-1.72-.06-4.35 1.26-5.46-1-7.69-3-.93-3.25-.07-.19 6.19-2.49 8.37Z"/><path fill="#f28f8f" d="m357.35 45.66-1.67 1.1.63.4a2.33 2.33 0 0 1 2.5-.15Zm2.58 6.22c-.21.87-1 3.52-1.17 4.06s-1.16.49-1.85-.41A3.68 3.68 0 0 1 356 53a4 4 0 0 0 .5 2.82c.84 1.19 1.78 1.24 2.32 1s.65-3.09 1.11-4.94Z"/><path fill="#f28f8f" d="M361.3 55.86c-.14.65-.49 1.51-.93 3.31-.26 1-.38 1.71-1 1.71a2.65 2.65 0 0 1-1.85-2.41 8.84 8.84 0 0 1 .24-2.11l-.51-.16a7.14 7.14 0 0 0-.11 3.34c.43 1.43 2 2.4 2.57 1.94s.71-1 1-2.55.59-3.07.59-3.07Z"/><path fill="#f28f8f" d="M359.85 61c-.05.44.28 1.36 1 1.31a1.53 1.53 0 0 0 1.08-.63 1.29 1.29 0 0 1-1.12 1c-.85.07-1.36-.75-1.58-1.47Z"/><path fill="#ffa8a7" d="M310.82 268.78c4-17.4 0-23.36-3.83-36.27-4.64-15.62-11.95-28.63-16.14-43.86l-34.8 22.4c11.35 21.28 19.5 34 26 52.73-3.85 10.15-8.24 16.94-9.2 29.16-1 12.75 1 40.47-.36 50.84s-4.33 12.81-4 16.22c.46 5.65 5.6 6.8 7.83 8.11 5.67 3.31 6.47 7.5 10.88 10.94s11.83 3.54 16.43 1.63c5.6-2.32 5.25-5.24-.53-7.35-4.53-1.64-8.49-6.58-12.84-13.35-3.45-5.36-5.3-6.81-2.39-17.74 4.07-15.35 18.9-56.05 22.95-73.46Z"/><path fill="#cd5c5c" d="M308.29 278c-1.22 2.24-2.72 5.34-4.36 9-.39.77-6.81 13.4-14.17 27.28-7.6 14.33-19.61 43.3-19.61 43.3-4.74 12.16-11.7 23.89-24.72 29.21-18.95 7.74-43.61 4.81-48.8.13 0 0 0-9.71 5.44-12 4.91-2.06 6.56-2.4 14.3-4.81-.59-2.81-.45-6.36 1.6-7.9 0 0 1.66-10.69 0-15.81s-4.35-9-1.21-12.56c0 0-2.59-16.63 0-26.9s5.35-11 5.62-18.5-4.08-26.75-5.62-34.74-3.42-12.92 0-15.55a204.31 204.31 0 0 1 1.74-29.12c2.55-18.31 7.09-27.51 7.09-27.51s.77-11.86 5.66-9.63c4.08-5.43 8.26-9.25 9.27-13.31.44-1.77-2.73-7.84-4.86-12.68-.15-.35-.3-.69-.45-1-2.67 0-1.87-3.55-1.86-3.58a55.71 55.71 0 0 1 7.17-7.93c8.37-7.3 19.16-11 24.44-24.18S263 81.48 263 81.48c4.3-.85 9.36-.2 12.81 5.58a18.61 18.61 0 0 1 2.33 10.79c3 4.34 5.88 8.71 8.66 12.79s6.76 14.61-2.69 22.26l-1.72 19c1.91-2.25 4.07 4.26 3.26 9.68 0 0 2.95.35 3.6 5.14.38 2.75 5.24 27.54 8.54 32.23s7.71 8.4 6.06 14.25c0 0 9.36 27.88 11 38.07s.05 14.65-6.56 26.73Z"/><path fill="#fff" d="M314.9 251.32a141.61 141.61 0 0 0-3.5-14.08c-3.28-11.36-7.52-24-7.52-24 .08-.28.13-.55.18-.82 1-5.38-3.09-9-6.24-13.43a13.29 13.29 0 0 1-1.34-2.73c-2.58-6.56-5.56-20.64-6.72-26.78-.25-1.33-.42-2.29-.48-2.72-.65-4.79-3.6-5.14-3.6-5.14a18 18 0 0 0-.09-5.54c-.34-2.05-1-3.72-1.74-4.34a.92.92 0 0 0-1.43.2l.49-5.46 1.23-13.59c8.23-6.66 6.27-15.5 3.79-20.37a15.62 15.62 0 0 0-1.1-1.88c-2.78-4.09-5.63-8.46-8.66-12.79a18.63 18.63 0 0 0-2.33-10.8 17.21 17.21 0 0 0-1.11-1.6 10.78 10.78 0 0 0-5.33-3.78 12.89 12.89 0 0 0-6.37-.19c.05.09 7.17 14.63 1.91 27.81s-16.07 16.88-24.44 24.18a55.71 55.71 0 0 0-7.17 7.93 4.39 4.39 0 0 0 .24 2.76l.08.1a1.67 1.67 0 0 0 .12.16 1.78 1.78 0 0 0 1.42.56c0 .08.08.18.11.26.12.24.23.49.34.75 1.45 3.28 3.36 7.11 4.31 9.8a6.26 6.26 0 0 1 .55 2.88 10.33 10.33 0 0 1-.39 1.19c-1.45 3.63-5.2 7.23-8.88 12.12a2.35 2.35 0 0 0-2.34.06 6.37 6.37 0 0 0-2.16 3.41 27.7 27.7 0 0 0-1.14 6v.15s-2.48 5-4.8 15c-.82 3.54-1.62 7.68-2.29 12.46-.87 6.28-1.31 12.39-1.54 17.38-.07 1.62-.12 3.13-.16 4.49-.11 4.44 0 7.26 0 7.26-3.42 2.62-1.54 7.56 0 15.54.43 2.21 1.07 5.28 1.77 8.73 1.43 7.44 3.19 16.54 3.67 22.54a1.64 1.64 0 0 1 0 .22v.08a31.19 31.19 0 0 1 .09 3.23c0 .46 0 .9-.08 1.32a19.57 19.57 0 0 1-1.72 6.55 58.7 58.7 0 0 0-3.79 10.6c-2.59 10.27 0 26.91 0 26.91a5.39 5.39 0 0 0-1.44 3.46.75.75 0 0 0 0 .15 5.61 5.61 0 0 0 0 .58.88.88 0 0 0 0 .16c.22 2.41 1.61 5.07 2.62 8.2 1.66 5.12 0 15.81 0 15.81-1.59 1.2-2 3.61-1.87 5.94a15.17 15.17 0 0 0 .27 2c-7.74 2.41-9.39 2.75-14.3 4.81a7.18 7.18 0 0 0-3.47 3.43 21.27 21.27 0 0 0-2 8.54c1.43 1.29 4.33 2.44 8.17 3.28a69.11 69.11 0 0 0 14.59 1.37 71.41 71.41 0 0 0 26-4.78 35.21 35.21 0 0 0 4-1.92c10.51-5.92 16.53-16.43 20.77-27.29 0 0 12-29 19.61-43.3 7.36-13.88 13.78-26.51 14.17-27.28.49-1.09 1-2.13 1.43-3.12l.24-.5c.1-.21.19-.42.29-.62.87-1.83 1.68-3.44 2.4-4.75 6.68-12.16 8.33-16.57 6.68-26.76Z" opacity=".75"/><g fill="#fff"><path d="M273.55 135.81c-1.54 4-8.8 10.69-18.2 7.78-5.94-1.84-9-6-9.18-9.71.75-.56 1.56-1.13 2.41-1.71 2-1.36 4-2.71 5.81-4.08a6.53 6.53 0 0 1 .65 1 11.81 11.81 0 0 0 12 6.16c6.17-.66 8.05-3.41 6.51.56Zm10.09 18.36c1.19 2.41 1.89 13.67-3.34 24s-14.05 20.2-23.76 24.67-20.54-.64-23.21-6.31c0 0 7.19 10.12 22.72 2.63s22.95-22.57 24.25-28.7 2.82-18.18 3.34-16.29Zm5.48 56.88c-1.17 11.95-7 35.76-18.84 47.56s-29.11 13-37.46 6.31-1.46-5.56 4.56-4.35a35 35 0 0 0 30.5-8.27c11.83-10.38 20.21-30.98 21.24-41.25Z" opacity=".15"/><path d="M297.46 201.82c2.39 2.81 5.9 6.68 3.73 12.62s-5.39 15.24-10 30.77-6.57 31.5-17.17 42.77-27.5 15.78-27.5 15.78 18.47-6.45 26.53-22.09 11-21.95 14.41-35.7 10.98-29.17 10-44.15Z" opacity=".15"/><path d="M274.49 116.14c-2.27 3.83-1 11.4 3.11 14.1 2.06 1.36 5.93.89 8.87-2.75 3.15-3.9 2.62-9.68 1.64-10.77s-2.24 4.73-6.34 2.76-5.91-5.64-7.28-3.34Z" opacity=".1"/><path d="M305.91 228c-2.39-2.57-6.63 10.37-6.8 16.27s4.86 12.56 5.72 20-4.91 24.15-2.52 21.5 10.46-16.53 10.77-24.8-5.19-30.8-7.17-32.97Z" opacity=".25"/></g><g opacity=".2"><path d="M278.17 95.43a18.15 18.15 0 0 0-1.67-7.11l-4 2.6s3.59 4.14 5.71 6.94Zm5.2 84.22a37.23 37.23 0 0 0 2.31-18c-1.43 15.55-6.64 24.92-13.89 33a33.18 33.18 0 0 0 11.58-15ZM269.1 295.08s12.41-4.26 20.21-27c8.83-25.68 8.9-34.42 16.6-48.69-1.2-3.72-2-6.18-2-6.18-7.65 17.63-12.51 36.58-17.93 55.4s-16.88 26.47-16.88 26.47Z"/><path d="M265.16 323c25.11-17.34 37.73-47.82 37.73-47.82-13.18 23.91-27.87 38.89-49.28 50.65-12.86 7.07-23.34 9.36-29.81 9.56-1.63-8.65 1.06-17.87 8.66-34.22s-7.6-39.42-8.5-44.58a7.34 7.34 0 0 1 .34-4.32 24.31 24.31 0 0 0 12.09 5.8c11.79 2.13 32.45-3.91 42.48-23.25 10.1-19.5 10.25-43.07 10.25-43.07-.9 8.74-6.17 34.06-17.33 46.51s-23.12 15.93-31.47 15.9a24.62 24.62 0 0 1-14-4.07c-4.15-12-1.86-41.82 0-48.13a12.43 12.43 0 0 1 2-4.31 28.15 28.15 0 0 0 3.34 5.51c6.32 8.19 22.09 6.32 29.94 0 0 0-15.44 8-26.31-1.52a25.66 25.66 0 0 1-4.61-5.29s-2.5-4.6-.93-8.65 4-2.8 4-2.8c2.4 2.68 6.65 4.7 14.16 3.91 18.47-1.95 32.87-17.38 34.49-36.86-4.08 20.47-19 30.44-33.8 33.6-7.14 1.52-11.55-.71-14.22-3.43a30.36 30.36 0 0 1 6.09-11.66c5.5-6.22 8.41-5.72 6.45-10.07-1.79-4-5.93-14.65-8.62-19.61a57.17 57.17 0 0 1 10.26-8.61c10.87-7.37 20.06-14.08 20.79-28.85S263 81.49 263 81.49s7.19 14.59 1.91 27.81-16.07 16.88-24.44 24.18a55.71 55.71 0 0 0-7.17 7.93 5.51 5.51 0 0 0-.12 1 6.19 6.19 0 0 0 0 .84.29.29 0 0 1 0 .09c0 .11.05.22.08.33a.42.42 0 0 0 0 .1 1.63 1.63 0 0 0 .17.38l.08.1a.56.56 0 0 1 0 .08s0 .06.07.08a1.29 1.29 0 0 0 .17.16l.08.07a2.39 2.39 0 0 0 .22.12l.1.06a2.47 2.47 0 0 0 .35.1 2.19 2.19 0 0 0 .46 0c0 .08.08.18.11.26.12.24.23.49.34.75 1.45 3.28 3.36 7.11 4.31 9.8a6.26 6.26 0 0 1 .55 2.88 10.33 10.33 0 0 1-.39 1.19c-1.44 3.63-5.2 7.23-8.88 12.12a2.35 2.35 0 0 0-2.34.06 6.37 6.37 0 0 0-2.16 3.41 27.7 27.7 0 0 0-1.14 6v.15s-2.48 5-4.8 15c-.82 3.54-1.62 7.68-2.29 12.46-.87 6.28-1.31 12.39-1.54 17.38-.07 1.62-.12 3.13-.16 4.49-.11 4.44 0 7.26 0 7.26-3.42 2.62-1.54 7.56 0 15.54.43 2.21 1.07 5.28 1.77 8.73.11.57.23 1.16.35 1.76.76 3.77 1.55 7.87 2.19 11.72 0 .14 0 .29.07.43l.18 1.1.09.57c0 .31.09.61.13.92s.07.43.1.64.07.54.11.8l.09.68.09.7.09.72c0 .17 0 .33.05.5.07.6.13 1.18.17 1.73v.39c0 .38.05.74.07 1.09v2.26a24.08 24.08 0 0 1-.2 2.44 2.93 2.93 0 0 0 0 .29l.08.86c0 .11-.05.22-.07.33s-.09.41-.14.61l-.09.33c-.05.19-.11.38-.16.56s-.07.22-.1.32-.13.39-.2.58-.19.5-.29.74l-.09.23c-.09.23-.18.46-.28.69-.55 1.29-1.19 2.66-1.87 4.43-.15.39-.31.81-.46 1.25v.08c-.15.43-.3.88-.45 1.36v.1c-.15.48-.3 1-.45 1.52v.1c-.16.55-.31 1.12-.47 1.74-.1.37-.18.75-.26 1.13 0 .13 0 .25-.08.38l-.15.84c0 .14-.05.28-.07.42-.05.31-.09.62-.13.94a2.91 2.91 0 0 0 0 .31c-.06.41-.1.83-.14 1.25v.36c0 .31-.06.63-.08.94v7.24a1.85 1.85 0 0 0 0 .23v2.89l.06 1v.18c.06.82.12 1.6.18 2.35v.12q0 .51.09 1v.05c.3 3.17.63 5.28.63 5.28a5.39 5.39 0 0 0-1.44 3.46.75.75 0 0 0 0 .15 5.61 5.61 0 0 0 0 .58.88.88 0 0 0 0 .16c.22 2.41 1.61 5.07 2.62 8.2.85 2.62.83 6.7.61 10.06-.21 3.2-.61 5.75-.61 5.75-1.59 1.2-2 3.61-1.87 5.94a15.17 15.17 0 0 0 .27 2h-.08c-7.68 2.4-9.33 2.72-14.22 4.78a6.4 6.4 0 0 0-2.51 1.94c-2.9 3.62-2.93 10-2.93 10 .16.14.35.29.54.43.19.13.4.27.62.4h.07c.21.12.43.24.66.35h.1l.74.34.11.05.86.34h.06a31.47 31.47 0 0 0 3.31 1l.27.06q.47.12.93.21l.42.09.86.17.48.09.88.14.49.08 1 .15.37.05c1 .12 1.93.23 2.93.31 9.81.83 22.37-.13 33.09-4.51s17.45-13.27 22.1-23.11v-.48c-3.75 8.69-18.14 21.9-39.3 23.58-18.93 1.51-24.19-2.36-26-4.31 3-2.65 9.64-4.31 14.74-4.28 6.76 1.79 34.31 3.28 52.58-28.49-5.32 5.9-16 20.28-39.73 24.65-2.66-1.73-4.82-4.27-5.23-6.87a6.61 6.61 0 0 1 2.46-6.64c37.87-7.31 52.66-30.11 67.27-63 0 0-14.84 32.36-36.7 46.07-13.24 8.31-24.26 11.21-31.17 12.19-1.17-4.6-3.64-10.23-4.51-13.41a7.38 7.38 0 0 1 0-4.16c7.74.81 23.53-1.89 43.09-15.39Z"/><path d="M277.26 131.49c.12.42 2 6.64 6.37 7.09l.51-5.68a14.83 14.83 0 0 0 5.9-10.72 16.66 16.66 0 0 1-4 7.29c-2.13 2.25-5.06 3.8-8.76 2Zm5.93 1.82a6 6 0 0 1-4.89-.94 6.06 6.06 0 0 0 4.89.94Zm9.01 55.26c0-.8 0-1.51-.08-2.11.03.7.06 1.41.08 2.11ZM279.42 249c-10.45 22.13-25.56 26.31-34.51 24.94 0 0 14.4 6.92 29.13-11.89s19.16-46.73 18.16-73.48c.18 11.05-3.03 39.79-12.78 60.43Zm-7.18-151.92a69.76 69.76 0 0 1 .76 14.09 56.87 56.87 0 0 1-2.77 14.08c4.71-7.1 5.08-20.58 2.01-28.17Z"/><path d="M278.17 125.25s3.08-7.58.7-18.88c-2.2-10.42-7.75-15.15-7.75-15.15 2.19 2.74 5.67 10.06 6.59 15.74a76.51 76.51 0 0 1 .46 18.29Zm-15.59 20.49c-6.08.78-12.73-1.08-16.9-7.52 0 0 4 15.41 16.58 14.85s13.21-19 13.21-19c-1.54 6.06-5.33 10.7-12.89 11.67Z"/></g><g fill="#455a64"><path d="M243.61 158.7a50.08 50.08 0 0 0 18.74-3.85c12.15-.63 18.61-5.71 20.48-7.44L283 146a.48.48 0 0 0-.29.15c-.06.07-5.56 6-17.47 7.44 8.9-4.16 15.51-9.8 18.23-12.87l.17-1.79c-1.74 2.59-9.91 10.21-21.4 14.9-.54 0-1.07.07-1.63.08-12.63.18-20.76-3.06-23.23-4.2l.64 1.38c3.25 1.37 10.54 3.79 21.38 3.82a46.65 46.65 0 0 1-18.9 2.64 3.36 3.36 0 0 1 .06 1q1.52.15 3.05.15Z"/><path d="m282.42 152 .2-2.27c-4.81 8-9.55 12.4-22.11 14.35-9 1.39-15.19-.09-18.49-2.19a8.36 8.36 0 0 1-1.84-1.54.48.48 0 0 0-.16-.12c-.14.31-.29.61-.45.92a9.9 9.9 0 0 0 2 1.66c1.48 1.35 10.17 6.66 23.41 6.66a40.62 40.62 0 0 1-7.75 3.14c-12.22 3.54-19.81-.82-23.36-3.89l-.63.78a22.92 22.92 0 0 0 15.23 5.43 32.33 32.33 0 0 0 9-1.36 41 41 0 0 0 9.59-4.16 50.72 50.72 0 0 0 8.6-1.09c.27-.39.53-.78.78-1.18a59.28 59.28 0 0 1-7.62 1.16c7.69-5.13 12-11.65 13.6-16.3Zm-15.58 16.41a45.9 45.9 0 0 1-19.11-3.31 31.23 31.23 0 0 0 6 .54 44.57 44.57 0 0 0 7-.57c9.87-1.53 15.15-4.68 19.27-9.69a37.33 37.33 0 0 1-13.16 12.98Zm-30.15-20.1a40.4 40.4 0 0 0 12.88 1.92A46 46 0 0 0 284 135l.15-1.65c-18.92 21.43-43.81 15.67-48 13.62.13.45.33.9.54 1.34Z"/></g><path fill="#f28f8f" d="M225.57 134.48c-4.88-2.82-8.83-11.18-8.83-18.69 0-4.22 1.25-7.27 3.21-8.63 1.53-1.06 3.49-1.1 5.62.14 4.88 2.81 8.83 11.17 8.83 18.69 0 3.51-.87 6.22-2.3 7.81-1.61 1.8-3.94 2.2-6.53.68Z"/><path fill="#ffa8a7" d="M263 81.49a20.26 20.26 0 0 0-2.47.65c-.55.25-1.19.57-1.89.93v-6L238.19 77l.06 15.09a4.51 4.51 0 0 1-2.18 3.91c-2.75 1.66-7.32 4.41-9 5.47a47.73 47.73 0 0 0-7.55 6.1c-1.7 1.5-2.77 4.37-2.77 8.26 0 7.51 3.95 15.87 8.83 18.69.24.14.48.25.72.36a16.94 16.94 0 0 1 7 6.57 55.71 55.71 0 0 1 7.17-7.93c8.37-7.3 19.16-11 24.44-24.18S263 81.49 263 81.49Z"/><path fill="#f28f8f" d="M259.91 100.24c0-5.64-.55-10.52-.59-23.18h-.67s0 7 .14 12.49c-16-.74-19.36-11.33-19.36-11.33.62 6.74 5.57 9.68 9 11a42.26 42.26 0 0 0 10.32 2.5s.21 2 .26 2.47c.48 5 .58 12.56-1.41 13.71 1.49-.37 2.34-2.18 2.31-7.66Z"/><path fill="#f28f8f" d="M259.57 89.55a10.86 10.86 0 0 0 5.82-1.47s-.77 2-5.82 2.33Zm-23.45 48.39c-2.43-1.74-5.69-.82-8.2-2.13l.38.26.3.21c.25.17.5.35.73.54l.17.12c.28.23.55.47.81.71l.2.19c.19.18.37.37.55.56l.27.29c.15.17.3.34.44.52s.19.22.28.34.27.37.41.56l.25.34c.17.26.34.52.51.8 0 .05.07.1.1.16s1.12-1.53 2.79-3.47Z"/><path fill="#ebebeb" d="m273.17 338.37-72.59-101.18-5.97 4.19 70.84 102.4 18.24 17.74-10.52-23.15z"/><path fill="#e0e0e0" d="m265.45 343.78-1.59-10.46-66.27-94.04-2.98 2.1"/><path fill="#fafafa" d="m273.17 338.37-9.31-5.05 1.59 10.46 18.24 17.74-10.52-23.15z"/><path fill="#455a64" d="M179.05 245.87c4.71-3.31 12.81-9.31 10.08-13.2l-16.27-23.24h-.19c-1.58.34-3 .05-3.68-.94-1.13-1.59.07-4.37 2.68-6.19a8 8 0 0 1 3.58-1.46 4.86 4.86 0 0 1 1.2 0 2.7 2.7 0 0 1 2 1c.7 1 .5 2.42-.37 3.79 0 .06-.07.11-.1.16 1.78 2.55 13.86 19.77 16.29 23.24 2.73 3.9 11.13-1.7 15.83-5s6.23.61 2.34 3.34-9.26 5.8-10.88 10.31c-1.53 4.22-1.48 5-1.47 5s-.71-.36-5.26-.35c-4.78 0-9.5 4-13.39 6.74s-7.1.11-2.39-3.2Z"/><path fill="#cd5c5c" d="m193.69 233.76 3.9.98-.25 4.21-4.05-1.2.4-3.99z"/><path fill="#37474f" d="M181.39 249.2c3.89-2.73 8.61-6.74 13.39-6.74 4.56 0 5.21.31 5.26.35l-1.7-2.41-6.27-1.86.62-6.19-17-24.21a4.16 4.16 0 0 1-1.52-.1 2.68 2.68 0 0 1-2-3.3 6.36 6.36 0 0 1 3.1-3.83 8 8 0 0 0-3.58 1.46c-2.61 1.82-3.81 4.6-2.68 6.19.68 1 2.1 1.28 3.68.94h.19c2 2.91 13.65 19.51 16.28 23.24 2.72 3.89-5.38 9.89-10.1 13.2s-1.55 5.99 2.33 3.26Z"/><path fill="#fff" d="m196.86 236.39-.13 1.26-2.18-2.89 1.47.4a1.15 1.15 0 0 1 .84 1.23Z" opacity=".6"/><path fill="#fff" d="m204.81 244.52 65.71 91.7-6.52-3.63 3.76 1.1-62.95-89.17zm59.88 90 7.73 4.81 8.65 18.34-9.29-17.68-7.09-5.47z"/><path fill="#ffa8a7" d="M227.05 101.42c-3.89 3-9.64 4.36-12.59 11.82s-2.72 11.07-3.83 14.29c-.52 1.5-4.1 8.06-6.44 15-2.67 7.94-5.84 17.13-6.73 19.1-1.66 3.69-4.39 8.11-6.23 16.5s-3.73 27.34-4.46 32.13-3.59 8.82-5.54 13.85c-2.2 5.69-1.89 7.66-1.16 9.13s2.17 1.51 3.09 3.17 1.72 1.11 2.46 2.54 1.64.13 1.64.13S194 231 195.71 230a1.17 1.17 0 0 1 1.53.4 11 11 0 0 0 3.72-.94 65.74 65.74 0 0 0-1.84-6.47c-1.29-3.87-1-8.45 1.18-15.09 1.1-3.3 3.84-10.71 6.46-17.94s4.59-15.54 6-18.64c2.7-6 5.51-9 9.34-16 3.94-7.22 9.94-18.62 9.94-18.62a12.39 12.39 0 0 0 4.1-6.62c3.98-20.89-9.09-28.66-9.09-28.66Z"/><path fill="#f28f8f" d="M232 136.71s2.93-2.61 2.67-12.59c0 0 3.5 8.09-.88 14.83Z"/><path fill="#cd5c5c" d="M234.07 77.57c-3 4-14.7 8.73-34.84 4.62-19.14-3.91-43.68 2.61-47.34 24.18 0 0 3.72-6.28 9-7.56a34.4 34.4 0 0 0-1.82 21.62s-.67-13.29 12.41-23.35c9.64-7.42 18.38-6.81 38.67-5.86s25.36-6.94 28-14.22c-.83 1-2.27 1.17-4.08.57Z"/><path d="M234.07 77.57c-3 4-14.7 8.73-34.84 4.62-19.14-3.91-43.68 2.61-47.34 24.18 0 0 3.72-6.28 9-7.56a34.4 34.4 0 0 0-1.82 21.62s-.67-13.29 12.41-23.35c9.64-7.42 18.38-6.81 38.67-5.86s25.36-6.94 28-14.22c-.83 1-2.27 1.17-4.08.57Z" opacity=".15"/><g opacity=".15"><path d="M234.15 79.15a16.1 16.1 0 0 1-4.63 3.09 32.75 32.75 0 0 1-5.52 2 33.7 33.7 0 0 1-5 1 36.15 36.15 0 0 1-4.77.12 81.9 81.9 0 0 1-12.88-1.25 73.46 73.46 0 0 0-14-1.59 33.52 33.52 0 0 0-15.92 4.36s-.05.15 0 .12a43.31 43.31 0 0 1 15.34-3.59A68.64 68.64 0 0 1 201.13 85c2.13.39 4.26.75 6.42.94s4.34.28 6.52.31a39.93 39.93 0 0 0 4.89-.12 33.7 33.7 0 0 0 5-1c3.82-1 7.69-2.74 10.29-5.82 0-.05 0-.22-.06-.14Z"/><path d="M233.4 82.42a11.58 11.58 0 0 1-2.4 2.18 11.44 11.44 0 0 1-3.14 1.72 35 35 0 0 1-7.51 1.59c-5.57.5-11.08-.48-16.59-1.2-1.52-.2-3-.37-4.57-.47a20.62 20.62 0 0 0-4.71 0c-.12 0-.13.3 0 .32 1.53.24 3.11.22 4.66.38s3 .35 4.44.55c2.83.38 5.65.84 8.49 1.12a46.66 46.66 0 0 0 8.44.14 21.83 21.83 0 0 0 7.43-1.76 16.51 16.51 0 0 0 3.36-2.11 9 9 0 0 0 2.16-2.33s0-.15-.06-.08Zm-45.21 3.69A27 27 0 0 0 174.8 89c-4.29 2.17-8.41 5.06-11.2 9a25.5 25.5 0 0 0-3.42 7.18c0 .12.09.32.16.14A28.63 28.63 0 0 1 168.29 94a32 32 0 0 1 12.88-6.92 36.54 36.54 0 0 1 7-.8c.09 0 .11-.21 0-.21Z"/></g><path d="M171.52 97.08c9.64-7.42 18.38-6.81 38.67-5.86s25.36-6.94 28-14.22c-.87 1-2.31 1.17-4.12.57a9 9 0 0 1-2.09 1.9 7 7 0 0 0 2.42.83s-4.9 8.37-20.79 9.25-26.72-4-42.09 6-12.41 24.93-12.41 24.93-.67-13.34 12.41-23.4Z" opacity=".15"/><path d="M160.93 98.81a23.61 23.61 0 0 1 2.07-4.37s-8.85 3.77-11.12 11.93c.01 0 3.73-6.28 9.05-7.56Z" opacity=".1"/><path fill="#37474f" d="M276.84 49.63s1 2-.76 2.32c-.8.15-2.55-.61-2.71-4.12-.23-5.06-3.64-8.83-10.89-10.28-8.82-1.76-12 2.75-12 2.75l9.11 13.43 9.81 8.75s3.88.82 5.06-2.79a3.87 3.87 0 0 0-1.11-4.36s3 .86 4.45-1c2.27-2.81-.96-4.7-.96-4.7Z"/><path fill="#ffa8a7" d="M272 68.75c-.47 15.29-4.27 20.92-13.23 20.8-16.05-.73-19.38-11.33-20.56-12.49l-.06-.06c-1.75 2-6.18.47-7.66-2.4-1.6-3.11-1.34-6.76 1.54-8.2a4.45 4.45 0 0 1 5.85 1.35c1.06 1.65.49 3.84 2.29 3.41 1.48-.35 1.29-5.13 1.29-5.13 3.32-.71 5.17-4.19 4.21-8.26 1-4.44 6.21-10.27 13.9-4 0 0 2.06-5.69 7.27-4.27 2 .56 5 4.62 5.15 11.19.12 2.54.14 5.31.01 8.06Z"/><path fill="#263238" d="M256.45 69a1.83 1.83 0 1 1-1.83-1.9 1.85 1.85 0 0 1 1.83 1.9Zm-2.2-9.2L250 62.34a2.61 2.61 0 0 1 .91-3.5 2.43 2.43 0 0 1 3.34.96Zm16.03 1.01L265.65 59a2.62 2.62 0 0 1 3.35-1.44 2.42 2.42 0 0 1 1.28 3.25Z"/><path fill="#f28f8f" d="m256.47 80.3 4 .81a2 2 0 0 1-2.34 1.64 2.12 2.12 0 0 1-1.66-2.45Z"/><path fill="#263238" d="M269.33 66a1.84 1.84 0 1 1-1.84-1.9 1.87 1.87 0 0 1 1.84 1.9Z"/><path fill="#f28f8f" d="m260.43 65.44 1.5 11.62 5.87-2.18-7.37-9.44z"/><path fill="#455a64" d="M250.5 40.3c-2.78-2.32-9.26-1.46-12.25-.24-3.58 1.46-6.16 2.61-8.26 7.32-2 4.52-1.94 6-3 8.11a3.54 3.54 0 0 1-2.08 1.8c-.48.09-1.05 0-1.42.3a1.18 1.18 0 0 0-.31.75 5.56 5.56 0 0 0 .39 3 8.1 8.1 0 0 0 2.81 3.62 8.68 8.68 0 0 0 5.73 1.48 4.45 4.45 0 0 1 5.85 1.35c1.06 1.65.68 5.76 2.39 5.06 2.6-1.07 1.19-6.78 1.19-6.78 3.32-.71 5.17-4.19 4.21-8.26 1-4.44 6.21-10.27 13.9-4-.31-6-3.1-10.61-9.15-13.51Z"/><path fill="#37474f" d="M245.25 58.22c.2 1.23 1.94 6.48-3 8-4.22 1.31-6.48-2.68-4.45-5.13a1.92 1.92 0 0 0 1.11 1.32c1.28.45 3.85-.52 2.76-3Zm13.14-5.38c-2.67-2.25-4.87-5.78-7.89-5.17-6.83 1.37-4.79 10.1-4.79 10.1.91-4.2 5.66-9.64 12.68-4.93Z"/><path fill="#cd5c5c" d="M238.57 69.39a21.1 21.1 0 0 0 11.93 6c7.58 1.12 11.67-4.5 14.19-4.5l1.6 2.06s3.27 1 5.6-1.08c0 0 1.44-6.64.14-11.22 0 0-1.52-.8-10.35-.42a87.84 87.84 0 0 0-26.77 5.66c1.65.27 2.88 1.11 3.66 3.5Z"/><path d="M238.57 69.39a21.1 21.1 0 0 0 11.93 6c7.58 1.12 11.67-4.5 14.19-4.5l1.6 2.06s3.27 1 5.6-1.08c0 0 1.44-6.64.14-11.22 0 0-1.52-.8-10.35-.42a87.84 87.84 0 0 0-26.77 5.66c1.65.27 2.88 1.11 3.66 3.5Z" opacity=".15"/><path d="M271.89 71.87a35.92 35.92 0 0 0 .63-4.9c-.21 1.29-.61 3.12-1.32 3.68a5.28 5.28 0 0 1-5.14.24 29.74 29.74 0 0 1-3.85-3.18l2.48 3.18 1.6 2.06s3.27 1.05 5.6-1.08Zm-34.33-5.51a10.13 10.13 0 0 1 3.88.59 18.57 18.57 0 0 0 3.48.48 20.11 20.11 0 0 0 3.47-.13 11.29 11.29 0 0 0 3.05-1.13 14.21 14.21 0 0 0-1.81.38q-.91.18-1.83.27a21.41 21.41 0 0 1-3.58.06 27.46 27.46 0 0 1-3.49-.52 5.7 5.7 0 0 0-3.17-.08s0 .08 0 .08Zm.9 1.14a33.2 33.2 0 0 0 5.54 2.44c1.69.57 3.72 1.16 5.48.67 0 0 .07-.1 0-.1-.9-.13-1.81-.16-2.7-.3a18.94 18.94 0 0 1-3-.77c-1.79-.63-3.51-1.53-5.35-2v.07Zm32.93-1.17a14.34 14.34 0 0 1-3.58-.21c-1.14-.25-2.24-.63-3.4-.81a11.09 11.09 0 0 0-5.42.82c-2 .67-4 1.34-6.12 1.82a16.84 16.84 0 0 1-6.23.59 20.42 20.42 0 0 0 6.29.13 36.47 36.47 0 0 0 5.91-1.56c.89-.29 1.76-.64 2.67-.89a7.84 7.84 0 0 1 3.34-.14c1 .17 2.06.42 3.1.56a12.41 12.41 0 0 0 3.44-.12c.07 0 .08-.21 0-.21Zm-.73-2.66a10.72 10.72 0 0 1-2.84-.92 20.13 20.13 0 0 0-2.61-.8 13.31 13.31 0 0 0-5.79 0c-1.9.45-3.75 1.11-5.64 1.64a50.55 50.55 0 0 1-6.09 1.49 52.82 52.82 0 0 0 6.27-.74c1.91-.39 3.72-1.11 5.6-1.6a14.42 14.42 0 0 1 5.85-.22 17.57 17.57 0 0 1 2.59.56 7.67 7.67 0 0 0 2.64.67c.05 0 .07-.13 0-.13Zm-9.56 6.46c-1.35.55-2.63 1.23-4 1.79a18.47 18.47 0 0 1-4.06 1.16 20.37 20.37 0 0 1-4.13.14 10.28 10.28 0 0 1-3.85-1.22 12 12 0 0 0 4.07 1.73 9.92 9.92 0 0 0 4.2.14 13.23 13.23 0 0 0 4.05-1.39c1.29-.68 2.4-1.67 3.76-2.25.05 0 .05-.16 0-.13Z" opacity=".15"/><path d="M238.57 69.39a20.46 20.46 0 0 0 6.6 4.48c-3.1-1.64-5.49-4.66-5.36-5.66s.71-1.12 3.51-2.13c2.4-.87 2.44-2.26 2.38-3.51a97.15 97.15 0 0 0-10.79 3.32c1.65.27 2.88 1.11 3.66 3.5Z" opacity=".15"/><path fill="#455a64" d="M245.71 57.77c.2 1.23 1.94 6.48-3 8-4.23 1.31-6.49-2.68-4.46-5.13 0 0 0 1.89.91 2.21 1.28.45 3.89-.58 2.5-3.47Z"/><path fill="#37474f" d="M240.23 62.45c.73-.29 1.42-1.39.67-3.64s-3.41-7.64.27-11.21A7.59 7.59 0 0 0 240 54c.46 2.19 2.92 5.44 1.87 7.89a1.55 1.55 0 0 1-1.64.56Z"/><path fill="#cd5c5c" d="M312.5 174.86c-.1 7 5.86 10.69 13.1 10.69s13.09-3.69 13.09-10.69Z"/><path d="M312.5 174.86c-.1 7 5.86 10.69 13.1 10.69s13.09-3.69 13.09-10.69Z" opacity=".3"/><path fill="#cd5c5c" d="M316.34 180.21c-5.12-3-5.12-7.74 0-10.7s13.4-2.95 18.51 0 5.12 7.73 0 10.69-13.4 2.96-18.51.01Z"/><path d="M317 180.55a20.79 20.79 0 0 0 17.19 0c1.74-2.06 1.14-4.62-1.83-6.33a14.94 14.94 0 0 0-13.53 0c-2.97 1.71-3.57 4.27-1.83 6.33Z" opacity=".1"/><path fill="#37474f" d="M322.22 182.39a.22.22 0 0 1-.21-.24l3.38-42.52a.22.22 0 0 1 .24-.21.23.23 0 0 1 .21.25l-3.37 42.51a.23.23 0 0 1-.25.21Z"/><path fill="#37474f" d="M338.24 173.12a.24.24 0 0 1-.24-.12l-12.64-33.25a.23.23 0 0 1 .43-.16l12.64 33.25a.22.22 0 0 1-.13.29Z"/><path fill="#37474f" d="M316.34 169.74h-.07a.22.22 0 0 1-.15-.28l9.26-29.87a.23.23 0 0 1 .28-.15.23.23 0 0 1 .15.29l-9.26 29.86a.22.22 0 0 1-.21.15Z"/><path fill="#cd5c5c" d="M373.21 140.22c-.1 7 5.86 10.69 13.09 10.69s13.1-3.69 13.1-10.69Z"/><path d="M373.21 140.22c-.1 7 5.86 10.69 13.09 10.69s13.1-3.69 13.1-10.69Z" opacity=".3"/><path fill="#cd5c5c" d="M377.05 145.57c-5.12-2.95-5.12-7.74 0-10.69s13.4-2.95 18.51 0 5.12 7.74 0 10.69-13.4 2.95-18.51 0Z"/><path d="M377.71 145.92a20.87 20.87 0 0 0 17.19 0c1.74-2.07 1.14-4.62-1.83-6.34a14.94 14.94 0 0 0-13.53 0c-2.97 1.72-3.54 4.27-1.83 6.34Z" opacity=".1"/><path fill="#37474f" d="M382.93 147.76a.21.21 0 0 1-.21-.24l3.36-42.52a.22.22 0 0 1 .24-.21.23.23 0 0 1 .21.25l-3.38 42.52a.23.23 0 0 1-.22.2Z"/><path fill="#37474f" d="M399 138.49a.24.24 0 0 1-.22-.15l-12.64-33.25a.23.23 0 0 1 .13-.29.23.23 0 0 1 .3.13l12.64 33.25a.23.23 0 0 1-.13.29Z"/><path fill="#37474f" d="M377 135.11a.23.23 0 0 1-.15-.29l9.26-29.87a.23.23 0 0 1 .28-.15.23.23 0 0 1 .15.29l-9.26 29.86a.23.23 0 0 1-.28.16Z"/><path fill="#455a64" d="M387.78 95.1a3 3 0 0 1-1.21 1.78 1.74 1.74 0 0 1-1.42.25 1.85 1.85 0 0 1-1.1-1 3.94 3.94 0 0 1-.28-2.28 6.44 6.44 0 0 1 .65-2 6.85 6.85 0 0 1 1.25-1.73 3.68 3.68 0 0 1 2.2-1.12 2.34 2.34 0 0 1 1.52.42 3.15 3.15 0 0 1 .91 1 5.29 5.29 0 0 1 .57 2.28 9.28 9.28 0 0 1-.92 4.12 10.15 10.15 0 0 1-2.52 3.4 6 6 0 0 1-.93.66 10.18 10.18 0 0 1-.92.5 10.7 10.7 0 0 1-2 .76 13.23 13.23 0 0 1-4.11.47c-2.7-.09-5.13-.6-7.5-.79a24.86 24.86 0 0 0-6.91.24 30.48 30.48 0 0 0-12.51 6 66.77 66.77 0 0 0-10.26 10.19c-3.15 3.75-6.05 7.77-9.41 11.57a26.29 26.29 0 0 1-5.83 5.19 5.44 5.44 0 0 1-2.18.85 3.22 3.22 0 0 1-2.64-.79 3.75 3.75 0 0 1-1.12-2.3 6.85 6.85 0 0 1 .08-2.18 9.21 9.21 0 0 1 1.66-3.79 5.53 5.53 0 0 1 1.64-1.46 3.4 3.4 0 0 1 1.19-.38 2.16 2.16 0 0 1 1.36.33 2.1 2.1 0 0 1 .84 1.09 3.36 3.36 0 0 1 .16 1.15 5.08 5.08 0 0 1-.47 2 4.82 4.82 0 0 1-1.18 1.71 2.6 2.6 0 0 1-1 .57 1.38 1.38 0 0 1-1.26-.21.39.39 0 0 1-.05-.55.4.4 0 0 1 .53-.07c.27.19.74 0 1.09-.43a3.85 3.85 0 0 0 .78-1.42 4.5 4.5 0 0 0 .23-1.6c0-.51-.24-.94-.45-1a1 1 0 0 0-1 .2 3.88 3.88 0 0 0-1 1.09 7.4 7.4 0 0 0-1.09 3.07 4.79 4.79 0 0 0 0 1.52 1.6 1.6 0 0 0 .48 1c.42.33 1.11.23 2-.45a26.27 26.27 0 0 0 5-4.94c6-7.61 11.4-16.38 19.61-22.77a36.89 36.89 0 0 1 6.55-4.2 26.7 26.7 0 0 1 7.52-2.54 25.3 25.3 0 0 1 7.91-.06c2.57.33 5 .93 7.27 1.09a11.44 11.44 0 0 0 3.27-.18 8.47 8.47 0 0 0 1.53-.48c.25-.1.49-.23.74-.34a5.6 5.6 0 0 0 .61-.38 7.7 7.7 0 0 0 2-2.43 7 7 0 0 0 .89-3 3.17 3.17 0 0 0-.22-1.33 1.33 1.33 0 0 0-.27-.38.35.35 0 0 0-.23-.09 1.81 1.81 0 0 0-1.06.52 4.81 4.81 0 0 0-1 1.22 4.38 4.38 0 0 0-.58 1.46 2.49 2.49 0 0 0 0 1.37.7.7 0 0 0 .19.28s.17 0 .37 0a3.78 3.78 0 0 0 1.24-.95.34.34 0 0 1 .48 0 .34.34 0 0 1 .31.27Z"/><path fill="#455a64" d="M349.72 107.26c0 4.59 2.32 4.76 6.24 2.5s6.23-5.11 6.23-9.7Z"/><path fill="#cd5c5c" d="M358.84 95.44c-.42 2.14-1.6 4.65-2.89 5.4s-2.45-.43-2.88-2.08a6.94 6.94 0 0 1 2.88-5c1.47-.84 2.7-.1 2.89 1.68Z"/><path fill="#455a64" d="M356 90c-2.33 1.35-4.23 5-4.23 8.1s1.9 5.65 4.23 4.31 4.24-6.08 4.24-9.2S358.3 88.66 356 90Zm0 1.58c1.69-1 3.06.06 3.06 2.31a8 8 0 0 1-.17 1.54c-.19-1.78-1.42-2.52-2.89-1.67a6.94 6.94 0 0 0-2.88 5 5.77 5.77 0 0 1-.16-1.33 7.31 7.31 0 0 1 3.04-5.84Z"/><path fill="#cd5c5c" d="m355.96 95.73 1.34 1.31-1.35 3.02-1.33-1.49 1.34-2.84z"/><path fill="#fff" d="m356.51 98.13-.43.89-.08-2.43.5.52a1 1 0 0 1 .01 1.02Z" opacity=".6"/><path fill="#455a64" d="M355.44 91.56a1.25 1.25 0 0 1-.61-.17 2.6 2.6 0 0 1-.95-2.34c0-1.74.81-3.57 1.85-4.17a1.27 1.27 0 0 1 1.34 0 2.6 2.6 0 0 1 1 2.35c0 1.73-.81 3.57-1.85 4.16a1.38 1.38 0 0 1-.78.17Zm1-6a.55.55 0 0 0-.28.09 4.27 4.27 0 0 0-1.39 3.38c0 .87.25 1.41.5 1.55 0 0 .17.1.44 0a4.26 4.26 0 0 0 1.39-3.37c0-.88-.26-1.42-.5-1.56a.28.28 0 0 0-.14-.07Zm-.44 16.02c-5.87 3.39-12.67 6.82-14.88 10.67a11.79 11.79 0 0 0-1.69 7.08Zm0 0c5.87-3.39 12.68-7.82 14.88-6.51s1.7 5.12 1.7 5.12Z"/><path fill="#cd5c5c" d="M371.16 97.87a19.73 19.73 0 0 0-9 1.19s4.8-3.17 7.45-2.84c1.79.22 1.55 1.65 1.55 1.65Zm-30.42 17.56c2-2.59 6.53-7.52 9-9.16 0 0-4.79 2.36-7.44 5.76-1.8 2.25-1.56 3.4-1.56 3.4Z"/><path fill="#455a64" d="M331.42 123.54a4.08 4.08 0 0 0 0 2.37 1.26 1.26 0 0 0 .4.74h.08s0-.06.1-.11c.37-.2.78-1 1.46-1.31a7.19 7.19 0 0 1 2.59-1 .17.17 0 0 1 .2.15 4.52 4.52 0 0 1-.94 2.81 4.3 4.3 0 0 1-2.87 1.45 2.38 2.38 0 0 1-1.18-.14 2 2 0 0 1-.94-.82A3 3 0 0 1 330 126a5 5 0 0 1 .39-1.41 3.3 3.3 0 0 1 .8-1.18.15.15 0 0 1 .2 0 .14.14 0 0 1 0 .14Zm49.19-28.66a.94.94 0 0 1 .67.44 2.48 2.48 0 0 1 .31.66 4.78 4.78 0 0 1 .24 1.4 5.38 5.38 0 0 1-.74 2.85 6.8 6.8 0 0 1-.94 1.3 2.73 2.73 0 0 1-1.42.79 3.33 3.33 0 0 1-1.57 0 2.94 2.94 0 0 1-1.38-.77.19.19 0 0 1 0-.26c.86-.71 1.47-1.1 2-1.48a2.85 2.85 0 0 1 .77-.41 2.1 2.1 0 0 0 .81-.45 4.55 4.55 0 0 0 1.14-1.73 4 4 0 0 0 .28-1.08c0-.36 0-.77-.2-.95a.14.14 0 0 1 0-.19.12.12 0 0 1 .03-.12Zm-55.73 45.85a1.36 1.36 0 0 1-.68-.18 2 2 0 0 1-.85-1.84 4.7 4.7 0 0 1 2-3.8 1.59 1.59 0 0 1 1.62-.1 2 2 0 0 1 .85 1.84 4.72 4.72 0 0 1-2 3.81 1.9 1.9 0 0 1-.94.27Zm1.42-5.19a1 1 0 0 0-.48.16 3.82 3.82 0 0 0-1.55 3 1.18 1.18 0 0 0 .39 1 .75.75 0 0 0 .71-.09 3.85 3.85 0 0 0 1.55-3 1.21 1.21 0 0 0-.38-1.05.53.53 0 0 0-.24-.02Zm59.29-29.86a1.36 1.36 0 0 1-.68-.18 2 2 0 0 1-.85-1.84 4.7 4.7 0 0 1 2-3.8 1.59 1.59 0 0 1 1.62-.1 2 2 0 0 1 .84 1.84 4.73 4.73 0 0 1-2 3.81 1.93 1.93 0 0 1-.93.27Zm1.42-5.19a1 1 0 0 0-.48.16 3.84 3.84 0 0 0-1.56 3 1.2 1.2 0 0 0 .39 1 .77.77 0 0 0 .72-.09 3.85 3.85 0 0 0 1.55-3 1.19 1.19 0 0 0-.39-1 .46.46 0 0 0-.24-.07Z"/><path fill="#37474f" d="M356 86.36a.22.22 0 0 1-.22-.22V54.66a3.21 3.21 0 0 1-2.5-.25 3.75 3.75 0 0 1-2.44-3.59.21.21 0 0 1 .24-.21.22.22 0 0 1 .21.24 3.34 3.34 0 0 0 2.13 3.15 2.34 2.34 0 0 0 2.37.08.23.23 0 0 1 .25 0 .23.23 0 0 1 .14.21v31.9a.22.22 0 0 1-.18.17Z"/></svg>