<svg xmlns="http://www.w3.org/2000/svg" viewBox="0 0 500 500"><g fill="#f5f5f5"><path d="m69.62 112.05 1.8-4.16c15.17-35 48-59.4 85.69-62.18a97.34 97.34 0 0 1 14.59 0c35 2.59 68.13 24.24 84.92 55.48 9.88 18.38 15 40.4 30.77 53.89 20.57 17.56 50.9 14 77.37 9.54s56.84-8 77.33 9.7c12.83 11.06 18.82 28.46 20.25 45.43 3.76 44.93-21.83 89.09-58.63 114.35s-83.09 33.45-127.55 30.68c-62.29-3.88-124.54-29.5-166.31-76.55S49.6 171.79 69.62 112.05Z"/><circle cx="349.71" cy="95.79" r="32.18"/><circle cx="109.23" cy="377.56" r="32.18"/></g><path fill="#263238" d="M463.49 472.43c0 .15-95.61.26-213.52.26s-213.54-.11-213.54-.26 95.59-.26 213.54-.26 213.52.12 213.52.26ZM278.15 331.36a109.91 109.91 0 0 0 10.33 6.16c1.4.73 3.19 1.41 4.45.47-4.77-3.66-9.72-7.55-12.55-12.78 3.66-9.09 10-20.22 20.91-26.34 0 0 .35-.18 1-.47a31.87 31.87 0 0 1 3.19 6.72c1.28 3.57 2.37 7.27 4.47 10.43.7-.87.44-2.13.14-3.2l-4.38-15.49a109.86 109.86 0 0 1 14.29-5.08l4.44 10.29c.8-.79.63-2.08.48-3.19a28.66 28.66 0 0 1 0-8.22 25.58 25.58 0 0 1 8-.35c7.7 1.14 12.28 4.45 11.84 9.4a94.8 94.8 0 0 0-12.5-.31 53.05 53.05 0 0 0 12.16 2 16 16 0 0 1-2.9 5.21 75.304 75.304 0 0 1-4.5 5.18 47.35 47.35 0 0 0-20.62-.33c2.16 1.38 4.95 1 7.52.92a25.7 25.7 0 0 1 10.59 2.05c-3.14 3.33-6.36 7.14-12.08 17.08l-2.6 4.5a10.68 10.68 0 0 1-5.05 1.65 25.39 25.39 0 0 1-7.45-.8c-.49-.1-1.17-.1-1.29.38s.58.83 1.11.9a33.63 33.63 0 0 1 5.11.73 7 7 0 0 1 4.18 2.83c-4.82 7.81-9.64 14-16 16.95a21.18 21.18 0 0 1-7.1-3.24 11.32 11.32 0 0 0 3.56 4.46 21.36 21.36 0 0 1-6.92.47c-15.45-1.38-15.3-17.52-12.53-26.68.19-.66.44-1.47.7-2.3Z"/><path fill="#263238" d="M272 381.65a1.9 1.9 0 0 1 0-.28c0-.22.07-.48.12-.82.13-.71.23-1.78.55-3.13a62.88 62.88 0 0 1 3.88-11 131.92 131.92 0 0 1 8.28-15.2c3.45-5.53 7.54-11.42 12-17.46 2.24-3 4.47-5.93 6.65-8.73s4.24-5.51 6.32-8a72.67 72.67 0 0 1 6.23-6.86l6.14-5.22c3.73-3.22 6.84-5.72 9.08-7.33 1.11-.81 2-1.41 2.61-1.8l.7-.44c.16-.09.24-.14.25-.13a1.19 1.19 0 0 1-.22.18l-.67.48c-.59.42-1.46 1-2.55 1.87-2.2 1.66-5.27 4.2-9 7.45l-6.09 5.26a72.17 72.17 0 0 0-6.15 6.84c-2.06 2.52-4.12 5.25-6.29 8.05s-4.39 5.71-6.63 8.72c-4.48 6-8.57 11.9-12 17.4a137.19 137.19 0 0 0-8.36 15.1 66.83 66.83 0 0 0-4 10.9c-.35 1.33-.49 2.39-.65 3.1-.07.33-.13.59-.17.8a.92.92 0 0 1-.03.25ZM269.93 357c.07.05-.64 1.12-1.47 3a51.07 51.07 0 0 0-2.6 7.66c-.8 3.07-1.34 5.89-1.66 7.95s-.43 3.33-.51 3.33a3.63 3.63 0 0 1 0-.91c0-.59.06-1.43.18-2.47a57.53 57.53 0 0 1 1.51-8 41.51 41.51 0 0 1 2.77-7.69 17.2 17.2 0 0 1 1.24-2.15c.31-.5.51-.72.54-.72Z"/><path fill="#455a64" d="M291.18 311.18A54.77 54.77 0 0 0 274.91 324l3.73 6.12s-4.33-2.22-6.18-3.12a57 57 0 0 0-7.55 13.24 12.85 12.85 0 0 0 1.27 1.17l3.48 2.92c.5.41 1 1.1.65 1.61a1.26 1.26 0 0 1-1.2.29 24.25 24.25 0 0 1-5.82-1.41 53.79 53.79 0 0 0-1.9 8.88c-.67 5.4-.33 11.44 3.36 15.42 0 0 .5-5.51 11-22.34s34.91-36.28 34.91-36.28c-5.46-4.21-13.37-2.43-19.48.68Z"/><path fill="#263238" d="M271 354.08a35.82 35.82 0 0 1-4.71-.58 34.38 34.38 0 0 1-4.68-.71 24.66 24.66 0 0 1 9.39 1.29Zm8.45-12.59a42.57 42.57 0 0 1-6-2.95 43.41 43.41 0 0 1-5.8-3.4 43.73 43.73 0 0 1 6 2.94 43.58 43.58 0 0 1 5.8 3.41Zm.48-3.33a21.33 21.33 0 0 1-4.33-2 22.83 22.83 0 0 1-4.09-2.5 21.33 21.33 0 0 1 4.33 2 23.3 23.3 0 0 1 4.09 2.5Zm1.84-16.16a58 58 0 0 1 6.81 8.69 59.42 59.42 0 0 1-6.81-8.69Zm5.7-3.77c.15 0 .7 2.23 1.9 4.82s2.56 4.48 2.43 4.58a16.94 16.94 0 0 1-4.33-9.4Zm5.98.35a7.24 7.24 0 0 1 1.49 2.31 7.48 7.48 0 0 1 1 2.55 7.44 7.44 0 0 1-1.49-2.31 7.66 7.66 0 0 1-1-2.55Zm5.36-1.79c.11-.07.56.42.84 1.18s.25 1.42.11 1.44-.35-.57-.6-1.26-.48-1.28-.35-1.36Zm-56.01 65.75a4.11 4.11 0 0 1-.11-.81c-.05-.58-.11-1.35-.2-2.32-.17-2-.47-4.92-1-8.49a102.66 102.66 0 0 0-7.7-27 76.85 76.85 0 0 0-15.89-23.05 66.25 66.25 0 0 0-6.44-5.6c-.79-.63-1.45-1.06-1.87-1.39a4.85 4.85 0 0 1-.64-.5 4.27 4.27 0 0 1 .7.42c.44.3 1.12.7 1.93 1.31a61.07 61.07 0 0 1 6.58 5.49 74.82 74.82 0 0 1 16.1 23.1 98.81 98.81 0 0 1 7.59 27.17c.48 3.59.72 6.51.84 8.53.07 1 .08 1.79.1 2.33s.02.81.01.81Z"/><path fill="#263238" d="M171.82 271.62c9-2.3 12.16 1.08 19.78 2.82 12 2.75 24 5.9 33 12S239.3 302 236.8 313a22.12 22.12 0 0 1-11.56 14.75 26.65 26.65 0 0 1-13.32 2.32c-11.87-.73-20.41-6.55-27.6-12.76a133.93 133.93 0 0 1-19.41-20.66c-2.31-3.07-4.5-6.28-5.18-10.1a13.8 13.8 0 0 1 1.16-8.22 11 11 0 0 1 6.48-5.23Zm79.66 73.1a1.09 1.09 0 0 1-.07-.32c0-.25-.09-.56-.16-1l-.54-3.69c-.48-3.2-1.08-7.85-1.78-13.6-1.41-11.49-3-27.41-4.62-45s-3.16-33.51-4.47-45c-.66-5.75-1.21-10.4-1.62-13.61-.19-1.58-.34-2.82-.45-3.7l-.1-1a1.62 1.62 0 0 1 0-.33 1.12 1.12 0 0 1 .07.33c0 .24.09.56.16.95l.54 3.69c.48 3.21 1.08 7.85 1.78 13.6 1.41 11.49 3 27.41 4.62 45s3.16 33.5 4.47 45c.66 5.75 1.21 10.4 1.62 13.61.19 1.58.34 2.82.45 3.7l.1 1a1.64 1.64 0 0 1 0 .37Z"/><path fill="#455a64" d="M197.9 84.89c12.16 3.5 14.11 12.31 22.33 21.94 13 15.2 25.69 31.09 33.07 49.66s8.83 40.44-.55 58.08c-4.59 8.63-12.7 16.43-22.48 16.59-6.43.11-12.5-3.11-17.47-7.19-14-11.44-20.94-29.18-26.07-46.47a366.51 366.51 0 0 1-11.6-53.63c-1-7.48-1.83-15.12-.45-22.54a30.63 30.63 0 0 1 6.14-13.77 11.29 11.29 0 0 1 10.86-3.85Z"/><path fill="#263238" d="M187.57 93.61s.07.11.18.32.29.57.5 1l1.87 3.75c1.62 3.26 3.91 8 6.67 13.89 5.53 11.77 12.84 28.2 20.24 46.62s13.45 35.36 17.6 47.69c2.07 6.17 3.7 11.17 4.78 14.65.53 1.71 1 3.05 1.24 4l.31 1 .09.36a1.26 1.26 0 0 1-.14-.34l-.36-1c-.32-.94-.76-2.27-1.33-4-1.14-3.46-2.82-8.44-4.94-14.59-4.23-12.29-10.35-29.19-17.74-47.61s-14.65-34.85-20.09-46.67c-2.71-5.9-4.94-10.67-6.51-14L188.16 95c-.19-.42-.34-.75-.46-1a1.34 1.34 0 0 1-.13-.39ZM254.5 377a2.41 2.41 0 0 1-.07-.37c0-.27-.09-.64-.15-1.09-.13-1-.31-2.41-.54-4.21s-.5-4.06-.75-6.67-.6-5.56-.86-8.84-.59-6.87-.83-10.74-.47-8-.68-12.34c-.36-8.69-.56-18.26-.48-28.31s.52-19.62 1.05-28.31c.31-4.34.57-8.47.94-12.32s.69-7.45 1-10.72.72-6.23 1-8.83.62-4.82.89-6.64.47-3.21.62-4.2c.07-.45.13-.81.17-1.09a2.2 2.2 0 0 1 .19-.32 2.07 2.07 0 0 1 0 .37c0 .27-.07.64-.13 1.1-.12 1-.29 2.4-.52 4.2s-.52 4.06-.8 6.66-.66 5.55-1 8.83-.69 6.85-1 10.71-.6 8-.89 12.32c-.51 8.69-.89 18.24-1 28.28s.11 19.6.43 28.29c.21 4.35.38 8.48.65 12.34s.5 7.45.76 10.73.54 6.24.78 8.85.46 4.84.67 6.67.33 3.22.43 4.21c.05.46.08.83.1 1.1a2.17 2.17 0 0 1 .02.34Z"/><path fill="#263238" d="M250.13 300a4.24 4.24 0 0 1 .2-.79c.17-.56.4-1.31.68-2.25.6-2 1.49-4.77 2.62-8.24 2.26-6.94 5.5-16.48 9.29-26.95s7.41-19.88 10.12-26.66c1.35-3.39 2.46-6.12 3.25-8 .39-.9.69-1.62.92-2.16a7 7 0 0 1 .35-.74 4.2 4.2 0 0 1-.25.78l-.83 2.2-3.1 8.06c-2.62 6.81-6.18 16.24-10 26.7s-7.08 20-9.43 26.9c-1.16 3.41-2.1 6.2-2.78 8.18-.32.93-.57 1.67-.77 2.22a4.42 4.42 0 0 1-.27.75ZM254 130.61a1.75 1.75 0 0 1 0 .37c0 .28 0 .64-.07 1.09-.08 1-.18 2.4-.32 4.19-.3 3.63-.68 8.9-1.1 15.4s-.83 14.25-1.18 22.86-.58 18.09-.71 28c-.22 19.89.13 37.9.48 50.94.2 6.49.36 11.75.47 15.43.06 1.8.1 3.2.13 4.19v1.47a1.61 1.61 0 0 1-.05-.37c0-.27 0-.63-.07-1.09-.05-1-.12-2.4-.22-4.19-.19-3.65-.41-8.92-.63-15.43-.46-13-.86-31.05-.64-51 .13-9.95.4-19.42.75-28s.82-16.36 1.3-22.87.9-11.76 1.26-15.39l.41-4.18.19-1.03a1.74 1.74 0 0 1 0-.39Z"/><path d="M197.69 175.66c5.13-.22 10.12-1.6 15.07-3a77.05 77.05 0 0 0-13.62-1.35 31.49 31.49 0 0 0-6.9.87 22.94 22.94 0 0 0 8.9-8.85l.09-.17 7.8-7.44-.11-.15c-2.18 1.58-4.33 3.22-6.45 4.9a23 23 0 0 0 1.18-12.22 19.81 19.81 0 0 1-6.57 7.75 29.6 29.6 0 0 0 1.54-5.77 12.15 12.15 0 0 0-1.11-7.5c-3.64 6.77-9.45 12.37-12 19.62-.15.43-.29.87-.41 1.31-.74-6.17-2.14-12.27-2.21-18.48a65.28 65.28 0 0 0-.77 12c-.35-.46-.72-.9-1.09-1.35q2.49 10.76 5.62 21.35a7.17 7.17 0 0 1 3 .14 14.8 14.8 0 0 0-2.62.16l-.3.05q1.19 4 2.52 8a12 12 0 0 1 3.78 0 6.59 6.59 0 0 1 1.52.43l3.22 2c6.91 5.43 14.47 18 14.47 18l-6.7-15.4c-.6-.84-3.43-7.68-9.11-11.2a9.28 9.28 0 0 0-2.08-2.07 9.83 9.83 0 0 0-4.54-1.73c2.63.03 5.27.21 7.88.1Z" opacity=".3"/><path fill="#263238" d="m143.06 181.08 18.53 3.55c2.09.4 4.47 1 5.43 2.91l-1.33.8c-3.43-1.79-7.4-2.86-11.08-4.05-3.31-1.07-12.39-2.79-11.55-3.21Z"/><path fill="#cd5c5c" d="M171.74 182a26.11 26.11 0 0 1 12.61-5 78 78 0 0 1 13.67-.28c-4.74 1.95-9.54 3.9-14.61 4.73-4.18.69-8.54.6-12.53 2.05Z"/><path d="M171.74 182a26.11 26.11 0 0 1 12.61-5 78 78 0 0 1 13.67-.28c-4.74 1.95-9.54 3.9-14.61 4.73-4.18.69-8.54.6-12.53 2.05Z" opacity=".3"/><path fill="#263238" d="m192.31 160.37-8.31 10.1a65.53 65.53 0 0 1-4.89 5.5c-2.74 2.64-6 4.85-8.07 8a12.11 12.11 0 0 1 2.3-3.68 201.21 201.21 0 0 1 18.87-20.08"/><path fill="#cd5c5c" d="M169.9 186.13c-.67-5.43-1.33-11-.15-16.37 1.67-7.51 6.77-13.76 9.58-20.91a12.1 12.1 0 0 1 2 7.31 36.4 36.4 0 0 1-1.23 7.6c-1.19 5-2.41 10.14-5.16 14.51-1.16 1.85-4 5.06-5 7.86"/><path d="M169.9 186.13c-.67-5.43-1.33-11-.15-16.37 1.67-7.51 6.77-13.76 9.58-20.91a12.1 12.1 0 0 1 2 7.31 36.4 36.4 0 0 1-1.23 7.6c-1.19 5-2.41 10.14-5.16 14.51-1.16 1.85-4 5.06-5 7.86" opacity=".3"/><path fill="#cd5c5c" d="M173.44 181.87a22.2 22.2 0 0 1 3.16-2.47 22.73 22.73 0 0 0 9.48-25.8 19.93 19.93 0 0 1-7.35 9.87s-2.48.15-4.55 5.27-4.48 16.66-4.48 16.66Z"/><path fill="#263238" d="M153.86 196.05c8.95-4.37 7.43-8.11 19.22-11.43s18.92 9.7 19.92 10.81l11 14.5s-16.38-17.86-24.06-18-5.4 3.84-20.62 8.13-21.88 2.81-21.88 2.81a142.7 142.7 0 0 0 16.42-6.82Z"/><path fill="#cd5c5c" d="M176.64 184.35a6.47 6.47 0 0 0-6.74 1.77 4.52 4.52 0 0 1 3.46-3.49 10.2 10.2 0 0 1 7 1 9.46 9.46 0 0 1 4.88 8.54c-.24 4.93-4.38 8.69-6.28 13.24.66-3.07 1.33-6.14 2-9.21a25.6 25.6 0 0 0 .68-4.51 7.85 7.85 0 0 0-1.14-4.65 6.81 6.81 0 0 0-3.86-2.69Z"/><path fill="#263238" d="M167.85 176.64c-1.55-7.8-3.11-15.68-2.74-23.62 1 7.69 4.06 15 5.34 22.63a10.38 10.38 0 0 1 .17 3c-.14 1-.33 5.79-1.12 6.41l-.12-.43c-.23-1.86-1.19-6.3-1.53-7.99Z"/><path fill="#cd5c5c" d="M157.66 153.4a18.73 18.73 0 0 0 4.05 7.63c1.62 1.83 3.59 3.34 5.18 5.2s2.8 4.26 2.47 6.68c-.23 1.74-1.22 3.29-1.66 5a8.11 8.11 0 0 0 2.36 7.85c-.06 0-.06.45-.26.35-5.61-2.57-9.91-8.18-12.29-13.92a24.27 24.27 0 0 1 .15-18.79Z"/><path fill="#263238" d="M157.66 153.4c0 .06-.38 1-.91 2.84a24.59 24.59 0 0 0-.83 8 24.92 24.92 0 0 0 1 5.49 27.93 27.93 0 0 0 2.56 5.85 24.57 24.57 0 0 0 10.23 10.17l.17.08s.08 0 0 0a.18.18 0 0 0-.15 0s0 0 0-.06v-.16a.17.17 0 0 1 0-.07v-.06a.36.36 0 0 1 .2-.06l-.2.46a8.41 8.41 0 0 1-2.63-7c.28-2.54 1.92-4.5 1.91-6.68a9 9 0 0 0-2.24-5.62 49.34 49.34 0 0 0-3.84-3.91 19 19 0 0 1-4.57-6.52 15.46 15.46 0 0 1-.71-2.05c-.12-.47-.14-.72-.15-.74s.09.22.25.71a21.3 21.3 0 0 0 .79 2 19.69 19.69 0 0 0 4.64 6.34 46.28 46.28 0 0 1 3.92 3.9 9.39 9.39 0 0 1 2.39 5.9c0 2.39-1.67 4.38-1.89 6.73a8 8 0 0 0 2.48 6.58l.18.16-.36.05a.39.39 0 0 0 .18.1c.07 0 0 0 0 0v.09a.77.77 0 0 1-.15.28.34.34 0 0 1-.31.1.64.64 0 0 1-.16-.06l-.17-.08a21.26 21.26 0 0 1-6.19-4.61 30.18 30.18 0 0 1-6.8-11.76 25.13 25.13 0 0 1-.92-5.59 23.92 23.92 0 0 1 1-8.09 15.29 15.29 0 0 1 1.28-2.71Zm12.87 19.94a1.86 1.86 0 0 1-.09-.74 10.66 10.66 0 0 1 .13-2 17.74 17.74 0 0 1 2.28-6.24 32.13 32.13 0 0 1 4-5.32 12 12 0 0 1 1.95-1.93 15.5 15.5 0 0 1-1.67 2.17 42.52 42.52 0 0 0-3.79 5.34 20.16 20.16 0 0 0-2.37 6.05c-.37 1.61-.35 2.67-.44 2.67Zm6.82 6.25a8.1 8.1 0 0 1 2.12-.71 49.45 49.45 0 0 1 10.65-1.52 9 9 0 0 1 2.23.09c0 .16-3.39.3-7.53.89s-7.43 1.4-7.47 1.25Zm65.42 82.55a3.66 3.66 0 0 1-.31-.65l-.8-1.9c-.18-.41-.35-.87-.58-1.36s-.52-1-.82-1.57c-.59-1.12-1.21-2.43-2.07-3.78a177 177 0 0 0-14.52-20.28c-6.13-7.6-12-14.17-16.35-18.91l-5.13-5.57-1.4-1.52a3.17 3.17 0 0 1-.46-.55 3.8 3.8 0 0 1 .54.48l1.47 1.45c1.26 1.27 3.07 3.12 5.25 5.46 4.38 4.68 10.34 11.22 16.48 18.83a161.39 161.39 0 0 1 14.44 20.43c.85 1.36 1.44 2.69 2 3.83l.78 1.59c.22.5.38 1 .54 1.4l.71 1.94a3.92 3.92 0 0 1 .23.68Z"/><path fill="#455a64" d="M259.14 225.61s-15.51-.42-21.56-9.3 2.16-43.88 35.2-61.49l8.54 8.59-4.52-14.65s8.38-15.64 42.67-20.41c0 0 11.32-2.89 18.63-.87s5.1 7.1 5.1 7.1-81.33 70.7-81.69 71.64-2.37 19.39-2.37 19.39Z"/><path d="M338.1 127.48c-7.31-2-18.63.87-18.63.87-34.29 4.77-42.67 20.41-42.67 20.41l4.52 14.65-8.54-8.59c-33 17.61-41.24 52.61-35.2 61.49s21.56 9.3 21.56 9.3 2-18.45 2.37-19.39 81.69-71.64 81.69-71.64 2.22-5.08-5.1-7.1Z" opacity=".3"/><path fill="#455a64" d="M302.35 155.35c-11.56 6-23.39 12.14-32.64 21.14q2.67 2.37 5.53 4.5c1.17.87 2.48 1.92 2.53 3.38q-6.4-1.1-12.7-2.83c-12.58 15.41-16.26 36.1-19.57 55.72a3.17 3.17 0 0 0-.05 1c.21 2 2.12 2.13 3.66 2a86.05 86.05 0 0 0 11.1-1.36l8.56-18.56c8.56-18.55 39.13-51.83 51.05-62s21.83-20.45 22.39-21.72c.34-.75.63-1.52.94-2.28Z"/><path fill="#263238" d="M297.88 179.51a21.22 21.22 0 0 1-2.72-1.63c-1.65-1-3.92-2.49-6.46-4s-4.87-2.94-6.55-3.93a22.55 22.55 0 0 1-2.68-1.69 16.57 16.57 0 0 1 2.86 1.36c1.73.92 4.09 2.25 6.64 3.81s4.8 3.07 6.4 4.2a16.56 16.56 0 0 1 2.51 1.88Zm3.88-7.03a25 25 0 0 1-4.33-2.65 25.26 25.26 0 0 1-4-3.09 25 25 0 0 1 4.34 2.66 24 24 0 0 1 3.99 3.08Zm-9.31-7.58c-.09.12-.49 0-.9-.34s-.67-.66-.59-.77.49 0 .9.35.68.65.59.76Zm17.85.17a42.21 42.21 0 0 1-4.2-4.06 43 43 0 0 1-4-4.24 26.38 26.38 0 0 1 4.39 3.87 27.39 27.39 0 0 1 3.81 4.43Zm3.53-6.3c.14-.06.6.82 1.05 2a5 5 0 0 1 .56 2.15c-.13.05-.6-.83-1.05-2a5 5 0 0 1-.56-2.15Zm-35 20.34a10.74 10.74 0 0 1 2 1.14l4.63 2.95 4.65 2.93a9.84 9.84 0 0 1 1.88 1.3 9.37 9.37 0 0 1-2.06-1c-1.24-.67-2.93-1.65-4.75-2.8s-3.42-2.25-4.56-3.08a9.1 9.1 0 0 1-1.79-1.44ZM272 214.86a20.63 20.63 0 0 1-3.14.09c-1.93 0-4.6 0-7.55.16s-5.61.31-7.54.46a21.24 21.24 0 0 1-3.13.16 17.35 17.35 0 0 1 3.09-.53c1.93-.24 4.6-.49 7.56-.61s5.64-.09 7.58 0a17 17 0 0 1 3.13.27Zm2.25-3.71a16.64 16.64 0 0 1-2.58-.51c-1.58-.36-3.77-.83-6.2-1.24s-4.65-.7-6.26-.88a14 14 0 0 1-2.6-.37 12.13 12.13 0 0 1 2.63 0 59.41 59.41 0 0 1 12.52 2.13 11.7 11.7 0 0 1 2.49.87Zm40.5-10.33-14.67 7.35c-1.66.83-3.51 1.89-3.87 3.71l1.31.36a62.46 62.46 0 0 1 8.31-6c2.53-1.69 9.72-5.24 8.92-5.42Z"/><path fill="#cd5c5c" d="M291 208.34a22.66 22.66 0 0 0-11.72-1.16 67.74 67.74 0 0 0-11.52 3 59.11 59.11 0 0 0 13.35.51c3.67-.41 7.29-1.51 11-1.24Z"/><path d="M291 208.34a22.66 22.66 0 0 0-11.72-1.16 67.74 67.74 0 0 0-11.52 3 59.11 59.11 0 0 0 13.35.51c3.67-.41 7.29-1.51 11-1.24Z" opacity=".3"/><path fill="#263238" d="m268.62 195.11 9.38 6.49a58.65 58.65 0 0 0 5.4 3.44c2.91 1.57 6.14 2.65 8.64 4.82a10.09 10.09 0 0 0-2.79-2.53A174.53 174.53 0 0 0 268.7 195"/><path fill="#cd5c5c" d="M293.47 211.38c-.72-4.7-1.5-9.55-3.74-13.74-3.17-5.89-8.91-9.92-13-15.24a10.61 10.61 0 0 0 .07 6.59 31.53 31.53 0 0 0 2.82 6.07c2.18 3.92 4.41 7.92 7.74 10.93 1.41 1.27 4.54 3.3 6.07 5.39"/><path d="M293.47 211.38c-.72-4.7-1.5-9.55-3.74-13.74-3.17-5.89-8.91-9.92-13-15.24a10.61 10.61 0 0 0 .07 6.59 31.53 31.53 0 0 0 2.82 6.07c2.18 3.92 4.41 7.92 7.74 10.93 1.41 1.27 4.54 3.3 6.07 5.39" opacity=".3"/><path fill="#cd5c5c" d="M289.5 208.66a18.6 18.6 0 0 0-3.23-1.33 19.79 19.79 0 0 1-14-19.36 17.32 17.32 0 0 0 8.49 6.52s2.11-.46 5 3.35 7.69 12.88 7.69 12.88Z"/><path fill="#455a64" d="M309.25 215.91c-8.53-1.55-8.14-5-18.8-5s-13.56 12.59-14.14 13.76l-4.49 14.14s8.17-18.21 14.56-20.15 5.43 1.94 19.18 1.94 19-2.81 19-2.81a125 125 0 0 1-15.31-1.88Z"/><path fill="#cd5c5c" d="M287.41 211.48a5.65 5.65 0 0 1 6.06-.11 4 4 0 0 0-3.72-2.1 9 9 0 0 0-5.62 2.44 8.29 8.29 0 0 0-2.07 8.31c1.37 4.07 5.72 6.24 8.39 9.6l-3.84-7.25a21.73 21.73 0 0 1-1.64-3.61 6.88 6.88 0 0 1-.14-4.16 6 6 0 0 1 2.58-3.12Z"/><path fill="#263238" d="M293 203c-.54-6.89-1.1-13.86-3.29-20.42 1 6.68.14 13.5.88 20.21a8.82 8.82 0 0 0 .56 2.54c.35.81 1.64 4.78 2.45 5.11V210c-.29-1.61-.54-5.55-.6-7Z"/><path fill="#cd5c5c" d="M296 181.09a16.21 16.21 0 0 1-1.6 7.34c-.92 1.92-2.21 3.65-3.1 5.58a7.71 7.71 0 0 0-.5 6.18c.61 1.4 1.8 2.46 2.57 3.78a7.07 7.07 0 0 1-.13 7.14c.05 0 .16.35.31.23 4.09-3.48 6.36-9.19 7-14.56a21.16 21.16 0 0 0-4.55-15.69Z"/><path fill="#263238" d="M296 181.09a13.48 13.48 0 0 1 1.59 2.06 20.7 20.7 0 0 1 2.76 6.54 21.79 21.79 0 0 1 .55 4.9 24.56 24.56 0 0 1-.73 5.61 21.71 21.71 0 0 1-6.29 11.19l-.12.11a.38.38 0 0 1-.12.09.39.39 0 0 1-.32 0 .59.59 0 0 1-.2-.21v-.07a.25.25 0 0 0 .19 0L293 211a6.88 6.88 0 0 0 .52-6.07c-.73-1.89-2.59-3.17-3.17-5.19a8.24 8.24 0 0 1 .61-5.52 41.75 41.75 0 0 1 2.37-4.19 17.1 17.1 0 0 0 2.4-6.4 18.41 18.41 0 0 0 .19-1.86c0-.44.06-.68.06-.65s0 .24.05.65a14.56 14.56 0 0 1-.1 1.89 16.61 16.61 0 0 1-2.28 6.55 40.45 40.45 0 0 0-2.29 4.18 7.79 7.79 0 0 0-.55 5.21c.5 1.82 2.34 3.07 3.18 5.14a7.34 7.34 0 0 1-.55 6.54l-.31-.39a.27.27 0 0 1 .2 0h.07l.06.05v.13a.24.24 0 0 0-.07.09s0 .06 0 0l-.08-.09.12-.12a21.32 21.32 0 0 0 6.16-10.9 24.34 24.34 0 0 0 .77-5.5 21.84 21.84 0 0 0-.48-4.81 21.52 21.52 0 0 0-2.57-6.52c-.78-1.39-1.31-2.07-1.31-2.13Zm-6.08 19.73c-.08 0-.32-.86-1-2.15a17.84 17.84 0 0 0-3.41-4.49 38.66 38.66 0 0 0-4.43-3.58 12.71 12.71 0 0 1-1.89-1.44 9.89 9.89 0 0 1 2.1 1.14 27.68 27.68 0 0 1 4.58 3.51 15.34 15.34 0 0 1 3.39 4.7 5.71 5.71 0 0 1 .66 2.31Zm-4.23 6.85c0 .15-2.95.26-6.55.75s-6.48 1.15-6.51 1a24.53 24.53 0 0 1 6.44-1.52 24.21 24.21 0 0 1 6.62-.23Zm-46.95 143.9a3.72 3.72 0 0 1 .61.85c.37.56.86 1.41 1.43 2.47a48.31 48.31 0 0 1 3.54 8.71 49.11 49.11 0 0 1 1.8 9.24c.1 1.2.15 2.17.15 2.84a4.3 4.3 0 0 1 0 1.05c-.09 0-.17-1.48-.48-3.85a57.77 57.77 0 0 0-5.3-17.82c-1.08-2.16-1.82-3.45-1.75-3.49Z"/><path fill="#ae7461" d="M239.51 377.23c.93.28.51-7.89-.27-11.17-.86-3.59.66-5.55 2.61-1.37S246 379 246 379Zm23.02-10.08a13.09 13.09 0 0 0-4.27 9.38h3.95a30.73 30.73 0 0 1 4.13-10.77c-1.34-.36-2.76.44-3.81 1.39Z"/><path fill="#455a64" d="M238.14 268.52a134.19 134.19 0 0 1-12.64 7.54c-1.7.9-3.89 1.73-5.44.58 5.84-4.48 11.89-9.24 15.36-15.64-4.48-11.11-12.2-24.73-25.58-32.22 0 0-.43-.22-1.21-.58a38.33 38.33 0 0 0-3.9 8.23c-1.58 4.36-2.91 8.89-5.48 12.76-.86-1.06-.53-2.61-.16-3.92l5.35-19A136.51 136.51 0 0 0 187 220.1q-2.72 6.3-5.44 12.59c-1-1-.77-2.54-.58-3.89a35.69 35.69 0 0 0 0-10.06 31.7 31.7 0 0 0-9.76-.44c-9.43 1.41-15 5.46-14.5 11.51a116.5 116.5 0 0 1 15.29-.38 64.78 64.78 0 0 1-14.87 2.5 19.89 19.89 0 0 0 3.55 6.37c2.09 2.64 3.85 4.59 5.5 6.33a58.05 58.05 0 0 1 25.23-.4c-2.65 1.69-6.06 1.2-9.2 1.13a31.31 31.31 0 0 0-12.95 2.5c3.84 4.07 7.77 8.74 14.78 20.9 1.08 1.87 2.13 3.71 3.17 5.5a13.06 13.06 0 0 0 6.18 2 31.18 31.18 0 0 0 9.11-1c.6-.13 1.43-.13 1.58.47s-.7 1-1.36 1.09a41.1 41.1 0 0 0-6.25.9 8.49 8.49 0 0 0-5.11 3.46c5.9 9.56 11.8 17.18 19.56 20.73a25.72 25.72 0 0 0 8.68-4 13.78 13.78 0 0 1-4.34 5.46 25.9 25.9 0 0 0 8.46.57c18.9-1.69 18.71-21.43 15.33-32.64-.29-.79-.59-1.76-.92-2.78Z"/><path fill="#263238" d="M250.13 375.86s0-.15-.07-.45-.09-.78-.16-1.35l-.56-5.19c-.46-4.54-1.13-11.06-2-19.1-.4-4-.85-8.45-1.33-13.19s-.8-9.85-2.55-14.92a100.46 100.46 0 0 0-6.46-15.43c-2.7-5.15-5.74-10.36-9.09-15.55-6.71-10.39-13.77-19.83-20.31-28.32-3.28-4.23-6.34-8.31-9.38-12a64.69 64.69 0 0 0-9.15-9.51l-8.28-7.16c-2.44-2.09-4.58-3.85-6.37-5.24s-3.22-2.41-4.19-3.11l-1.11-.78a3.58 3.58 0 0 1-.37-.28l.4.24 1.14.74c1 .67 2.45 1.66 4.26 3s4 3.11 6.43 5.18l8.33 7.1a64.58 64.58 0 0 1 9.25 9.51c3.06 3.67 6.13 7.73 9.42 12 6.56 8.48 13.64 17.92 20.37 28.32 3.35 5.21 6.4 10.43 9.11 15.61a99.48 99.48 0 0 1 6.54 15.54l1.07 3.84c.23 1.29.46 2.57.69 3.82a15.35 15.35 0 0 1 .24 1.88l.18 1.85c.12 1.23.24 2.44.35 3.62.46 4.75.88 9.16 1.27 13.2.75 8 1.37 14.58 1.79 19.12.2 2.24.36 4 .47 5.2 0 .57.08 1 .1 1.35s-.03.46-.03.46Z"/><path fill="#263238" d="M188.85 264a15 15 0 0 1 3.09-.42 53.45 53.45 0 0 1 7.54 0 52.53 52.53 0 0 1 7.46 1.06 14.8 14.8 0 0 1 3 .84 23.85 23.85 0 0 1-3.08-.48c-1.89-.32-4.51-.69-7.43-.9s-5.56-.2-7.48-.14a25.58 25.58 0 0 1-3.1.04Zm21.95-19a44 44 0 0 0-2.55 7.84 44.7 44.7 0 0 0-.49 8.23 8.39 8.39 0 0 1-.38-2.42 23.62 23.62 0 0 1 .36-5.91 24.17 24.17 0 0 1 1.82-5.63 8.59 8.59 0 0 1 1.24-2.11Zm3.85-5.67c.12.09-.2.7-.71 1.37s-1 1.13-1.14 1 .21-.69.72-1.36 1.02-1.09 1.13-1.01Zm9.35 12.55c.07.05-.73 1.09-1.82 2.89a34.52 34.52 0 0 0-5 15.5c-.16 2.1-.11 3.41-.19 3.41a2.76 2.76 0 0 1-.14-.91 23.82 23.82 0 0 1 0-2.52 30.06 30.06 0 0 1 1.42-8.18 30.94 30.94 0 0 1 3.58-7.5 23.59 23.59 0 0 1 1.5-2c.43-.48.65-.72.65-.69Zm.11 30.94a27.14 27.14 0 0 1-3.37-.13c-2.07-.12-4.94-.22-8.11-.16s-6 .25-8.1.44a28 28 0 0 1-3.36.25 2.61 2.61 0 0 1 .88-.23c.57-.11 1.4-.25 2.44-.39a73.85 73.85 0 0 1 16.28-.28c1 .1 1.88.21 2.45.3a3 3 0 0 1 .89.2Zm2.43 4.88c0 .15-2.82.14-6.25.5s-6.18.93-6.21.78a21.91 21.91 0 0 1 6.16-1.3 21.61 21.61 0 0 1 6.3.02Zm6.54-7.81c.13.09-1.32 2.16-2.55 5s-1.76 5.31-1.92 5.28a14.33 14.33 0 0 1 1.45-5.49 14.56 14.56 0 0 1 3.02-4.79Zm-29.94-24.28a31.78 31.78 0 0 1-3.3-.68c-2-.44-4.86-1-8-1.33s-6-.48-8.1-.51a28.55 28.55 0 0 1-3.37-.09 3.61 3.61 0 0 1 .9-.14c.58-.06 1.43-.11 2.47-.14a59.25 59.25 0 0 1 8.16.36 60 60 0 0 1 8 1.49c1 .27 1.82.51 2.38.7a2.67 2.67 0 0 1 .86.34Zm-8.03-27.34a15.55 15.55 0 0 1-.34 2.56 59.3 59.3 0 0 0-.62 6.16 61.81 61.81 0 0 0 0 6.2 18.8 18.8 0 0 1 .11 2.57 9.61 9.61 0 0 1-.47-2.54 39.82 39.82 0 0 1 .58-12.45 10.71 10.71 0 0 1 .74-2.5Zm-5.91 1.9c.15 0-.37 2.05-.36 4.57s.49 4.53.34 4.57a12.31 12.31 0 0 1 0-9.14Zm-7.63 6.58a11.68 11.68 0 0 1-2.25.22c-1.39.08-3.31.2-5.43.39s-4 .4-5.41.56a11.19 11.19 0 0 1-2.25.18 8.49 8.49 0 0 1 2.2-.54c1.37-.26 3.29-.54 5.42-.72s4.06-.25 5.46-.24a8.87 8.87 0 0 1 2.26.15Zm-3.65-3.36a6.15 6.15 0 0 1-2.52.11 6.3 6.3 0 0 1-2.49-.41 12.22 12.22 0 0 1 5 .3Z"/><path fill="#455a64" d="M282.24 250.68c4.53-3.43 12.92-8.34 22.71-12.53a2.87 2.87 0 0 1 4 2.31c.41 3.64.93 6 1.54 10.58.72-5.47 1-7 1.55-12.51a5.06 5.06 0 0 1 3.45-4.36c16.27-5.31 33.91-7 43.76 3.2.62.64-9.05 4.66-20.72 12.29a3.87 3.87 0 0 1-2.75.58c-12.07-2.07-12.6-.59-14.49.11-1.61.59 6.19.56 12 1.75a121.54 121.54 0 0 0-17.65 17 145.57 145.57 0 0 0-5.06 6.27 16 16 0 0 1-4.65 1.37 82.1 82.1 0 0 1-8.6.34c-.43 0-1 .1-1.09.5-.2.58.58 1 1.19 1.09l5.47 1a2.62 2.62 0 0 1 1.68 4.05c-9.37 13.81-13 21.9-27.61 21 0 0-9.57.34-12.87-11.53s4.98-32.59 18.14-42.51Z"/><path fill="#263238" d="M250.5 381v-.51c0-.34.07-.86.13-1.51.13-1.32.33-3.27.62-5.78.58-5 1.5-12.26 2.95-21.18a313.75 313.75 0 0 1 6.5-31 123.26 123.26 0 0 1 6.17-17.7 112 112 0 0 1 9.9-17.52c1.94-2.85 3.86-5.66 5.91-8.33a99.25 99.25 0 0 1 6.41-7.58A118.13 118.13 0 0 1 303 257.21a116.83 116.83 0 0 1 14-9.46 78.72 78.72 0 0 1 13.59-5.82 130.69 130.69 0 0 1 20.86-4.67c2.5-.37 4.45-.62 5.77-.77l1.5-.17a4.92 4.92 0 0 1 .51 0l-.5.09-1.5.22c-1.32.19-3.26.47-5.75.87a137.37 137.37 0 0 0-20.77 4.82 79.16 79.16 0 0 0-13.5 5.85 117.76 117.76 0 0 0-14 9.46 119.72 119.72 0 0 0-13.75 12.62c-2.21 2.37-4.33 4.9-6.37 7.55s-4 5.47-5.88 8.31a112.44 112.44 0 0 0-9.88 17.43 125.28 125.28 0 0 0-6.17 17.62c-3.13 11.51-5.07 22.09-6.6 31s-2.47 16.14-3.11 21.15c-.31 2.48-.55 4.42-.72 5.76-.07.65-.14 1.15-.18 1.5a5.08 5.08 0 0 1-.05.43Z"/><path fill="#263238" d="M289.71 291.52a14.51 14.51 0 0 1-2.53.34c-1.56.17-3.71.41-6.08.76s-4.51.72-6.05 1a14.53 14.53 0 0 1-2.53.38 11 11 0 0 1 2.45-.74c1.53-.38 3.67-.82 6-1.16s4.56-.53 6.13-.6a10.63 10.63 0 0 1 2.61.02Zm3.46-4.28a17.55 17.55 0 0 1-2.73.15c-1.69.07-4 .2-6.57.49s-4.85.71-6.5 1a18.53 18.53 0 0 1-2.7.48 11.28 11.28 0 0 1 2.62-.84 51.11 51.11 0 0 1 6.52-1.18 49.37 49.37 0 0 1 6.62-.34 11.62 11.62 0 0 1 2.74.24ZM271.84 267c.14 0 1.18 4.69 2.32 10.52s2 10.59 1.82 10.62a106 106 0 0 1-2.33-10.52c-1.14-5.82-1.95-10.62-1.81-10.62Zm9.48-12.5c.08 0-.17 1.36-.43 3.56a55.63 55.63 0 0 0 .64 17.21c.42 2.18.77 3.51.69 3.53a3.12 3.12 0 0 1-.35-.9c-.2-.6-.44-1.47-.7-2.55a45.73 45.73 0 0 1-.64-17.34c.17-1.1.35-2 .5-2.59a3.07 3.07 0 0 1 .29-.92Zm28.18 15.04a25.09 25.09 0 0 1-3.31.22c-2 .11-4.85.3-7.95.66s-5.88.82-7.89 1.19a28.88 28.88 0 0 1-3.27.54 2.74 2.74 0 0 1 .84-.3c.56-.17 1.36-.37 2.36-.6a71.8 71.8 0 0 1 7.9-1.35 74.91 74.91 0 0 1 8-.5h2.43a3.27 3.27 0 0 1 .89.14Zm5.92-6.54a26.89 26.89 0 0 1-3-.43 43.51 43.51 0 0 0-14.28.3 29.41 29.41 0 0 1-2.94.54 12.24 12.24 0 0 1 2.86-.9 34.59 34.59 0 0 1 14.42-.3 12.45 12.45 0 0 1 2.94.79Zm-.48-5.11a11 11 0 0 1-3.36-.19 10.74 10.74 0 0 1-3.29-.71 11.43 11.43 0 0 1 3.36.19 11.1 11.1 0 0 1 3.29.71Z"/><path fill="#263238" d="M298.23 243.44a97.77 97.77 0 0 1-1.13 10.21c-.78 5.61-1.52 10.15-1.66 10.13s.37-4.59 1.14-10.2 1.51-10.16 1.65-10.14Zm-10.72 13.29a51 51 0 0 1 .89 7.14 51.08 51.08 0 0 1 .38 7.19 48.11 48.11 0 0 1-.9-7.14 50.06 50.06 0 0 1-.37-7.19Zm37.68-22.63c.05.07-.57.6-1.31 1.65a19.69 19.69 0 0 0-2.26 4.52c-.68 1.87-1.26 3.6-1.83 4.8a6.16 6.16 0 0 1-1.09 1.84 15 15 0 0 1 .75-2c.48-1.21 1-2.94 1.68-4.83a16 16 0 0 1 2.45-4.56 4.65 4.65 0 0 1 1.61-1.42Zm2.41 4.41a9.6 9.6 0 0 1-1.07 2.94 9.74 9.74 0 0 1-1.55 2.73 9.6 9.6 0 0 1 1.07-2.94 9.74 9.74 0 0 1 1.55-2.73Zm13.07 4.31a20.76 20.76 0 0 1-4.61-.21 20.34 20.34 0 0 1-4.56-.72 40 40 0 0 1 9.17.93Z"/><path fill="#455a64" d="m220.82 314.34-3.91 6.29.68-9.35s-7.13-8.15-28.19-6.28c0 0-7.13-.17-11.21 2s-2.06 4.92-2.06 4.92c27.76 11.37 49.59 25.17 62.52 42.63a40.11 40.11 0 0 0 6.78-10.95c2.38-6.07-2.53-23.31-24.61-29.26Z"/><path fill="#263238" d="M208.35 312.24a7.94 7.94 0 0 1 .57 2.28 31.65 31.65 0 0 1 .4 5.65 30.32 30.32 0 0 1-.64 5.62A8.27 8.27 0 0 1 208 328c-.16 0 .7-3.51.78-7.89s-.59-7.84-.43-7.87Zm-8.12.02a22.82 22.82 0 0 1 2.47 12.4c-.16 0-.18-2.85-.87-6.27s-1.75-6.07-1.6-6.13Zm13.34 9.74a10 10 0 0 1-.33 4 9.79 9.79 0 0 1-1.47 3.76 39.7 39.7 0 0 1 1-3.88 37.33 37.33 0 0 1 .8-3.88Zm15.43.65a8.82 8.82 0 0 1-1 2.07 48.65 48.65 0 0 1-3.11 4.65 47.25 47.25 0 0 1-3.6 4.28 9.23 9.23 0 0 1-1.71 1.58 12 12 0 0 1 1.43-1.82c.92-1.09 2.16-2.61 3.47-4.35s2.41-3.35 3.2-4.53a12.76 12.76 0 0 1 1.32-1.88Zm7 6.03a9.58 9.58 0 0 1-1.66 1.69c-1.08 1-2.63 2.3-4.41 3.65s-3.46 2.48-4.71 3.25a10.13 10.13 0 0 1-2.08 1.14 10.86 10.86 0 0 1 1.88-1.44c1.18-.85 2.82-2 4.59-3.37s3.35-2.59 4.49-3.51a11.4 11.4 0 0 1 1.9-1.41Zm1.59 7.96a19.44 19.44 0 0 1-5 2.78 19.17 19.17 0 0 1-5.44 1.7c-.05-.15 2.37-.94 5.23-2.18s5.13-2.43 5.21-2.3ZM239.26 160c.12.08-2.76 5.24-6.45 11.54s-6.78 11.35-6.9 11.28 2.76-5.24 6.45-11.54 6.78-11.36 6.9-11.28Zm4.74-8.49c.11.09-.57 1-1.52 2.07s-1.8 1.83-1.91 1.73a7 7 0 0 1 1.52-2.08c.96-1.05 1.81-1.82 1.91-1.72Zm-.41-13.36a7.46 7.46 0 0 1-.89 1.2l-2.52 3.18c-2.13 2.68-5 6.45-7.93 10.76s-5.43 8.35-7.17 11.3c-.82 1.42-1.51 2.59-2 3.5a9.37 9.37 0 0 1-.79 1.27 8.57 8.57 0 0 1 .61-1.36c.43-.86 1.08-2.09 1.91-3.59 1.65-3 4.09-7.08 7-11.41s5.87-8.07 8.07-10.71c1.1-1.31 2-2.36 2.66-3.07a8.06 8.06 0 0 1 1.05-1.07Zm-29.29 12.3a8.43 8.43 0 0 1-1.39-.25l-3.74-.8c-3.17-.67-7.56-1.51-12.45-2.21s-9.34-1.13-12.56-1.38l-3.83-.28a7.08 7.08 0 0 1-1.4-.16 7.83 7.83 0 0 1 1.41 0c.91 0 2.22 0 3.84.11 3.24.16 7.71.53 12.62 1.23s9.29 1.61 12.45 2.37c1.57.38 2.84.71 3.71 1a6.84 6.84 0 0 1 1.34.37Zm15.01-28.8a5.74 5.74 0 0 1-.63 1.06l-1.83 2.8c-1.52 2.38-3.54 5.72-5.52 9.55s-3.55 7.4-4.61 10c-.49 1.23-.91 2.27-1.24 3.11a6.41 6.41 0 0 1-.5 1.13 5.22 5.22 0 0 1 .31-1.2c.23-.76.59-1.84 1.09-3.17a88.94 88.94 0 0 1 4.48-10.13 91 91 0 0 1 5.69-9.51c.8-1.17 1.47-2.1 2-2.72a5.52 5.52 0 0 1 .76-.92Zm-6.73-12.05a5.78 5.78 0 0 1-.7 1.1c-.49.69-1.17 1.7-2 3a84.81 84.81 0 0 0-5.7 10.21 83.08 83.08 0 0 0-4.18 10.87c-.44 1.44-.77 2.6-1 3.42a5.68 5.68 0 0 1-.4 1.24 6.92 6.92 0 0 1 .2-1.29c.16-.83.44-2 .83-3.47a69.42 69.42 0 0 1 10-21.24c.86-1.23 1.59-2.21 2.13-2.86a6.62 6.62 0 0 1 .82-.98Zm-9.17 5.33c.14.09-1.07 2-2 4.52s-1.37 4.76-1.53 4.73a15.73 15.73 0 0 1 3.58-9.25Zm-37.08-.16a3.33 3.33 0 0 1 1 0c.63 0 1.54.06 2.66.17a57.22 57.22 0 0 1 8.66 1.49 58 58 0 0 1 8.34 2.79c1 .44 1.86.83 2.42 1.12a3.57 3.57 0 0 1 .84.49c0 .08-1.3-.48-3.4-1.27a77.25 77.25 0 0 0-8.32-2.62 75.09 75.09 0 0 0-8.58-1.64c-2.24-.3-3.62-.45-3.62-.53Zm6.77-3.77a8.15 8.15 0 0 1 2.27.07 29.35 29.35 0 0 1 5.35 1.12 28.31 28.31 0 0 1 5.06 2.09 7.63 7.63 0 0 1 1.91 1.22c-.08.14-3.07-1.58-7.12-2.81s-7.48-1.55-7.47-1.69Zm16.08-19.11a14.75 14.75 0 0 1-.63 2.59c-.43 1.59-1 3.79-1.48 6.25s-.83 4.7-1 6.33a15.48 15.48 0 0 1-.42 2.63 11.08 11.08 0 0 1 .05-2.67 55.82 55.82 0 0 1 2.55-12.64 12.22 12.22 0 0 1 .93-2.49Zm-10.44 41.19a14.62 14.62 0 0 1 3 .35 70.27 70.27 0 0 1 7.12 1.66 68.22 68.22 0 0 1 6.9 2.42 14.47 14.47 0 0 1 2.73 1.31 21.72 21.72 0 0 1-2.86-1c-1.76-.63-4.19-1.46-6.92-2.26s-5.23-1.39-7.05-1.79a22.44 22.44 0 0 1-2.92-.69Zm.26 33.4a6.18 6.18 0 0 1 1.26-.12c.81-.06 2-.09 3.44-.08a81.36 81.36 0 0 1 11.31.88 82.44 82.44 0 0 1 10.99 2.48c1.39.42 2.5.8 3.26 1.09a4.94 4.94 0 0 1 1.16.49 6.87 6.87 0 0 1-1.22-.3c-.78-.23-1.91-.55-3.3-.92a100.12 100.12 0 0 0-11.05-2.32 101.72 101.72 0 0 0-11.24-1c-1.45-.05-2.62-.08-3.43-.09a5.86 5.86 0 0 1-1.18-.11Zm11 12.71a4.32 4.32 0 0 1 1-.08h2.74a87.19 87.19 0 0 1 9 .74 84.82 84.82 0 0 1 8.91 1.68c1.12.28 2 .53 2.65.72a3.45 3.45 0 0 1 .95.35c0 .07-1.42-.25-3.69-.71s-5.4-1-8.89-1.53-6.68-.73-9-.88a34 34 0 0 1-3.67-.29Zm3.83 6.16a7 7 0 0 1 2.15-.09 33.81 33.81 0 0 1 5.15.59 35 35 0 0 1 5 1.37 7 7 0 0 1 2 .89c-.05.15-3.11-1-7.05-1.75s-7.25-.85-7.25-1.01Zm-5.11 11.55a10.18 10.18 0 0 1 1.59.15c1 .12 2.48.36 4.28.71a87.95 87.95 0 0 1 26.72 10c1.59.92 2.85 1.7 3.7 2.28a9.17 9.17 0 0 1 1.29.93 8.94 8.94 0 0 1-1.4-.76c-.88-.52-2.16-1.25-3.77-2.13a101.17 101.17 0 0 0-26.62-10c-1.78-.39-3.23-.69-4.23-.87a8.82 8.82 0 0 1-1.56-.31Z"/><path fill="#cd5c5c" d="M182.43 376.1h138.09v21.26H182.43zm12.13 21.26 14.69 75.07h86.15l12.99-75.07H194.56z"/><path d="m194.56 397.36 1.2 6.11h111.57l1.06-6.11Z" opacity=".3"/><path fill="#263238" d="m251.66 99.89-23.78-28.33a125.21 125.21 0 0 1 25.27 30"/><path fill="#cd5c5c" d="M262.67 74.76a30.2 30.2 0 0 0-.85 18.3l1.47 11.41a52.88 52.88 0 0 0-.62-29.71Z"/><path d="M262.67 74.76a30.2 30.2 0 0 0-.85 18.3l1.47 11.41a52.88 52.88 0 0 0-.62-29.71Z" opacity=".3"/><path fill="#cd5c5c" d="M231.69 79c2 3.65 4.82 6.59 7.64 9.65s6.08 5.22 9.06 7.9c5.55 5 9.67 11.34 13.72 17.61l-1.6.85c-1.08-3.43-4.2-5.81-7.34-7.57s-6.57-3.2-9.1-5.77a27.09 27.09 0 0 1-4.56-7.1L231.69 79Z"/><path d="M231.69 79c2 3.65 4.82 6.59 7.64 9.65s6.08 5.22 9.06 7.9c5.55 5 9.67 11.34 13.72 17.61l-1.6.85c-1.08-3.43-4.2-5.81-7.34-7.57s-6.57-3.2-9.1-5.77a27.09 27.09 0 0 1-4.56-7.1L231.69 79Z" opacity=".3"/><path fill="#cd5c5c" d="M262.77 113.87c0-3.17-2.39-5.75-4.24-8.33a42 42 0 0 1-6.4-15 125.41 125.41 0 0 1-2.3-16.27l10.66 14.63c1.74 2.4 3.53 4.94 3.87 7.88.31 2.79-.74 5.54-1.24 8.3s-.23 6 2 7.76"/><path d="M251.87 89.35s5.48 4.09 7.36 7.47 4.54 16.3 4.54 16.3l-1 .75a13.83 13.83 0 0 0-1.55-4.64 26.66 26.66 0 0 0-4.19-5c-2.03-1.45-4.16-10.23-4.56-12.33a16.16 16.16 0 0 0-.6-2.55Z" opacity=".3"/><path fill="#cd5c5c" d="M258.72 103.58c-.71-2.06-1.31-4.17-2-6.24a16.68 16.68 0 0 0-4.88-7.34c-1.13-1-2.3-1.92-3.46-2.85L237.05 78a27.39 27.39 0 0 0 1.68 4l7.32 14.94c1.3 2.67 2.68 5.43 5 7.31 2 1.65 4.57 2.48 6.8 3.83s4.27 3.6 4.11 6.2l2.09-1.12a25 25 0 0 1-5.33-9.58Z"/><path fill="#263238" d="M262.75 114.53c5.86-14.19 6.16-30 10.05-44.87 1 1.51.3 3.51-.24 5.25-1.71 5.52-1.11 11.46-1.82 17.19-1 7.89-4.4 15.24-7.78 22.44"/><path fill="#cd5c5c" d="M262.83 113.73a15.58 15.58 0 0 0-6.61-5.08 25 25 0 0 0-6.49-1 148.86 148.86 0 0 0-19.7.07.73.73 0 0 0-.57.23c-.21.3.13.67.43.87a25.18 25.18 0 0 0 13.57 4.28c3.35.06 6.66-.55 10-.74s6.84.07 9.75 1.72Z"/><path fill="#455a64" d="M268.64 106.56a41 41 0 0 0-11.54 13c-3.53 6.72-4 20.22-4.72 27.78 2.13-7.94 4.65-15.92 9.3-22.7 6.64-9.68 17.36-16.56 21.83-27.42a122.53 122.53 0 0 0-14.87 9.34Z"/><path fill="#263238" d="M252.14 81a4 4 0 0 1 .68.83c.42.55 1 1.35 1.72 2.36s1.51 2.23 2.54 3.47 2.26 2.55 3.41 4.06a13.16 13.16 0 0 1 2.41 4.8 10 10 0 0 1-.13 4.37c-.25 1.12-.47 2.07-.64 2.85a5.17 5.17 0 0 1-.28 1 3.41 3.41 0 0 1 .08-1.08c.08-.68.27-1.67.48-2.87a10 10 0 0 0 0-4.2 13.11 13.11 0 0 0-2.35-4.59c-1.13-1.48-2.36-2.79-3.37-4.08s-1.79-2.55-2.48-3.57-1.21-1.79-1.55-2.35a4 4 0 0 1-.52-1ZM321 397.36c0 .14-31.08.26-69.41.26s-69.41-.12-69.41-.26 31.07-.26 69.41-.26 69.41.11 69.41.26Z"/></svg>