<svg xmlns="http://www.w3.org/2000/svg" xmlns:xlink="http://www.w3.org/1999/xlink" viewBox="0 0 500 500"><defs><path id="a" fill="#455a64" d="M272.24 463.19v.15a2.17 2.17 0 0 1-.1.42 3.51 3.51 0 0 1-.89 1.41 4.92 4.92 0 0 1-2.3 1.29 5.14 5.14 0 0 1-3.46-.36 7.68 7.68 0 0 1-3.17-2.81 13.07 13.07 0 0 1-1.78-4.51c-.36-1.67-.56-3.43-.83-5.25s-.52-3.7-.79-5.63c-1-7.69-2-14.65-2.66-19.78-.31-2.48-.56-4.51-.75-6-.07-.66-.13-1.2-.18-1.63a2.32 2.32 0 0 1 0-.58 3.34 3.34 0 0 1 .13.56l.27 1.62c.23 1.49.54 3.51.91 6 .73 5.12 1.72 12.08 2.82 19.76q.4 2.9.78 5.63c.26 1.82.45 3.59.79 5.22a12.89 12.89 0 0 0 1.67 4.38 7.6 7.6 0 0 0 3 2.71 4.8 4.8 0 0 0 3.25.4 4.67 4.67 0 0 0 2.15-1.19 4.23 4.23 0 0 0 1.14-1.81ZM265 414.26a1.53 1.53 0 0 1 .94-.14 3.34 3.34 0 0 1 2.29 1.23 3.78 3.78 0 0 1 .42 3.8 4.36 4.36 0 0 1-3.83 2.65 3.83 3.83 0 0 1-2.43-.69 4.05 4.05 0 0 1-1.43-1.85 3.63 3.63 0 0 1-.18-2.12 3.35 3.35 0 0 1 .88-1.62 3.75 3.75 0 0 1 2.34-1.14 1.8 1.8 0 0 1 .94.12c0 .05-.34 0-.92.09a3.73 3.73 0 0 0-2.09 1.18 3.12 3.12 0 0 0-.53 3.31 3.47 3.47 0 0 0 3.39 2.2 3.93 3.93 0 0 0 3.42-2.32 3.4 3.4 0 0 0-.28-3.38 3.18 3.18 0 0 0-2-1.26c-.57-.1-.93-.01-.93-.06Z"/><path id="b" fill="#f5f5f5" d="M321 185.25h-45.6l-5.07 13.42-28.92 39.65L218.69 402l28.92 5.35a54 54 0 0 0 15.23.64l43.46-4.29 1.3-146 21.17-58.7Z"/><path id="c" fill="#263238" d="M286.35 214s0 .17-.12.49-.23.82-.41 1.44c-.38 1.28-.92 3.13-1.62 5.5s-1.59 5.31-2.55 8.72-2.1 7.27-3.24 11.58-2.45 9-3.72 14.09-2.61 10.51-4 16.23c-2.68 11.48-5.42 24.13-8 37.48s-4.6 26.15-6.31 37.81c-.81 5.83-1.61 11.37-2.22 16.58s-1.22 10-1.7 14.47-.87 8.44-1.22 12-.62 6.56-.83 9-.38 4.39-.5 5.72c-.06.63-.11 1.13-.14 1.48s-.07.51-.07.51a4.88 4.88 0 0 1 0-.51c0-.36.06-.85.09-1.49.1-1.33.24-3.26.41-5.72s.4-5.53.74-9.06.65-7.54 1.14-12 1-9.29 1.64-14.49 1.38-10.75 2.18-16.59c1.68-11.67 3.75-24.46 6.27-37.83s5.31-26 8-37.5c1.4-5.72 2.7-11.17 4-16.23s2.59-9.79 3.79-14.08 2.33-8.16 3.31-11.56 1.88-6.32 2.63-8.7l1.72-5.47.46-1.42Zm-54.51 175.07a39.55 39.55 0 0 0 .95 8.41 38.77 38.77 0 0 0 3.27 7.82 8.55 8.55 0 0 1-1.47-2.05 22.87 22.87 0 0 1-3-11.68 8.56 8.56 0 0 1 .25-2.5Zm2.56 16.85a4.68 4.68 0 0 1-1.67-.8 15.44 15.44 0 0 1-5.79-6.64 4.85 4.85 0 0 1-.57-1.76 22.44 22.44 0 0 0 8 9.2Zm35.19-15.41a8.64 8.64 0 0 1 .18 2.56 27.85 27.85 0 0 1-.81 6.13 27 27 0 0 1-2.14 5.81 9 9 0 0 1-1.34 2.18 21.74 21.74 0 0 1 1-2.34 35 35 0 0 0 2.91-11.8 20 20 0 0 1 .2-2.54Zm1.93-195s-27.85 11.78-31.86 12.55-18 4.28-18 4.28-10.78 19.3-9.78 30.34 8.53 90.25 8.53 90.25-12.29 68.44-12.54 73.46-10.87 52.9-8.82 52.61 11.28-10.53 11.28-10.53l30.59-168.23s8-38.61 14-51.14 16.56-28.83 16.56-28.83Z"/><path id="d" fill="#455a64" d="M230.68 336.58a2.59 2.59 0 0 1 0-.4c0-.28 0-.67-.06-1.16-.05-1-.12-2.54-.2-4.45-.15-3.9-.35-9.5-.6-16.4s-.49-15.18-.7-24.34c-.1-4.58-.2-9.38-.21-14.37a67.68 67.68 0 0 1 2.53-15.25c2.19-8.47 4.94-16.41 7.59-23.75s5.33-14.06 7.8-20q4.22-3.53 7.73-6.47l.18.3-5.69 2.23-.52.2.35-.43 6.43-8.12c.74-.92 1.31-1.64 1.72-2.14l.45-.55c.1-.12.16-.18.16-.17a1.08 1.08 0 0 1-.13.2l-.42.57-1.66 2.18-6.32 8.21-.17-.23 5.67-2.27 1-.41-.83.7-7.69 6.52.06-.08c-2.44 5.91-5.08 12.63-7.73 20s-5.36 15.28-7.54 23.72a67.23 67.23 0 0 0-2.53 15.12c0 5 .1 9.79.18 14.36.22 9.16.42 17.4.59 24.34s.33 12.5.43 16.4c0 1.91.08 3.41.1 4.46v1.16a2.47 2.47 0 0 1 .03.32Z"/><path id="e" fill="#263238" d="M221.61 212.34s-9.18 7-10.75 14.9-3.92 41.34-3.92 41.34S203 273 203 273.8s-1.89 21.77-1.89 21.77l-29.46-37-26.76 25.27s34.71 60.69 48.45 66.08c20.92 8.21 27.17-3.7 27.17-3.7l3.14-48.87Z"/><path id="f" fill="#455a64" d="M214.81 245.65a1 1 0 0 1 .06.27c0 .21.08.47.13.79l.45 3.06c.38 2.65.91 6.49 1.53 11.24 1.22 9.5 2.82 22.65 3.67 37.25.4 7.31.53 14.28.45 20.62-.08 3.17-.13 6.18-.32 9-.09 1.41-.14 2.77-.25 4.08s-.22 2.55-.33 3.74c-.18 2.4-.49 4.54-.71 6.43-.12.95-.23 1.82-.34 2.64s-.25 1.53-.35 2.2c-.22 1.29-.39 2.31-.52 3-.06.32-.11.58-.14.79s-.06.27-.07.26a1.37 1.37 0 0 1 0-.27c0-.21.06-.47.1-.8.1-.73.24-1.76.42-3.05.09-.67.19-1.41.31-2.21s.19-1.69.29-2.63c.2-1.89.48-4 .64-6.43.09-1.19.19-2.44.29-3.74s.14-2.66.21-4.07c.18-2.81.21-5.81.28-9 .06-6.32-.09-13.28-.49-20.58-.85-14.58-2.39-27.73-3.52-37.24-.57-4.72-1-8.56-1.36-11.26-.15-1.3-.26-2.32-.35-3.06 0-.33-.06-.59-.08-.8a1.49 1.49 0 0 1 0-.23Zm-5.39 78.95a5.12 5.12 0 0 1-.13-1.19c0-.76-.13-1.87-.27-3.23a64.09 64.09 0 0 0-2-10.47 63.08 63.08 0 0 0-3.75-10c-.58-1.24-1.08-2.23-1.44-2.9a5.31 5.31 0 0 1-.5-1.09 5.15 5.15 0 0 1 .68 1c.41.64 1 1.61 1.59 2.83a53.53 53.53 0 0 1 5.76 20.59c.1 1.37.13 2.48.11 3.25a5 5 0 0 1-.05 1.21Zm3.32-7.37c-.09 0-.15-1.43-.56-3.69a32.39 32.39 0 0 0-7.82-15.91c-1.55-1.71-2.65-2.63-2.59-2.7a3.44 3.44 0 0 1 .83.58 20.81 20.81 0 0 1 2 1.87 29.36 29.36 0 0 1 7.92 16.1 21.38 21.38 0 0 1 .24 2.74 3.48 3.48 0 0 1-.02 1.01Zm17.94 19.35a1.14 1.14 0 0 1 0 .3c0 .23-.08.52-.13.89-.14.81-.32 2-.57 3.4-.51 3-1.25 7.23-2.17 12.47-1.88 10.56-4.48 25.08-7.35 41.13s-5.58 30.55-7.51 41.1c-1 5.23-1.77 9.47-2.33 12.45l-.66 3.38-.19.87a1.1 1.1 0 0 1-.08.3 1.2 1.2 0 0 1 0-.31c0-.23.08-.52.14-.88.13-.81.32-1.95.56-3.4.52-3 1.26-7.23 2.17-12.47l7.36-41.14c2.92-16 5.58-30.55 7.5-41.1 1-5.22 1.78-9.47 2.34-12.44l.66-3.38c.07-.36.13-.65.18-.88a1.94 1.94 0 0 1 .08-.29Z"/><path id="g" fill="#263238" d="m323.51 189.8-25.2 55.13s-13.06 35.72-14.05 40.16-14 60.86-14 60.86l8.62 83.53s1.1 29.07 9.42 31.54 71.16-8.13 71.16-8.13l-10.35-69.73s-3.95-53.47-3.95-54.21 11.34-79.84 11.34-79.84l7.5-30.53-21.3-8.64Z"/><path id="h" fill="#455a64" d="M274.51 332.47a2.09 2.09 0 0 1 .15-.38l.48-1.15c.47-1 1.13-2.45 2-4.3l7.43-15.76c6.36-13.3 15.12-31.62 24.81-51.86 7.45-15.45 14.36-29.79 20-41.46l.19.3h-9.12l.57-.35c3.14-2 6-3.72 8.46-5.28l-.07.14c-.21-5.31-.38-9.51-.5-12.41-.05-1.42-.09-2.52-.11-3.29v-.85a1.29 1.29 0 0 1 0-.29 2.25 2.25 0 0 1 0 .29q0 .31.06.84c.05.78.11 1.87.2 3.29.15 2.9.37 7.1.65 12.4v.09l-.08.05c-2.49 1.59-5.29 3.36-8.43 5.34l-.1-.35h8.79l-.15.3c-5.61 11.69-12.49 26-19.92 41.51-19.37 40.14-34.07 70.61-35.31 73.18Zm61.94-62.56a5.9 5.9 0 0 1-1.18 0c-.75-.06-1.84-.12-3.18-.18a82.15 82.15 0 0 0-20.91 1.66c-1.32.27-2.38.51-3.12.68a4.57 4.57 0 0 1-1.15.21 5.71 5.71 0 0 1 1.1-.4c.72-.24 1.78-.53 3.09-.85a69.63 69.63 0 0 1 10.44-1.66 68.54 68.54 0 0 1 10.57 0c1.35.11 2.44.23 3.18.35a4.7 4.7 0 0 1 1.16.19Z"/><path id="i" fill="#e0e0e0" d="M335.06 269.64c3.48.13-.59-10.55-2.19-15.71-.29-1-.82-2.1-1.83-2.2a2.65 2.65 0 0 0-1.72.72c-6.78 5-12.44 11.83-17.52 18.58 0-.03 16.02-1.66 23.26-1.39Z"/><path id="j" fill="#455a64" d="M282.67 349.9a20.26 20.26 0 0 1-9.87 1.29c0-.15 2.23-.18 4.95-.55s4.88-.88 4.92-.74Zm65.08 33.54c0 .14-7.83 1.42-17.55 2.86s-17.6 2.48-17.62 2.34 7.83-1.42 17.55-2.86 17.6-2.48 17.62-2.34Zm-37.54 66.34a1.34 1.34 0 0 1-.14-.3c-.1-.23-.22-.52-.37-.89-.33-.81-.79-2-1.37-3.42s-1.32-3.32-2.08-5.46-1.71-4.57-2.6-7.3-1.93-5.68-2.91-8.91-2-6.68-3.05-10.33c-2-7.31-4-15.41-5.73-24s-3-16.83-4-24.35c-.44-3.77-.89-7.34-1.18-10.7s-.57-6.49-.76-9.35-.31-5.46-.42-7.73-.17-4.24-.19-5.84-.05-2.81-.06-3.69v-1a2.06 2.06 0 0 1 0-.33 1.68 1.68 0 0 1 0 .33v1l.16 3.68c.05 1.6.13 3.56.28 5.83s.25 4.87.5 7.72.46 6 .82 9.33.77 6.93 1.23 10.69c1 7.5 2.31 15.73 4 24.31s3.71 16.65 5.68 24c1 3.65 2 7.12 3 10.33s1.94 6.21 2.85 8.93 1.77 5.16 2.52 7.31 1.42 4 2 5.48l1.29 3.47c.13.37.23.67.32.9a1.24 1.24 0 0 1 .21.29Z"/><path id="k" fill="#455a64" d="M359.42 452.89a4 4 0 0 1-.45.08l-1.3.2-5 .73-18.49 2.55-27.45 3.73-7.93 1.07-4.1.55a15.06 15.06 0 0 1-4.26.22 9.06 9.06 0 0 1-6.87-5.08 11.15 11.15 0 0 1-.7-2.14l-.54-2.15c-.36-1.45-.74-2.9-1-4.38a254.45 254.45 0 0 1-4.55-33.61c-.82-10.4-1.39-19.77-2.06-27.62s-1.4-14.19-2-18.56c-.3-2.18-.58-3.87-.74-5-.07-.56-.13-1-.18-1.31a3.68 3.68 0 0 1 0-.45s0 .15.09.44l.24 1.3c.19 1.15.5 2.83.83 5 .65 4.37 1.45 10.7 2.15 18.56s1.32 17.22 2.16 27.61a261.79 261.79 0 0 0 4.59 33.54c.28 1.48.66 2.92 1 4.36a28.79 28.79 0 0 0 1.2 4.2 8.59 8.59 0 0 0 6.48 4.8 14.7 14.7 0 0 0 4.12-.22l4.1-.55 7.93-1.05 27.46-3.61 18.51-2.4 5-.62 1.32-.15c.28-.04.44-.04.44-.04Z"/><path id="l" fill="#cd5c5c" d="m276.31 210.05 1.08 12.67 11.05 4.52 12.85-12.49-8.51-4.7h-6.34l-5.61-1.99-4.52 1.99z"/><path id="m" fill="#cd5c5c" d="M277.39 222.72s-34 88.45-38.75 130.07l13.84 30.65 14.77-21.74 21.55-136.33Z"/><path id="n" fill="#263238" d="M288.41 227.62a30.36 30.36 0 0 0-5.24-2.88 31 31 0 0 0-5.84-1.3 13.48 13.48 0 0 1 11.08 4.18Zm4.93-17.54a11.28 11.28 0 0 1-1.87 2.12 42.31 42.31 0 0 1-5.24 4.36 41.59 41.59 0 0 1-5.88 3.47 11.75 11.75 0 0 1-2.62 1.05 22 22 0 0 1 2.46-1.38 60.49 60.49 0 0 0 5.74-3.56 63 63 0 0 0 5.28-4.21 22.6 22.6 0 0 1 2.13-1.85Z"/><path id="o" fill="#263238" d="M287.36 226.57a2.13 2.13 0 0 1-.06.41c-.06.29-.13.68-.23 1.19l-.93 4.58c-.8 4-2 9.74-3.35 16.87-2.75 14.25-6.27 34-9.43 55.93-1.59 11-2.93 21.43-4.07 31-.57 4.76-1.14 9.3-1.92 13.5a81.77 81.77 0 0 1-2.91 11.53 48.58 48.58 0 0 1-8.07 15.15 28.39 28.39 0 0 1-4.42 4.5 1.7 1.7 0 0 1 .29-.3l.87-.84a41.77 41.77 0 0 0 3.1-3.49 49.62 49.62 0 0 0 7.88-15.13 82.19 82.19 0 0 0 2.83-11.47c.76-4.2 1.32-8.72 1.88-13.49 1.11-9.54 2.43-20 4-31 3.16-21.94 6.73-41.69 9.58-55.93 1.42-7.12 2.65-12.87 3.51-16.84.44-2 .79-3.49 1-4.56l.28-1.19a1.63 1.63 0 0 1 .17-.42Z"/><path id="p" fill="#fafafa" d="M277.35 277.21a28.06 28.06 0 0 1-1.74-2.94c-1-1.83-2.49-4.35-4.16-7.09s-3.27-5.18-4.44-6.93a25.33 25.33 0 0 1-1.82-2.89s.24.22.61.68.89 1.14 1.51 2c1.25 1.7 2.89 4.12 4.58 6.87s3.09 5.31 4 7.19c.48.94.86 1.71 1.1 2.25s.4.84.36.86Zm-6.35 38.6a6.79 6.79 0 0 1-.63-1.17c-.42-.86-.95-1.95-1.57-3.25-1.33-2.75-3.16-6.54-5.26-10.69s-4.08-7.88-5.51-10.57l-1.7-3.19a6.53 6.53 0 0 1-.56-1.21 7.53 7.53 0 0 1 .74 1.11c.45.72 1.08 1.79 1.84 3.11 1.52 2.65 3.54 6.35 5.65 10.51s3.89 8 5.13 10.77c.62 1.4 1.1 2.54 1.42 3.33a6.07 6.07 0 0 1 .45 1.25ZM266.83 350c-.12.08-4.7-7.14-10.22-16.12s-9.9-16.32-9.78-16.39 4.7 7.14 10.22 16.12 9.95 16.3 9.78 16.39Zm-8.09 23.55c-.12.08-4.39-5.95-9.54-13.46s-9.23-13.67-9.11-13.76 4.39 5.95 9.54 13.47 9.23 13.67 9.11 13.75Zm22.95-120.35a13 13 0 0 1-1.64-1.83c-1.09-1.3-2.38-2.82-3.79-4.51l-3.88-4.44a13.22 13.22 0 0 1-1.55-1.89 10.59 10.59 0 0 1 1.82 1.64c1.07 1.07 2.5 2.6 4 4.36s2.8 3.4 3.69 4.62a11 11 0 0 1 1.35 2.05Zm-2.59-23.89c-.14.06-.53-.56-1.19-1.14s-1.32-.9-1.28-1 .87 0 1.62.65.98 1.45.85 1.49Zm1.4 3.25c-.11.11-.57-.19-1-.66s-.77-.94-.67-1 .57.2 1 .67.77.89.67.99Zm5.12 4.02a10.13 10.13 0 0 1-2.35-2.07 9.56 9.56 0 0 1-2-2.43 19 19 0 0 1 4.33 4.5Zm.43-20.74c-.1.12-1.89-1.42-4.41-2.83s-4.74-2.17-4.69-2.32a17.27 17.27 0 0 1 9.1 5.15Zm9.46 4.16c-.14.08-1.18-1.47-2.75-3.13s-3.05-2.8-3-2.93a13.25 13.25 0 0 1 5.72 6.06Z"/><path id="q" fill="#263238" d="M277.41 235.67a36.93 36.93 0 0 1 1.91-5.93 37.22 37.22 0 0 1 2.41-5.74 39 39 0 0 1-1.92 5.93 37.83 37.83 0 0 1-2.4 5.74Zm1.3 7.67a13.15 13.15 0 0 1 .41-2.7c.32-1.66.83-3.93 1.48-6.42s1.3-4.73 1.82-6.33a12.69 12.69 0 0 1 1-2.56 15.8 15.8 0 0 1-.6 2.66c-.48 1.8-1 4-1.68 6.36s-1.17 4.57-1.63 6.37a14.7 14.7 0 0 1-.8 2.62Z"/><path id="r" d="M278.42 223.66v.12c.63.17 1 .35 1 1a4.62 4.62 0 0 1-.4 1.89c-.67 1.85-1.33 3.7-2 5.56-.17.47-.27 1.14.19 1.35s.85-.22 1.13-.59l2.32-3.11c-.36 1.78-.73 3.57-1.1 5.35-.11.53-.18 1.19.26 1.52a1 1 0 0 0 1.21-.15 2.86 2.86 0 0 0 .66-1.13c.54-1.36 1.08-2.71 1.61-4.06a11.55 11.55 0 0 1 1.38-2.74 4 4 0 0 1 2.49-1.66c-2.53-2.27-5.38-2.9-8.75-3.35Z" opacity=".3"/></defs><path fill="#ebebeb" d="m71.18 141.26 2.38-3.92c20-33 56.25-52.91 94.43-50.49a100.17 100.17 0 0 1 14.62 2c34.72 7.44 64.93 33.69 77.45 67.32 7.37 19.77 9.43 42.54 23.4 58.24 18.19 20.43 49.07 21.07 76.22 20.22s58-.12 76.14 20.39c11.34 12.84 14.94 31.11 14 48.31-2.42 45.54-34.16 86.26-74.51 106.5s-87.88 22.06-132 13.15c-61.88-12.47-120.72-46.73-156.09-99.63S42.88 198.36 71.18 141.26Z"/><path fill="#263238" d="M464.41 479.38c0 .15-96.05.27-214.5.27s-214.52-.12-214.52-.27 96-.26 214.52-.26 214.5.12 214.5.26Z"/><path fill="#cd5c5c" d="M138.27 396.22c4.42-2.28 9.63-2.57 14.54-1.76 2.63.43 5.38 1.22 7.18 3.2s2.13 5.47.07 7.17a6.9 6.9 0 0 1-4.53 1.15c-3.84-.05-8.1-.72-11.17 1.59-1.75 1.32-2.92 3.51-5 4.16a5 5 0 0 1-5.45-2.43 8.46 8.46 0 0 1-.61-6.24 9.53 9.53 0 0 1 4.97-6.84Zm-10.12-19.55c2.7 3.86 7.95 2.58 10.39.23s3.46-5.77 4.4-9c2.14-7.44 4.3-15.25 2.71-22.83a12.66 12.66 0 0 0-2.92-6.2 6.62 6.62 0 0 0-6.27-2.09c-2.65.7-4.3 3.29-5.49 5.76a54.45 54.45 0 0 0-5.38 23.35c0 3.76.43 7.71 2.56 10.81m-7.43 5.51c2.94-3.48 3.49-8.56 2.19-12.93s-4.26-8.07-7.66-11.1a41.16 41.16 0 0 0-13.71-8.09 14.54 14.54 0 0 0-6.16-1 6.48 6.48 0 0 0-5.18 3.13c-1.44 2.75-.06 6.09 1.44 8.81a104.54 104.54 0 0 0 9 13.72c2.7 3.48 5.79 6.91 9.91 8.48s8.38 1.39 10.57-1.46"/><path fill="#263238" d="M128 434.91a8.07 8.07 0 0 0 .25-1.76c.12-1.27.28-2.88.46-4.78a71 71 0 0 1 1.08-7 54.57 54.57 0 0 1 2.55-8.28 30.32 30.32 0 0 1 4.24-7.5 15.75 15.75 0 0 1 5.35-4.45 14.77 14.77 0 0 1 4.5-1.4 8.51 8.51 0 0 0 1.75-.26 8.73 8.73 0 0 0-1.78 0 13.47 13.47 0 0 0-4.7 1.22 15.67 15.67 0 0 0-5.64 4.49 29.63 29.63 0 0 0-4.39 7.65 50.33 50.33 0 0 0-2.53 8.42 59.81 59.81 0 0 0-.94 7.11c-.15 2-.21 3.68-.23 4.82a8.16 8.16 0 0 0 .03 1.72Z"/><path fill="#263238" d="M128.29 431.22a3.2 3.2 0 0 0 .05-.81v-2.33c0-2 0-4.94.11-8.55.18-7.22.8-15 2-25.94 1.14-10.31 2.66-22.29 4.27-30.09.35-1.77.7-3.36 1-4.76s.58-2.61.84-3.58.4-1.67.54-2.27a3.88 3.88 0 0 0 .15-.8 2.82 2.82 0 0 0-.29.76l-.67 2.23c-.3 1-.61 2.17-1 3.56s-.75 3-1.13 4.76a264.43 264.43 0 0 0-4.49 27.91c-1.2 11-1.75 21-1.79 28.21-.05 3.62 0 6.55.12 8.57.06 1 .11 1.72.14 2.33a3.46 3.46 0 0 0 .15.8Z"/><path fill="#263238" d="M128.34 412a15.59 15.59 0 0 0 0-2.43c-.09-1.57-.3-3.83-.74-6.59a88.54 88.54 0 0 0-2.14-9.6 79.35 79.35 0 0 0-4-11.36 60.56 60.56 0 0 0-11.78-18.35 30.05 30.05 0 0 0-2.78-2.58c-.42-.36-.8-.72-1.18-1l-1.08-.74a14.29 14.29 0 0 0-2-1.31c-.12.15 2.9 1.93 6.71 6a63.91 63.91 0 0 1 11.49 18.29 92.09 92.09 0 0 1 4 11.25c1 3.53 1.75 6.77 2.28 9.51s.79 5 1 6.52a16.46 16.46 0 0 0 .22 2.39Zm-18.63 33.95 1.93 26.47h34l1.93-26.47h-37.86z"/><path fill="#263238" d="M106.42 435.52h45.2v10.43h-45.2z"/><path fill="#455a64" d="M106.42 471.4v2.9h44.46v-2.9h-44.46zm4.21 7.98-2.08-5.08h40.71l-2.43 5.08h-36.2z"/><path fill="#e0e0e0" d="M146.94 454.6s-.05.09-.16.25-.3.4-.51.67c-.48.62-1.14 1.47-2 2.53l-.09.12-.08-.12-4.87-6.73h.28l-4.79 6.78-.15.21-.17-.2-5.68-6.76h.33l-.31.39-5.08 6.37-.17.21-.16-.22-4.79-6.78h.28l-5.91 6.72-.1.12-.08-.13-1.85-3.11-.47-.83a1.36 1.36 0 0 1-.15-.29s.08.08.2.26l.53.8 1.94 3.05h-.19l5.81-6.81.15-.17.13.19 4.83 6.75h-.32l5.07-6.38.31-.39.16-.21.17.2 5.66 6.78h-.32l4.84-6.75.14-.2.14.2 4.77 6.8h-.18l2.06-2.47.55-.64Z"/><path fill="#455a64" d="M148 445.78c0 .12-8.52.21-19 .21s-19-.09-19-.21 8.52-.21 19-.21 19 .09 19 .21Z"/><path fill="#263238" d="M149.76 474.58c0 .12-9.26.21-20.68.21s-20.67-.09-20.67-.21 9.25-.21 20.67-.21 20.68.09 20.68.21Zm54.57 4.8c-.55-2.21 15.58-83.58 15.58-83.58l86.39-12.36s35.06 21.35 36.16 39 9.25 56.91 9.25 56.91h-83.6l-2.64-3.35-1.7 3.14Z"/><use xlink:href="#a"/><use xlink:href="#b"/><use xlink:href="#c"/><use xlink:href="#d"/><use xlink:href="#e"/><use xlink:href="#f"/><use xlink:href="#g"/><use xlink:href="#h"/><use xlink:href="#i"/><use xlink:href="#j"/><use xlink:href="#k"/><use xlink:href="#l"/><use xlink:href="#m"/><use xlink:href="#n"/><use xlink:href="#o"/><use xlink:href="#p"/><use xlink:href="#q"/><use xlink:href="#r" opacity=".3"/><path fill="#263238" d="M271.52 198.78a1.29 1.29 0 0 1 .07.35l.12 1c.1 1 .24 2.27.41 3.93.32 3.46.78 8.32 1.33 14.17l-.42-.06 3.05-8.25v-.09l.1-.05 4.52-2h.19l5.61 2h6.32l12.18 6.71-.3.06 11.07-14.05 3.18-4 .86-1a2.12 2.12 0 0 1 .32-.34 2.83 2.83 0 0 1-.26.39c-.2.28-.47.64-.8 1.08l-3.07 4.05c-2.69 3.5-6.47 8.39-10.92 14.16l-.08.16-.18-.1-12.13-6.62h.12-6.41l-5.61-2h.19l-4.53 2 .13-.14c-1.11 2.94-2.15 5.72-3.1 8.24l-.34.91-.08-1c-.48-5.86-.87-10.73-1.16-14.18-.12-1.67-.21-3-.28-3.95 0-.43-.05-.77-.06-1a1.63 1.63 0 0 1-.04-.38Zm-67.19 280.6c-.55-2.21 15.58-83.58 15.58-83.58l86.39-12.36s35.06 21.35 36.16 39 9.25 56.91 9.25 56.91h-83.6l-2.64-3.35-1.7 3.14Z"/><use xlink:href="#a"/><use xlink:href="#b"/><use xlink:href="#c"/><use xlink:href="#d"/><use xlink:href="#e"/><use xlink:href="#f"/><use xlink:href="#g"/><use xlink:href="#h"/><use xlink:href="#i"/><use xlink:href="#j"/><use xlink:href="#k"/><use xlink:href="#l"/><use xlink:href="#m"/><use xlink:href="#n"/><use xlink:href="#o"/><use xlink:href="#p"/><use xlink:href="#q"/><use xlink:href="#r" opacity=".3"/><path fill="#263238" d="M271.52 198.78a1.29 1.29 0 0 1 .07.35l.12 1c.1 1 .24 2.27.41 3.93.32 3.46.78 8.32 1.33 14.17l-.42-.06 3.05-8.25v-.09l.1-.05 4.52-2h.19l5.61 2h6.32l12.18 6.71-.3.06 11.07-14.05 3.18-4 .86-1a2.12 2.12 0 0 1 .32-.34 2.83 2.83 0 0 1-.26.39c-.2.28-.47.64-.8 1.08l-3.07 4.05c-2.69 3.5-6.47 8.39-10.92 14.16l-.08.16-.18-.1-12.13-6.62h.12-6.41l-5.61-2h.19l-4.53 2 .13-.14c-1.11 2.94-2.15 5.72-3.1 8.24l-.34.91-.08-1c-.48-5.86-.87-10.73-1.16-14.18-.12-1.67-.21-3-.28-3.95 0-.43-.05-.77-.06-1a1.63 1.63 0 0 1-.04-.38Z"/><path fill="#e0e0e0" d="M255.4 122.74a8.61 8.61 0 0 1-4.27-13.58c1-1.21 2.26-2.19 2.88-3.61 1.32-3-1.06-6.56-.47-9.84.55-3 3.47-5 6.36-6.14s6-1.68 8.52-3.5c2.29-1.67 3.78-4.23 5.94-6.06a12.41 12.41 0 0 1 11.17-2.41c3.91 1.11 7.2 4.16 11.24 4.61 3 .34 5.86-.76 8.82-.95a14.77 14.77 0 0 1 14.81 11c.67 2.87 1.32 5.37 3.18 7.67 2.41 3 6.57 4 8.47 7.33 1.12 2 .76 4.48.1 6.67s-1.62 4.36-1.59 6.64a8.12 8.12 0 0 0 6.32 7.61 8.15 8.15 0 0 1-4.2 5 9.41 9.41 0 0 0 5 1.16 16.38 16.38 0 0 1-21.76 9.76"/><path fill="#e5ab91" d="M320.33 137.26c.32-.15 13.06-4.11 12.87 9s-13.27 10.19-13.29 9.81.42-18.81.42-18.81Z"/><path fill="#bc8579" d="M324 151.14s.22.16.6.34a2.29 2.29 0 0 0 1.7.06c1.39-.49 2.59-2.66 2.68-5a7.37 7.37 0 0 0-.59-3.27 2.61 2.61 0 0 0-1.68-1.77 1.18 1.18 0 0 0-1.36.6c-.18.37-.1.63-.17.65s-.27-.22-.16-.76a1.4 1.4 0 0 1 .53-.81 1.71 1.71 0 0 1 1.26-.32 3.22 3.22 0 0 1 2.35 2.06 7.89 7.89 0 0 1 .74 3.66c-.13 2.63-1.51 5.08-3.41 5.6a2.49 2.49 0 0 1-2.08-.38c-.41-.35-.48-.64-.41-.66Z"/><path fill="#e5ab91" d="M254.12 163.94c-.27-9.23.71-28.27 1.79-45.49a35.62 35.62 0 0 1 34.92-33.38h1.85c19.9.82 30.33 18.17 29 38l-1.73 65.62-34.07 21.13-12-9.39v-14.76s-19.19-2.67-19.76-21.73Z"/><path fill="#bc8579" d="M273.83 185.67s12.1.77 24.79-7.52c0 0-5.51 14.07-24.61 12.68Z"/><path fill="#263238" d="M262.66 131.6a2.73 2.73 0 0 0 2.68 2.71 2.61 2.61 0 0 0 2.77-2.51 2.73 2.73 0 0 0-2.68-2.71 2.62 2.62 0 0 0-2.77 2.51Zm29.82-.34a2.73 2.73 0 0 0 2.68 2.7 2.61 2.61 0 0 0 2.77-2.51 2.73 2.73 0 0 0-2.68-2.71 2.62 2.62 0 0 0-2.77 2.52ZM260 128.55c.34.35 2.38-1.22 5.32-1.26s5.11 1.39 5.43 1c.15-.16-.21-.8-1.16-1.46a7.42 7.42 0 0 0-4.35-1.26A7.17 7.17 0 0 0 261 127c-.86.74-1.15 1.39-1 1.55Zm29.54-1.19c.36.33 2.3-1.37 5.23-1.6s5.19 1.07 5.48.68c.14-.17-.25-.78-1.24-1.39a7.58 7.58 0 0 0-4.43-1 7.22 7.22 0 0 0-4.13 1.71c-.84.79-1.09 1.45-.91 1.6Zm-10.76 22.36c0-.16-1.82-.45-4.78-.77-.75-.07-1.47-.21-1.6-.71a3.8 3.8 0 0 1 .46-2.24l2.12-5.74c2.93-8.19 5-14.91 4.72-15s-3 6.43-5.92 14.61c-.71 2-1.38 3.94-2 5.78a4.35 4.35 0 0 0-.34 2.95 1.88 1.88 0 0 0 1.25 1.08 5.2 5.2 0 0 0 1.28.15c2.96.08 4.8.06 4.81-.11Zm8.68 1.88c-.48 0-.43 3.17-3.12 5.48s-6.09 2-6.1 2.47c0 .2.76.6 2.2.62a8 8 0 0 0 5.1-1.88 6.94 6.94 0 0 0 2.46-4.59c.05-1.34-.32-2.12-.54-2.1Z"/><path fill="#e0e0e0" d="M288.23 114.92c.37.76 3.25.09 6.72.16s6.34.72 6.72 0c.17-.36-.39-1.06-1.59-1.72a11.63 11.63 0 0 0-10.23-.09c-1.21.59-1.78 1.28-1.62 1.65Zm-27.8 5.74c.53.66 2.54-.07 5-.14s4.5.37 5-.34c.21-.34-.13-1-1-1.62a6.91 6.91 0 0 0-4.06-1 6.83 6.83 0 0 0-3.94 1.41c-.96.68-1.23 1.37-1 1.69Z"/><path fill="#e0e0e0" d="M276.79 83.54c6.66-2.9 13.55-1.74 20.76-1a32.84 32.84 0 0 1 15.5 5.53c7.45 5.1 11.35 13.51 12.06 22.51a84.43 84.43 0 0 1-1.89 25.84l-.72-.14c.52 2.19 1 4.5.34 6.64s-3.08 3.89-5.16 3.07c-2.44-1-2.64-4.28-2.52-6.9a187.93 187.93 0 0 0-.85-26.52c-.61-6.58-4.66-14.52-9.92-17.47-11.82-6.55-20.55 0-24.53 1.61-6.54-5.21-13.52-1.85-17.24 3 1.17-7.1 7.51-13.27 14.17-16.17Z"/><path fill="#fff" d="M329.16 104.56c0 .41-.75.91-2.32 1.15a15.31 15.31 0 0 1-6.55-.74 34.7 34.7 0 0 1-8.49-4.22c-2.9-1.88-5.8-4.07-8.88-5.82a19.72 19.72 0 0 0-8.84-2.88 18.65 18.65 0 0 0-7.56 1.29c-4.25 1.65-6.42 4-7.18 3.45-.18-.12-.23-.4-.15-.83a5.12 5.12 0 0 1 .65-1.7 14.11 14.11 0 0 1 4.61-4.78 18.76 18.76 0 0 1 9.55-3.14 19.52 19.52 0 0 1 6.1.7 25.86 25.86 0 0 1 5.9 2.49 74.1 74.1 0 0 1 9.16 6.57 57.26 57.26 0 0 0 6.89 4.84 33.93 33.93 0 0 0 5.05 2.37c1.24.48 2.04.8 2.06 1.25Zm.47 10.65a6.45 6.45 0 0 1-2.48.53 16 16 0 0 1-6.1-.73 15.8 15.8 0 0 1-5.36-3 6.65 6.65 0 0 1-1.7-1.88 22.12 22.12 0 0 1 2 1.54 18.1 18.1 0 0 0 11.16 3.62c1.51-.01 2.46-.18 2.48-.08Zm5.75 13.09a3.17 3.17 0 0 1-1-.23 25.3 25.3 0 0 1-2.62-.95 41.53 41.53 0 0 1-8-4.43 40.9 40.9 0 0 1-6.84-6.11 25.15 25.15 0 0 1-1.76-2.15 3.21 3.21 0 0 1-.55-.86c.08-.06 1 1.05 2.63 2.71a50.46 50.46 0 0 0 6.88 5.9 51.22 51.22 0 0 0 7.85 4.54 37.37 37.37 0 0 1 3.41 1.58Z"/><path fill="#fff" d="M289.83 80.91c0 .09-1.1.48-2.83 1.29a17.4 17.4 0 0 0-6 4.31 10.62 10.62 0 0 0-2.53 6.74 15.18 15.18 0 0 0 .5 3s-.21-.23-.43-.74a7 7 0 0 1-.51-2.27 10.38 10.38 0 0 1 2.49-7.15 16.08 16.08 0 0 1 6.26-4.31 10 10 0 0 1 3.05-.87Z"/><path fill="#fff" d="M282.76 76.75c.06.1-1 .71-2.34 2.11a13.6 13.6 0 0 0-3.1 13.92c.62 1.83 1.32 2.84 1.22 2.9s-.24-.21-.55-.67a11.34 11.34 0 0 1-1.08-2.08 13.09 13.09 0 0 1 3.21-14.38 10.57 10.57 0 0 1 1.88-1.43 2.34 2.34 0 0 1 .76-.37Zm39.78 62.39c0 .16-2.16 0-4.33-1.43s-3.2-3.33-3-3.39 1.33 1.55 3.39 2.87 3.98 1.81 3.94 1.95Zm.78 2.5c0 .15-2.35.31-4.86-1s-3.74-3.37-3.6-3.43 1.51 1.65 3.89 2.88 4.59 1.36 4.57 1.55Zm-62.19-38.97a3.55 3.55 0 0 1-1.73-.6 8.7 8.7 0 0 1-3.12-3.14 8.57 8.57 0 0 1-1.17-4.27 3.41 3.41 0 0 1 .33-1.79 11.16 11.16 0 0 1 .11 1.78 9.9 9.9 0 0 0 1.27 4 9.8 9.8 0 0 0 2.82 3.07c.89.59 1.53.85 1.49.95Zm1.95-3.8c-.12.11-1.68-1.46-3-3.81s-1.91-4.48-1.75-4.52 1 1.93 2.29 4.22 2.6 3.99 2.46 4.11Z"/><path fill="#bc8579" d="M307.19 128a4.37 4.37 0 0 1-2.06 1.29 4.25 4.25 0 0 1-2.39.44 9 9 0 0 1 2.2-.93 9.08 9.08 0 0 1 2.25-.8Zm2.06 2.83a15.62 15.62 0 0 1-5.67-.36 8 8 0 0 1 2.85-.08 8.13 8.13 0 0 1 2.82.44Zm-49.72 2c0 .15-.7.27-1.57.28s-1.57-.1-1.57-.25.7-.27 1.57-.27 1.57.1 1.57.24Zm-.73-1.48c-.08.13-.68-.1-1.34-.5s-1.15-.83-1.07-.95.67.1 1.34.5 1.14.83 1.07.95Zm30.2-26.02c0 .08-.92.29-2.35.85s-3.32 1.53-5.51 2.47a15 15 0 0 1-5.93 1.4 7.27 7.27 0 0 1-1.84-.23c-.43-.11-.65-.21-.64-.24s.95.18 2.47.1a16.89 16.89 0 0 0 5.74-1.51c2.15-.93 4.09-1.87 5.59-2.33a7 7 0 0 1 2.47-.51Zm-3.9-.44a14.1 14.1 0 0 1-5.81 2 13.72 13.72 0 0 1-6.13-.21 57.71 57.71 0 0 0 6-.3 59.34 59.34 0 0 0 5.94-1.49Zm6.04 47.45c-.13.06-.58-1.06-1.82-1.55a5.62 5.62 0 0 0-2.39-.13c0-.06.19-.27.66-.43a2.85 2.85 0 0 1 3.36 1.34c.24.43.25.75.19.77Zm2.48-.6c-.14 0-.43-1.2-1.68-2a6 6 0 0 0-2.49-.72c0-.06.27-.23.8-.27a3.4 3.4 0 0 1 2 .55 3.32 3.32 0 0 1 1.3 1.58c.17.52.13.86.07.86Z"/><path fill="#455a64" d="M263.75 140.69a13.35 13.35 0 0 1 1.34-.18 9.72 9.72 0 0 0 3.52-1.25 10.86 10.86 0 0 0 2.09-1.61 10.59 10.59 0 0 0 1.79-2.5 9.59 9.59 0 0 0 1-3.32c.12-1.2 0-2.53.06-3.89l.24.24h-22.44l.24-.25a30.81 30.81 0 0 0 .13 4.35 9.87 9.87 0 0 0 6.32 7.65 11 11 0 0 0 4.2.66h1.15c.27 0 .4 0 .4.05h-1.55a11 11 0 0 1-4.31-.54 10.12 10.12 0 0 1-6.66-7.87 30.61 30.61 0 0 1-.17-4.42v-.25H274v.24c0 1.36 0 2.66-.1 3.94a9.76 9.76 0 0 1-1.08 3.45 10 10 0 0 1-4.09 4.18 9.16 9.16 0 0 1-3.64 1.15 6.72 6.72 0 0 1-1 .05 1.35 1.35 0 0 1-.34.12Zm31.67 0a13.35 13.35 0 0 1 1.34-.18 9.72 9.72 0 0 0 3.52-1.25 10.86 10.86 0 0 0 2.09-1.61 10.59 10.59 0 0 0 1.79-2.5 9.59 9.59 0 0 0 1-3.32c.12-1.2.05-2.53.06-3.89l.24.24H283l.24-.25a30.81 30.81 0 0 0 .13 4.35 9.87 9.87 0 0 0 6.32 7.65 11 11 0 0 0 4.2.66h1.15c.27 0 .4 0 .4.05h-1.55a10.9 10.9 0 0 1-4.3-.54 10.11 10.11 0 0 1-6.67-7.87 30.61 30.61 0 0 1-.17-4.42v-.25h22.93v.24c0 1.36 0 2.66-.1 3.94a9.76 9.76 0 0 1-1.08 3.45 10 10 0 0 1-4.09 4.18 9.16 9.16 0 0 1-3.64 1.15 6.72 6.72 0 0 1-1 .05 1.35 1.35 0 0 1-.35.12Z"/><path fill="#455a64" d="M282.81 130.94c-.07 0-.4-.46-1.12-1a5.34 5.34 0 0 0-6.61-.15c-.75.54-1.1 1-1.17 1s.2-.61.94-1.26a5.28 5.28 0 0 1 3.57-1.31 5.34 5.34 0 0 1 3.51 1.46c.71.64.93 1.23.88 1.26Zm41.99 4.81a19 19 0 0 1-2.87-.56c-1.75-.39-4.17-.91-6.87-1.41s-5.14-.89-6.92-1.16a17 17 0 0 1-2.87-.51 15.2 15.2 0 0 1 2.92.15c1.79.17 4.26.5 7 1s5.13 1.08 6.86 1.57a15.52 15.52 0 0 1 2.75.92Z"/><path fill="#fff" d="M263 139.46a6.22 6.22 0 0 1-2.45-.2 11.36 11.36 0 0 1-5.27-2.74 9.85 9.85 0 0 1-3-5.14 5.12 5.12 0 0 1-.09-2.46c.09 0 .05.94.44 2.37a10.57 10.57 0 0 0 3 4.85 12.5 12.5 0 0 0 5 2.77c1.37.41 2.37.46 2.37.55Zm32.08-.6a7.79 7.79 0 0 1-2.36-.26 13.07 13.07 0 0 1-5.31-2.21 7.67 7.67 0 0 1-3-4.87 5.05 5.05 0 0 1 .06-1.76c.09-.41.19-.62.22-.61a11.3 11.3 0 0 0 .09 2.31 7.76 7.76 0 0 0 3 4.52 14.61 14.61 0 0 0 5.07 2.26 18.32 18.32 0 0 1 2.23.62Z"/><path fill="#bc8579" d="M297.89 200.19s-.23 0-.55-.21a2.62 2.62 0 0 1-.94-1.32 10.9 10.9 0 0 1-.46-2.29 3 3 0 0 0-1.18-2.24 23.7 23.7 0 0 1-2.58-1.18 3.83 3.83 0 0 1-1.36-2 2.69 2.69 0 0 1 .11-2.16 6 6 0 0 0 .24 2 3.73 3.73 0 0 0 1.29 1.71c.64.5 1.63.56 2.58 1.13a2.66 2.66 0 0 1 1 1.22 5.35 5.35 0 0 1 .35 1.39 13.28 13.28 0 0 0 .34 2.25 3 3 0 0 0 1.16 1.7Zm4.43-1.41a3.2 3.2 0 0 1-1.87-1.22 5.06 5.06 0 0 1-1.11-2.21 4.82 4.82 0 0 1-.09-1.48c.05-.51.17-1 .18-1.49a2.8 2.8 0 0 0-1.24-2.28c-.33-.31-.66-.59-.94-.91a2.91 2.91 0 0 1-.56-1.05 1.85 1.85 0 0 1 .18-1.67c.28-.32.54-.33.54-.31s-.19.13-.37.42a1.78 1.78 0 0 0 0 1.45 2.72 2.72 0 0 0 .54.87c.26.27.59.54.93.84a5 5 0 0 1 1 1.07 2.5 2.5 0 0 1 .43 1.59c0 .55-.14 1-.19 1.52a4.52 4.52 0 0 0 .05 1.33 5 5 0 0 0 .92 2.08 9 9 0 0 0 1.6 1.45Z"/><path fill="#e5ab91" d="M169.49 261.88c-.41-.28-15.8-19-15.8-19s-.14-4.36-5.32-9.13-18.8-19.35-18.8-19.35l-15.4-1.64s-1.91 2.59 0 4.91l.29.35c-1.21-.15-4.84-.28-5.06 3.47-.28 4.49 1.09 5.86 1.09 5.86a19.74 19.74 0 0 0-1.78 6.4 18.12 18.12 0 0 0 .55 5.32s-.41 1.22 0 5.18a7.73 7.73 0 0 0 2.86 5.58 7.69 7.69 0 0 0-.68 5.73c1 3 4.77 5 4.77 5s7.5 3.41 9.4 3.68 13.77 2.32 13.77 2.32l9.19 13.58Z"/><path fill="#bc8579" d="M159.63 258.82a3.6 3.6 0 0 1-1.92-.48 7 7 0 0 1-1.81-1.19 16.68 16.68 0 0 1-1.71-2 5.21 5.21 0 0 0-1.87-1.59 5.72 5.72 0 0 1-1.92-1 1.51 1.51 0 0 1-.41-1.45c.13-.36.36-.44.36-.41s-.12.16-.17.46a1.42 1.42 0 0 0 .47 1.14 6.71 6.71 0 0 0 1.86.81 5.35 5.35 0 0 1 2.08 1.7 21.75 21.75 0 0 0 1.64 2 8.19 8.19 0 0 0 1.65 1.22c1.03.55 1.77.71 1.75.79Zm2.04-1.15s-.07-.19-.29-.44a2.24 2.24 0 0 0-1.24-.59 6.6 6.6 0 0 1-2.21-.47 1.9 1.9 0 0 1-.88-1.15 10.23 10.23 0 0 1-.26-1.41 2.35 2.35 0 0 0-.44-1.17 3 3 0 0 0-.94-.75 6.68 6.68 0 0 1-1.88-1.24A2 2 0 0 1 153 249c.06-.39.23-.54.25-.52s-.06.2 0 .52a1.83 1.83 0 0 0 .64 1.19 7.05 7.05 0 0 0 1.85 1.07 3.44 3.44 0 0 1 1.1.85 2.94 2.94 0 0 1 .56 1.41c.12 1 .2 1.87.86 2.23a7.79 7.79 0 0 0 2.06.52 2.23 2.23 0 0 1 1.31.83c.11.34.07.57.04.57Z"/><path fill="#455a64" d="m124.67 255.15.64 30.16h-6.93v-26.97l1.66-2.34 4.63-.85z"/><path fill="#bc8579" d="M113.73 216.76a37.13 37.13 0 0 0 3.34 2.46 18.3 18.3 0 0 0 9.45 2.64h1l-.06.32a12 12 0 0 0 1.94 9 17.11 17.11 0 0 0 2.63 2.86 3 3 0 0 1-.9-.57 10.4 10.4 0 0 1-2-2.09 11.93 11.93 0 0 1-1.91-3.9 11.8 11.8 0 0 1-.24-5.36l.27.31h-.74a17.59 17.59 0 0 1-9.65-2.85 15.59 15.59 0 0 1-2.4-1.92 3.74 3.74 0 0 1-.73-.9Z"/><path fill="#bc8579" d="M110.53 227.25a1.79 1.79 0 0 1 .67-.3 7.87 7.87 0 0 1 2-.34 16.43 16.43 0 0 1 6.44 1.24 46.08 46.08 0 0 0 6.14 2.05 2.76 2.76 0 0 0 1.83-.2c.39-.22.56-.42.59-.39s-.09.27-.48.56a2.78 2.78 0 0 1-2 .39 33.41 33.41 0 0 1-6.26-1.92 18.56 18.56 0 0 0-6.26-1.36 22.16 22.16 0 0 0-2.67.27Zm-1.03 11.62a2.6 2.6 0 0 1 .87-.51 6.53 6.53 0 0 1 2.73-.43c1.17 0 2.52.31 4 .46s3.17.41 4.91.6c.86.09 1.71.15 2.52.16h1.2a3.9 3.9 0 0 0 1.06-.25 6.87 6.87 0 0 0 1.8-1 2.84 2.84 0 0 0 .66-.62 2.37 2.37 0 0 0 .32-.77 5.68 5.68 0 0 0 0-2.62 3.75 3.75 0 0 0-.35-.9s.35.2.55.84a5.53 5.53 0 0 1 .11 2.77 2.63 2.63 0 0 1-.34.9 3.42 3.42 0 0 1-.73.74 7.21 7.21 0 0 1-1.9 1.14 3.91 3.91 0 0 1-1.2.29h-1.23a25.45 25.45 0 0 1-2.58-.15c-1.75-.2-3.4-.48-4.9-.64s-2.86-.5-4-.57a8.13 8.13 0 0 0-3.5.56Zm2.9 10.95a2.29 2.29 0 0 1 .6-.82 3.29 3.29 0 0 1 1-.68 5.68 5.68 0 0 1 1.55-.38l1.86-.18a20.83 20.83 0 0 1 2.17-.14c1.52 0 3.19.07 4.92 0a8.32 8.32 0 0 0 2.44-.33 3.24 3.24 0 0 0 1.75-1.3 4.4 4.4 0 0 0 .48-3.68A7.37 7.37 0 0 0 128 240a5.67 5.67 0 0 1-.59-.8 2.81 2.81 0 0 1 .75.67 6.87 6.87 0 0 1 1.41 2.36 4.71 4.71 0 0 1-.43 4.06 3.78 3.78 0 0 1-2 1.51 8.68 8.68 0 0 1-2.59.37c-1.77.05-3.43-.07-4.94-.06q-1.12 0-2.13.09l-1.87.12a4 4 0 0 0-2.44.84c-.51.41-.74.69-.77.66Z"/><path fill="#bc8579" d="M116.53 256c0-.09 1 .11 2.64 0a13 13 0 0 0 6-1.8 6.63 6.63 0 0 0 2.4-2.36 3.45 3.45 0 0 0 .3-2.64 2.92 2.92 0 0 0-1-1.53c-.35-.27-.6-.35-.59-.4a1.21 1.21 0 0 1 .7.23 3 3 0 0 1 1.23 1.59 3.75 3.75 0 0 1-.24 3 6.64 6.64 0 0 1-2.55 2.58 12.2 12.2 0 0 1-6.24 1.73 10.06 10.06 0 0 1-2-.19c-.42-.14-.66-.21-.65-.21Zm14.37-22.94a21.08 21.08 0 0 0-.77 4.07 15.29 15.29 0 0 0 2.65 9.42 17 17 0 0 0 7.77 6 34.68 34.68 0 0 0 4 1.1 3.74 3.74 0 0 1-1.13-.05 14.81 14.81 0 0 1-3-.71 16.45 16.45 0 0 1-8.06-6.08 15 15 0 0 1-2.6-9.74 12.19 12.19 0 0 1 .66-3 4 4 0 0 1 .48-1.01Z"/><path fill="#455a64" d="M91.38 282.45h61.01v18.98H91.38z"/><path fill="#263238" d="M101.37 282.64s-.14 0-.4-.05a5 5 0 0 0-1.09 0 7.88 7.88 0 0 0-1.57.38c-.58.2-1.19.48-1.84.78a16 16 0 0 1-1.85.75 7.21 7.21 0 0 1-1.6.31 4.33 4.33 0 0 1-1.1-.06 2.54 2.54 0 0 1-.39-.1s.14 0 .39.07a5.05 5.05 0 0 0 1.09 0 7.05 7.05 0 0 0 1.59-.33 14.87 14.87 0 0 0 1.84-.75 19.38 19.38 0 0 1 1.84-.78 7.46 7.46 0 0 1 1.6-.36 4.33 4.33 0 0 1 1.1 0 1.76 1.76 0 0 1 .39.14ZM95 287.39a4.64 4.64 0 0 1-.56.11 9.09 9.09 0 0 0-2.58.94c-.31.17-.49.29-.5.28s0 0 .12-.1l.36-.22a7 7 0 0 1 1.25-.6 8.38 8.38 0 0 1 1.34-.35l.42-.05Zm11.87-4.94h-.29a3.75 3.75 0 0 0-.76.2 5.3 5.3 0 0 0-1 .55c-.37.24-.75.54-1.15.86a9.75 9.75 0 0 1-1.2.81 4 4 0 0 1-1.11.43 2.56 2.56 0 0 1-.79.05 1 1 0 0 1-.29-.05 1.64 1.64 0 0 0 .29 0 3 3 0 0 0 .78-.07 4.29 4.29 0 0 0 1.09-.44 9.6 9.6 0 0 0 1.18-.81c.41-.31.79-.62 1.16-.86a5.91 5.91 0 0 1 1.06-.54 3 3 0 0 1 .78-.17 1.59 1.59 0 0 1 .25.04Zm7.61 3.09a3.15 3.15 0 0 0 0-.4 2.2 2.2 0 0 0-.31-1.05 2.09 2.09 0 0 0-1.25-1 3.76 3.76 0 0 0-2 .11 15.94 15.94 0 0 0-3.4 1.36c-.41.22-.74.41-1 .55l-.26.16-.09.06.08-.07.25-.17c.22-.15.55-.35 1-.58a15.32 15.32 0 0 1 3.41-1.39 3.86 3.86 0 0 1 2-.1 2.14 2.14 0 0 1 1.28 1 2.27 2.27 0 0 1 .29 1.08 1.3 1.3 0 0 1 0 .44Z"/><path fill="#263238" d="M112.07 285.47a2.5 2.5 0 0 0-.33-.22 1.85 1.85 0 0 0-.95-.19 3.69 3.69 0 0 0-1 .19l-.39.1a2.47 2.47 0 0 1 .38-.15 3.24 3.24 0 0 1 1-.22 1.7 1.7 0 0 1 1 .22.94.94 0 0 1 .25.19c.02.05.05.08.04.08Zm-16.88 4.17s-.22 0-.58.09a5.13 5.13 0 0 0-2.5 1.29c-.26.25-.4.42-.41.42s0-.05.09-.14a3.33 3.33 0 0 1 .29-.32 4.24 4.24 0 0 1 1.16-.85 4.57 4.57 0 0 1 1.36-.45l.43-.05Zm1.97 11.79.15-.05.42-.16a4.79 4.79 0 0 0 1.4-.79 2.15 2.15 0 0 0 .65-.89 2.65 2.65 0 0 0 0-1.26 4.38 4.38 0 0 0-1.42-2.51 5.86 5.86 0 0 0-2.62-1.27 8.57 8.57 0 0 0-2.4-.17 14.72 14.72 0 0 0-1.61.21l-.44.08h-.15.15l.43-.09a12 12 0 0 1 1.62-.23 8.22 8.22 0 0 1 2.41.15 5.83 5.83 0 0 1 2.66 1.29 4.39 4.39 0 0 1 1.44 2.55 2.78 2.78 0 0 1-.06 1.29 2.28 2.28 0 0 1-.67.91 4.81 4.81 0 0 1-1.43.78c-.32.11-.53.16-.53.16Z"/><path fill="#263238" d="M94 299.36a1.61 1.61 0 0 0-.51-.3 1.28 1.28 0 0 0-.68 0 1 1 0 0 0-.64.59.87.87 0 0 0 .22 1 1.51 1.51 0 0 0 1.21.23 3.67 3.67 0 0 0 2.4-1.58 2 2 0 0 0 .34-1.43 1.39 1.39 0 0 0-.78-1.08 2.48 2.48 0 0 0-1.25-.16 5.88 5.88 0 0 0-1.1.18 6.6 6.6 0 0 0-1.52.57l-.38.21-.14.08a4.68 4.68 0 0 1 .51-.32 6.77 6.77 0 0 1 1.52-.59 5.82 5.82 0 0 1 1.11-.19 2.51 2.51 0 0 1 1.28.16 1.44 1.44 0 0 1 .82 1.13 2.08 2.08 0 0 1-.35 1.48 3.75 3.75 0 0 1-2.43 1.58 1.61 1.61 0 0 1-1.26-.25.94.94 0 0 1-.23-1.06 1 1 0 0 1 .68-.61 1.23 1.23 0 0 1 .7 0 1.36 1.36 0 0 1 .39.21Zm24.9-1.79a5.39 5.39 0 0 1-.72.26 10.28 10.28 0 0 1-2.08.38 20.33 20.33 0 0 1-3.12 0c-1.17-.07-2.46-.19-3.82-.19a13.09 13.09 0 0 0-3.76.53 12.35 12.35 0 0 0-2.86 1.22 13.45 13.45 0 0 0-1.73 1.18c-.2.15-.34.29-.44.37l-.15.13s.19-.2.57-.52a13 13 0 0 1 4.59-2.45 13.22 13.22 0 0 1 3.78-.54c1.36 0 2.65.13 3.82.2a22 22 0 0 0 3.12 0 10.39 10.39 0 0 0 2.07-.36 3.94 3.94 0 0 0 .54-.17Z"/><path fill="#263238" d="M122.79 299.78h-.31l-.9.05-1.43.07a1.8 1.8 0 0 1-.88-.08.32.32 0 0 1-.16-.44.63.63 0 0 1 .43-.29 20.7 20.7 0 0 1 4.88-.5 1.24 1.24 0 0 1 .69.19.51.51 0 0 1 .11.69 1.45 1.45 0 0 1-.55.49l-.34.17-.34.15a8.63 8.63 0 0 1-3 .6 27.19 27.19 0 0 1-6-.84 16.15 16.15 0 0 0-4.86-.43 7.74 7.74 0 0 0-3.14.94 5.91 5.91 0 0 0-.74.51l-.25.19.24-.2a4.72 4.72 0 0 1 .73-.52 7.6 7.6 0 0 1 3.15-1 16.27 16.27 0 0 1 4.88.47 27.19 27.19 0 0 0 5.93.83 8.42 8.42 0 0 0 3-.58l.34-.15.33-.17a1.42 1.42 0 0 0 .53-.47.45.45 0 0 0-.09-.6 1.22 1.22 0 0 0-.65-.17 21.23 21.23 0 0 0-4.87.48.63.63 0 0 0-.4.26.29.29 0 0 0 .14.38 1.7 1.7 0 0 0 .86.07l1.43-.05h.9Zm11.02-2.01h-.09l-.27.1c-.23.07-.55.2-.95.37-.79.35-1.84.92-3 1.55-.58.31-1.15.59-1.68.81a9.59 9.59 0 0 1-1.44.5 6.83 6.83 0 0 1-1.38.22s0 0 .09 0h.28c.12 0 .27 0 .43-.08a5.58 5.58 0 0 0 .57-.13 11.48 11.48 0 0 0 1.43-.51c.52-.23 1.08-.51 1.67-.82 1.16-.62 2.22-1.19 3-1.52a8.69 8.69 0 0 1 1.34-.49Zm9.63.56h-.14l-.37-.05c-.17 0-.37-.06-.61-.08s-.5-.06-.8-.07a14.78 14.78 0 0 0-2.08 0 17.57 17.57 0 0 0-2.52.41 17.1 17.1 0 0 0-2.42.83 14.19 14.19 0 0 0-1.85 1 7.1 7.1 0 0 0-.67.44c-.2.12-.36.25-.5.35l-.3.23-.11.07a11.7 11.7 0 0 1 1.55-1.14 14.14 14.14 0 0 1 1.85-1 17.69 17.69 0 0 1 2.43-.84 16.58 16.58 0 0 1 2.53-.41 14.78 14.78 0 0 1 2.1 0 12.6 12.6 0 0 1 1.91.26Zm8.29-8.75-.18.11-.5.31a9 9 0 0 0-1.71 1.33 4.69 4.69 0 0 0-.84 1.22 3.17 3.17 0 0 0-.27 1.66c.08.6.31 1.2.44 1.85a2.69 2.69 0 0 1 0 1 1.74 1.74 0 0 1-.53.9 5.73 5.73 0 0 1-1.83.92l-1.78.68a7.4 7.4 0 0 0-.8.35 1.13 1.13 0 0 0-.54.6.68.68 0 0 0 .12.7 1 1 0 0 0 .64.23 14 14 0 0 0 2.16-.16l.59-.09h.2s-.28.07-.78.15a13.67 13.67 0 0 1-2.17.18 1 1 0 0 1-.68-.24.71.71 0 0 1-.13-.76 1.13 1.13 0 0 1 .55-.63 5.5 5.5 0 0 1 .82-.36l1.78-.68a5.8 5.8 0 0 0 1.8-.92 1.58 1.58 0 0 0 .5-.86 2.49 2.49 0 0 0 0-1c-.13-.65-.36-1.25-.43-1.86a3.06 3.06 0 0 1 .28-1.69 4.45 4.45 0 0 1 .85-1.24A8.52 8.52 0 0 1 151 290l.51-.29Zm.1 11.97-.05-.08-.14-.24c-.12-.21-.28-.51-.46-.9a8.14 8.14 0 0 1-.82-3.23 5.29 5.29 0 0 1 .94-3.17 4.27 4.27 0 0 1 .7-.74l.3-.21a3.52 3.52 0 0 1-.28.24 4.3 4.3 0 0 0-.68.74 5.37 5.37 0 0 0-.91 3.14 8.76 8.76 0 0 0 .79 3.21c.18.39.33.7.44.91l.13.24Zm-33.17-13.94a2.32 2.32 0 0 0 .54-.85 2.46 2.46 0 0 0 .1-1.08 2.81 2.81 0 0 0-.49-1.22 5 5 0 0 0-1.85-1.55c-.28-.15-.51-.25-.67-.33s-.25-.11-.24-.12h.06l.19.08a6.29 6.29 0 0 1 .68.3 4.91 4.91 0 0 1 1.89 1.55 3 3 0 0 1 .5 1.27 2.54 2.54 0 0 1-.12 1.1 1.92 1.92 0 0 1-.38.64 1.32 1.32 0 0 1-.21.21Zm33.72.77-.28-.21a5.43 5.43 0 0 0-.85-.53 8.7 8.7 0 0 0-3.53-.95 19.37 19.37 0 0 0-5.42.55c-1 .21-2.06.45-3.16.65a33.86 33.86 0 0 1-3.45.43 34.33 34.33 0 0 1-6.7-.14 13.77 13.77 0 0 1-2.86-.62 7.06 7.06 0 0 1-2.24-1.21 8.16 8.16 0 0 1-1.39-1.57 13.54 13.54 0 0 0-1-1.25 4 4 0 0 0-.77-.64 1.8 1.8 0 0 0-.22-.14h-.08a1.6 1.6 0 0 1 .31.16 4.31 4.31 0 0 1 .78.64 14.47 14.47 0 0 1 1 1.24 7.58 7.58 0 0 0 1.39 1.56 7 7 0 0 0 2.22 1.2 14.36 14.36 0 0 0 2.85.6 35 35 0 0 0 6.69.14c1.18-.09 2.33-.24 3.43-.43s2.16-.44 3.17-.65a19 19 0 0 1 5.44-.53 8.89 8.89 0 0 1 3.54 1 7.94 7.94 0 0 1 .84.54Z"/><path fill="#263238" d="M138.56 284.45s-.75.07-2.07.13a22.26 22.26 0 0 1-2.4 0 11.47 11.47 0 0 1-3.06-.62h-.1.1a24.35 24.35 0 0 1 9.49 0 1.27 1.27 0 0 1 .81.37.53.53 0 0 1 .07.44.73.73 0 0 1-.24.38 1.51 1.51 0 0 1-.8.32l-.84.13c-1.1.17-2.17.31-3.19.39a14.61 14.61 0 0 1-5.41-.46A7.83 7.83 0 0 1 127 283l-.22-.28.23.27a7.9 7.9 0 0 0 .71.7 8.79 8.79 0 0 0 3.22 1.7 14.46 14.46 0 0 0 5.38.44c1-.08 2.09-.23 3.19-.39l.83-.13a1.54 1.54 0 0 0 .77-.3.57.57 0 0 0 .16-.73 1.19 1.19 0 0 0-.77-.34 24.35 24.35 0 0 0-9.45 0v-.06a11.46 11.46 0 0 0 3 .63 20 20 0 0 0 2.39.05l1.54-.06Zm13.69.55a11 11 0 0 1-1.49.07 15.36 15.36 0 0 1-3.56-.48 14.78 14.78 0 0 1-3.34-1.31 11.89 11.89 0 0 1-1.27-.78l.09.05.25.15c.22.14.54.32.95.53a15.56 15.56 0 0 0 3.34 1.29 15.87 15.87 0 0 0 3.54.5h1.49Zm-.01-1.68h-.63a10.4 10.4 0 0 1-1.56 0 11 11 0 0 1-1.53-.24l-.45-.12-.17-.06h.17l.46.1a13.25 13.25 0 0 0 1.53.22 14.36 14.36 0 0 0 1.54 0h.47Z"/><path fill="#f5f5f5" d="M96.6 286h50.37v12.13H96.6z"/><path fill="#e0e0e0" d="M147 288a1.37 1.37 0 0 1-.07.16l-.23.44a7.07 7.07 0 0 1-.37.68c-.16.26-.32.56-.55.88s-.45.66-.73 1a12.55 12.55 0 0 1-.92 1.11 20.23 20.23 0 0 1-2.41 2.23 19.9 19.9 0 0 1-2.78 1.76c-.46.22-.89.44-1.31.6l-.6.25-.57.19c-.36.13-.7.21-1 .3s-.55.14-.76.18l-.48.09h-.17.17l.48-.11a7.5 7.5 0 0 0 .75-.19c.29-.09.63-.17 1-.31l.57-.19.6-.25c.42-.16.84-.39 1.3-.6a20.21 20.21 0 0 0 2.76-1.77 19.39 19.39 0 0 0 2.41-2.22c.34-.38.66-.73.93-1.09s.52-.7.73-1 .39-.61.55-.87.29-.49.39-.68l.23-.43Zm-.25 7.4h-.29c-.19 0-.46.06-.8.13a14.25 14.25 0 0 0-4.91 1.9c-.29.18-.52.34-.67.45l-.18.12h-.07.06l.17-.14.66-.46a13.54 13.54 0 0 1 2.37-1.21 12.74 12.74 0 0 1 2.57-.7c.33-.06.61-.09.8-.11h.29Z"/><path fill="#e0e0e0" d="M139.36 291.74a3.3 3.3 0 0 1-.32.17 2.09 2.09 0 0 1-1 .27 1.12 1.12 0 0 1-.68-.26.76.76 0 0 1-.23-.82 2.06 2.06 0 0 1 .58-.82 8.06 8.06 0 0 1 .86-.74 7.8 7.8 0 0 1 2.3-1.19 7.65 7.65 0 0 1 1.41-.32 3.23 3.23 0 0 1 .76 0 1.39 1.39 0 0 1 .71.34 1 1 0 0 1 .29.75 1.72 1.72 0 0 1-.26.78 10.54 10.54 0 0 1-1 1.34 13.08 13.08 0 0 1-1.26 1.2 12 12 0 0 1-1.46 1 12.21 12.21 0 0 1-3.24 1.38 12.34 12.34 0 0 1-1.66.3 2.86 2.86 0 0 1-1.59-.24 1.58 1.58 0 0 1-.91-1.19 2.62 2.62 0 0 1 .29-1.41 12.54 12.54 0 0 1 3.91-4.93 11.59 11.59 0 0 1 1.14-.77l-.3.2c-.19.13-.47.32-.83.59a13.74 13.74 0 0 0-2.59 2.69 12.89 12.89 0 0 0-1.28 2.25 2.6 2.6 0 0 0-.28 1.38 1.52 1.52 0 0 0 .88 1.14 2.89 2.89 0 0 0 1.55.22 10.6 10.6 0 0 0 1.65-.3 12.45 12.45 0 0 0 3.23-1.37 14.05 14.05 0 0 0 1.45-1 13 13 0 0 0 1.25-1.2 9 9 0 0 0 1-1.33 1.59 1.59 0 0 0 .25-.75.88.88 0 0 0-.26-.69 1.82 1.82 0 0 0-1.42-.35 7 7 0 0 0-1.4.3 8 8 0 0 0-2.29 1.18 7 7 0 0 0-.86.73 2.08 2.08 0 0 0-.57.81.7.7 0 0 0 .21.77 1.06 1.06 0 0 0 .66.26 2.16 2.16 0 0 0 1-.25Zm-5.36-5.19a3.23 3.23 0 0 1 0 .59 5.73 5.73 0 0 1-.47 1.55 8.58 8.58 0 0 1-1.34 2 17.08 17.08 0 0 1-2.19 2c-.82.64-1.62 1.22-2.31 1.8a13.55 13.55 0 0 0-1.7 1.68 8.41 8.41 0 0 0-.9 1.34c-.09.17-.16.3-.2.39l-.06.14a4.14 4.14 0 0 1 .23-.55 7.62 7.62 0 0 1 .89-1.35 13.58 13.58 0 0 1 1.7-1.7c.69-.58 1.49-1.17 2.31-1.81a16.88 16.88 0 0 0 2.18-1.95 8.5 8.5 0 0 0 1.34-2 6.32 6.32 0 0 0 .5-1.53 3.09 3.09 0 0 0 .05-.44c-.03-.11-.03-.16-.03-.16ZM111.45 298a20.68 20.68 0 0 1 3.43-.88c1.08-.21 2.37-.39 3.79-.67.71-.15 1.45-.31 2.2-.53a16.36 16.36 0 0 0 2.28-.87 16.62 16.62 0 0 0 2.12-1.19 16.1 16.1 0 0 0 1.8-1.38 16.74 16.74 0 0 0 2.58-2.84 20 20 0 0 0 1.34-2.21l.3-.64.11-.22s-.13.32-.39.87a16.1 16.1 0 0 1-1.32 2.23 16.39 16.39 0 0 1-2.58 2.86 17.44 17.44 0 0 1-1.8 1.39 18.12 18.12 0 0 1-2.13 1.2 17.77 17.77 0 0 1-2.29.86c-.75.22-1.5.39-2.21.53-1.42.28-2.71.46-3.79.66s-1.94.4-2.53.56l-.68.2Zm-5.55-3.18a1.09 1.09 0 0 1 0-.12 1.23 1.23 0 0 1 .07-.36 2.42 2.42 0 0 1 .78-1.12 6.17 6.17 0 0 1 1.91-1 8.56 8.56 0 0 1 2.83-.51 8.17 8.17 0 0 1 1.68.14 3.37 3.37 0 0 1 .86.25 1.7 1.7 0 0 1 .73.57 1.19 1.19 0 0 1 .23.93 1.46 1.46 0 0 1-.55.83 4 4 0 0 1-.87.53 12 12 0 0 1-1 .43 23.58 23.58 0 0 1-4.24 1.3c-.76.15-1.54.27-2.33.35l-1.2.08a3.55 3.55 0 0 1-1.21-.13 1.8 1.8 0 0 1-1-.74 2.35 2.35 0 0 1-.35-1.15 3.15 3.15 0 0 1 .85-2.16 8.59 8.59 0 0 1 1.71-1.49 11.89 11.89 0 0 1 1.9-1.06 16.86 16.86 0 0 1 3.84-1.18 27.56 27.56 0 0 1 3.47-.45c1.07-.09 2-.09 2.88-.2a4.66 4.66 0 0 0 2-.7 2.8 2.8 0 0 0 .92-1 1.49 1.49 0 0 0 .14-.33 1.26 1.26 0 0 0 0-.12 1.85 1.85 0 0 1-.17.45 2.87 2.87 0 0 1-.91 1 4.58 4.58 0 0 1-2 .72c-.84.11-1.81.11-2.88.21a29.65 29.65 0 0 0-3.46.45 17.27 17.27 0 0 0-3.82 1.19 10.71 10.71 0 0 0-1.89 1.06 8.76 8.76 0 0 0-1.7 1.47 3.12 3.12 0 0 0-.83 2.12 2.19 2.19 0 0 0 .34 1.11 1.66 1.66 0 0 0 .93.71 3.41 3.41 0 0 0 1.19.13c.4 0 .8 0 1.2-.08.79-.08 1.56-.2 2.31-.35a22.79 22.79 0 0 0 4.24-1.29 8.26 8.26 0 0 0 1.82-.95 1.44 1.44 0 0 0 .52-.79 1.1 1.1 0 0 0-.21-.88 2.37 2.37 0 0 0-1.56-.81 8 8 0 0 0-1.67-.14 8.56 8.56 0 0 0-2.82.49 6.29 6.29 0 0 0-1.91 1 2.51 2.51 0 0 0-.78 1.11 1.18 1.18 0 0 0-.07.35 1.13 1.13 0 0 1 .08.13Z"/><path fill="#e0e0e0" d="M111.76 286.29s-.22.15-.65.38-1.06.54-1.86.88-1.76.73-2.83 1.16a28.24 28.24 0 0 0-3.36 1.61 11.83 11.83 0 0 0-2.93 2.29 8.58 8.58 0 0 0-1.6 2.56 6.79 6.79 0 0 0-.43 2 5.12 5.12 0 0 0 0 .56v.19-.19a4.29 4.29 0 0 1 0-.56 6.41 6.41 0 0 1 .42-2 8.22 8.22 0 0 1 1.6-2.6 11.68 11.68 0 0 1 2.93-2.3 27.65 27.65 0 0 1 3.38-1.61c1.06-.43 2-.8 2.83-1.14s1.43-.64 1.86-.87l.5-.26Zm-14.57 3.35h.33c.21 0 .51-.1.87-.19a13.73 13.73 0 0 0 5.28-2.57c.29-.24.53-.44.68-.58l.19-.16.06-.05v.06l-.18.17c-.15.15-.38.36-.67.6a13.44 13.44 0 0 1-2.5 1.59 13.18 13.18 0 0 1-2.79 1 8.7 8.7 0 0 1-.89.16h-.24Z"/><path fill="#263238" d="M109.94 289.7v.18a1.06 1.06 0 0 0-.53.14c-.09.07-.13.25-.13.53v3.13a1.66 1.66 0 0 1-.42 1.2 1.56 1.56 0 0 1-1.18.43 1.24 1.24 0 0 1-.87-.29.82.82 0 0 1-.33-.62.57.57 0 0 1 .16-.42.5.5 0 0 1 .37-.16.45.45 0 0 1 .35.15.52.52 0 0 1 .14.36.66.66 0 0 1-.09.33 1.1 1.1 0 0 0-.08.19.18.18 0 0 0 .08.16.34.34 0 0 0 .2.06.44.44 0 0 0 .44-.22 1 1 0 0 0 .06-.42v-4a.43.43 0 0 0-.22-.43 1.46 1.46 0 0 0-.51-.08v-.18Zm2.72 0v.18a1.13 1.13 0 0 0-.57.13.74.74 0 0 0-.14.54V293a2.33 2.33 0 0 0 .13.85.9.9 0 0 0 .91.56 1.11 1.11 0 0 0 1.13-.62 2.18 2.18 0 0 0 .17-.95v-2.24a.76.76 0 0 0-.15-.54.85.85 0 0 0-.56-.18v-.18h1.6v.18a1 1 0 0 0-.46.17c-.08.06-.11.21-.11.45v2.32a2.05 2.05 0 0 1-.45 1.42 1.78 1.78 0 0 1-1.4.51 1.83 1.83 0 0 1-1.71-.75 1.89 1.89 0 0 1-.25-1v-2.42a.8.8 0 0 0-.11-.52.89.89 0 0 0-.49-.15v-.18Zm2.92 3.21h.21a2.32 2.32 0 0 0 .56 1.18 1.25 1.25 0 0 0 .89.37.84.84 0 0 0 .69-.25.88.88 0 0 0 .2-.54.72.72 0 0 0-.21-.53 2.78 2.78 0 0 0-.57-.35l-.47-.23a3.11 3.11 0 0 1-1-.69 1.27 1.27 0 0 1-.28-.84 1.52 1.52 0 0 1 .38-1 1.38 1.38 0 0 1 1.14-.47 2.37 2.37 0 0 1 .76.12l.42.13a.21.21 0 0 0 .17-.07.69.69 0 0 0 .07-.19h.22v1.58h-.2a2.37 2.37 0 0 0-.5-.94 1.12 1.12 0 0 0-.88-.4.81.81 0 0 0-.57.2.67.67 0 0 0-.21.49.63.63 0 0 0 .2.51 4.24 4.24 0 0 0 .87.51l.53.27a2.19 2.19 0 0 1 .57.4 1.38 1.38 0 0 1 .4 1 1.54 1.54 0 0 1-.43 1 1.73 1.73 0 0 1-1.36.49 3.27 3.27 0 0 1-.44 0 2.23 2.23 0 0 1-.44-.13l-.14-.05H116a.17.17 0 0 0-.15.07.57.57 0 0 0-.08.19h-.21Zm3.98-3.21h4.37v1.46h-.21a1.3 1.3 0 0 0-.58-1.06 1.9 1.9 0 0 0-.82-.17v3.83a.77.77 0 0 0 .14.53.88.88 0 0 0 .58.13v.18h-2.58v-.18a.89.89 0 0 0 .56-.13.72.72 0 0 0 .14-.53v-3.83a1.88 1.88 0 0 0-.81.17 1.21 1.21 0 0 0-.59 1.06h-.21Zm4.76 4.72a1.13 1.13 0 0 0 .45-.08.44.44 0 0 0 .22-.43v-3.52a.45.45 0 0 0-.21-.43 1.36 1.36 0 0 0-.46-.08v-.18h2.54v.18a1.38 1.38 0 0 0-.47.08.44.44 0 0 0-.21.43v3.52a.46.46 0 0 0 .17.41 1.09 1.09 0 0 0 .51.1v.18h-2.54Zm6.44-4.65a2.82 2.82 0 0 0 .51.17.26.26 0 0 0 .22-.1.54.54 0 0 0 .11-.23h.2v1.7h-.18a4.12 4.12 0 0 0-.54-.87 1.5 1.5 0 0 0-1.15-.59 1.07 1.07 0 0 0-1 .63 4 4 0 0 0-.3 1.69 3.82 3.82 0 0 0 .18 1.28 1.24 1.24 0 0 0 1.25.94 1.86 1.86 0 0 0 1-.31 3.82 3.82 0 0 0 .65-.58l.21.18a4 4 0 0 1-.74.69 2.31 2.31 0 0 1-1.28.38 2.63 2.63 0 0 1-1.8-.64 2.38 2.38 0 0 1-.8-1.9 2.48 2.48 0 0 1 2.54-2.6 2.74 2.74 0 0 1 .92.16Zm1.63 4.83v-.18a1 1 0 0 0 .44-.09.42.42 0 0 0 .2-.42v-3.52a.42.42 0 0 0-.21-.42 1 1 0 0 0-.43-.09v-.18h4.18v1.46h-.18a1.55 1.55 0 0 0-.47-1 2 2 0 0 0-1.2-.26.89.89 0 0 0-.43.07.35.35 0 0 0-.09.28V292a1.11 1.11 0 0 0 .84-.23 1.71 1.71 0 0 0 .34-.85h.18v2.46h-.18a1.55 1.55 0 0 0-.32-.88 1.15 1.15 0 0 0-.86-.25V294a.36.36 0 0 0 .12.31.91.91 0 0 0 .49.08 1.83 1.83 0 0 0 1.91-1.28h.2l-.29 1.51Z"/><path fill="#455a64" d="m117.21 200.14 1.75-20.53h4.39l1.78 20.53h-7.92z"/><path fill="#455a64" d="M158 205.31a2.48 2.48 0 0 0 3-3.31c-.41-.88-1.34-1.58-3.23-1.71-5.08-.34-63-1-73.49-1.1a3.44 3.44 0 0 0-3.34 2 2.1 2.1 0 0 0 .41 1.88c1.3 1 2.44.57 4.22-.74 2.28-1.66 29.09.71 32.09 1.72h6.18s5-1.67 22.93-1.73c10.45 0 8.47 1.46 10.29 2.75Z"/><path fill="#455a64" d="m123.82 203.41.76 5.48-.95.62.95 4.37-8.19-.87 1.99-3.5-.76-1.04.34-4.98 5.86-.08z"/><circle cx="121.17" cy="174.88" r="6.41" fill="#455a64"/><path fill="#263238" d="M92.76 202.29c.37 1.31 1.91 6.84 4.83 17.28l12.11 43.64.1.36H78.2l.08-.35c4.14-17.43 7.76-32.7 10.36-43.66 2.49-10.43 3.81-15.95 4.12-17.27-.3 1.34-1.58 7-4 17.62-2.49 10.9-6 26.1-9.93 43.44l-.28-.35h30.86l-.28.36c-4.65-17.32-8.74-32.52-11.67-43.43-2.84-10.66-4.34-16.3-4.7-17.64Z"/><path fill="#455a64" d="M74.89 262h39.69s-2 14.7-20 14.62C76.76 276.54 74.89 262 74.89 262Z"/><path fill="#fff" d="M99 274.42a2.45 2.45 0 0 1-.88.24 14.31 14.31 0 0 1-2.46.26 19.76 19.76 0 0 1-3.67-.25 22.48 22.48 0 0 1-4.34-1.22 21.54 21.54 0 0 1-4-2.13 20 20 0 0 1-2.81-2.32 14.26 14.26 0 0 1-1.59-1.89 2.69 2.69 0 0 1-.47-.78c.08-.07.84 1 2.35 2.37a22 22 0 0 0 2.87 2.17 23.26 23.26 0 0 0 3.89 2 23.56 23.56 0 0 0 4.22 1.23 21.53 21.53 0 0 0 3.57.36c2.01.08 3.32-.14 3.32-.04Z"/><path fill="#263238" d="M152.45 202.29c.37 1.31 1.91 6.84 4.83 17.28l12.11 43.64.1.36h-31.6l.09-.35 10.35-43.66c2.49-10.43 3.81-15.95 4.12-17.27-.3 1.34-1.58 7-4 17.62-2.49 10.9-6 26.1-9.93 43.44l-.27-.35h30.85l-.27.36c-4.66-17.32-8.75-32.52-11.68-43.43-2.83-10.66-4.34-16.3-4.7-17.64Z"/><path fill="#455a64" d="M134.59 262h39.68s-2 14.7-20 14.62c-17.82-.08-19.68-14.62-19.68-14.62Z"/><path fill="#fff" d="M158.67 274.42a2.45 2.45 0 0 1-.88.24 14.31 14.31 0 0 1-2.46.26 19.87 19.87 0 0 1-3.67-.25 22.48 22.48 0 0 1-4.34-1.22 21.54 21.54 0 0 1-4-2.13 20.58 20.58 0 0 1-2.82-2.36 14.26 14.26 0 0 1-1.59-1.89 3 3 0 0 1-.47-.78c.09-.07.85 1 2.35 2.37a22.75 22.75 0 0 0 2.83 2.21 22.07 22.07 0 0 0 8.11 3.27 21.64 21.64 0 0 0 3.57.36c2.09.04 3.35-.18 3.37-.08Z"/><path fill="#263238" d="M347 297.34s-1.76 20.28-1.11 25.72 6 36.06 11.73 40.34 12.2 10.22 20.61 9.4 12.52-2.14 13.84-6.26 7.75-20.11 6.27-27.2-6.93-18.13-6.93-18.13-4.28-33.13-6.43-34.95l-2.14-1.81s3.63-13 3.3-17-4.78-38.27-11.94-43.41a44.79 44.79 0 0 0-11-5.77l-7.58 31.38Z"/><path fill="#455a64" d="M390.54 328.72a6.94 6.94 0 0 1-.93-1.17c-.55-.79-1.32-1.95-2.16-3.45a42.66 42.66 0 0 1-2.55-5.48 36.6 36.6 0 0 0-3-6.67 21.58 21.58 0 0 0-5.09-5.17l-4.82-3.6-3.23-2.46a8.26 8.26 0 0 1-1.15-1 7.46 7.46 0 0 1 1.27.79l3.33 2.33c1.39 1 3.07 2.16 4.89 3.52a21.45 21.45 0 0 1 5.24 5.26 35.59 35.59 0 0 1 3 6.79 47.08 47.08 0 0 0 2.43 5.47c.78 1.52 1.5 2.7 2 3.52a9.33 9.33 0 0 1 .77 1.32ZM378 325.6a4.31 4.31 0 0 1-.6 1 21.16 21.16 0 0 1-2 2.48 18.21 18.21 0 0 1-8.93 5.44 12.94 12.94 0 0 1-10.19-1.87 9.11 9.11 0 0 1-2.28-2.25 3.78 3.78 0 0 1-.58-1 13.47 13.47 0 0 0 3.07 3 13 13 0 0 0 9.86 1.66 18.65 18.65 0 0 0 8.78-5.19c1.87-1.94 2.87-3.33 2.87-3.27Zm1-41.78a31.77 31.77 0 0 1-3.31-.55 58.74 58.74 0 0 0-8-.78 59.38 59.38 0 0 0-8.06.39c-2.05.25-3.31.48-3.33.4a2.81 2.81 0 0 1 .87-.27c.56-.15 1.39-.32 2.41-.49a45.23 45.23 0 0 1 8.13-.55 44.71 44.71 0 0 1 8.08.94c1 .22 1.84.43 2.39.6a3.3 3.3 0 0 1 .82.31Zm-4.23-10.09a31 31 0 0 1-3.16.89 62.62 62.62 0 0 0-14.58 6 29.45 29.45 0 0 1-2.88 1.59s.23-.23.69-.57 1.14-.8 2-1.34a48.74 48.74 0 0 1 14.68-6c1-.22 1.8-.37 2.37-.45a3.41 3.41 0 0 1 .88-.12Z"/><path fill="#455a64" d="M367.44 228.84a2.1 2.1 0 0 1-.19.52l-.65 1.47c-.59 1.26-1.39 3.11-2.33 5.41s-2 5.07-3 8.18-2.05 6.59-3 10.27-1.56 7.24-2.09 10.48-.85 6.19-1.06 8.66-.35 4.49-.41 5.88l-.09 1.6a2.37 2.37 0 0 1-.07.56 2.28 2.28 0 0 1 0-.56v-1.61c0-1.39.07-3.41.25-5.9s.48-5.44 1-8.7 1.17-6.83 2.06-10.53 2-7.18 3-10.3 2.15-5.89 3.15-8.17 1.84-4.12 2.49-5.36l.73-1.42a2.58 2.58 0 0 1 .21-.48Z"/><path fill="#e5ab91" d="M374.39 314.52c-.09-.41-1.94-9-7.62-14.28s-13.4-19.38-13.4-19.38-3.51-6.25-3.24-11.94 5.13-13.45 2.22-14.7-9.42.14-11.64 12.48-1.53 17.48-1.53 17.48-14.13.81-14 6.22 3.59 7.07 3.59 7.07-3.59 4-1.78 6.24 5.26 2.21 5.26 2.21-2.21.7.14 4.44a8.9 8.9 0 0 0 6 4.16 6.44 6.44 0 0 0 .83 5.13c1.67 2.77 2.78 2.91 4 2.77s8-1.39 8-1.39.83 3.09 5.13 4.73l-.28 2.76s-.27 8.31 9.71 5.68 10.55-11.09 8.61-19.68Z"/><path fill="#bc8579" d="M351.59 279.49s-.44-.13-1.25-.21a7.93 7.93 0 0 0-3.37.49 21.15 21.15 0 0 0-4.5 2.47 26.66 26.66 0 0 1-2.66 1.57 14.43 14.43 0 0 1-3.14 1.12c-2.22.5-4.33.86-6.23 1.25a10.08 10.08 0 0 0-2.57.85 4.55 4.55 0 0 0-1.71 1.52 5.12 5.12 0 0 0-.78 3.24c.06.81.23 1.24.18 1.26a1.62 1.62 0 0 1-.15-.3 5.29 5.29 0 0 1 .44-4.4 4.76 4.76 0 0 1 1.82-1.7 10.46 10.46 0 0 1 2.66-.94c1.92-.42 4-.8 6.22-1.29a17.15 17.15 0 0 0 5.67-2.59 20 20 0 0 1 4.63-2.41 7.65 7.65 0 0 1 3.51-.34 4.52 4.52 0 0 1 .93.25c.21.09.31.14.3.16Zm-.39 8.57a24.16 24.16 0 0 1-3.25 1.47l-8 3.23c-3.12 1.26-5.94 2.4-8 3.27-1 .43-1.82.8-2.37 1.06a4.55 4.55 0 0 1-.88.38 13.26 13.26 0 0 1 3.1-1.77c2-1 4.79-2.16 7.91-3.42s6-2.34 8-3.1a24.67 24.67 0 0 1 3.49-1.12Zm12.93 19.56a2.77 2.77 0 0 1-.55.94 7.62 7.62 0 0 1-2.3 1.93 12.05 12.05 0 0 1-4.21 1.37 40.17 40.17 0 0 1-5.39.27 35.58 35.58 0 0 0-9.57 1.35c-2.38.69-3.8 1.32-3.83 1.24a3.58 3.58 0 0 1 1-.52 25.7 25.7 0 0 1 2.77-1.07 31.77 31.77 0 0 1 9.66-1.52 44.65 44.65 0 0 0 5.33-.23 12.16 12.16 0 0 0 4.11-1.22 9.35 9.35 0 0 0 2.98-2.54Zm2.55 7.65s.11.24.08.71a3.38 3.38 0 0 1-.78 1.81 5.2 5.2 0 0 1-2.42 1.62 20.35 20.35 0 0 1-3.43.73c-2.44.39-4.65.7-6.26.85a8.13 8.13 0 0 1-2.63 0c0-.07 1-.15 2.58-.4l6.23-1a24 24 0 0 0 3.36-.67 5.07 5.07 0 0 0 2.29-1.41 4 4 0 0 0 .98-2.24Zm2.32 3.82a4.59 4.59 0 0 1-1.31 1.69 9.12 9.12 0 0 1-9.79 1.7 4.53 4.53 0 0 1-1.81-1.15c0-.07.73.39 1.95.81a9.67 9.67 0 0 0 9.4-1.64c.96-.81 1.44-1.5 1.56-1.41Zm-.25-7.92a32.5 32.5 0 0 0-3-6.87 31.47 31.47 0 0 0-4.92-5.65 6.69 6.69 0 0 1 1.84 1.27 18 18 0 0 1 3.52 4.1 18.46 18.46 0 0 1 2.2 4.94 7 7 0 0 1 .36 2.21Zm2.76-1.62a13.39 13.39 0 0 1-1.82-2.52 13.74 13.74 0 0 1-1.69-2.63 7.33 7.33 0 0 1 2.09 2.34 7.19 7.19 0 0 1 1.42 2.81Zm-16.77-9.79c0 .09-1.31.1-3.39.43a50.09 50.09 0 0 0-8 2l-7.82 2.66a22 22 0 0 1-3.28 1 22.25 22.25 0 0 1 3.16-1.32c2-.75 4.71-1.8 7.78-2.82a40 40 0 0 1 8.08-1.89 20.32 20.32 0 0 1 2.51-.15 2.78 2.78 0 0 1 .96.09Zm-4.05-4.19a2.52 2.52 0 0 1-1.78.8c-1.21.23-2.9-.16-4.58.21-.83.2-1.56.7-2.35.95a4.2 4.2 0 0 1-2.16.05 3.44 3.44 0 0 0-1.34 0c-.3.07-.45.18-.48.15s.09-.19.42-.35a3.14 3.14 0 0 1 1.45-.13 4 4 0 0 0 2-.14 21.55 21.55 0 0 1 2.37-1 8.47 8.47 0 0 1 2.62-.13 14.71 14.71 0 0 0 2.05.05 7.3 7.3 0 0 0 1.78-.46Zm14 4.74c-.12.09-1.43-1.65-3.55-3.25a3.66 3.66 0 0 1-1.3-1.5c-.24-.57-.34-1.08-.49-1.48a3.32 3.32 0 0 0-.72-1.14s.16 0 .38.14a2 2 0 0 1 .68.86c.2.41.35.92.59 1.42a3.47 3.47 0 0 0 1.18 1.29 9.82 9.82 0 0 1 3.23 3.66Z"/></svg>