<svg xmlns="http://www.w3.org/2000/svg" viewBox="0 0 500 500"><g opacity=".3"><path d="M76.18 89.65h-2.3V87a7.38 7.38 0 0 1-5.75-2.73 11.71 11.71 0 0 1-2.2-6.71v-.4l4.79-1.29v.6a16.23 16.23 0 0 0 .5 3.08 5.11 5.11 0 0 0 1.2 2.29 2.84 2.84 0 0 0 2.2.82 2.76 2.76 0 0 0 2.17-.78 3.37 3.37 0 0 0 .73-2.35 5.06 5.06 0 0 0-.86-3.09 17.76 17.76 0 0 0-2.34-2.51l-5.2-4.58a11.43 11.43 0 0 1-1.74-2A7.62 7.62 0 0 1 66.34 65a11.33 11.33 0 0 1-.34-2.88 7.48 7.48 0 0 1 2-5.54 7.67 7.67 0 0 1 5-2.08v-2.59h2.3v2.6a8.32 8.32 0 0 1 2.52.68A6.07 6.07 0 0 1 80 56.87a8.21 8.21 0 0 1 1.39 2.59 14.49 14.49 0 0 1 .65 3.46v.42l-4.6 1.26v-.61a16.4 16.4 0 0 0-.44-2.76 3.83 3.83 0 0 0-1.06-1.88 2.68 2.68 0 0 0-2.09-.55 3.59 3.59 0 0 0-2.21.79 2.72 2.72 0 0 0-.73 2.11 4.41 4.41 0 0 0 .42 2.08 7 7 0 0 0 1.45 1.76L78 70.12a18.75 18.75 0 0 1 2.22 2.38 12.32 12.32 0 0 1 1.72 3 10 10 0 0 1 .66 3.7 8.7 8.7 0 0 1-.85 3.92 6.88 6.88 0 0 1-2.42 2.7 7.94 7.94 0 0 1-3.11 1.13Zm-1.3-1h.3V86h.45a7.08 7.08 0 0 0 3.12-1 5.77 5.77 0 0 0 2.06-2.31 7.58 7.58 0 0 0 .75-3.47 9 9 0 0 0-.56-3.38 11.09 11.09 0 0 0-1.57-2.72 18.19 18.19 0 0 0-2.11-2.25l-5.23-4.59a8.15 8.15 0 0 1-1.66-2 5.38 5.38 0 0 1-.54-2.55 3.65 3.65 0 0 1 1.07-2.86 4.54 4.54 0 0 1 2.8-1 3.6 3.6 0 0 1 2.84.82A4.81 4.81 0 0 1 77.92 61a16.24 16.24 0 0 1 .42 2.34l2.66-.75a13.37 13.37 0 0 0-.57-2.82 7.15 7.15 0 0 0-1.21-2.26 5.3 5.3 0 0 0-1.85-1.42 7.65 7.65 0 0 0-2.64-.62h-.46v-2.56H74v2.54h-.48a6.89 6.89 0 0 0-4.75 1.82A6.52 6.52 0 0 0 67 62.12a9.76 9.76 0 0 0 .31 2.6 6.81 6.81 0 0 0 .92 2 11.08 11.08 0 0 0 1.59 1.83L75 73.18a18.15 18.15 0 0 1 2.48 2.65 6 6 0 0 1 1.06 3.69 4.38 4.38 0 0 1-1 3 3.77 3.77 0 0 1-2.91 1.1 3.85 3.85 0 0 1-2.93-1.13 6.23 6.23 0 0 1-1.44-2.72 19.2 19.2 0 0 1-.48-2.66l-2.78.8a10.47 10.47 0 0 0 2 5.74A6.57 6.57 0 0 0 74.39 86h.49Z"/><path d="M74.24 98.08a27.3 27.3 0 1 1 27.31-27.3 27.34 27.34 0 0 1-27.31 27.3Zm0-53.6a26.3 26.3 0 1 0 26.31 26.3 26.33 26.33 0 0 0-26.31-26.3Z"/><path d="M74.24 95.22a24.44 24.44 0 1 1 24.44-24.44 24.47 24.47 0 0 1-24.44 24.44Zm0-47.88a23.44 23.44 0 1 0 23.44 23.44 23.46 23.46 0 0 0-23.44-23.44Z"/></g><g opacity=".3"><path d="M432.71 227.35h-2v-2a5.53 5.53 0 0 1-4.2-2 8.73 8.73 0 0 1-1.64-5v-.4l3.78-1v.6a12.73 12.73 0 0 0 .37 2.25 3.64 3.64 0 0 0 .85 1.62 2 2 0 0 0 1.52.56 1.92 1.92 0 0 0 1.5-.53 2.37 2.37 0 0 0 .5-1.64 3.6 3.6 0 0 0-.6-2.19 12.37 12.37 0 0 0-1.71-1.82l-3.82-3.37a8.5 8.5 0 0 1-1.3-1.51 5.74 5.74 0 0 1-.8-1.76A8.25 8.25 0 0 1 425 207a5.59 5.59 0 0 1 1.53-4.17 5.69 5.69 0 0 1 3.59-1.56v-1.92h2v1.94a6 6 0 0 1 1.78.49 4.72 4.72 0 0 1 1.6 1.22 5.78 5.78 0 0 1 1.05 1.95 11.27 11.27 0 0 1 .49 2.58v.41l-3.68 1-.05-.61a11 11 0 0 0-.32-2 2.71 2.71 0 0 0-.74-1.32 1.86 1.86 0 0 0-1.44-.38 2.63 2.63 0 0 0-1.55.55 1.92 1.92 0 0 0-.49 1.46 3.15 3.15 0 0 0 .29 1.46 5 5 0 0 0 1 1.26l3.84 3.37a13.29 13.29 0 0 1 1.65 1.77 8.68 8.68 0 0 1 1.28 2.21 7.28 7.28 0 0 1 .5 2.78 6.46 6.46 0 0 1-.64 2.94 5.11 5.11 0 0 1-1.82 2 5.87 5.87 0 0 1-2.23.84Zm-6.78-8.68a7.55 7.55 0 0 0 1.42 4.05 4.71 4.71 0 0 0 3.91 1.69h.9a5 5 0 0 0 2.24-.74 4.17 4.17 0 0 0 1.47-1.64 5.57 5.57 0 0 0 .53-2.49 6.46 6.46 0 0 0-.42-2.4 8 8 0 0 0-1.14-2 12.67 12.67 0 0 0-1.53-1.64l-3.85-3.37a6.08 6.08 0 0 1-1.25-1.54 4.12 4.12 0 0 1-.41-1.93 2.81 2.81 0 0 1 .83-2.2 3.45 3.45 0 0 1 2.14-.8 2.78 2.78 0 0 1 2.19.64 3.69 3.69 0 0 1 1 1.8 12 12 0 0 1 .29 1.58l1.72-.47a9.24 9.24 0 0 0-.4-1.93 4.82 4.82 0 0 0-.87-1.62 3.63 3.63 0 0 0-1.31-1 5.59 5.59 0 0 0-1.89-.44h-.93a4.86 4.86 0 0 0-3.41 1.3A4.6 4.6 0 0 0 426 207a7.64 7.64 0 0 0 .22 1.88 4.86 4.86 0 0 0 .67 1.46 7.28 7.28 0 0 0 1.14 1.32l3.82 3.37a14.37 14.37 0 0 1 1.84 2 4.59 4.59 0 0 1 .8 2.79 3.29 3.29 0 0 1-.76 2.32 2.88 2.88 0 0 1-2.24.85 3 3 0 0 1-2.25-.87 4.79 4.79 0 0 1-1.09-2.06 13.59 13.59 0 0 1-.34-1.82Z"/><path d="M431.15 233.55a20.22 20.22 0 1 1 20.22-20.21 20.24 20.24 0 0 1-20.22 20.21Zm0-39.43a19.22 19.22 0 1 0 19.22 19.22 19.24 19.24 0 0 0-19.22-19.22Z"/><path d="M431.15 231.44a18.11 18.11 0 1 1 18.11-18.1 18.12 18.12 0 0 1-18.11 18.1Zm0-35.21a17.11 17.11 0 1 0 17.11 17.11 17.12 17.12 0 0 0-17.11-17.11Z"/></g><g opacity=".3"><path d="M196.92 58.72h-2v-2a5.53 5.53 0 0 1-4.19-2.06 8.63 8.63 0 0 1-1.65-5v-.41l3.78-1 .05.61a11.77 11.77 0 0 0 .36 2.24 3.64 3.64 0 0 0 .85 1.62 2 2 0 0 0 1.52.56 1.92 1.92 0 0 0 1.5-.52 2.39 2.39 0 0 0 .5-1.65 3.62 3.62 0 0 0-.6-2.19 12.89 12.89 0 0 0-1.71-1.82l-3.82-3.37a8.45 8.45 0 0 1-1.3-1.5 5.8 5.8 0 0 1-.8-1.77 8.25 8.25 0 0 1-.26-2.14 5.62 5.62 0 0 1 1.53-4.17 5.69 5.69 0 0 1 3.59-1.56V30.7h2v1.93a6 6 0 0 1 1.78.49 4.72 4.72 0 0 1 1.66 1.27 6.06 6.06 0 0 1 1 2 10.86 10.86 0 0 1 .49 2.58v.41l-3.68 1v-.6a11.12 11.12 0 0 0-.32-2 2.71 2.71 0 0 0-.74-1.32 1.81 1.81 0 0 0-1.44-.37 2.5 2.5 0 0 0-1.55.55A1.89 1.89 0 0 0 193 38a3.23 3.23 0 0 0 .29 1.47 5.21 5.21 0 0 0 1 1.26l3.84 3.36a13.93 13.93 0 0 1 1.65 1.77 8.9 8.9 0 0 1 1.29 2.22 7.39 7.39 0 0 1 .5 2.77 6.43 6.43 0 0 1-.65 2.94 5.14 5.14 0 0 1-1.82 2 6 6 0 0 1-2.23.83Zm-6.78-8.67a7.52 7.52 0 0 0 1.42 4 4.72 4.72 0 0 0 3.91 1.69h.94a4.92 4.92 0 0 0 2.24-.74 4.1 4.1 0 0 0 1.47-1.64 5.57 5.57 0 0 0 .54-2.49 6.5 6.5 0 0 0-.43-2.4 8.17 8.17 0 0 0-1.14-2 12.67 12.67 0 0 0-1.53-1.64l-3.85-3.37a6.23 6.23 0 0 1-1.29-1.46 4.16 4.16 0 0 1-.42-2 2.81 2.81 0 0 1 .83-2.2A3.45 3.45 0 0 1 195 35a2.78 2.78 0 0 1 2.19.64 3.74 3.74 0 0 1 1 1.8 12.65 12.65 0 0 1 .29 1.58l1.72-.46a9 9 0 0 0-.4-1.93 4.78 4.78 0 0 0-.87-1.63 3.61 3.61 0 0 0-1.31-1 5.3 5.3 0 0 0-1.89-.45h-.93a4.93 4.93 0 0 0-3.41 1.3 4.6 4.6 0 0 0-1.23 3.46 7.58 7.58 0 0 0 .22 1.88 5 5 0 0 0 .67 1.47A7.58 7.58 0 0 0 192.2 43l3.8 3.37a13.26 13.26 0 0 1 1.84 2 4.56 4.56 0 0 1 .8 2.78 3.29 3.29 0 0 1-.76 2.32 2.88 2.88 0 0 1-2.24.85 3 3 0 0 1-2.25-.87 4.79 4.79 0 0 1-1.09-2.06 13.59 13.59 0 0 1-.34-1.82Z"/><path d="M195.37 64.92a20.21 20.21 0 1 1 20.21-20.21 20.24 20.24 0 0 1-20.21 20.21Zm0-39.42a19.21 19.21 0 1 0 19.21 19.21 19.24 19.24 0 0 0-19.21-19.21Z"/><path d="M195.37 62.81a18.11 18.11 0 1 1 18.1-18.1 18.12 18.12 0 0 1-18.1 18.1Zm0-35.21a17.11 17.11 0 1 0 17.1 17.11 17.13 17.13 0 0 0-17.1-17.11Z"/></g><g opacity=".3"><path d="M73.79 198.33h-2v-2a5.57 5.57 0 0 1-4.2-2.06 8.7 8.7 0 0 1-1.65-5v-.4l3.79-1v.61a12.47 12.47 0 0 0 .36 2.24 3.78 3.78 0 0 0 .85 1.63 2 2 0 0 0 1.52.56 2 2 0 0 0 1.51-.53 2.38 2.38 0 0 0 .5-1.64 3.58 3.58 0 0 0-.61-2.19 12.3 12.3 0 0 0-1.7-1.83l-3.82-3.37a8.19 8.19 0 0 1-1.31-1.5 5.8 5.8 0 0 1-.8-1.77A8.25 8.25 0 0 1 66 178a5.62 5.62 0 0 1 1.53-4.16 5.72 5.72 0 0 1 3.59-1.57v-1.91h2v1.93a6.3 6.3 0 0 1 1.77.49 4.59 4.59 0 0 1 1.7 1.22 5.89 5.89 0 0 1 1 1.94 11 11 0 0 1 .49 2.58v.41l-3.69 1v-.6a12 12 0 0 0-.33-2 2.63 2.63 0 0 0-.74-1.32 1.81 1.81 0 0 0-1.44-.37 2.51 2.51 0 0 0-1.54.55 1.85 1.85 0 0 0-.49 1.45 3.1 3.1 0 0 0 .29 1.47 4.78 4.78 0 0 0 1 1.26l3.84 3.36a14.69 14.69 0 0 1 1.65 1.77 9.18 9.18 0 0 1 1.37 2.22 7.43 7.43 0 0 1 .5 2.77 6.4 6.4 0 0 1-.65 2.94 5.07 5.07 0 0 1-1.82 2 5.86 5.86 0 0 1-2.23.83ZM67 189.66a7.57 7.57 0 0 0 1.42 4 4.71 4.71 0 0 0 3.92 1.69h.89a5.12 5.12 0 0 0 2.24-.74A4.12 4.12 0 0 0 77 193a5.41 5.41 0 0 0 .54-2.49 6.3 6.3 0 0 0-.43-2.4 7.86 7.86 0 0 0-1.14-2 12.63 12.63 0 0 0-1.53-1.64l-3.84-3.37a5.91 5.91 0 0 1-1.26-1.53 4.14 4.14 0 0 1-.4-1.94 2.8 2.8 0 0 1 .82-2.2 3.51 3.51 0 0 1 2.14-.8 2.77 2.77 0 0 1 2.19.64 3.66 3.66 0 0 1 1 1.8 11.06 11.06 0 0 1 .29 1.58l1.73-.46a9.62 9.62 0 0 0-.4-1.93 5.26 5.26 0 0 0-.87-1.63 3.85 3.85 0 0 0-1.32-1 5.3 5.3 0 0 0-1.89-.45h-.93a4.9 4.9 0 0 0-3.41 1.31A4.63 4.63 0 0 0 67 178a7.11 7.11 0 0 0 .23 1.88 4.66 4.66 0 0 0 .66 1.47 7.3 7.3 0 0 0 1.15 1.32l3.85 3.33a13.26 13.26 0 0 1 1.84 2 4.51 4.51 0 0 1 .81 2.79 3.33 3.33 0 0 1-.77 2.32 3.33 3.33 0 0 1-4.48 0A4.53 4.53 0 0 1 69.2 191a11.72 11.72 0 0 1-.34-1.82Z"/><path d="M72.24 204.53a20.21 20.21 0 1 1 20.21-20.21 20.23 20.23 0 0 1-20.21 20.21Zm0-39.42a19.21 19.21 0 1 0 19.21 19.21 19.23 19.23 0 0 0-19.21-19.21Z"/><path d="M72.24 202.42a18.1 18.1 0 1 1 18.1-18.1 18.12 18.12 0 0 1-18.1 18.1Zm0-35.2a17.1 17.1 0 1 0 17.1 17.1 17.12 17.12 0 0 0-17.1-17.1Z"/></g><g opacity=".3"><path d="M340.12 456.44h-2.41v-2.89a8 8 0 0 1-6.27-3 12.66 12.66 0 0 1-2.4-7.28v-.4l5.14-1.39v.61a18.27 18.27 0 0 0 .54 3.36 5.73 5.73 0 0 0 1.32 2.52 3.14 3.14 0 0 0 2.43.9 3.07 3.07 0 0 0 2.4-.86 3.7 3.7 0 0 0 .81-2.6 5.53 5.53 0 0 0-.95-3.38 19.25 19.25 0 0 0-2.55-2.74l-5.67-5a11.85 11.85 0 0 1-1.89-2.18 8.24 8.24 0 0 1-1.15-2.54 11.82 11.82 0 0 1-.38-3.11 8.1 8.1 0 0 1 2.19-6 8.33 8.33 0 0 1 5.4-2.27v-2.81h2.46v2.83a9.23 9.23 0 0 1 2.77.73 6.61 6.61 0 0 1 2.38 1.83 8.7 8.7 0 0 1 1.51 2.8 16.77 16.77 0 0 1 .71 3.76v.42l-5 1.35v-.6a17 17 0 0 0-.48-3 4.26 4.26 0 0 0-1.17-2.07 2.9 2.9 0 0 0-2.31-.62 4 4 0 0 0-2.44.88 3 3 0 0 0-.81 2.33 5 5 0 0 0 .46 2.29 7.83 7.83 0 0 0 1.59 1.93l5.7 5a21.35 21.35 0 0 1 2.42 2.58 13.39 13.39 0 0 1 1.86 3.23 10.74 10.74 0 0 1 .72 4 9.3 9.3 0 0 1-.93 4.25 7.38 7.38 0 0 1-2.61 2.92 8.53 8.53 0 0 1-3.42 1.23Zm-1.41-1h.41v-2.86l.45-.05a7.7 7.7 0 0 0 3.43-1.13 6.4 6.4 0 0 0 2.26-2.54 8.37 8.37 0 0 0 .82-3.79 9.85 9.85 0 0 0-.65-3.65 12.39 12.39 0 0 0-1.72-3 20.82 20.82 0 0 0-2.3-2.46l-5.7-5a8.8 8.8 0 0 1-1.8-2.2 5.94 5.94 0 0 1-.58-2.76 4 4 0 0 1 1.15-3.08 4.91 4.91 0 0 1 3-1.13 3.94 3.94 0 0 1 3.07.89 5.15 5.15 0 0 1 1.45 2.55 16.59 16.59 0 0 1 .46 2.59l3-.82a14.49 14.49 0 0 0-.62-3.11 7.86 7.86 0 0 0-1.33-2.49 5.76 5.76 0 0 0-2-1.55 8.08 8.08 0 0 0-2.89-.68h-.46v-2.75h-.46v2.77h-.49a7.5 7.5 0 0 0-5.2 2 7.12 7.12 0 0 0-1.9 5.29 11.19 11.19 0 0 0 .34 2.85 7.36 7.36 0 0 0 1 2.24 11.31 11.31 0 0 0 1.73 2l5.66 5a20.9 20.9 0 0 1 2.7 2.89 6.54 6.54 0 0 1 1.14 4 4.68 4.68 0 0 1-1.07 3.28 4.09 4.09 0 0 1-3.14 1.18 4.17 4.17 0 0 1-3.16-1.22 6.69 6.69 0 0 1-1.55-2.94 19 19 0 0 1-.53-2.95l-3.2.87a11.5 11.5 0 0 0 2.17 6.31c1.3 1.7 3.26 2.55 6 2.6h.49Z"/><path d="M338.06 465.63a29.71 29.71 0 1 1 29.71-29.71 29.74 29.74 0 0 1-29.71 29.71Zm0-58.41a28.71 28.71 0 1 0 28.71 28.7 28.73 28.73 0 0 0-28.71-28.7Z"/><path d="M338.06 462.51a26.59 26.59 0 1 1 26.58-26.59 26.61 26.61 0 0 1-26.58 26.59Zm0-52.17a25.59 25.59 0 1 0 25.58 25.58 25.61 25.61 0 0 0-25.58-25.58Z"/></g><g opacity=".3"><path d="M138.34 436.65h-2v-2a5.57 5.57 0 0 1-4.2-2.06 8.7 8.7 0 0 1-1.64-5v-.41l3.78-1v.61a12.62 12.62 0 0 0 .37 2.24 3.73 3.73 0 0 0 .85 1.63 2 2 0 0 0 1.52.56 1.93 1.93 0 0 0 1.5-.53 2.39 2.39 0 0 0 .5-1.65 3.57 3.57 0 0 0-.6-2.18 12.92 12.92 0 0 0-1.71-1.83l-3.71-3.35a8.45 8.45 0 0 1-1.3-1.5 5.8 5.8 0 0 1-.8-1.77 8.25 8.25 0 0 1-.26-2.14 5.58 5.58 0 0 1 1.53-4.16 5.7 5.7 0 0 1 3.59-1.57v-1.91h2v1.93a6.37 6.37 0 0 1 1.78.49 4.47 4.47 0 0 1 1.66 1.28 5.73 5.73 0 0 1 1.05 1.94 11 11 0 0 1 .49 2.58v.41l-3.68 1-.05-.6a11.12 11.12 0 0 0-.32-2 2.75 2.75 0 0 0-.74-1.32 1.81 1.81 0 0 0-1.44-.37 2.56 2.56 0 0 0-1.55.55 1.89 1.89 0 0 0-.49 1.45 3.23 3.23 0 0 0 .29 1.47 5.21 5.21 0 0 0 1 1.26l3.84 3.36a13.93 13.93 0 0 1 1.65 1.77 8.9 8.9 0 0 1 1.29 2.22 7.43 7.43 0 0 1 .49 2.77 6.4 6.4 0 0 1-.64 2.94 5.14 5.14 0 0 1-1.82 2 5.86 5.86 0 0 1-2.23.83Zm-6.78-8.65a7.49 7.49 0 0 0 1.42 4 4.71 4.71 0 0 0 3.91 1.69h.9A5.17 5.17 0 0 0 140 433a4.2 4.2 0 0 0 1.47-1.65 5.54 5.54 0 0 0 .53-2.49 6.5 6.5 0 0 0-.42-2.4 8.17 8.17 0 0 0-1.14-2 13.36 13.36 0 0 0-1.53-1.64l-3.85-3.37a6.05 6.05 0 0 1-1.25-1.53 4.13 4.13 0 0 1-.41-1.94 2.81 2.81 0 0 1 .83-2.2 3.45 3.45 0 0 1 2.14-.8 2.78 2.78 0 0 1 2.19.64 3.74 3.74 0 0 1 1 1.8 12.65 12.65 0 0 1 .29 1.58l1.72-.46a9.11 9.11 0 0 0-.4-1.93 4.87 4.87 0 0 0-.87-1.63 3.72 3.72 0 0 0-1.31-1 5.3 5.3 0 0 0-1.89-.45h-.93a4.89 4.89 0 0 0-3.41 1.31 4.58 4.58 0 0 0-1.23 3.45 7.58 7.58 0 0 0 .22 1.88 5 5 0 0 0 .67 1.47 7.63 7.63 0 0 0 1.14 1.32l3.82 3.36a13.81 13.81 0 0 1 1.84 2 4.56 4.56 0 0 1 .8 2.78 3.29 3.29 0 0 1-.76 2.32 2.89 2.89 0 0 1-2.24.86 3 3 0 0 1-2.25-.88 4.79 4.79 0 0 1-1.09-2.06 13 13 0 0 1-.34-1.82Z"/><path d="M136.78 442.85A20.21 20.21 0 1 1 157 422.64a20.24 20.24 0 0 1-20.22 20.21Zm0-39.42A19.21 19.21 0 1 0 156 422.64a19.23 19.23 0 0 0-19.22-19.21Z"/><path d="M136.78 440.74a18.1 18.1 0 1 1 18.11-18.1 18.12 18.12 0 0 1-18.11 18.1Zm0-35.2a17.1 17.1 0 1 0 17.11 17.1 17.12 17.12 0 0 0-17.11-17.1Z"/></g><g opacity=".3"><path d="M426.39 76.59h-2v-2a5.49 5.49 0 0 1-4.19-2.05 8.67 8.67 0 0 1-1.65-5v-.4l3.79-1v.6a11.87 11.87 0 0 0 .36 2.25 3.74 3.74 0 0 0 .85 1.62 2 2 0 0 0 1.52.56 1.89 1.89 0 0 0 1.5-.53 2.32 2.32 0 0 0 .5-1.64 3.6 3.6 0 0 0-.6-2.19 12.82 12.82 0 0 0-1.7-1.82L421 61.61a8.51 8.51 0 0 1-1.3-1.5 5.74 5.74 0 0 1-.8-1.76 8.25 8.25 0 0 1-.26-2.14 5.63 5.63 0 0 1 1.53-4.21 5.69 5.69 0 0 1 3.59-1.56v-1.88h2v1.94a6 6 0 0 1 1.78.49 4.76 4.76 0 0 1 1.67 1.27 5.94 5.94 0 0 1 1 2 10.76 10.76 0 0 1 .49 2.58v.41l-3.68 1-.05-.61a11.15 11.15 0 0 0-.32-2 2.71 2.71 0 0 0-.74-1.32 1.81 1.81 0 0 0-1.44-.38 2.57 2.57 0 0 0-1.54.55 1.83 1.83 0 0 0-.5 1.46 3 3 0 0 0 .3 1.46 4.76 4.76 0 0 0 1 1.26l3.92 3.33a14.76 14.76 0 0 1 1.66 1.77 9.12 9.12 0 0 1 1.28 2.23 7.48 7.48 0 0 1 .5 2.78 6.46 6.46 0 0 1-.65 2.94 5 5 0 0 1-1.82 2 5.87 5.87 0 0 1-2.23.84Zm-6.78-8.68A7.55 7.55 0 0 0 421 72a4.74 4.74 0 0 0 3.91 1.69h.9a5 5 0 0 0 2.24-.74 4.1 4.1 0 0 0 1.47-1.64 5.47 5.47 0 0 0 .54-2.49 6.46 6.46 0 0 0-.43-2.4 7.69 7.69 0 0 0-1.14-2 12.67 12.67 0 0 0-1.49-1.68l-3.85-3.37a6.08 6.08 0 0 1-1.25-1.54 4.12 4.12 0 0 1-.41-1.93 2.81 2.81 0 0 1 .83-2.2 3.45 3.45 0 0 1 2.14-.8 2.75 2.75 0 0 1 2.19.64 3.63 3.63 0 0 1 1 1.79 11.46 11.46 0 0 1 .29 1.59l1.72-.47a9.24 9.24 0 0 0-.4-1.93 4.89 4.89 0 0 0-.86-1.62 3.62 3.62 0 0 0-1.32-1 5.3 5.3 0 0 0-1.89-.45h-.93a4.93 4.93 0 0 0-3.41 1.3 4.6 4.6 0 0 0-1.23 3.46 7.64 7.64 0 0 0 .22 1.88 5 5 0 0 0 .67 1.46 7.28 7.28 0 0 0 1.14 1.32l3.82 3.37a13.77 13.77 0 0 1 1.84 2 4.61 4.61 0 0 1 .8 2.79 3.29 3.29 0 0 1-.76 2.32 2.88 2.88 0 0 1-2.24.85 3 3 0 0 1-2.25-.87 4.79 4.79 0 0 1-1.09-2.06 13.58 13.58 0 0 1-.33-1.82Z"/><path d="M424.84 82.79a20.22 20.22 0 1 1 20.21-20.21 20.24 20.24 0 0 1-20.21 20.21Zm0-39.43a19.22 19.22 0 1 0 19.21 19.22 19.24 19.24 0 0 0-19.21-19.22Z"/><path d="M424.84 80.68a18.11 18.11 0 1 1 18.1-18.1 18.12 18.12 0 0 1-18.1 18.1Zm0-35.21a17.11 17.11 0 1 0 17.1 17.11 17.13 17.13 0 0 0-17.1-17.11Z"/></g><path fill="#263238" d="m260.91 22.18-2-.2.19-2 2 .2ZM243.7 341.54h-1.56v-2h4v2Zm-5.58-.1c-1.35 0-2.69-.1-4-.18l.11-2c1.33.08 2.65.14 4 .19Zm12.08 0-.08-2c1.33-.05 2.66-.12 4-.2l.13 2c-1.36.05-2.7.12-4.05.17Zm-20.13-.44q-2-.17-4-.39l.22-2c1.31.14 2.64.27 4 .38Zm28.18-.08-.18-2c1.33-.12 2.65-.25 4-.4l.23 2c-1.37.11-2.71.25-4.05.37Zm-36.2-.79c-1.34-.18-2.67-.38-4-.59l.32-2c1.3.21 2.62.4 3.94.58Zm44.21-.13-.28-2c1.32-.18 2.63-.38 3.94-.6l.33 2c-1.33.18-2.66.39-3.99.6Zm-52.17-1.14c-1.33-.25-2.65-.51-4-.79l.42-2q1.94.42 3.9.78Zm60.13-.17-.38-2c1.31-.25 2.61-.52 3.9-.8l.43 2c-1.31.24-2.63.51-3.95.77Zm-68-1.51c-1.31-.31-2.61-.64-3.91-1l.51-1.94c1.28.34 2.57.67 3.86 1Zm75.89-.21-.47-1.94c1.29-.32 2.58-.65 3.86-1l.52 1.93c-1.31.32-2.62.66-3.93.98Zm-83.69-1.85c-1.29-.38-2.57-.78-3.85-1.19l.61-1.9q1.89.6 3.81 1.17Zm91.48-.26-.57-1.92c1.27-.38 2.54-.78 3.8-1.19l.62 1.9c-1.3.35-2.58.79-3.87 1.18Zm-99.16-2.2c-1.27-.45-2.53-.9-3.79-1.38l.71-1.87c1.24.47 2.48.92 3.74 1.36Zm106.84-.31-.67-1.88c1.26-.45 2.51-.91 3.75-1.39l.71 1.87c-1.27.45-2.54.92-3.81 1.37Zm-114.38-2.53c-1.25-.51-2.48-1-3.71-1.56l.8-1.83c1.21.52 2.43 1 3.66 1.53Zm121.93-.36-.76-1.85c1.23-.51 2.45-1 3.67-1.57l.81 1.83q-1.85.78-3.74 1.56Zm-129.3-2.85c-1.22-.56-2.43-1.15-3.63-1.74l.89-1.79c1.19.59 2.38 1.16 3.58 1.72Zm136.7-.42-.86-1.81c1.2-.57 2.4-1.16 3.59-1.76l.9 1.79-3.65 1.75ZM168.6 323c-1.18-.63-2.36-1.27-3.53-1.93l1-1.74c1.15.65 2.31 1.28 3.49 1.9Zm151.12-.49-.94-1.77c1.17-.62 2.33-1.27 3.49-1.92l1 1.73c-1.18.68-2.36 1.33-3.55 1.97Zm-158.14-3.45c-1.15-.68-2.3-1.38-3.43-2.09l1.06-1.7q1.68 1.07 3.39 2.07Zm165.16-.55-1-1.71q1.71-1 3.39-2.1l1.08 1.69c-1.21.73-2.31 1.44-3.47 2.13Zm-172-3.72c-1.12-.75-2.23-1.5-3.33-2.27l1.14-1.64c1.09.76 2.19 1.51 3.29 2.24Zm178.78-.61-1.11-1.66c1.1-.75 2.19-1.5 3.28-2.27l1.15 1.63c-1.06.79-2.17 1.55-3.29 2.31Zm-185.38-4q-1.62-1.2-3.21-2.43l1.22-1.58c1 .81 2.11 1.61 3.17 2.4Zm192-.67-1.19-1.6c1.06-.79 2.11-1.6 3.16-2.43l1.24 1.57q-1.6 1.26-3.22 2.46Zm-198.32-4.27c-1.05-.85-2.07-1.71-3.09-2.59l1.3-1.52c1 .87 2 1.72 3 2.56Zm204.66-.72L345.2 303q1.53-1.28 3-2.58l1.32 1.51c-.99.86-2.01 1.73-3.05 2.59ZM135.69 300c-1-.9-2-1.82-2.95-2.74l1.37-1.45c1 .91 1.94 1.81 2.92 2.7Zm216.86-.77-1.35-1.47c1-.9 1.95-1.81 2.9-2.73l1.39 1.44q-1.49 1.39-2.94 2.75Zm-222.7-4.79q-1.42-1.43-2.82-2.88l1.45-1.38c.92 1 1.84 1.91 2.78 2.85Zm228.51-.8-1.42-1.41c.93-.94 1.85-1.9 2.76-2.87l1.46 1.37c-.92.97-1.86 1.94-2.8 2.9Zm-234.07-5c-.91-1-1.8-2-2.68-3l1.52-1.31c.87 1 1.75 2 2.64 3Zm239.59-.85-1.49-1.33q1.32-1.49 2.61-3l1.53 1.29c-.87.99-1.76 2-2.65 3ZM119 282.49c-.85-1-1.69-2.09-2.52-3.16l1.58-1.22c.81 1 1.64 2.08 2.49 3.11Zm250.08-.88-1.56-1.26q1.26-1.55 2.46-3.12l1.59 1.22c-.8 1.06-1.63 2.12-2.47 3.16Zm-255-5.49c-.8-1.08-1.59-2.17-2.36-3.27l1.64-1.15c.76 1.09 1.54 2.16 2.33 3.23Zm260-.9-1.69-1.22c.78-1.07 1.55-2.15 2.3-3.24l1.65 1.14c-.77 1.1-1.55 2.24-2.34 3.32Zm-264.59-5.71q-1.11-1.68-2.19-3.39l1.69-1.06c.71 1.12 1.43 2.24 2.17 3.35Zm269.16-.91-1.67-1.1c.73-1.11 1.44-2.22 2.14-3.35l1.7 1.05c-.82 1.15-1.5 2.28-2.24 3.4Zm-273.46-5.92c-.68-1.16-1.36-2.32-2-3.5l1.74-1c.66 1.16 1.32 2.31 2 3.46Zm277.71-.92-1.73-1c.67-1.15 1.32-2.3 2-3.46l1.75 1c-.75 1.14-1.42 2.3-2.09 3.46Zm-281.66-6.12c-.63-1.19-1.25-2.39-1.85-3.6l1.79-.89c.6 1.19 1.2 2.38 1.83 3.55Zm285.55-.92-1.77-.93c.61-1.17 1.2-2.35 1.79-3.54l1.79.88c-.66 1.2-1.26 2.4-1.88 3.59ZM97.57 248.4c-.57-1.22-1.12-2.45-1.66-3.69l1.83-.79c.53 1.22 1.08 2.43 1.64 3.63Zm292.68-.9-1.81-.84c.55-1.2 1.08-2.41 1.6-3.63l1.84.79c-.52 1.23-1.07 2.46-1.63 3.68ZM94.34 241c-.51-1.25-1-2.51-1.47-3.77l1.87-.7c.47 1.24 1 2.48 1.45 3.71Zm299.08-.88-1.86-.74c.49-1.23 1-2.47 1.43-3.72l1.88.69c-.47 1.26-.95 2.51-1.45 3.76Zm-301.93-6.7c-.45-1.27-.87-2.55-1.29-3.84l1.91-.61c.41 1.27.83 2.53 1.27 3.79Zm304.73-.87-1.89-.65c.42-1.25.84-2.52 1.24-3.78l1.9.59c-.4 1.29-.82 2.57-1.25 3.84ZM89 225.72c-.37-1.29-.73-2.58-1.08-3.88l1.93-.51c.34 1.28.7 2.56 1.07 3.83Zm309.61-.87-1.92-.55q.56-1.91 1.05-3.84l1.94.5c-.32 1.3-.68 2.6-1.05 3.89ZM87 217.93c-.32-1.31-.61-2.62-.89-3.93l2-.42c.27 1.3.56 2.6.87 3.89Zm313.7-.88-2-.46c.3-1.29.58-2.58.85-3.89l2 .41c-.3 1.32-.55 2.63-.89 3.94ZM85.28 210c-.24-1.32-.47-2.64-.68-4l2-.32c.21 1.31.44 2.62.68 3.93Zm317-.89-2-.36c.23-1.3.45-2.61.66-3.92l2 .3c-.19 1.37-.42 2.7-.65 4.02ZM84 202.08a181.8 181.8 0 0 1-.49-4l2-.22a129 129 0 0 0 .48 3.95Zm319.51-.9-2-.26c.17-1.31.32-2.63.46-3.95l2 .2c-.13 1.34-.28 2.68-.45 4.01Zm-320.38-7.12c-.11-1.33-.2-2.67-.28-4l2-.12c.08 1.33.18 2.66.29 4Zm321.22-.9-2-.16c.11-1.32.19-2.64.26-4l2 .1c-.07 1.38-.16 2.72-.26 4.06ZM82.66 186c0-1.34-.08-2.68-.09-4h2c0 1.33 0 2.66.09 4Zm322.12-.9-2-.06c0-1.32.06-2.65.06-4h2c0 1.38-.02 2.73-.06 4.07ZM84.58 178h-2c0-1.35.06-2.69.11-4l2 .08c-.05 1.25-.09 2.57-.11 3.92Zm318.23-.9c0-1.33-.07-2.65-.13-4l2-.09c.06 1.34.1 2.69.13 4ZM84.89 170l-2-.13c.08-1.34.19-2.68.31-4l2 .18c-.12 1.33-.2 2.65-.31 3.95Zm317.56-.91c-.09-1.33-.2-2.66-.33-4l2-.19c.13 1.34.24 2.68.34 4Zm-316.85-7-2-.23c.16-1.34.33-2.67.51-4l2 .28c-.19 1.32-.36 2.63-.51 3.96Zm316.09-.93c-.15-1.32-.33-2.64-.52-3.95l2-.29c.19 1.33.37 2.66.53 4Zm-315-7-2-.33c.22-1.33.46-2.65.71-4l2 .38c-.24 1.38-.48 2.69-.69 4Zm313.83-.93q-.33-2-.72-3.93l2-.39c.26 1.32.51 2.65.73 4ZM88.2 146.39l-2-.43c.29-1.31.59-2.62.91-3.93l1.94.48c-.26 1.29-.56 2.58-.85 3.88Zm310.8-.94c-.29-1.3-.59-2.59-.92-3.88l1.94-.49c.33 1.3.64 2.61.94 3.93Zm-308.9-6.8-1.93-.52c.36-1.3.72-2.59 1.11-3.88l1.91.57c-.39 1.27-.75 2.55-1.1 3.83Zm307-.94c-.35-1.28-.72-2.56-1.11-3.83l1.91-.58c.39 1.29.77 2.58 1.13 3.88ZM92.37 131l-1.9-.62c.42-1.28.85-2.55 1.3-3.82l1.88.67c-.44 1.27-.87 2.53-1.28 3.77Zm302.36-.94c-.42-1.26-.86-2.51-1.31-3.76l1.88-.68q.69 1.89 1.32 3.81ZM95 123.52l-1.87-.72c.48-1.26 1-2.51 1.49-3.75l1.85.76c-.47 1.19-.97 2.46-1.47 3.71Zm297-.93c-.49-1.24-1-2.47-1.5-3.7l1.85-.77c.52 1.24 1 2.48 1.51 3.74Zm-294-6.42-1.83-.81c.54-1.23 1.1-2.45 1.67-3.66l1.81.85c-.51 1.2-1.06 2.45-1.59 3.62Zm290.87-.93c-.54-1.22-1.1-2.42-1.68-3.62l1.81-.86c.58 1.21 1.15 2.43 1.7 3.66ZM101.45 109l-1.79-.9c.6-1.2 1.22-2.39 1.85-3.57l1.76.94c-.62 1.16-1.27 2.33-1.82 3.53Zm284-.94c-.6-1.18-1.22-2.36-1.85-3.53l1.75-1q1 1.77 1.89 3.57ZM105.19 102l-1.74-1c.67-1.17 1.34-2.32 2-3.47l1.72 1c-.66 1.15-1.32 2.3-1.98 3.47Zm276.49-.93c-.66-1.15-1.34-2.3-2-3.43l1.7-1c.7 1.15 1.39 2.3 2.06 3.47Zm-272.39-5.9-1.69-1.08c.72-1.13 1.45-2.25 2.2-3.37l1.66 1.12c-.74 1.1-1.46 2.21-2.17 3.33Zm268.24-.93c-.72-1.11-1.45-2.22-2.2-3.32L377 89.8c.76 1.11 1.5 2.23 2.23 3.36Zm-263.81-5.68-1.64-1.15c.78-1.1 1.57-2.18 2.37-3.26l1.6 1.2c-.79 1.06-1.57 2.13-2.33 3.21Zm259.28-.9c-.77-1.08-1.56-2.15-2.36-3.21l1.59-1.2q1.22 1.6 2.4 3.24Zm-254.53-5.47L116.9 81c.83-1 1.67-2.1 2.53-3.13l1.57 1.22c-.88 1.02-1.71 2.06-2.53 3.1Zm249.77-.88c-.83-1-1.67-2.07-2.53-3.09l1.54-1.28q1.29 1.55 2.55 3.12Zm-244.7-5.26L122 74.74c.88-1 1.78-2 2.68-3l1.48 1.35c-.87.97-1.75 1.96-2.62 2.96Zm239.58-.85c-.88-1-1.77-2-2.67-3l1.46-1.36c.92 1 1.82 2 2.71 3Zm-234.21-5-1.44-1.39c.93-1 1.87-1.93 2.83-2.87l1.41 1.42c-.95.91-1.88 1.86-2.8 2.82Zm5.66-5.61-1.37-1.45q1.47-1.38 3-2.73l1.33 1.49c-1.02.86-1.99 1.76-2.96 2.67Zm5.93-5.32-1.3-1.52c1-.87 2.06-1.73 3.1-2.58l1.26 1.56c-1.03.81-2.05 1.66-3.06 2.52Zm6.19-5-1.22-1.59c1.07-.82 2.14-1.63 3.23-2.42l1.18 1.61c-1.08.76-2.14 1.56-3.19 2.37Zm6.43-4.71L152 47.89c1.11-.77 2.23-1.52 3.35-2.26l1.1 1.67c-1.13.7-2.23 1.48-3.33 2.23Zm6.67-4.38-1.06-1.69c1.14-.71 2.3-1.41 3.46-2.09l1 1.72c-1.14.64-2.27 1.33-3.4 2.03Zm6.88-4-1-1.75c1.17-.65 2.36-1.29 3.55-1.91l.93 1.77q-1.74.86-3.48 1.82Zm7.07-3.69-.88-1.79c1.21-.6 2.43-1.17 3.65-1.74l.84 1.82c-1.21.49-2.42 1.06-3.61 1.64Zm7.26-3.4-.78-1.84c1.23-.53 2.48-1.05 3.73-1.55l.74 1.86c-1.24.5-2.47 1-3.69 1.53Zm7.42-3-.69-1.88c1.26-.47 2.53-.92 3.81-1.36l.64 1.9c-1.27.47-2.52.91-3.77 1.38Zm7.58-2.55-.6-1.91c1.28-.4 2.57-.79 3.87-1.16l.55 1.93c-1.31.36-2.58.74-3.82 1.14Zm7.66-2.19-.51-1.94c1.3-.34 2.61-.66 3.92-1l.45 1.95c-1.32.34-2.61.64-3.89.99Zm7.75-1.81-.4-2c1.31-.27 2.63-.52 4-.76l.35 2c-1.36.22-2.68.49-3.98.76Zm7.84-1.41-.3-2c1.32-.2 2.65-.39 4-.56l.25 2c-1.36.17-2.67.36-3.98.56Zm7.9-1-.21-2q2-.21 4-.36l.15 2c-1.33.08-2.65.23-3.97.34Zm27.85-.48c-1.32-.09-2.65-.17-4-.23l.09-2c1.35.06 2.69.14 4 .24Zm-19.9-.16-.11-2c1.34-.07 2.68-.13 4-.16l.06 2c-1.34.03-2.67.09-3.99.16Zm11.94-.2H243v-2h4.03Zm110.59 47.99-1.4-1.41 1.42-1.41 1.41 1.43Z"/><path fill="#fff" d="m327.435 65.242 1.56-1.953 4.063 3.246-1.561 1.953z"/><path fill="#263238" d="M331.48 69a.51.51 0 0 1-.31-.11l-4.06-3.25a.5.5 0 0 1-.08-.7l1.56-1.94a.49.49 0 0 1 .33-.19.54.54 0 0 1 .37.11l4.07 3.25a.48.48 0 0 1 .18.33.5.5 0 0 1-.11.37l-1.56 2a.49.49 0 0 1-.39.13Zm-3.36-3.83 3.29 2.63.93-1.17-3.28-2.63Z"/><rect width="3.95" height="6.56" x="324.47" y="59.57" fill="#fff" rx="1.72" transform="rotate(-51.38 326.441 62.846)"/><path fill="#263238" d="M327.5 66.24a2.25 2.25 0 0 1-1.38-.48l-2.43-2a2.22 2.22 0 0 1-.35-3.12l.32-.4a2.22 2.22 0 0 1 3.12-.35l2.43 2a2.19 2.19 0 0 1 .83 1.48 2.23 2.23 0 0 1-.48 1.63l-.32.41a2.24 2.24 0 0 1-1.49.82Zm-2.1-5.79h-.14a1.23 1.23 0 0 0-.82.45l-.32.41a1.19 1.19 0 0 0-.26.89 1.23 1.23 0 0 0 .45.82l2.44 2a1.19 1.19 0 0 0 .89.25 1.15 1.15 0 0 0 .82-.45l.32-.4a1.16 1.16 0 0 0 .26-.9 1.23 1.23 0 0 0-.45-.81l-2.44-2a1.21 1.21 0 0 0-.75-.26Z"/><path fill="#fff" d="m342.689 46.123 1.56-1.953 4.063 3.246-1.56 1.953z"/><path fill="#263238" d="M346.75 49.86a.45.45 0 0 1-.31-.11l-4.07-3.24a.52.52 0 0 1-.08-.71l1.56-1.95a.52.52 0 0 1 .34-.18.5.5 0 0 1 .37.1l4.06 3.23a.51.51 0 0 1 .08.71l-1.56 2a.48.48 0 0 1-.34.18ZM343.39 46l3.28 2.62.93-1.17-3.28-2.62Z"/><rect width="3.95" height="6.56" x="339.74" y="40.47" fill="#fff" rx="1.72" transform="rotate(-51.37 341.728 43.742)"/><path fill="#263238" d="M342.77 47.14a2.16 2.16 0 0 1-1.38-.49L339 44.71a2.23 2.23 0 0 1-.35-3.12l.33-.41a2.21 2.21 0 0 1 3.11-.34l2.44 1.94a2.22 2.22 0 0 1 .35 3.12l-.32.4a2.23 2.23 0 0 1-1.79.84Zm-2.11-5.79a1.21 1.21 0 0 0-1 .46l-.33.4a1.21 1.21 0 0 0 .2 1.71l2.47 1.95a1.22 1.22 0 0 0 1.71-.19l.33-.4a1.23 1.23 0 0 0-.19-1.72l-2.44-1.94a1.2 1.2 0 0 0-.75-.27Z"/><path fill="#fff" d="M356.36 71.56s-1.95 18.54-1.22 19.13 2.92 2.13 2.92 2.13l7.38-15Z"/><path fill="#263238" d="M358.06 93.32a.52.52 0 0 1-.29-.09c-.09-.06-2.2-1.56-2.94-2.15-.26-.21-.95-.76 1-19.57a.52.52 0 0 1 .29-.41.51.51 0 0 1 .49.05l9.08 6.25a.5.5 0 0 1 .17.63l-7.38 15a.48.48 0 0 1-.33.27Zm-2.52-2.95c.54.42 1.68 1.24 2.33 1.71L364.8 78l-8-5.52c-.72 6.62-1.59 16.61-1.26 17.89Zm0 0Z"/><path fill="#263238" d="m356.25 74.92-.41 4.18 7.28 3.43 2.1-4.27-8.86-6.7s-.1 1-.25 2.42Z"/><path fill="#263238" d="M363.12 83a.54.54 0 0 1-.22 0l-7.28-3.43a.5.5 0 0 1-.28-.5l.4-4.13-.12-.88a.49.49 0 0 1 0-.12c.15-1.47.25-2.43.25-2.43a.5.5 0 0 1 .8-.34l8.86 6.7a.49.49 0 0 1 .14.62l-2.1 4.27a.48.48 0 0 1-.45.24Zm-6.75-4.23 6.51 3.07 1.7-3.46-7.82-5.92c0 .39-.09.89-.14 1.47l.12.89a.49.49 0 0 1 0 .12Z"/><path fill="#fff" d="M357.34 70.33s17.66-6 18.39-5.41 2.73 2.38 2.73 2.38l-13 10.51Z"/><path fill="#263238" d="M365.44 78.31a.48.48 0 0 1-.34-.14L357 70.7a.49.49 0 0 1-.15-.47.48.48 0 0 1 .33-.37c17.92-6.09 18.61-5.53 18.86-5.33.74.59 2.67 2.33 2.75 2.4a.52.52 0 0 1 .17.38.54.54 0 0 1-.19.38l-13 10.51a.51.51 0 0 1-.33.11Zm-7.14-7.78 7.16 6.62 12.22-9.87c-.59-.53-1.64-1.46-2.18-1.9-1.32-.01-10.86 3.02-17.2 5.15Z"/><path fill="#fff" d="m330.29 54.46-2.22 35.76a1.85 1.85 0 0 0 1.1 1.82 1.85 1.85 0 0 0 2.52-1.04l6.05-17.48 5.69-8.78Z"/><path fill="#263238" d="M329.93 92.71a2.35 2.35 0 0 1-1-.21 2.39 2.39 0 0 1-1.39-2.31l2.22-35.76a.5.5 0 0 1 .29-.43.52.52 0 0 1 .52.07l13.16 10.23a.49.49 0 0 1 .12.66l-5.65 8.73-6 17.42a2.39 2.39 0 0 1-2.24 1.6Zm.8-37.27-2.16 34.82a1.36 1.36 0 0 0 .8 1.33 1.32 1.32 0 0 0 1.1 0 1.35 1.35 0 0 0 .75-.8l6-17.48a.37.37 0 0 1 .05-.11l5.44-8.4Z"/><path fill="#263238" d="m341.45 67.74 1.98-3.05-13.14-10.23-.26 4.15 11.42 9.13z"/><path fill="#263238" d="M341.46 68.24a.52.52 0 0 1-.32-.11L329.72 59a.49.49 0 0 1-.19-.42l.26-4.15a.5.5 0 0 1 .29-.43.52.52 0 0 1 .52.07l13.13 10.23a.49.49 0 0 1 .12.66l-2 3.05a.51.51 0 0 1-.34.22Zm-10.91-9.86L341.34 67l1.42-2.2-12-9.36Z"/><path fill="#fff" d="m334.71 48.93 34.39-10.06a1.89 1.89 0 0 1 2 .67 1.88 1.88 0 0 1-.51 2.71L354.89 52l-7.31 7.48Z"/><path fill="#263238" d="M347.58 60a.51.51 0 0 1-.31-.11l-12.88-10.57a.51.51 0 0 1-.17-.49.49.49 0 0 1 .35-.38L369 38.39a2.37 2.37 0 0 1 1.91 4.29l-15.7 9.72-7.27 7.44a.51.51 0 0 1-.36.16Zm-11.82-10.85 11.79 9.66 7-7.15a.24.24 0 0 1 .09-.08l15.71-9.75a1.41 1.41 0 0 0 .63-.91 1.37 1.37 0 0 0-1.73-1.57Z"/><path fill="#fff" d="M343.16 55c16.57 13.22 28.84 25.44 27.36 27.27s-16.08-7.42-32.65-20.66c-6.69-5.34-14.81-11.37-19.48-15.76-6.89-6.5-8.5-10.24-7.63-11.33s5.3-.2 13.08 5c5.34 3.61 12.57 10.07 19.32 15.48Z"/><path fill="#263238" d="M369.93 83c-1.19 0-3.87-.91-10.34-5a261.25 261.25 0 0 1-22-16c-1.95-1.56-4-3.17-6.1-4.79-5-3.87-10.09-7.87-13.41-11-6.17-5.81-9-10.3-7.68-12s6.87.3 13.75 4.92c3.55 2.38 7.86 6 12.42 9.77 2.29 1.9 4.65 3.87 6.94 5.69 10.51 8.4 29.77 25.06 27.43 28a1.05 1.05 0 0 1-1.01.41ZM312 34.59a1.12 1.12 0 0 0-.85.24c-.41.52.09 3.59 7.59 10.65 3.28 3.1 8.39 7.09 13.34 10.94 2.07 1.62 4.15 3.24 6.1 4.8C356.2 75.62 368.92 83 370.13 82c.75-1.4-9.26-12.19-27.28-26.59-2.29-1.83-4.66-3.8-6.94-5.7-4.55-3.78-8.84-7.36-12.35-9.71-6.26-4.25-9.98-5.41-11.56-5.41Z"/><path fill="#263238" d="m355.92 72.61.33 2.31v.29c6.19 4.17 10.95 6.82 13.12 7.23l1.18-.17-14.19-10.71Z"/><path fill="#263238" d="M369.34 82.94h-.09c-2.2-.41-6.93-3-13.31-7.31a.5.5 0 0 1-.22-.46v-.23l-.32-2.25a.46.46 0 0 1 0-.26l.44-1.06a.53.53 0 0 1 .33-.29.51.51 0 0 1 .43.09l14.16 10.71a.5.5 0 0 1 .18.52.49.49 0 0 1-.41.37l-1.18.18Zm-12.59-8c5.83 3.92 10.33 6.42 12.45 6.94l-12.63-9.55-.14.33.31 2.17a.37.37 0 0 1 .01.17Z"/><rect width="3.46" height="10.68" x="358.09" y="68.18" fill="#fff" rx="1.5" transform="rotate(-51.37 359.831 73.52)"/><path fill="#263238" d="M362.67 78.09a2 2 0 0 1-1.25-.44l-6-4.79a2 2 0 0 1-.74-1.34 2 2 0 0 1 .42-1.47l.29-.35a2 2 0 0 1 1.34-.74 2 2 0 0 1 1.47.42l6 4.79a2 2 0 0 1 .31 2.82l-.28.35a2 2 0 0 1-1.34.74ZM357 69.94h-.11a1 1 0 0 0-.67.37l-.29.35a1 1 0 0 0-.21.74 1 1 0 0 0 .37.67l6 4.79a1 1 0 0 0 .74.22 1.05 1.05 0 0 0 .67-.37l.28-.36a1 1 0 0 0-.16-1.41l-6-4.79a1 1 0 0 0-.62-.21Zm7.17 6.74Z"/><path fill="#fff" d="M371.11 82.54a.77.77 0 0 1-1.1.11l-9.43-7.82.68-.86 9.74 7.48a.76.76 0 0 1 .11 1.09Z"/><path fill="#263238" d="M370.5 83.08a1 1 0 0 1-.65-.24L360.42 75a.25.25 0 0 1 0-.35l.69-.86a.26.26 0 0 1 .35 0l9.71 7.48a1.08 1.08 0 0 1 .39.68 1 1 0 0 1-.22.76 1 1 0 0 1-.69.38Zm-9.57-8.29 9.24 7.67a.54.54 0 0 0 .39.12.55.55 0 0 0 .35-.2.5.5 0 0 0 .09-.38.55.55 0 0 0-.2-.35l-9.51-7.32Zm10.18 7.75ZM315 41a.45.45 0 0 1-.65 0c-1.63-1.6-2.15-3.59-1.24-4.73s2.9-1.09 4.83.13a.46.46 0 0 1 .14.63.46.46 0 0 1-.64.14c-1.46-.92-3-1.07-3.61-.33s-.1 2.26 1.17 3.5a.46.46 0 0 1 0 .66Z"/><path fill="#cd5c5c" d="m227.28 126.79 12.34 2.55 4.2 4.37 5.48.84 1.74 5.2-1.27 3.52-3.74 1.71-9.16-1.49-.25-1.13 4.33-3.02-2.99-5.51-8.19-1.12-4.36-3.74 1.87-2.18z"/><path fill="#cd5c5c" d="M326.68 240.61 316.9 239l-11.8-1.5-8.69 1.93-8.5.12-8.54 4-5 1.4-3.08.68-5.14 4.68-5.11 3.48-8.63-3.08.22-8.29-5.2-.9-5.61 1.24-1.4-2.33-.56-5.17-2.58-2.37-3.8 1.43-.5 3.06-4.71 1.33-5.27-4.19-3.18-6.35 2.46-8.79 8.26-1.24 2.68 1.46 3.36-.74 3.65-3.46 3.89.31 7 7.57 1.9-.71-2-6.33-2.43-3-.62-5.45 9.33-6.79-.91-10.68 3.68-4.64 2.21-7.26 2.68-1.18 5.51-5.64-.21-2.3-4.43 1.28-1.33-2.06-3.09.68-4.51 2.18 1.43-4.14 9.19-5 1.68-3 5.29 5.29 3.09 2 3.67-2-2.49-3.27-6.82-2.89-8.41-6.08-8.06-3.21-7 .38-4.11-2.62-4.74-.13-.31 1.25 1.25 8.25 1.74 2.56-.53 9.53-6.6-3.24v-4.11l-6.51-1.5-3.21-2.52-.15-7.32 6.82-7.69-.94-6.86-3 1-2.52-2.09-1.77-4-2 .16-.12 4.73-3 1.25-3.58-9.5-2.56-.91-4.3-.81-4 3.24 6.79 4.08 2.18 4.52-11.78-5.33-8.68-6-2.25-7.44-7.78-.63-4.8 4.89a43.61 43.61 0 0 1-3.71 3.18 47.71 47.71 0 0 1-6.48 2.61l-.06 5-6.38 1.71 1.24 3 10.75-.62 6.63 4.7 2.18 9.81-1.18 9.28 2.61 9.12-4.8 15.48 2.86 20.84 5.14 11.21 5.64 8.16 4.33-.37-2.4-4.17-3-2.87-2.77-5.86 2.4-1.12 6.16 9.22 4.8 8.35 1.62 7.29 6.76 5.26 11.08 4.9 15.45.68 5.42 3.21 4.4 3.78 5.73 2 6.54.32 6.1-1.65s.35 2.86.66 4.26-2.56 7-2.56 7l-1.84 6.29 3.62 5.67 6.72 1.15 10.69 7.05 4.29.81.94 4.2.92 1.85a120.53 120.53 0 0 0 52.65-40.73l-.31-2.07 4.52-15.42-4.2-1.71Z"/><path fill="#cd5c5c" d="m331.25 123.41-4.25-4.64-5.29-5.3-3-8.16 5.23-.28-.34-2.86-3.71.53 2.77-2.09 2.93-2.71-.59-2.8-4.36-3.74-2.06-5.88a121.05 121.05 0 0 0-146.07-2.8l7.49 3.15-2.81 5.91-5.07 2.31 1.12 7.69-2.06 1.34-2.18 3.71 1.4 5 4.89-.5-.9 5.2 4.76-1.06 5.85-12.19-.16-4.68 7.73-2.3 1.21-3.8 7.95-2.64-.22-5 5.82-1.58s3.71-3.18 4.55-3.37a35.93 35.93 0 0 1 5.08.35l5 2.43 5.89-1.31 4.36-4.21 6.57-.87a7.08 7.08 0 0 0 3.33.44c1.4-.31 5.17-3.21 5.17-3.21l9.25 3.24 3.93 1.78.93 4.2 4.33-.37.84-2.83 4 .87.22 2.3-7.91 4.11 6.13 5.15 11.34 3.37 5.45 4.67 6.29-.81.78-3.11 2.08-1.06-8.54-4-4.61.44 3.4-1.93-4.42-4 4.7-1.34 6.91 2 2.9 6.42 3.89 3 4.33 7.57 7.16 3.11 2.06 9.25 7.38 2.78.4 3.14v3.83l2.8 4.68 1.12 2.39 5-.21 1.18-5.27Z"/><path fill="#cd5c5c" d="M328.62 94.36 329 96l-.41 4.8 1.71 3.73 3.34.44 1.18 5.33-3.68-.66 2.53 15.33-2 6.91 4 7.35 4.39 2.55 3.36 15.14 6.26 11 5.91 8.1 6.83.25 1-6.11.76-.92a121.43 121.43 0 0 0-35.52-74.82Zm-65.14 12.62-20.31-4.01-8.07 2.08-.78 5.76-4.17-2.89-5.86 2.77 1.5 9.37 5.85 2.52 2.46-6.13 5.14 3.27 10.37 5.64 3.49 7.76 9.34 7.63 11.34-4.58-1.21-4.14-3.58-4.21-3.05-11.09 1.74-5.38-4.2-4.37zm16.5 2.81-4.45-.19-2.96 3.9 3.77 7.69 3.64-.81v-10.59zm27.26-.46-10.66-2.93-2.7-2.93-2.06 1.34 3.21 5.17 3.3 6.91 4.57.75.6-1.31-3.46-3.64 7.91 1.19-.71-4.55zM247.85 228.7l-.87 1.37 8.97.66 4.24 3.17 5.45-.62 1.28-3.52-6.7.31-12.37-1.37zm26.14-.21-5.52 2.99 1.34 2.05 7.29-1.62.9-2.55-2.46.84-1.55-1.71z"/><path fill="#263238" d="M243.7 302.28A121.88 121.88 0 1 1 365.58 180.4 122 122 0 0 1 243.7 302.28Zm0-241.76A119.88 119.88 0 1 0 363.58 180.4 120 120 0 0 0 243.7 60.52Z"/><path fill="#263238" d="M243.7 301.78c-42.06 0-76.27-54.45-76.27-121.38S201.64 59 243.7 59 320 113.47 320 180.4s-34.24 121.38-76.3 121.38Zm0-241.78c-41.5 0-75.27 54-75.27 120.38s33.77 120.4 75.27 120.4 75.3-54 75.3-120.38S285.21 60 243.7 60Z"/><path fill="#263238" d="M243.7 301.78c-7.62 0-14.73-12.71-20-35.8-5.22-22.86-8.1-53.26-8.1-85.58s2.88-62.72 8.1-85.59C229 71.73 236.08 59 243.7 59s14.73 12.71 20 35.79c5.22 22.87 8.09 53.27 8.09 85.59s-2.87 62.72-8.09 85.58c-5.27 23.11-12.37 35.82-20 35.82Zm0-241.78c-14.94 0-27.09 54-27.09 120.38s12.15 120.38 27.09 120.38 27.09-54 27.09-120.38S258.64 60 243.7 60Z"/><path fill="#263238" d="M310.65 80.59H177.38a.5.5 0 0 1-.5-.5.5.5 0 0 1 .5-.5h133.27a.5.5 0 0 1 .5.5.5.5 0 0 1-.5.5Zm43.75 52.72H132.67a.5.5 0 0 1-.5-.5.5.5 0 0 1 .5-.5H354.4a.51.51 0 0 1 .5.5.5.5 0 0 1-.5.5Zm-43.75 147.78H177.38a.5.5 0 0 1-.5-.5.5.5 0 0 1 .5-.5h133.27a.5.5 0 0 1 .5.5.5.5 0 0 1-.5.5Zm44.61-52.72H132.81a.51.51 0 0 1-.5-.5.5.5 0 0 1 .5-.5h222.45a.5.5 0 0 1 .5.5.5.5 0 0 1-.5.5Zm9.32-47.47H122.83a.5.5 0 0 1 0-1h241.75a.5.5 0 0 1 0 1Z"/><path fill="#fff" d="M247.06 156.41h39.82v16.37h-39.82z"/><path fill="#263238" d="M286.88 173.28h-39.82a.5.5 0 0 1-.5-.5v-16.37a.5.5 0 0 1 .5-.5h39.82a.5.5 0 0 1 .5.5v16.37a.5.5 0 0 1-.5.5Zm-39.32-1h38.82v-15.37h-38.82Z"/><path fill="#263238" d="M275.14 156.41h11.74v16.37h-11.74z"/><path fill="#263238" d="M286.88 173.28h-11.74a.5.5 0 0 1-.5-.5v-16.37a.5.5 0 0 1 .5-.5h11.74a.5.5 0 0 1 .5.5v16.37a.5.5 0 0 1-.5.5Zm-11.24-1h10.74v-15.37h-10.74Z"/><path fill="#fff" d="M281.43 173.15a.5.5 0 0 1-.5-.5v-15.92a.5.5 0 0 1 .5-.5.5.5 0 0 1 .5.5v15.92a.5.5 0 0 1-.5.5Z"/><path fill="#263238" d="M249.22 171.13a.25.25 0 0 1-.25-.25v-12.13a.25.25 0 0 1 .25-.25.25.25 0 0 1 .25.25v12.13a.25.25 0 0 1-.25.25Zm2.02 0a.25.25 0 0 1-.25-.25v-12.13a.25.25 0 0 1 .5 0v12.13a.25.25 0 0 1-.25.25Zm2.02 0a.25.25 0 0 1-.25-.25v-12.13a.25.25 0 0 1 .5 0v12.13a.25.25 0 0 1-.25.25Zm2.02 0a.25.25 0 0 1-.25-.25v-12.13a.25.25 0 0 1 .5 0v12.13a.25.25 0 0 1-.25.25Zm2.02 0a.25.25 0 0 1-.25-.25v-12.13a.25.25 0 0 1 .5 0v12.13a.25.25 0 0 1-.25.25Zm2.02 0a.25.25 0 0 1-.25-.25v-12.13a.25.25 0 0 1 .25-.25.25.25 0 0 1 .25.25v12.13a.25.25 0 0 1-.25.25Zm2.02 0a.25.25 0 0 1-.25-.25v-12.13a.25.25 0 0 1 .25-.25.25.25 0 0 1 .25.25v12.13a.25.25 0 0 1-.25.25Zm2.03 0a.25.25 0 0 1-.25-.25v-12.13a.25.25 0 0 1 .25-.25.25.25 0 0 1 .25.25v12.13a.25.25 0 0 1-.25.25Zm2.02 0a.25.25 0 0 1-.25-.25v-12.13a.25.25 0 0 1 .5 0v12.13a.25.25 0 0 1-.25.25Zm2.02 0a.25.25 0 0 1-.25-.25v-12.13a.25.25 0 0 1 .5 0v12.13a.25.25 0 0 1-.25.25Zm2.02 0a.25.25 0 0 1-.25-.25v-12.13a.25.25 0 0 1 .5 0v12.13a.25.25 0 0 1-.25.25Zm2.02 0a.25.25 0 0 1-.25-.25v-12.13a.25.25 0 0 1 .5 0v12.13a.25.25 0 0 1-.25.25Z"/><path fill="#fff" d="M261.42 172.74h39.82v16.37h-39.82z"/><path fill="#263238" d="M301.24 189.61h-39.82a.5.5 0 0 1-.5-.5v-16.37a.5.5 0 0 1 .5-.5h39.82a.5.5 0 0 1 .5.5v16.37a.5.5 0 0 1-.5.5Zm-39.32-1h38.82v-15.37h-38.82Z"/><path fill="#263238" d="M289.5 172.74h11.74v16.37H289.5z"/><path fill="#263238" d="M301.24 189.61H289.5a.51.51 0 0 1-.5-.5v-16.37a.5.5 0 0 1 .5-.5h11.74a.5.5 0 0 1 .5.5v16.37a.5.5 0 0 1-.5.5Zm-11.24-1h10.74v-15.37H290Z"/><path fill="#fff" d="M295.79 189.48a.51.51 0 0 1-.5-.5v-15.92a.5.5 0 0 1 .5-.5.5.5 0 0 1 .5.5V189a.5.5 0 0 1-.5.48Z"/><path fill="#263238" d="M263.58 187.46a.25.25 0 0 1-.25-.25v-12.13a.25.25 0 0 1 .25-.25.25.25 0 0 1 .25.25v12.13a.25.25 0 0 1-.25.25Zm2.02 0a.25.25 0 0 1-.25-.25v-12.13a.25.25 0 0 1 .5 0v12.13a.25.25 0 0 1-.25.25Zm2.02 0a.25.25 0 0 1-.25-.25v-12.13a.25.25 0 0 1 .5 0v12.13a.25.25 0 0 1-.25.25Zm2.02 0a.25.25 0 0 1-.25-.25v-12.13a.25.25 0 0 1 .5 0v12.13a.25.25 0 0 1-.25.25Zm2.02 0a.25.25 0 0 1-.25-.25v-12.13a.25.25 0 1 1 .5 0v12.13a.25.25 0 0 1-.25.25Zm2.02 0a.25.25 0 0 1-.25-.25v-12.13a.25.25 0 0 1 .25-.25.25.25 0 0 1 .25.25v12.13a.25.25 0 0 1-.25.25Zm2.03 0a.25.25 0 0 1-.25-.25v-12.13a.25.25 0 0 1 .25-.25.25.25 0 0 1 .25.25v12.13a.25.25 0 0 1-.25.25Zm2.02 0a.25.25 0 0 1-.25-.25v-12.13a.25.25 0 0 1 .25-.25.25.25 0 0 1 .25.25v12.13a.25.25 0 0 1-.25.25Zm2.02 0a.25.25 0 0 1-.25-.25v-12.13a.25.25 0 0 1 .5 0v12.13a.25.25 0 0 1-.25.25Zm2.02 0a.25.25 0 0 1-.25-.25v-12.13a.25.25 0 0 1 .5 0v12.13a.25.25 0 0 1-.25.25Zm2.02 0a.25.25 0 0 1-.25-.25v-12.13a.25.25 0 1 1 .5 0v12.13a.25.25 0 0 1-.25.25Zm2.02 0a.25.25 0 0 1-.25-.25v-12.13a.25.25 0 1 1 .5 0v12.13a.25.25 0 0 1-.25.25Z"/><path fill="#fff" d="M189.56 121.58h10.93v10.5h-10.93z"/><path fill="#263238" d="M200.49 132.58h-10.93a.5.5 0 0 1-.5-.5v-10.5a.5.5 0 0 1 .5-.5h10.93a.5.5 0 0 1 .5.5v10.5a.5.5 0 0 1-.5.5Zm-10.43-1H200v-9.5h-9.93Z"/><path fill="#263238" d="M194.66 121.58h10.93v10.5h-10.93z"/><path fill="#263238" d="M205.6 132.58h-10.94a.5.5 0 0 1-.5-.5v-10.5a.51.51 0 0 1 .5-.5h10.94a.51.51 0 0 1 .5.5v10.5a.5.5 0 0 1-.5.5Zm-10.44-1h9.94v-9.5h-9.94Z"/><path fill="#fff" d="M183.14 129.46h21.87v14.29h-21.87z"/><path fill="#263238" d="M205 144.24h-21.86a.5.5 0 0 1-.5-.5v-14.28a.5.5 0 0 1 .5-.5H205a.5.5 0 0 1 .5.5v14.28a.5.5 0 0 1-.5.5Zm-21.37-1h20.87V130h-20.86Z"/><path fill="#263238" d="M193.35 129.46h21.87v14.29h-21.87z"/><path fill="#263238" d="M215.22 144.24h-21.87a.5.5 0 0 1-.5-.5v-14.28a.5.5 0 0 1 .5-.5h21.87a.5.5 0 0 1 .5.5v14.28a.5.5 0 0 1-.5.5Zm-21.37-1h20.87V130h-20.87Z"/><path fill="#fff" d="M189.85 142.28h-24.78v4.96l13.63 4.38v51.6H201v-51.6l13.63-4.38v-4.96h-24.78z"/><path fill="#263238" d="M201 203.72h-22.3a.5.5 0 0 1-.5-.5V152l-13.29-4.26a.51.51 0 0 1-.34-.48v-5a.5.5 0 0 1 .5-.5h49.56a.5.5 0 0 1 .5.5v5a.51.51 0 0 1-.34.48L201.5 152v51.24a.5.5 0 0 1-.5.48Zm-21.8-1h21.3v-51.1a.5.5 0 0 1 .35-.48l13.28-4.26v-4.1h-48.56v4.1l13.28 4.26a.5.5 0 0 1 .35.48Z"/><path fill="#fff" d="M195.61 203.44h-25.88l8.75-51.82h17.13v51.82z"/><path fill="#263238" d="M195.61 203.94h-25.88a.51.51 0 0 1-.38-.18.46.46 0 0 1-.11-.4l8.76-51.83a.49.49 0 0 1 .49-.41h17.13a.5.5 0 0 1 .5.5v51.82a.5.5 0 0 1-.51.5Zm-25.29-1h24.79v-50.82H178.9Z"/><path fill="#263238" d="M182.56 160.65h2.33v10.21h-2.33zm8.17 0h2.33v10.21h-2.33zm-8.17 14.87h2.33v10.21h-2.33zm8.17 0h2.33v10.21h-2.33z"/><path fill="#263238" d="M206.76 142.28h-24.78v4.96l13.63 4.38v51.6h37.16v-51.6l13.64-4.38v-4.96h-39.65z"/><path fill="#263238" d="M232.77 203.72h-37.16a.5.5 0 0 1-.5-.5V152l-13.28-4.26a.5.5 0 0 1-.35-.48v-5a.5.5 0 0 1 .5-.5h64.43a.51.51 0 0 1 .5.5v5a.5.5 0 0 1-.35.48L233.27 152v51.24a.5.5 0 0 1-.5.48Zm-36.66-1h36.16v-51.1a.5.5 0 0 1 .35-.48l13.29-4.26v-4.1h-63.43v4.1l13.29 4.26a.51.51 0 0 1 .34.48Z"/><path fill="#fff" d="M198.6 154.24h2.62v3.5h-2.62zm0 11.66h2.62v3.5h-2.62zm0 11.67h2.62v3.5h-2.62zm25.95-23.33h2.62v3.5h-2.62zm0 11.66h2.62v3.5h-2.62zm0 11.67h2.62v3.5h-2.62z"/><path fill="#cd5c5c" d="M181.98 147.24h-16.91l13.41 4.38h17.13l-13.63-4.38z"/><path fill="#263238" d="M195.61 152.12h-17.13a.45.45 0 0 1-.16 0l-13.41-4.37a.5.5 0 0 1 .16-1H182a.4.4 0 0 1 .15 0l13.64 4.37a.5.5 0 0 1 .34.55.51.51 0 0 1-.52.45Zm-17.05-1h13.86l-10.52-3.38h-13.69Z"/><path fill="#fff" d="M173.84 188.97h39.82v16.37h-39.82z"/><path fill="#263238" d="M213.67 205.84h-39.83a.5.5 0 0 1-.5-.5V189a.5.5 0 0 1 .5-.5h39.83a.5.5 0 0 1 .5.5v16.37a.5.5 0 0 1-.5.47Zm-39.33-1h38.83v-15.37h-38.83Z"/><path fill="#fff" d="M201.93 188.97h11.74v16.37h-11.74z"/><path fill="#263238" d="M213.67 205.84h-11.74a.5.5 0 0 1-.5-.5V189a.5.5 0 0 1 .5-.5h11.74a.5.5 0 0 1 .5.5v16.37a.5.5 0 0 1-.5.47Zm-11.24-1h10.74v-15.37h-10.74Z"/><path fill="#263238" d="M208.22 205.71a.5.5 0 0 1-.5-.5v-15.92a.5.5 0 0 1 .5-.5.5.5 0 0 1 .5.5v15.92a.51.51 0 0 1-.5.5ZM176 203.69a.25.25 0 0 1-.25-.25v-12.13a.25.25 0 0 1 .5 0v12.13a.25.25 0 0 1-.25.25Zm2 0a.25.25 0 0 1-.25-.25v-12.13a.25.25 0 0 1 .25-.25.25.25 0 0 1 .25.25v12.13a.25.25 0 0 1-.25.25Zm2.05 0a.25.25 0 0 1-.25-.25v-12.13a.25.25 0 0 1 .25-.25.25.25 0 0 1 .25.25v12.13a.25.25 0 0 1-.25.25Zm2.02 0a.25.25 0 0 1-.25-.25v-12.13a.25.25 0 0 1 .25-.25.25.25 0 0 1 .25.25v12.13a.25.25 0 0 1-.25.25Zm2.02 0a.25.25 0 0 1-.25-.25v-12.13a.25.25 0 0 1 .5 0v12.13a.25.25 0 0 1-.25.25Zm2.02 0a.25.25 0 0 1-.25-.25v-12.13a.25.25 0 0 1 .5 0v12.13a.25.25 0 0 1-.25.25Zm2.02 0a.25.25 0 0 1-.25-.25v-12.13a.25.25 0 0 1 .5 0v12.13a.25.25 0 0 1-.25.25Zm2.02 0a.25.25 0 0 1-.25-.25v-12.13a.25.25 0 0 1 .5 0v12.13a.25.25 0 0 1-.25.25Zm2.02 0a.25.25 0 0 1-.25-.25v-12.13a.25.25 0 0 1 .25-.25.25.25 0 0 1 .25.25v12.13a.25.25 0 0 1-.25.25Zm2.02 0a.25.25 0 0 1-.25-.25v-12.13a.25.25 0 0 1 .25-.25.25.25 0 0 1 .25.25v12.13a.25.25 0 0 1-.25.25Zm2.03 0a.25.25 0 0 1-.25-.25v-12.13a.25.25 0 0 1 .25-.25.25.25 0 0 1 .25.25v12.13a.25.25 0 0 1-.25.25Zm2.02 0a.25.25 0 0 1-.25-.25v-12.13a.25.25 0 0 1 .5 0v12.13a.25.25 0 0 1-.25.25Z"/><path fill="#fff" d="M216.73 172.74h39.82v16.37h-39.82z"/><path fill="#263238" d="M256.55 189.61h-39.82a.5.5 0 0 1-.5-.5v-16.37a.5.5 0 0 1 .5-.5h39.82a.5.5 0 0 1 .5.5v16.37a.5.5 0 0 1-.5.5Zm-39.32-1h38.82v-15.37h-38.82Z"/><path fill="#263238" d="M244.82 172.74h11.74v16.37h-11.74z"/><path fill="#263238" d="M256.55 189.61h-11.73a.5.5 0 0 1-.5-.5v-16.37a.5.5 0 0 1 .5-.5h11.73a.5.5 0 0 1 .5.5v16.37a.5.5 0 0 1-.5.5Zm-11.23-1h10.73v-15.37h-10.73Z"/><path fill="#263238" d="M251.11 189.48a.5.5 0 0 1-.5-.5v-15.92a.5.5 0 0 1 .5-.5.5.5 0 0 1 .5.5V189a.51.51 0 0 1-.5.48Zm-32.22-2.02a.25.25 0 0 1-.25-.25v-12.13a.25.25 0 0 1 .5 0v12.13a.25.25 0 0 1-.25.25Zm2.02 0a.25.25 0 0 1-.25-.25v-12.13a.25.25 0 0 1 .5 0v12.13a.25.25 0 0 1-.25.25Zm2.02 0a.25.25 0 0 1-.25-.25v-12.13a.25.25 0 1 1 .5 0v12.13a.25.25 0 0 1-.25.25Zm2.07 0a.25.25 0 0 1-.25-.25v-12.13a.25.25 0 0 1 .25-.25.25.25 0 0 1 .25.25v12.13a.25.25 0 0 1-.25.25Zm2 0a.25.25 0 0 1-.25-.25v-12.13a.25.25 0 0 1 .25-.25.25.25 0 0 1 .25.25v12.13a.25.25 0 0 1-.25.25Zm2 0a.25.25 0 0 1-.25-.25v-12.13a.25.25 0 0 1 .25-.25.25.25 0 0 1 .25.25v12.13a.25.25 0 0 1-.25.25Zm2 0a.25.25 0 0 1-.25-.25v-12.13a.25.25 0 0 1 .5 0v12.13a.25.25 0 0 1-.25.25Zm2 0a.25.25 0 0 1-.25-.25v-12.13a.25.25 0 0 1 .5 0v12.13a.25.25 0 0 1-.25.25Zm2.06 0a.25.25 0 0 1-.25-.25v-12.13a.25.25 0 1 1 .5 0v12.13a.25.25 0 0 1-.25.25Zm2.02 0a.25.25 0 0 1-.25-.25v-12.13a.25.25 0 0 1 .5 0v12.13a.25.25 0 0 1-.25.25Zm2.02 0a.25.25 0 0 1-.25-.25v-12.13a.25.25 0 0 1 .25-.25.25.25 0 0 1 .25.25v12.13a.25.25 0 0 1-.25.25Zm2.02 0a.25.25 0 0 1-.24-.25v-12.13a.25.25 0 0 1 .24-.25.26.26 0 0 1 .26.25v12.13a.26.26 0 0 1-.26.25Z"/><path fill="#fff" d="M186.7 172.74h39.82v16.37H186.7z"/><path fill="#263238" d="M226.52 189.61H186.7a.5.5 0 0 1-.5-.5v-16.37a.5.5 0 0 1 .5-.5h39.82a.5.5 0 0 1 .5.5v16.37a.5.5 0 0 1-.5.5Zm-39.32-1H226v-15.37h-38.8Z"/><path fill="#263238" d="M214.78 172.74h11.74v16.37h-11.74z"/><path fill="#263238" d="M226.52 189.61h-11.74a.51.51 0 0 1-.5-.5v-16.37a.5.5 0 0 1 .5-.5h11.74a.5.5 0 0 1 .5.5v16.37a.5.5 0 0 1-.5.5Zm-11.24-1H226v-15.37h-10.72Z"/><path fill="#fff" d="M221.07 189.48a.51.51 0 0 1-.5-.5v-15.92a.5.5 0 0 1 .5-.5.5.5 0 0 1 .5.5V189a.5.5 0 0 1-.5.48Z"/><path fill="#263238" d="M188.86 187.46a.25.25 0 0 1-.25-.25v-12.13a.25.25 0 0 1 .5 0v12.13a.25.25 0 0 1-.25.25Zm2.02 0a.25.25 0 0 1-.25-.25v-12.13a.25.25 0 0 1 .5 0v12.13a.25.25 0 0 1-.25.25Zm2.02 0a.25.25 0 0 1-.25-.25v-12.13a.25.25 0 0 1 .5 0v12.13a.25.25 0 0 1-.25.25Zm2.02 0a.25.25 0 0 1-.25-.25v-12.13a.25.25 0 0 1 .5 0v12.13a.25.25 0 0 1-.25.25Zm2.02 0a.25.25 0 0 1-.25-.25v-12.13a.25.25 0 1 1 .5 0v12.13a.25.25 0 0 1-.25.25Zm2.06 0a.25.25 0 0 1-.25-.25v-12.13a.25.25 0 0 1 .25-.25.25.25 0 0 1 .25.25v12.13a.25.25 0 0 1-.25.25Zm2 0a.25.25 0 0 1-.25-.25v-12.13a.25.25 0 0 1 .25-.25.25.25 0 0 1 .25.25v12.13a.25.25 0 0 1-.25.25Zm2 0a.25.25 0 0 1-.25-.25v-12.13a.25.25 0 0 1 .5 0v12.13a.25.25 0 0 1-.25.25Zm2 0a.25.25 0 0 1-.25-.25v-12.13a.25.25 0 0 1 .5 0v12.13a.25.25 0 0 1-.25.25Zm2.05 0a.25.25 0 0 1-.25-.25v-12.13a.25.25 0 1 1 .5 0v12.13a.25.25 0 0 1-.25.25Zm2.02 0a.25.25 0 0 1-.25-.25v-12.13a.25.25 0 1 1 .5 0v12.13a.25.25 0 0 1-.25.25Zm2.02 0a.25.25 0 0 1-.25-.25v-12.13a.25.25 0 0 1 .5 0v12.13a.25.25 0 0 1-.25.25Z"/><path fill="#fff" d="M246.84 172.74h39.82v16.37h-39.82z"/><path fill="#263238" d="M286.66 189.61h-39.82a.5.5 0 0 1-.5-.5v-16.37a.5.5 0 0 1 .5-.5h39.82a.5.5 0 0 1 .5.5v16.37a.5.5 0 0 1-.5.5Zm-39.32-1h38.82v-15.37h-38.82Z"/><path fill="#263238" d="M274.92 172.74h11.74v16.37h-11.74z"/><path fill="#263238" d="M286.66 189.61h-11.74a.51.51 0 0 1-.5-.5v-16.37a.5.5 0 0 1 .5-.5h11.74a.5.5 0 0 1 .5.5v16.37a.5.5 0 0 1-.5.5Zm-11.24-1h10.74v-15.37h-10.74Z"/><path fill="#fff" d="M281.21 189.48a.51.51 0 0 1-.5-.5v-15.92a.5.5 0 0 1 .5-.5.5.5 0 0 1 .5.5V189a.5.5 0 0 1-.5.48Z"/><path fill="#263238" d="M249 187.46a.25.25 0 0 1-.25-.25v-12.13a.25.25 0 0 1 .5 0v12.13a.25.25 0 0 1-.25.25Zm2 0a.25.25 0 0 1-.25-.25v-12.13a.25.25 0 0 1 .5 0v12.13a.25.25 0 0 1-.25.25Zm2 0a.25.25 0 0 1-.25-.25v-12.13a.25.25 0 0 1 .5 0v12.13a.25.25 0 0 1-.25.25Zm2.06 0a.25.25 0 0 1-.25-.25v-12.13a.25.25 0 1 1 .5 0v12.13a.25.25 0 0 1-.25.25Zm2.02 0a.25.25 0 0 1-.25-.25v-12.13a.25.25 0 0 1 .25-.25.25.25 0 0 1 .25.25v12.13a.25.25 0 0 1-.25.25Zm2.02 0a.25.25 0 0 1-.25-.25v-12.13a.25.25 0 0 1 .25-.25.25.25 0 0 1 .25.25v12.13a.25.25 0 0 1-.25.25Zm2.03 0a.25.25 0 0 1-.25-.25v-12.13a.25.25 0 0 1 .25-.25.25.25 0 0 1 .25.25v12.13a.25.25 0 0 1-.25.25Zm2.02 0a.25.25 0 0 1-.25-.25v-12.13a.25.25 0 0 1 .5 0v12.13a.25.25 0 0 1-.25.25Zm2.02 0a.25.25 0 0 1-.25-.25v-12.13a.25.25 0 1 1 .5 0v12.13a.25.25 0 0 1-.25.25Zm2.02 0a.25.25 0 0 1-.25-.25v-12.13a.25.25 0 1 1 .5 0v12.13a.25.25 0 0 1-.25.25Zm2.02 0a.25.25 0 0 1-.25-.25v-12.13a.25.25 0 1 1 .5 0v12.13a.25.25 0 0 1-.25.25Zm2.02 0a.25.25 0 0 1-.25-.25v-12.13a.25.25 0 0 1 .25-.25.25.25 0 0 1 .25.25v12.13a.25.25 0 0 1-.25.25Z"/><path fill="#fff" d="M231.97 156.41h39.82v16.37h-39.82z"/><path fill="#263238" d="M271.79 173.28H232a.5.5 0 0 1-.5-.5v-16.37a.5.5 0 0 1 .5-.5h39.82a.5.5 0 0 1 .5.5v16.37a.5.5 0 0 1-.53.5Zm-39.32-1h38.82v-15.37h-38.82Z"/><path fill="#263238" d="M260.05 156.41h11.74v16.37h-11.74z"/><path fill="#263238" d="M271.79 173.28h-11.74a.5.5 0 0 1-.5-.5v-16.37a.5.5 0 0 1 .5-.5h11.74a.5.5 0 0 1 .5.5v16.37a.5.5 0 0 1-.5.5Zm-11.24-1h10.74v-15.37h-10.74Z"/><path fill="#fff" d="M266.34 173.15a.5.5 0 0 1-.5-.5v-15.92a.5.5 0 0 1 .5-.5.5.5 0 0 1 .5.5v15.92a.5.5 0 0 1-.5.5Z"/><path fill="#263238" d="M234.13 171.13a.25.25 0 0 1-.25-.25v-12.13a.25.25 0 0 1 .5 0v12.13a.25.25 0 0 1-.25.25Zm2.02 0a.25.25 0 0 1-.25-.25v-12.13a.25.25 0 0 1 .5 0v12.13a.25.25 0 0 1-.25.25Z"/><path fill="#fff" d="M238.17 171.38a.5.5 0 0 1-.5-.5v-12.13a.5.5 0 0 1 1 0v12.13a.5.5 0 0 1-.5.5Z"/><path fill="#263238" d="M240.19 171.13a.25.25 0 0 1-.25-.25v-12.13a.25.25 0 0 1 .5 0v12.13a.25.25 0 0 1-.25.25Zm2.02 0a.25.25 0 0 1-.25-.25v-12.13a.25.25 0 0 1 .25-.25.25.25 0 0 1 .25.25v12.13a.25.25 0 0 1-.25.25Zm2.02 0a.25.25 0 0 1-.25-.25v-12.13a.25.25 0 0 1 .25-.25.25.25 0 0 1 .25.25v12.13a.25.25 0 0 1-.25.25Zm2.03 0a.25.25 0 0 1-.25-.25v-12.13a.25.25 0 0 1 .25-.25.25.25 0 0 1 .25.25v12.13a.25.25 0 0 1-.25.25Zm2.02 0a.25.25 0 0 1-.25-.25v-12.13a.25.25 0 0 1 .5 0v12.13a.25.25 0 0 1-.25.25Zm2.02 0a.25.25 0 0 1-.25-.25v-12.13a.25.25 0 0 1 .5 0v12.13a.25.25 0 0 1-.25.25Zm2.02 0a.25.25 0 0 1-.25-.25v-12.13a.25.25 0 0 1 .5 0v12.13a.25.25 0 0 1-.25.25Zm2.02 0a.25.25 0 0 1-.25-.25v-12.13a.25.25 0 0 1 .5 0v12.13a.25.25 0 0 1-.25.25Zm2.02 0a.25.25 0 0 1-.25-.25v-12.13a.25.25 0 0 1 .25-.25.25.25 0 0 1 .25.25v12.13a.25.25 0 0 1-.25.25Z"/><path fill="#fff" d="M204.64 156.41h39.82v16.37h-39.82z"/><path fill="#263238" d="M244.46 173.28h-39.82a.5.5 0 0 1-.5-.5v-16.37a.5.5 0 0 1 .5-.5h39.82a.5.5 0 0 1 .5.5v16.37a.5.5 0 0 1-.5.5Zm-39.32-1H244v-15.37h-38.86Z"/><path fill="#263238" d="M232.72 156.41h11.74v16.37h-11.74z"/><path fill="#263238" d="M244.46 173.28h-11.74a.5.5 0 0 1-.5-.5v-16.37a.5.5 0 0 1 .5-.5h11.74a.5.5 0 0 1 .5.5v16.37a.5.5 0 0 1-.5.5Zm-11.24-1H244v-15.37h-10.78Z"/><path fill="#fff" d="M239 173.15a.5.5 0 0 1-.5-.5v-15.92a.5.5 0 0 1 .5-.5.5.5 0 0 1 .5.5v15.92a.5.5 0 0 1-.5.5Z"/><path fill="#263238" d="M206.8 171.13a.25.25 0 0 1-.25-.25v-12.13a.25.25 0 0 1 .25-.25.25.25 0 0 1 .25.25v12.13a.25.25 0 0 1-.25.25Zm2.02 0a.25.25 0 0 1-.25-.25v-12.13a.25.25 0 0 1 .5 0v12.13a.25.25 0 0 1-.25.25Zm2.02 0a.25.25 0 0 1-.25-.25v-12.13a.25.25 0 0 1 .5 0v12.13a.25.25 0 0 1-.25.25Zm2.02 0a.25.25 0 0 1-.25-.25v-12.13a.25.25 0 0 1 .5 0v12.13a.25.25 0 0 1-.25.25Zm2.02 0a.25.25 0 0 1-.25-.25v-12.13a.25.25 0 0 1 .5 0v12.13a.25.25 0 0 1-.25.25Zm2.02 0a.25.25 0 0 1-.25-.25v-12.13a.25.25 0 0 1 .5 0v12.13a.25.25 0 0 1-.25.25Zm2.02 0a.25.25 0 0 1-.25-.25v-12.13a.25.25 0 0 1 .25-.25.25.25 0 0 1 .25.25v12.13a.25.25 0 0 1-.25.25Zm2.08 0a.25.25 0 0 1-.25-.25v-12.13a.25.25 0 0 1 .25-.25.25.25 0 0 1 .25.25v12.13a.25.25 0 0 1-.25.25Zm2 0a.25.25 0 0 1-.25-.25v-12.13a.25.25 0 0 1 .5 0v12.13a.25.25 0 0 1-.25.25Zm2 0a.25.25 0 0 1-.25-.25v-12.13a.25.25 0 0 1 .5 0v12.13a.25.25 0 0 1-.25.25Zm2 0a.25.25 0 0 1-.25-.25v-12.13a.25.25 0 0 1 .5 0v12.13a.25.25 0 0 1-.25.25Zm2 0a.25.25 0 0 1-.25-.25v-12.13a.25.25 0 0 1 .5 0v12.13a.25.25 0 0 1-.25.25Z"/><path fill="#fff" d="M203.29 188.97h39.82v16.37h-39.82z"/><path fill="#263238" d="M243.11 205.84h-39.82a.5.5 0 0 1-.5-.5V189a.5.5 0 0 1 .5-.5h39.82a.5.5 0 0 1 .5.5v16.37a.5.5 0 0 1-.5.47Zm-39.32-1h38.82v-15.37h-38.82Z"/><path fill="#263238" d="M231.38 188.97h11.74v16.37h-11.74z"/><path fill="#263238" d="M243.11 205.84h-11.73a.5.5 0 0 1-.5-.5V189a.5.5 0 0 1 .5-.5h11.73a.5.5 0 0 1 .5.5v16.37a.5.5 0 0 1-.5.47Zm-11.23-1h10.73v-15.37h-10.73Z"/><path fill="#263238" d="M237.67 205.71a.5.5 0 0 1-.5-.5v-15.92a.5.5 0 0 1 .5-.5.5.5 0 0 1 .5.5v15.92a.51.51 0 0 1-.5.5Zm-32.22-2.02a.25.25 0 0 1-.25-.25v-12.13a.25.25 0 0 1 .5 0v12.13a.25.25 0 0 1-.25.25Zm2.02 0a.25.25 0 0 1-.25-.25v-12.13a.25.25 0 0 1 .5 0v12.13a.25.25 0 0 1-.25.25Zm2.02 0a.25.25 0 0 1-.25-.25v-12.13a.25.25 0 0 1 .25-.25.25.25 0 0 1 .25.25v12.13a.25.25 0 0 1-.25.25Zm2.03 0a.25.25 0 0 1-.25-.25v-12.13a.25.25 0 0 1 .25-.25.25.25 0 0 1 .25.25v12.13a.25.25 0 0 1-.25.25Zm2.02 0a.25.25 0 0 1-.25-.25v-12.13a.25.25 0 0 1 .5 0v12.13a.25.25 0 0 1-.25.25Zm2.02 0a.25.25 0 0 1-.25-.25v-12.13a.25.25 0 0 1 .5 0v12.13a.25.25 0 0 1-.25.25Zm2.02 0a.25.25 0 0 1-.25-.25v-12.13a.25.25 0 0 1 .5 0v12.13a.25.25 0 0 1-.25.25Zm2.02 0a.25.25 0 0 1-.25-.25v-12.13a.25.25 0 0 1 .5 0v12.13a.25.25 0 0 1-.25.25Zm2.02 0a.25.25 0 0 1-.25-.25v-12.13a.25.25 0 0 1 .5 0v12.13a.25.25 0 0 1-.25.25Zm2.02 0a.25.25 0 0 1-.25-.25v-12.13a.25.25 0 0 1 .25-.25.25.25 0 0 1 .25.25v12.13a.25.25 0 0 1-.25.25Zm2.03 0a.25.25 0 0 1-.25-.25v-12.13a.25.25 0 0 1 .25-.25.25.25 0 0 1 .25.25v12.13a.25.25 0 0 1-.25.25Zm2.02 0a.25.25 0 0 1-.25-.25v-12.13a.25.25 0 0 1 .25-.25.25.25 0 0 1 .25.25v12.13a.25.25 0 0 1-.25.25Z"/><path fill="#fff" d="M234.47 188.97h39.82v16.37h-39.82z"/><path fill="#263238" d="M274.29 205.84h-39.82a.5.5 0 0 1-.5-.5V189a.5.5 0 0 1 .5-.5h39.82a.5.5 0 0 1 .5.5v16.37a.5.5 0 0 1-.5.47Zm-39.32-1h38.82v-15.37H235Z"/><path fill="#263238" d="M262.56 188.97h11.74v16.37h-11.74z"/><path fill="#263238" d="M274.29 205.84h-11.73a.5.5 0 0 1-.5-.5V189a.5.5 0 0 1 .5-.5h11.73a.5.5 0 0 1 .5.5v16.37a.5.5 0 0 1-.5.47Zm-11.23-1h10.73v-15.37h-10.73Z"/><path fill="#263238" d="M268.85 205.71a.5.5 0 0 1-.5-.5v-15.92a.5.5 0 0 1 .5-.5.5.5 0 0 1 .5.5v15.92a.51.51 0 0 1-.5.5Zm-32.22-2.02a.25.25 0 0 1-.25-.25v-12.13a.25.25 0 0 1 .5 0v12.13a.25.25 0 0 1-.25.25Zm2.02 0a.25.25 0 0 1-.25-.25v-12.13a.25.25 0 0 1 .25-.25.25.25 0 0 1 .25.25v12.13a.25.25 0 0 1-.25.25Zm2.02 0a.25.25 0 0 1-.25-.25v-12.13a.25.25 0 0 1 .25-.25.25.25 0 0 1 .25.25v12.13a.25.25 0 0 1-.25.25Zm2.03 0a.25.25 0 0 1-.25-.25v-12.13a.25.25 0 0 1 .25-.25.25.25 0 0 1 .25.25v12.13a.25.25 0 0 1-.25.25Zm2.02 0a.25.25 0 0 1-.25-.25v-12.13a.25.25 0 0 1 .5 0v12.13a.25.25 0 0 1-.25.25Zm2.02 0a.25.25 0 0 1-.25-.25v-12.13a.25.25 0 0 1 .5 0v12.13a.25.25 0 0 1-.25.25Zm2.02 0a.25.25 0 0 1-.25-.25v-12.13a.25.25 0 0 1 .5 0v12.13a.25.25 0 0 1-.25.25Zm2.02 0a.25.25 0 0 1-.25-.25v-12.13a.25.25 0 0 1 .5 0v12.13a.25.25 0 0 1-.25.25Zm2.02 0a.25.25 0 0 1-.25-.25v-12.13a.25.25 0 0 1 .25-.25.25.25 0 0 1 .25.25v12.13a.25.25 0 0 1-.25.25Zm2.02 0a.25.25 0 0 1-.25-.25v-12.13a.25.25 0 0 1 .25-.25.25.25 0 0 1 .25.25v12.13a.25.25 0 0 1-.25.25Zm2.03 0a.25.25 0 0 1-.25-.25v-12.13a.25.25 0 0 1 .25-.25.25.25 0 0 1 .25.25v12.13a.25.25 0 0 1-.25.25Zm2.02 0a.25.25 0 0 1-.25-.25v-12.13a.25.25 0 0 1 .25-.25.25.25 0 0 1 .25.25v12.13a.25.25 0 0 1-.25.25Z"/><path fill="#fff" d="M264.8 188.97h39.82v16.37H264.8z"/><path fill="#263238" d="M304.62 205.84H264.8a.5.5 0 0 1-.5-.5V189a.5.5 0 0 1 .5-.5h39.82a.5.5 0 0 1 .5.5v16.37a.5.5 0 0 1-.5.47Zm-39.32-1h38.82v-15.37H265.3Z"/><path fill="#fff" d="M292.88 188.97h11.74v16.37h-11.74z"/><path fill="#263238" d="M304.62 205.84h-11.74a.5.5 0 0 1-.5-.5V189a.5.5 0 0 1 .5-.5h11.74a.5.5 0 0 1 .5.5v16.37a.5.5 0 0 1-.5.47Zm-11.24-1h10.74v-15.37h-10.74Z"/><path fill="#263238" d="M299.17 205.71a.51.51 0 0 1-.5-.5v-15.92a.5.5 0 0 1 .5-.5.5.5 0 0 1 .5.5v15.92a.5.5 0 0 1-.5.5ZM267 203.69a.25.25 0 0 1-.25-.25v-12.13a.25.25 0 0 1 .25-.25.25.25 0 0 1 .25.25v12.13a.25.25 0 0 1-.25.25Zm2 0a.25.25 0 0 1-.25-.25v-12.13a.25.25 0 0 1 .5 0v12.13a.25.25 0 0 1-.25.25Zm2 0a.25.25 0 0 1-.25-.25v-12.13a.25.25 0 0 1 .5 0v12.13a.25.25 0 0 1-.25.25Zm2 0a.25.25 0 0 1-.25-.25v-12.13a.25.25 0 0 1 .5 0v12.13a.25.25 0 0 1-.25.25Zm2 0a.25.25 0 0 1-.25-.25v-12.13a.25.25 0 0 1 .5 0v12.13a.25.25 0 0 1-.25.25Zm2.06 0a.25.25 0 0 1-.25-.25v-12.13a.25.25 0 0 1 .5 0v12.13a.25.25 0 0 1-.25.25Zm2.02 0a.25.25 0 0 1-.25-.25v-12.13a.25.25 0 0 1 .25-.25.25.25 0 0 1 .25.25v12.13a.25.25 0 0 1-.25.25Zm2.03 0a.25.25 0 0 1-.25-.25v-12.13a.25.25 0 0 1 .25-.25.25.25 0 0 1 .25.25v12.13a.25.25 0 0 1-.25.25Zm2.02 0a.25.25 0 0 1-.25-.25v-12.13a.25.25 0 0 1 .25-.25.25.25 0 0 1 .25.25v12.13a.25.25 0 0 1-.25.25Zm2.02 0a.25.25 0 0 1-.25-.25v-12.13a.25.25 0 0 1 .5 0v12.13a.25.25 0 0 1-.25.25Zm2.02 0a.25.25 0 0 1-.25-.25v-12.13a.25.25 0 0 1 .5 0v12.13a.25.25 0 0 1-.25.25Zm2.02 0a.25.25 0 0 1-.25-.25v-12.13a.25.25 0 0 1 .5 0v12.13a.25.25 0 0 1-.25.25Z"/><path fill="#cd5c5c" d="M332 177.94s-8.63 18.13-13.81 29.78-4.75 21.15-4.75 21.15H180.49s-14.68-18.13-16.4-29.35h42.73l4.31 4.32h50.93l12.52-14.68s23.3-10.79 57.42-11.22Z"/><path fill="#263238" d="M313.42 229.37H180.49a.52.52 0 0 1-.39-.18c-.6-.75-14.78-18.37-16.51-29.59a.48.48 0 0 1 .12-.4.49.49 0 0 1 .38-.18h42.73a.47.47 0 0 1 .35.15l4.17 4.17h50.49l12.37-14.5a.37.37 0 0 1 .17-.13c.23-.11 23.79-10.84 57.6-11.27a.52.52 0 0 1 .43.23.53.53 0 0 1 0 .49c-.09.18-8.69 18.25-13.81 29.77a51.56 51.56 0 0 0-4.7 20.92.48.48 0 0 1-.14.37.51.51 0 0 1-.33.15Zm-132.69-1h132.18a54.25 54.25 0 0 1 4.8-20.85c4.54-10.21 11.81-25.56 13.47-29.07-32.05.57-54.62 10.38-56.3 11.12l-12.44 14.59a.49.49 0 0 1-.38.18h-50.93a.47.47 0 0 1-.35-.15l-4.17-4.19h-41.93c1.97 10.41 14.53 26.46 16.05 28.37Z"/><path fill="#263238" d="M341.47 188.3s-4.31-7.77-9.49-10.36l-13.81 29.78s-5.18 12.95-4.75 21.15c0 0 4.78-14.73 11.65-20.72 7.43-6.46 15.93-15.1 16.4-19.85Z"/><path fill="#263238" d="M313.42 229.37h-.06a.51.51 0 0 1-.44-.47c-.43-8.22 4.57-20.83 4.78-21.36l13.83-29.81a.48.48 0 0 1 .28-.26.53.53 0 0 1 .39 0c5.26 2.63 9.53 10.24 9.71 10.57a.49.49 0 0 1 .06.29c-.51 5.65-11.76 16-16.57 20.18-6.69 5.82-11.46 20.35-11.5 20.49a.5.5 0 0 1-.48.37Zm18.79-50.74-13.59 29.3c0 .09-4 10-4.63 17.88 1.77-4.64 5.66-13.6 10.76-18 9.69-8.44 15.73-15.65 16.21-19.37-.58-1.04-4.33-7.31-8.75-9.81Zm-69.96 24.99-.19.22h-14.53v4.35h14.72v-4.57z"/><path fill="#263238" d="M262.25 208.69h-14.72a.5.5 0 0 1-.5-.5v-4.35a.5.5 0 0 1 .5-.5l14.34-.05a.5.5 0 0 1 .88.33v4.57a.5.5 0 0 1-.5.5Zm-14.22-1h13.72v-3.35H248Zm-22.31-3.85h-14.59l-.13-.13v4.48h14.72v-4.35z"/><path fill="#263238" d="M225.72 208.69H211a.5.5 0 0 1-.5-.5v-4.48a.5.5 0 0 1 .31-.46.51.51 0 0 1 .53.09h14.38a.5.5 0 0 1 .5.5v4.35a.5.5 0 0 1-.5.5Zm-14.22-1h13.72v-3.35H211.5Zm17.77-3.85h14.72v4.35h-14.72z"/><path fill="#263238" d="M244 208.69h-14.73a.5.5 0 0 1-.5-.5v-4.35a.5.5 0 0 1 .5-.5H244a.5.5 0 0 1 .5.5v4.35a.5.5 0 0 1-.5.5Zm-14.22-1h13.72v-3.35h-13.73Zm-55.52 12.69c3.35 4.94 6.23 8.49 6.23 8.49h132.93a41.16 41.16 0 0 1 .81-8.49Z"/><path fill="#263238" d="M313.42 229.37H180.49a.52.52 0 0 1-.39-.18s-2.93-3.63-6.26-8.53a.52.52 0 0 1 0-.51.52.52 0 0 1 .45-.27h140a.53.53 0 0 1 .38.18.52.52 0 0 1 .11.41 41 41 0 0 0-.8 8.38.48.48 0 0 1-.14.37.51.51 0 0 1-.42.15Zm-132.69-1h132.18a44.58 44.58 0 0 1 .72-7.49H175.21c2.65 3.85 4.93 6.75 5.52 7.49Z"/><path fill="#fff" d="M174.98 137.04h68.81v1.75h-68.81z"/><path fill="#263238" d="M243.79 139.29H175a.5.5 0 0 1-.5-.5V137a.5.5 0 0 1 .5-.5h68.81a.5.5 0 0 1 .5.5v1.75a.5.5 0 0 1-.52.54Zm-68.31-1h67.81v-.75h-67.81Z"/><path fill="#263238" d="M178.77 142.78a.5.5 0 0 1-.5-.5v-3.49a.5.5 0 0 1 1 0v3.49a.5.5 0 0 1-.5.5Zm5.54 0a.5.5 0 0 1-.5-.5v-3.49a.5.5 0 0 1 1 0v3.49a.5.5 0 0 1-.5.5Zm5.54 0a.5.5 0 0 1-.5-.5v-3.49a.5.5 0 0 1 1 0v3.49a.5.5 0 0 1-.5.5Zm5.54 0a.5.5 0 0 1-.5-.5v-3.49a.5.5 0 1 1 1 0v3.49a.5.5 0 0 1-.5.5Zm5.54 0a.5.5 0 0 1-.5-.5v-3.49a.5.5 0 0 1 1 0v3.49a.5.5 0 0 1-.5.5Zm5.54 0a.5.5 0 0 1-.5-.5v-3.49a.5.5 0 0 1 1 0v3.49a.5.5 0 0 1-.5.5Zm5.53 0a.5.5 0 0 1-.5-.5v-3.49a.5.5 0 1 1 1 0v3.49a.5.5 0 0 1-.5.5Zm5.55 0a.5.5 0 0 1-.5-.5v-3.49a.5.5 0 0 1 1 0v3.49a.5.5 0 0 1-.5.5Zm5.54 0a.5.5 0 0 1-.5-.5v-3.49a.5.5 0 0 1 1 0v3.49a.5.5 0 0 1-.5.5Zm5.83 0a.5.5 0 0 1-.5-.5v-3.49a.5.5 0 0 1 .5-.5.5.5 0 0 1 .5.5v3.49a.5.5 0 0 1-.5.5Zm5.83 0a.5.5 0 0 1-.5-.5v-3.49a.5.5 0 0 1 .5-.5.5.5 0 0 1 .5.5v3.49a.5.5 0 0 1-.5.5Zm5.83 0a.5.5 0 0 1-.5-.5v-3.49a.5.5 0 0 1 .5-.5.5.5 0 0 1 .5.5v3.49a.5.5 0 0 1-.5.5Z"/><path fill="#fff" d="M180.23 127.41h37.32v3.79h-37.32z"/><path fill="#263238" d="M217.55 131.71h-37.32a.5.5 0 0 1-.5-.5v-3.8a.5.5 0 0 1 .5-.5h37.32a.5.5 0 0 1 .5.5v3.8a.5.5 0 0 1-.5.5Zm-36.82-1h36.32v-2.8h-36.32Z"/><path fill="#263238" d="M191.6 127.41h25.95v3.79H191.6z"/><path fill="#263238" d="M217.55 131.71h-26a.5.5 0 0 1-.5-.5v-3.8a.5.5 0 0 1 .5-.5h26a.5.5 0 0 1 .5.5v3.8a.5.5 0 0 1-.5.5Zm-25.45-1h25v-2.8h-25Z"/><path fill="#fff" d="M304.09 324.12s-20.38-7-33.37-15.1-21.78-11.24-26.35-10.54-14.76.7-22.13 2.11-12 2.81-13.35 6.32 4.57 13.35 11.94 15.46S243 334.31 243 334.31s-64.28 61.48-61.82 67.8 30.56 32 34.42 32.32 61.83-17.57 65.34-18.27A69.06 69.06 0 0 0 303 407a75.25 75.25 0 0 0 12.65-10.19l29.16-12.65-33-63.58Z"/><path fill="#263238" d="M215.66 434.93h-.14c-4.51-.4-32.52-26.63-34.85-32.63-2.46-6.32 53.07-59.83 61.5-67.91-2.69-1.75-15-9.69-21.47-11.53-5-1.43-9.26-6.19-11.26-10.27-1.19-2.43-1.55-4.51-1-5.86 1.47-3.65 6-5.14 13.72-6.63a124.77 124.77 0 0 1 14.57-1.47c3.1-.19 5.78-.36 7.58-.64 5.05-.78 14.28 2.9 26.69 10.61 12.14 7.55 31 14.26 33.08 15l7.55-3.43a.51.51 0 0 1 .65.23l33 63.58a.47.47 0 0 1 0 .4.51.51 0 0 1-.27.29L316 397.26a78.55 78.55 0 0 1-12.66 10.18 69.82 69.82 0 0 1-22.34 9.21c-1.11.22-8 2.27-16.72 4.86-23.85 7.07-45.5 13.42-48.62 13.42Zm30.05-136a8.3 8.3 0 0 0-1.26.09c-1.85.29-4.55.45-7.67.65a121.65 121.65 0 0 0-14.45 1.46c-7.42 1.41-11.69 2.79-13 6-.42 1.05 0 2.94 1 5.05 1.9 3.88 5.93 8.4 10.63 9.75 7.37 2.1 21.67 11.6 22.27 12a.49.49 0 0 1 .22.38.46.46 0 0 1-.15.4c-25.74 24.62-63.42 62.85-61.71 67.26 2.47 6.33 30.42 31.67 34 32 2.48.22 31.23-8.29 48.38-13.38 9.09-2.7 15.66-4.65 16.82-4.88a69.24 69.24 0 0 0 21.95-9.06 76.63 76.63 0 0 0 12.55-10.11.66.66 0 0 1 .17-.12L344.15 384l-32.56-62.69-7.3 3.32a.47.47 0 0 1-.37 0c-.2-.07-20.57-7.13-33.47-15.15-11.04-6.9-19.72-10.6-24.74-10.6Z"/><path fill="#263238" d="M274.51 383.22s14.82 13.22 16.43 18.84a20.59 20.59 0 0 1-.4 11.22l-9.64 2.88Z"/><path fill="#263238" d="M280.9 416.66a.48.48 0 0 1-.26-.07.55.55 0 0 1-.23-.33L274 383.31a.5.5 0 0 1 .83-.46c.61.54 15 13.38 16.58 19.07a20.9 20.9 0 0 1-.41 11.53.53.53 0 0 1-.33.31l-9.63 2.88Zm-5.62-32.06 6 30.92 8.85-2.65a20.08 20.08 0 0 0 .32-10.68c-1.28-4.52-11.71-14.4-15.17-17.59Zm15.26 28.68Zm30.06-70.94 13.62 45.69 10.62-3.84-24.24-41.85z"/><path fill="#263238" d="M334.22 388.53a.46.46 0 0 1-.22-.06.51.51 0 0 1-.26-.3l-13.62-45.69a.5.5 0 0 1 .91-.39l24.24 41.85a.52.52 0 0 1 0 .42.5.5 0 0 1-.3.3l-10.62 3.84a.47.47 0 0 1-.13.03Zm-11.93-42.28 12.26 41.13 9.56-3.45Z"/><path fill="#fff" d="M220.83 322.37s26 4.56 30.92 6.67 31.61 30.56 41.1 39.34 14.4 22.49 14.75 31.27-3.16 20.37-7.73 22.13-7.73-.7-9.13-4.21-2.11-10.19-2.11-10.19L283 395.79a51.52 51.52 0 0 1-.7 13.7c-1.41 6.67-3.87 20.72-9.49 24.23s-12.29 1.41-13-.35a40.35 40.35 0 0 1-1.41-4.91s-1.76 6.32-7 8.07-12.64-.35-12.64-.35-6 7-10.89 5.62-9.84-6.67-9.84-6.67-16.51-10.19-31.61-20.73-42.16-43.56-42.16-43.56l-13-8.08 39.7-55.5 16.86 10.54Z"/><path fill="#263238" d="M229.22 442.49a5.53 5.53 0 0 1-1.5-.2c-4.79-1.37-9.47-6.19-10-6.77-1.07-.67-17.07-10.59-31.58-20.71-14.67-10.23-40.85-41.94-42.2-43.59l-12.93-8a.49.49 0 0 1-.23-.33.54.54 0 0 1 .09-.39l39.67-55.5a.49.49 0 0 1 .67-.13L188 317.32l32.91 4.55c1.06.19 26.11 4.6 31 6.71 3.31 1.42 15.85 14.07 26.9 25.23 5.7 5.75 11.08 11.19 14.35 14.21 9.3 8.61 14.54 22.42 14.91 31.61.35 8.71-3.16 20.74-8.05 22.62-5.1 2-8.39-1-9.77-4.5s-2-9.4-2.14-10.23l-4.49-9.26a49.63 49.63 0 0 1-.85 11.33l-.36 1.72c-1.49 7.29-4 19.49-9.35 22.84a13.33 13.33 0 0 1-10.88 1.39 4.53 4.53 0 0 1-2.85-2 29.72 29.72 0 0 1-1-3.39c-.9 2.06-2.94 5.56-6.77 6.84-4.8 1.6-11.15.12-12.63-.26-1.03 1.15-5.43 5.76-9.71 5.76ZM132 362.62l12.55 7.8a.6.6 0 0 1 .12.11c.27.33 27.18 33.09 42.05 43.46s31.43 20.61 31.6 20.71l.1.09c.05 0 4.88 5.18 9.61 6.53 4.55 1.3 10.31-5.39 10.37-5.46a.51.51 0 0 1 .52-.16c.07 0 7.29 2.05 12.35.36s6.68-7.68 6.7-7.74a.49.49 0 0 1 .48-.36.49.49 0 0 1 .48.39 42.11 42.11 0 0 0 1.38 4.84 3.79 3.79 0 0 0 2.23 1.4 12.3 12.3 0 0 0 10-1.29c5-3.12 7.44-15.06 8.9-22.19l.36-1.73a51.11 51.11 0 0 0 .69-13.55.5.5 0 0 1 .95-.26l5.62 11.59a.48.48 0 0 1 .05.17c0 .06.71 6.64 2.07 10.05.59 1.46 2.93 6.07 8.49 3.93 4-1.55 7.78-12.47 7.41-21.64-.36-9-5.49-22.49-14.59-30.92-3.28-3-8.67-8.47-14.38-14.23-10.44-10.55-23.45-23.68-26.58-25-4.78-2.05-30.2-6.53-30.8-6.64l-33-4.57a.44.44 0 0 1-.19-.07l-16.47-10.29Z"/><path fill="#263238" d="m175.91 322.7-27.29 52.51-4.37-4.37 31.66-48.14z"/><path fill="#263238" d="M148.62 375.71a.5.5 0 0 1-.35-.14l-4.37-4.37a.5.5 0 0 1-.07-.63l31.66-48.15a.5.5 0 0 1 .67-.15.49.49 0 0 1 .19.66l-27.29 52.51a.5.5 0 0 1-.36.27Zm-3.73-4.93 3.6 3.6L171 331.12Z"/><path fill="#fff" d="M228.56 300.23s-14.77-.38-18.27 1.06c-6 2.46-6.32 10.54-6.32 11.94s-4.21 12.65-4.92 16.86 4.22 6.33 15.46 2.46 14.4-8.78 14.4-19.32"/><path fill="#263238" d="M204.64 335.08a7.47 7.47 0 0 1-4.86-1.35 3.8 3.8 0 0 1-1.22-3.72 98 98 0 0 1 3.06-10.55 54.78 54.78 0 0 0 1.85-6.23c0-1 .19-9.75 6.63-12.4 3.56-1.47 17.87-1.11 18.47-1.1a.5.5 0 0 1 .49.52.51.51 0 0 1-.51.48c-.15 0-14.7-.36-18.07 1-5.84 2.41-6 10.56-6 11.48 0 .68-.68 2.82-1.9 6.54a97.13 97.13 0 0 0-3 10.41 2.82 2.82 0 0 0 .88 2.79c2.08 1.76 7.15 1.43 13.92-.89 10.64-3.66 14.06-8.24 14.06-18.85a.51.51 0 0 1 .5-.5.5.5 0 0 1 .5.5c0 11.15-3.58 16-14.74 19.8a32.24 32.24 0 0 1-10.06 2.07Z"/><path fill="#263238" d="M200.11 328.13a.48.48 0 0 1-.26-.07.49.49 0 0 1-.21-.61l4.22-10.89a.41.41 0 0 1 .17-.22 10.67 10.67 0 0 1 5.56-1.85 4 4 0 0 1 3.1 1.23c1.05 1.15 1.48 3 1.26 5.63a4.6 4.6 0 0 1-1.76 3.31c-1.95 1.59-5.3 2-7.58 1.72a4.85 4.85 0 0 0-4.12 1.58.52.52 0 0 1-.38.17Zm4.62-11.06-3.49 9a5.56 5.56 0 0 1 3.5-.72c2.07.26 5.1-.1 6.82-1.5a3.65 3.65 0 0 0 1.4-2.61c.19-2.3-.15-3.94-1-4.87a3 3 0 0 0-2.36-.91 9.79 9.79 0 0 0-4.87 1.61ZM283 396.29a.5.5 0 0 1-.48-.37s-1.32-4.34-12.19-17a37.28 37.28 0 0 1-4.88-8c-.52-1.06-1-2.06-1.5-2.9a.5.5 0 0 1 .19-.68.5.5 0 0 1 .68.18c.5.87 1 1.88 1.53 3a36.54 36.54 0 0 0 4.74 7.79c11.1 12.95 12.35 17.23 12.39 17.4a.49.49 0 0 1-.35.62Zm-19.79-30.11a.51.51 0 0 1-.44-.25l-1.27-2.22a.33.33 0 0 1-.06-.19l-.71-7a.52.52 0 0 1 .45-.55.51.51 0 0 1 .55.45l.69 6.92 1.22 2.12a.51.51 0 0 1-.18.69.57.57 0 0 1-.25.03ZM258.42 429a.5.5 0 0 1-.39-.82c1.22-1.52 2.71-9.71.68-12.76s-15.95-30.16-16.54-31.31a.51.51 0 0 1-.06-.21l-.35-8.43a.5.5 0 0 1 .48-.52.51.51 0 0 1 .52.48l.35 8.32c.93 1.83 14.42 28.11 16.43 31.12 2.21 3.31.86 12-.73 13.94a.51.51 0 0 1-.39.19Zm-19.67 7.68a.5.5 0 0 1-.5-.47c0-.11-.76-11.16-6.22-18a82.15 82.15 0 0 1-5.86-8.73.49.49 0 0 1 .17-.69.5.5 0 0 1 .68.17 80.34 80.34 0 0 0 5.8 8.62c5.65 7.07 6.4 18.09 6.43 18.55a.5.5 0 0 1-.47.53Zm-14.03-30.16a.5.5 0 0 1-.44-.25c-2.8-4.92-4.93-9.17-4.95-9.21a.54.54 0 0 1-.05-.22v-4.57a.5.5 0 0 1 1 0v4.45c.34.68 2.32 4.59 4.87 9a.51.51 0 0 1-.19.69.5.5 0 0 1-.24.11Z"/><path fill="#fff" d="M163 396.4s-8.45-2.4-10.82-5.4-3.39-12.71-3.56-15.76-2-6.1 1.69-7.45 8.65 2.71 10.51 6.78 2 9.65 2 10.5 2.88 5.42 2.88 5.42 2.74 5.23-2.7 5.91Z"/><path fill="#263238" d="M163 396.9h-.13c-.35-.1-8.66-2.46-11.11-5.6-2.9-3.73-3.65-15.92-3.66-16a17.08 17.08 0 0 0-.31-2.13c-.42-2.18-.89-4.65 2.33-5.82 3.88-1.41 9.08 2.55 11.13 7s2.1 10.65 2.1 10.65a29.31 29.31 0 0 0 2.81 5.16c.07.15 1.39 2.75.35 4.72a4.12 4.12 0 0 1-3.43 2ZM151.85 368a4 4 0 0 0-1.37.23c-2.3.84-2.15 2.26-1.69 4.69a16.54 16.54 0 0 1 .33 2.27c.21 3.88 1.34 12.76 3.45 15.48s9.55 4.94 10.49 5.22a3.18 3.18 0 0 0 2.57-1.43c.8-1.52-.33-3.74-.34-3.77-.87-1.37-2.94-4.75-2.94-5.65 0-.06 0-6-2-10.3-1.58-3.48-5.35-6.74-8.5-6.74Z"/><path fill="#fff" d="M149.6 381.67s3 3 5.19 2.85.67-7.55.67-7.55a10.18 10.18 0 0 1-4.19-2.17 36.07 36.07 0 0 1-2.84-2.85Z"/><path fill="#263238" d="M154.62 385c-2.35 0-5.25-2.87-5.38-3a.61.61 0 0 1-.14-.29l-1.17-9.71a.5.5 0 0 1 .29-.52.49.49 0 0 1 .58.13 38.26 38.26 0 0 0 2.81 2.8 9.53 9.53 0 0 0 4 2.06.52.52 0 0 1 .38.39c.13.6 1.16 5.9-.1 7.57a1.39 1.39 0 0 1-1 .57Zm-4.55-3.59c.9.86 3.17 2.68 4.68 2.59a.43.43 0 0 0 .31-.19c.71-.94.38-4.33 0-6.45a10.63 10.63 0 0 1-4.09-2.21c-.76-.69-1.37-1.29-1.84-1.76Z"/><path fill="#fff" d="M178.78 413s-9 1.86-11.18-1.19-6.61-15.25-6.44-19.48 11.35-14.57 16.94-18.81 9.15-5.59 12.54-3.56 6.1 4.58 5.09 8.13-9.15 18.81-10.51 21.52-2.71 12.2-2.71 12.2Z"/><path fill="#263238" d="M173.31 414.06c-2.44 0-5-.41-6.12-1.95-2.23-3.1-6.71-15.32-6.53-19.8s11.44-14.87 17.14-19.19c5.21-3.94 9.21-5.92 13.1-3.59 2.85 1.72 6.51 4.48 5.31 8.7-.83 2.89-6.15 13.14-9 18.65-.71 1.36-1.26 2.41-1.53 3-1.31 2.61-2.65 12-2.67 12a.48.48 0 0 1-.34.41l-3.73 1.19h-.05a30.82 30.82 0 0 1-5.58.58Zm14.12-44.52c-2.31 0-5.08 1.39-9 4.38-5.76 4.36-16.59 14.54-16.74 18.43-.17 4.23 4.23 16.24 6.34 19.17 1.65 2.28 8.22 1.5 10.65 1l3.41-1.09c.25-1.69 1.46-9.54 2.71-12l1.54-3c2.84-5.47 8.14-15.66 8.93-18.45s-.71-5.08-4.86-7.57a5.58 5.58 0 0 0-2.98-.87ZM178.78 413Z"/><path fill="#fff" d="M175.39 376.4s-3.73 3.56-1.86 6.27 6.61 5.25 8.64 4.57 8.64-7.62 9.83-9.82-6.1-7.46-6.1-7.46a25.33 25.33 0 0 0-10.51 6.44Z"/><path fill="#263238" d="M181.41 387.85c-2.58 0-6.67-2.54-8.29-4.9-2.06-3 1.67-6.66 1.92-6.9a25.35 25.35 0 0 1 10.73-6.57.49.49 0 0 1 .42.08c1.28.92 7.57 5.63 6.25 8.09s-7.9 9.33-10.11 10.07a3 3 0 0 1-.92.13Zm4.39-17.34a25.28 25.28 0 0 0-10.05 6.24s-3.4 3.3-1.8 5.63c1.87 2.72 6.42 4.94 8.07 4.38s8.36-7.38 9.55-9.59c.64-1.17-2.99-4.62-5.77-6.66Zm-10.41 5.89Z"/><path fill="#fff" d="M193.46 426s-9.81 2-12.22-1.29-7.21-16.66-7-21.29 12.4-15.92 18.51-20.54 10-6.11 13.7-3.89 6.66 5 5.55 8.88-10 20.55-11.47 23.51-3 13.33-3 13.33Z"/><path fill="#263238" d="M187.48 427.16c-2.66 0-5.44-.45-6.64-2.12-2.38-3.29-7.32-16.83-7.13-21.6s12.48-16.21 18.71-20.92c5.67-4.3 10-6.45 14.26-3.92 3.1 1.86 7.08 4.87 5.77 9.45-.9 3.15-6.72 14.35-9.84 20.37-.77 1.48-1.37 2.63-1.67 3.22-1.42 2.86-2.9 13.08-2.91 13.18a.51.51 0 0 1-.34.41l-4.08 1.29h-.05a32.74 32.74 0 0 1-6.08.64Zm15.43-48.64c-2.53 0-5.57 1.52-9.89 4.79-6.3 4.78-18.14 15.91-18.31 20.17-.18 4.63 4.63 17.77 6.94 21 1.81 2.5 9 1.65 11.69 1.1l3.74-1.19c.27-1.79 1.6-10.43 3-13.17.3-.6.89-1.75 1.67-3.24 3.11-6 8.9-17.13 9.77-20.18s-.78-5.59-5.33-8.32a6.16 6.16 0 0 0-3.28-.96ZM193.46 426Z"/><path fill="#fff" d="M189.76 386.06s-4.07 3.89-2 6.85 7.22 5.74 9.44 5 9.44-8.33 10.74-10.74-6.66-8.14-6.66-8.14a27.49 27.49 0 0 0-11.52 7.03Z"/><path fill="#263238" d="M196.32 398.53c-2.8 0-7.24-2.77-9-5.34-2.22-3.23 1.83-7.23 2.1-7.48a27.91 27.91 0 0 1 11.7-7.17.52.52 0 0 1 .42.08c1.39 1 8.24 6.13 6.81 8.79-1.35 2.51-8.61 10.17-11 11a3.13 3.13 0 0 1-1.03.12Zm4.82-18.95a27.46 27.46 0 0 0-11 6.83s-3.74 3.63-2 6.21c1.9 2.77 6.88 5.47 8.87 4.8s9.11-8 10.45-10.49c.73-1.36-3.19-5.06-6.32-7.35Zm-11.38 6.48Z"/><path fill="#fff" d="M212.54 431.94s-2.59-7.76-2.59-8.46 4.71-12 4.24-16.93-4.47-10.58-7.06-9.17-7.29 5.41-11.52 11.76-5.64 11.28-4.23 13.63 9.88 11.29 13.4 12.7 10.78-1 10.78-1Z"/><path fill="#263238" d="M207.59 436.4a8.2 8.2 0 0 1-3-.47C201 434.48 192.38 425.42 191 423c-1.56-2.61 0-7.78 4.25-14.17 4-6 8.76-10.32 11.69-11.92a2.62 2.62 0 0 1 2.56.12c2.48 1.31 4.87 5.64 5.23 9.44s-2.16 11-3.52 14.88c-.35 1-.68 1.94-.71 2.13 0 .45 1.31 4.51 2.52 8.14l2.91 2.39a.52.52 0 0 1 .18.48.5.5 0 0 1-.34.38 29.92 29.92 0 0 1-8.18 1.53Zm.41-38.74a1.23 1.23 0 0 0-.63.16c-2.83 1.54-7.43 5.72-11.34 11.59s-5.56 10.87-4.22 13.11S201.56 433.64 205 435c2.61 1.05 7.56-.19 9.56-.78l-2.31-1.89a.51.51 0 0 1-.15-.23c-.62-1.84-2.62-7.89-2.62-8.62a12.52 12.52 0 0 1 .76-2.43c1.24-3.53 3.82-10.86 3.48-14.45s-2.53-7.5-4.71-8.66a2.19 2.19 0 0 0-1.01-.28Z"/><path fill="#fff" d="M196.08 411.25s3.06 1.88 5.18 1.88 7.52-4.93 7.28-9.87-3.29-3.76-3.29-3.76-8.25 6.11-9.17 11.75Z"/><path fill="#263238" d="M201.25 413.63c-2.23 0-5.3-1.87-5.43-1.95a.52.52 0 0 1-.23-.51c1-5.77 9-11.82 9.36-12.07l.12-.07a2.79 2.79 0 0 1 2.35.25c1 .65 1.53 2 1.62 4 .17 3.56-2.32 6.58-3.4 7.71-1.56 1.59-3.28 2.64-4.39 2.64Zm-4.61-2.63a11.68 11.68 0 0 0 4.61 1.63c.7 0 2.18-.81 3.66-2.37a10 10 0 0 0 3.13-7c-.07-1.61-.48-2.7-1.16-3.15a1.68 1.68 0 0 0-1.39-.18c-.74.58-7.74 6.07-8.85 11.07Z"/><path fill="#fff" d="m309.03 318.34 36.26 78.5 21.76-9.39-37.97-78.07-20.05 8.96z"/><path fill="#263238" d="M345.29 397.34a.49.49 0 0 1-.45-.29l-36.26-78.5a.46.46 0 0 1 0-.38.45.45 0 0 1 .26-.28l20.05-9a.48.48 0 0 1 .65.24l38 78.06a.49.49 0 0 1 0 .39.51.51 0 0 1-.27.29l-21.76 9.38a.46.46 0 0 1-.22.09Zm-35.59-78.75 35.84 77.59 20.83-9L328.85 310Z"/><path fill="#263238" d="m484.73 215.15-162.9 95.51 53.86 110.06 109.04-54.4V215.15z"/><path fill="#263238" d="M375.69 421.22h-.16a.53.53 0 0 1-.29-.26l-53.86-110.08a.5.5 0 0 1 .2-.65l162.9-95.52a.5.5 0 0 1 .75.44v151.17a.51.51 0 0 1-.27.44l-109 54.41a.42.42 0 0 1-.27.05Zm-53.2-110.36 53.43 109.19 108.31-54V216Z"/><path fill="#fff" d="m182.34 312.37-49.49 76.79-18.77-9.39 52.04-77.21 16.22 9.81z"/><path fill="#263238" d="M132.85 389.66a.43.43 0 0 1-.22-.06l-18.77-9.38a.5.5 0 0 1-.19-.73l52-77.21a.5.5 0 0 1 .67-.15l16.21 9.81a.51.51 0 0 1 .17.7l-49.49 76.79a.48.48 0 0 1-.38.23Zm-18-10.08 17.86 8.93 49-76-15.37-9.3Z"/><path fill="#cd5c5c" d="M18.36 204.53v163.39l80.51 49.9 74.93-114.83-155.44-98.46z"/><path fill="#263238" d="M98.87 418.32a.5.5 0 0 1-.26-.08l-80.51-49.9a.49.49 0 0 1-.24-.42V204.53a.51.51 0 0 1 .26-.44.52.52 0 0 1 .51 0l155.44 98.46a.52.52 0 0 1 .22.32.51.51 0 0 1-.07.38L99.29 418.09a.48.48 0 0 1-.42.23Zm-80-50.68 79.86 49.49 74.39-114-154.26-97.69Z"/></svg>