<svg xmlns="http://www.w3.org/2000/svg" viewBox="0 0 500 500"><path fill="#f5f5f5" d="M100.16 283c2.13-9.77-4.35-20.62-14-23.39S65.35 262.58 62 272c-9.25-6.21-23.75-1.6-27.72 8.81s3.8 23.5 14.83 25c-5.59 6.43-4.61 17.44 2 22.78s17.6 3.94 22.68-2.89c-4.14 8.58 3.42 19.73 12.9 20.68s18.47-6.55 21.15-15.69 0-19.19-5.11-27.23a11 11 0 0 0-3.65-21.12m366.13 154.17a38 38 0 0 0-33.55-18.92c7.71-20.23-.82-45.36-19.24-56.72s-44.71-7.68-59.32 8.29c-10.1-12.29-31.1-8.91-42.1 2.59s-14.57 28-17.7 43.58c-10.26-7.66-25.78-3.8-34.8 5.28s-13 21.9-16.16 34.31c-2.93-14.46-19.6-24.48-33.75-20.27 5.54-18.06-6.47-39.53-24.77-44.25-6.41-1.66-13.27-1.5-19.43-3.91-10.36-4.06-16.86-14.56-26.7-19.76-18-9.5-41.76 3.13-49.61 21.9-3.55 8.47-4.86 18.23-11 25.07-4.27 4.76-6.19.95-18.39 6.69-14.47 6.83-24.77 24.41-8.5 53.61h414.42c7.39-11.35 7.21-25.72.6-37.49Z"/><path fill="#e0e0e0" d="m351.64 91.59 6.8 2.67-6.59 2.75-2.52 7.37-2.91-7.16-7.27-2.38 7.06-3.04 2.82-7.21 2.61 7zm-25 202.87 6.8 2.67-6.59 2.75-2.52 7.37-2.9-7.16-7.27-2.38 7.06-3.04 2.82-7.2 2.6 6.99zm-215.17-84.44 8.17 3.21-7.92 3.3-3.02 8.85-3.49-8.6-8.73-2.85 8.48-3.66 3.38-8.64 3.13 8.39zM376.23 59.31l3.71 1.46-3.6 1.5-1.37 4.02-1.59-3.9-3.96-1.3 3.85-1.66 1.54-3.93 1.42 3.81zM77.71 170.98l3.71 1.46-3.59 1.5-1.38 4.02-1.58-3.91-3.97-1.3 3.85-1.66 1.54-3.92 1.42 3.81zm287.91 88.78 3.71 1.46-3.6 1.5-1.38 4.02-1.58-3.91-3.97-1.3 3.86-1.66 1.53-3.93 1.43 3.82zM167.21 67.33l3.71 1.45-3.59 1.5-1.38 4.03-1.58-3.91-3.97-1.3 3.85-1.66 1.54-3.93 1.42 3.82zm193.14 55.75 3.71 1.45-3.59 1.5-1.38 4.02-1.58-3.9-3.97-1.3 3.85-1.66 1.54-3.93 1.42 3.82zM48.27 244.72l3.46 1.36-3.36 1.4-1.28 3.75-1.48-3.64-3.7-1.22 3.59-1.55 1.44-3.67 1.33 3.57z"/><path fill="#ebebeb" d="M103.5 328a16.36 16.36 0 0 1-19.75-18.9c9.52 2.78 18.24 7.74 19.75 18.9"/><path fill="#e0e0e0" d="M108.06 330.11a11.48 11.48 0 0 1-2.77-1 33.35 33.35 0 0 1-6.16-3.51 34.25 34.25 0 0 1-5.28-4.73 11.31 11.31 0 0 1-1.78-2.33c.06-.05.79.8 2.05 2.07a41.43 41.43 0 0 0 11.32 8.17 25.7 25.7 0 0 1 2.62 1.33Z"/><path fill="#ebebeb" d="M379.42 209.8a16.34 16.34 0 0 1 18.32-20.27c-2.5 9.59-7.22 18.45-18.32 20.27"/><path fill="#e0e0e0" d="M377.39 214.43a11.44 11.44 0 0 1 .88-2.8 33.45 33.45 0 0 1 7.92-11.63 12.17 12.17 0 0 1 2.27-1.85 25.92 25.92 0 0 1-2 2.11 43.09 43.09 0 0 0-4.41 5.45 42.62 42.62 0 0 0-3.43 6.1 27.18 27.18 0 0 1-1.23 2.62Z"/><path fill="#ebebeb" d="M132.54 112.37a16.34 16.34 0 0 1-12.11-24.5c8 5.86 14.5 13.5 12.11 24.5"/><path fill="#e0e0e0" d="M136.09 116a11.64 11.64 0 0 1-2.28-1.84 33.75 33.75 0 0 1-7.93-11.66 12.61 12.61 0 0 1-.89-2.8 25.58 25.58 0 0 1 1.23 2.66 43.36 43.36 0 0 0 3.44 6.1 42.71 42.71 0 0 0 4.41 5.43 25.21 25.21 0 0 1 2.02 2.11Z"/><path fill="#f5f5f5" d="M346.17 337.83c-5.66-4.32 1.52-16.72 7.2-21s13.16-7 16.38-13.32 1-13.83 1.77-20.82c1.3-12 12.61-22.05 24.68-21.94-7.55-12.77-1-31.12 12.3-37.67s30.68-1.61 39.95 10 10.67 28.38 5.12 42.14c-5.82 14.4-21.21 26.19-36.3 22.51 2.09 14.08-9.15 28.75-23.3 30.39-9 1-17.83-2.51-26.86-3.05s-19.86 3.86-20.94 12.83m56.51-226.58c-11.54-5.63-17.73 2.66-19.26 7.5a12 12 0 0 0 4.86 13.31 10.86 10.86 0 0 0 11 18.75 15.32 15.32 0 0 0 29.31 6.21c.92-2.07 1.43-4.42 3-6.06 2.41-2.51 6.34-2.48 9.67-3.46a15.57 15.57 0 0 0 10.33-17.91c-1.78-7.39-9.89-12.63-17.36-11.23a16.39 16.39 0 0 0-21.87-17.8c-6.25 2.3-10.75 9-9.62 10.69m-309.9 23.04c8 4.63 12.82-1 14.17-4.36a8.58 8.58 0 0 0-2.78-9.78 7.8 7.8 0 0 0-6.86-14 11 11 0 0 0-20.65-6c-.77 1.43-1.25 3.08-2.46 4.17-1.85 1.67-4.66 1.45-7.1 2a10.76 10.76 0 0 0 3.51 21.21 11.76 11.76 0 0 0 14.72 13.9c4.59-1.31 8.16-5.87 7.45-7.14"/><path fill="#263238" d="M329 200.26a1.44 1.44 0 0 1 .05.26c0 .2.06.45.1.77s.09.75.13 1.25 0 1.07.07 1.71a38.94 38.94 0 0 1-1.46 10.83 62.47 62.47 0 0 1-6.5 14.85 197.73 197.73 0 0 1-11.29 16.33 124 124 0 0 0-10.78 16.58A53.19 53.19 0 0 0 294 278a35.6 35.6 0 0 0-.25 10.83c.11.63.2 1.19.28 1.69s.2.89.27 1.22l.16.75a.76.76 0 0 1 0 .27 1.12 1.12 0 0 1-.09-.25c-.05-.2-.12-.44-.21-.75s-.21-.73-.32-1.21-.2-1.06-.32-1.69a34.86 34.86 0 0 1 .08-10.92 52.78 52.78 0 0 1 5.19-15.35A122.32 122.32 0 0 1 309.65 246c4.17-5.67 8.2-11 11.29-16.27A62.47 62.47 0 0 0 327.5 215a40.31 40.31 0 0 0 1.61-10.73v-1.71c0-.5-.07-.92-.09-1.25s0-.57 0-.78a.86.86 0 0 1-.02-.27Z"/><path fill="#cd5c5c" d="M318.59 252.33c-.21-.22-.66-.16-1-.08a18.47 18.47 0 0 0-8.13 4.2 13 13 0 0 0-4.16 7l.55-.19a15.22 15.22 0 0 0 7.44-3.84 36.4 36.4 0 0 0 5.1-6.08c.19-.34.43-.76.2-1.01Zm-11.72-23.17c-.3 0-.56.38-.76.71a18.41 18.41 0 0 0-2.44 8.82 12.9 12.9 0 0 0 2.3 7.79l.23-.53a15.2 15.2 0 0 0 2.24-8.06 36.32 36.32 0 0 0-1-7.88c-.08-.39-.22-.85-.57-.85Z"/><path fill="#263238" d="M313.14 256.39a4.37 4.37 0 0 1-.64.93 19.86 19.86 0 0 1-2.12 2.23 100.51 100.51 0 0 1-8.07 6.09 22.14 22.14 0 0 0-6.67 7.33 16.38 16.38 0 0 0-1.31 3.92 3.48 3.48 0 0 1 .07-1.13 10.39 10.39 0 0 1 .92-2.95 21.17 21.17 0 0 1 6.69-7.58c3.19-2.35 6.2-4.24 8.14-6s2.92-2.9 2.99-2.84Z"/><path fill="#cd5c5c" d="M336.44 229.79c-.17-.26-.62-.29-1-.27a18.35 18.35 0 0 0-8.79 2.56 13 13 0 0 0-5.42 6.06l.58-.09a15.1 15.1 0 0 0 8-2.34 36.09 36.09 0 0 0 6.17-5c.33-.27.64-.63.46-.92Z"/><path fill="#263238" d="M330.31 232.73a3.83 3.83 0 0 1-.81.8 19.56 19.56 0 0 1-2.52 1.8c-2.22 1.4-5.59 2.75-9.14 4.45a25 25 0 0 0-7.74 6.34c-1.67 2-2.56 3.32-2.63 3.27a4.61 4.61 0 0 1 .55-1c.39-.61 1-1.48 1.8-2.51a23.44 23.44 0 0 1 7.79-6.56c3.6-1.72 6.95-3 9.19-4.31s3.45-2.35 3.51-2.28Z"/><path fill="#cd5c5c" d="M345.31 192.89c-.24-.18-.67 0-1 .11a18.48 18.48 0 0 0-7.25 5.59 13 13 0 0 0-2.84 7.61l.51-.28a15.19 15.19 0 0 0 6.63-5.11 36.61 36.61 0 0 0 3.93-6.9c.14-.36.3-.82.02-1.02Z"/><path fill="#263238" d="M340.68 197.86a2.28 2.28 0 0 1-.3.76 16.05 16.05 0 0 1-1.13 1.91 40.18 40.18 0 0 1-4.78 5.5c-1 1-2 2-2.79 2.85a21.58 21.58 0 0 0-2 2.52c-1 1.52-1.55 2.56-1.63 2.52a2.57 2.57 0 0 1 .28-.77 17.8 17.8 0 0 1 1.05-2 18.62 18.62 0 0 1 2-2.63c.83-.92 1.78-1.89 2.77-2.9a53 53 0 0 0 4.85-5.35c1.08-1.42 1.6-2.45 1.68-2.41Zm-34.15 35.66a4.11 4.11 0 0 1 .16 1.08 28.91 28.91 0 0 1 .11 3c0 1.26-.06 2.77-.22 4.43a20 20 0 0 1-2.12 7.94c-.37.82-.72 1.62-1.06 2.38-.67 1.51-1.24 2.89-1.67 4.07-.87 2.34-1.24 3.85-1.32 3.83a4.33 4.33 0 0 1 .17-1.08c.15-.69.42-1.67.81-2.87s.93-2.6 1.58-4.14l1-2.39c.36-.83.77-1.67 1.06-2.56a27.84 27.84 0 0 0 1.05-5.23c.18-1.65.28-3.13.33-4.38s.05-2.27.05-3a5.16 5.16 0 0 1 .07-1.08Z"/><path fill="#cd5c5c" d="M321 204.89c-.3.05-.5.46-.63.82a18.32 18.32 0 0 0-1 9.1 12.92 12.92 0 0 0 3.54 7.31l.14-.56a15.18 15.18 0 0 0 .89-8.32 36.88 36.88 0 0 0-2.27-7.61c-.11-.37-.32-.8-.67-.74Z"/><path fill="#263238" d="M321.16 209.27a11.27 11.27 0 0 1 .9 2.73 43.37 43.37 0 0 1 1.12 6.85 18.25 18.25 0 0 1-.56 6.92 15.56 15.56 0 0 1-.75 2.77 16.59 16.59 0 0 1 .39-2.84 28.47 28.47 0 0 0 .47-3 25.35 25.35 0 0 0-.06-3.77 60.1 60.1 0 0 0-1-6.81c-.3-1.77-.58-2.83-.51-2.85Zm-200.68-52.92a3.8 3.8 0 0 1 .42.55l1.14 1.62c1 1.41 2.44 3.43 4.28 5.89s4.07 5.36 6.48 8.64a122.72 122.72 0 0 1 7.33 11 59.86 59.86 0 0 1 5.33 12.14 41.23 41.23 0 0 1 1.83 10.66 30.1 30.1 0 0 1-.59 7.28 18.14 18.14 0 0 1-.48 1.92 3.21 3.21 0 0 1-.21.66 2.82 2.82 0 0 1 .12-.68c.07-.45.27-1.09.38-1.94a32.94 32.94 0 0 0 .43-7.22 42.25 42.25 0 0 0-1.94-10.52 61.16 61.16 0 0 0-5.32-12 128.26 128.26 0 0 0-7.27-11l-6.39-8.7c-1.8-2.49-3.22-4.54-4.16-6-.47-.71-.82-1.29-1.06-1.67a3.13 3.13 0 0 1-.32-.63Z"/><path fill="#cd5c5c" d="M121.69 176.44c.2-.23.65-.17 1-.09a18.42 18.42 0 0 1 8.16 4.14 13 13 0 0 1 4.21 6.95l-.55-.18a15.19 15.19 0 0 1-7.47-3.79 36.41 36.41 0 0 1-5.14-6c-.21-.37-.45-.78-.21-1.03Zm11.55-23.25c.31 0 .57.37.77.7a18.41 18.41 0 0 1 2.5 8.81 13 13 0 0 1-2.24 7.8l-.27-.5a15.13 15.13 0 0 1-2.29-8 36.48 36.48 0 0 1 .94-7.89c.11-.46.25-.92.59-.92Z"/><path fill="#263238" d="M127.16 180.46c.07-.06 1 1.23 3 2.87s5 3.57 8.18 5.9a21.11 21.11 0 0 1 6.74 7.53 10.5 10.5 0 0 1 .94 2.94 4.19 4.19 0 0 1 .08 1.13 17.59 17.59 0 0 0-1.34-3.91 22.4 22.4 0 0 0-6.72-7.29 100.86 100.86 0 0 1-8.11-6 19.65 19.65 0 0 1-2.14-2.21 4.37 4.37 0 0 1-.63-.96Z"/><path fill="#cd5c5c" d="M103.69 154c.16-.25.61-.28 1-.27a18.4 18.4 0 0 1 8.81 2.5 12.94 12.94 0 0 1 5.45 6l-.57-.08a15.14 15.14 0 0 1-8.05-2.29 36.13 36.13 0 0 1-6.2-4.95c-.31-.24-.63-.61-.44-.91Z"/><path fill="#263238" d="M109.83 156.92c.06-.07 1.26 1 3.53 2.26s5.6 2.55 9.21 4.25a23.5 23.5 0 0 1 7.84 6.51c.81 1 1.42 1.89 1.81 2.5a5.37 5.37 0 0 1 .57 1c-.07.05-1-1.28-2.66-3.25a24.75 24.75 0 0 0-7.78-6.28c-3.57-1.68-6.94-3-9.17-4.4a20 20 0 0 1-2.54-1.78 4.36 4.36 0 0 1-.81-.81Zm23.79.62a5.65 5.65 0 0 1 0 1.1c0 .7 0 1.71.07 3s.16 2.74.36 4.38a28 28 0 0 0 1.07 5.23c.3.88.72 1.72 1.08 2.55s.72 1.62 1.06 2.38c.66 1.53 1.21 2.93 1.61 4.13s.67 2.18.83 2.87a4.62 4.62 0 0 1 .18 1.08c-.08 0-.46-1.49-1.35-3.83-.44-1.17-1-2.55-1.69-4.06-.35-.76-.71-1.55-1.09-2.36s-.79-1.66-1.11-2.6a27.09 27.09 0 0 1-1.06-5.34c-.17-1.66-.24-3.16-.25-4.42s0-2.28.09-3a4.38 4.38 0 0 1 .2-1.11Zm326.05 316.54c0 .15-93.88.26-209.66.26s-209.68-.11-209.68-.26 93.86-.26 209.68-.26 209.66.12 209.66.26Z"/><path fill="#cd5c5c" d="M185.62 295.07c-2.21-7-.47-14.82 3.06-21.28s8.71-11.85 13.83-17.15l-2.91-17.89C194.16 254.92 176 264 170 280c-3.9 10.45-1.75 22.63 4.38 31.95s15.86 15.92 26.39 19.6c3-6.21.05-13.66-3.94-19.27s-9.14-10.64-11.21-17.21Z"/><path fill="#fff" d="M185.62 295.07c-2.21-7-.47-14.82 3.06-21.28s8.71-11.85 13.83-17.15l-2.91-17.89C194.16 254.92 176 264 170 280c-3.9 10.45-1.75 22.63 4.38 31.95s15.86 15.92 26.39 19.6c3-6.21.05-13.66-3.94-19.27s-9.14-10.64-11.21-17.21Z" opacity=".7"/><path fill="#ffbe9d" d="m224.55 356-39.27-59.38 19.27 83.54s-2 22.53 2.65 41.78c2.67 11.11 7.62 23.23 9.71 30.77a91.11 91.11 0 0 0 4.45 12.77l12.82 3.35Z"/><path fill="#ffbe9d" d="m208.13 485.5 26.58-12.19-3.47-35.24-19.29-1c3.83 13.85 5.28 19.08 7.83 28.27l-14.28 16.78a2.18 2.18 0 0 0 .57 3.31 2.18 2.18 0 0 0 2.06.07Z"/><path fill="#cd5c5c" d="M192 110.15a4.4 4.4 0 0 0-4.92.33 13.87 13.87 0 0 0-3.37 4 11.33 11.33 0 0 1-3.53 3.84c-4.08 2.36-9.64-.66-13.86 1.44-3.15 1.57-4.66 5.59-8 6.72a13.2 13.2 0 0 0 9.92-1.41 9.66 9.66 0 0 1 3.47-1.69c2-.26 3.72 1.1 5.54 1.89a10.39 10.39 0 0 0 12.61-4c1.15-1.91 1.73-4.28 3.5-5.65.9-.69 2-1 2.88-1.81s1.25-2.24.39-3"/><path fill="#263238" d="M185.31 116.22a5.83 5.83 0 0 1 4.94-4.67 18.54 18.54 0 0 0-2.86 1.92 17 17 0 0 0-2.08 2.75Z"/><path fill="#263238" d="M177.63 122a22.71 22.71 0 0 0 2.54-.14 8.26 8.26 0 0 0 5.1-3c1.48-1.85 2.43-3.88 3.49-5.1a5.1 5.1 0 0 1 2-1.69c.05.08-.77.64-1.68 1.91-.46.63-.94 1.44-1.47 2.34a21.69 21.69 0 0 1-1.91 2.88 8.25 8.25 0 0 1-5.45 3 6.74 6.74 0 0 1-1.91 0 1.59 1.59 0 0 1-.71-.2Z"/><path d="M189.77 111.71a11 11 0 0 0-4.66 3.58.79.79 0 0 0-.23.68.57.57 0 0 0 .83.23 1.67 1.67 0 0 0 .59-.79 3.78 3.78 0 0 1-1.32 2.88 9.3 9.3 0 0 1-2.81 1.64 17.33 17.33 0 0 0-2.95 1.4c-.21.13-.43.34-.37.57s.45.31.73.27a11 11 0 0 0 6.1-3.34 32.61 32.61 0 0 0 4.19-5.69 2.26 2.26 0 0 0 .34-.74.72.72 0 0 0-.28-.72" opacity=".4"/><path fill="#cd5c5c" d="M195.19 106.06c-1.32-.33-2.77-.65-4 0-1.5.78-2 2.68-2 4.37 0 .68.29.72.68 1.28.56.76 1.37 1.65 2.3 1.49a4.56 4.56 0 0 0 2.94-7.16"/><path fill="#263238" d="M197.19 116.87c-1.68 1.21-1.75 3.69-1.27 5.7s1.35 4 1 6.07c-.91 4.84-8.19 6.71-8.48 11.62-.17 2.74 2 5.63.7 8-1 1.79-3.36 2.13-5.28 2.84a11 11 0 0 0-7 9.88c0 2.93 1 6.16-.57 8.59-1.31 2-3.94 2.62-5.5 4.39-2.56 2.89-1.08 7.94 2.27 9.85s7.7 1.2 11-.77c3.85-2.3 6.8-6.15 11.07-7.53 4.8-1.56 9.93.39 14.78 1.8s10.69 2 14.37-1.39c4.17-3.9 3.44-11.12 7.41-15.22 2.28-2.35 5.64-3.2 8.63-4.54s6-3.79 6-7.06c0-3.11-2.77-5.9-2.14-8.95.39-1.9 2-3.28 3-5 1.49-2.65 1.29-5.9 1-8.93l-.59-7.16"/><path fill="#263238" d="M199.05 84.75c0 5.29-6.89 8.77-6.59 14 .13 2.26 1.62 4.24 2 6.48.5 3-1.08 5.93-1.59 8.94-1 6.2 2.8 12.54 8.23 15.69s12.12 3.53 18.31 2.43m22.09-50.53c-.1 2.84 1.88 5.3 3.85 7.35s4.16 4.18 4.68 7c.92 5-3.78 9.77-2.57 14.67.64 2.62 2.89 4.66 3.39 7.32s-.81 5.15-2.45 7.19-3.64 1.82-5.07 4a21.26 21.26 0 0 1-6.35 6.11c-5.35 3.22-12.09-.85-14.76-1.52"/><path fill="#263238" d="M198.11 87.83c-.17-2.56 2.12-4.65 4.48-5.68s5-1.5 7.08-3c1.83-1.35 3-3.38 4.56-5.07a15.84 15.84 0 0 1 26.91 6.2c1.06 3.62.61 8-2.18 10.52-3.24 3-8.23 2.53-12.55 1.83s-9.22-1.38-12.7 1.28c-2.1 1.61-3.24 4.13-4.47 6.47s-2.79 4.74-5.26 5.7-5.91-.39-6.11-3"/><path fill="#ffbe9d" d="M243.74 95.11c-.77-7.32-6-16.12-13.29-15l-22.58 6.73a4.3 4.3 0 0 0-3.66 4.52l5.8 59.21 25.43 1.56-1.55-18.53s9.3-1.95 10.73-14.26c.71-6.15-.02-16.11-.88-24.23Z"/><path fill="#263238" d="M242.36 104.61a1.56 1.56 0 0 1-1.45 1.64 1.48 1.48 0 0 1-1.67-1.34 1.56 1.56 0 0 1 1.44-1.65 1.51 1.51 0 0 1 1.68 1.35Zm-.17-3.08c-.18.21-1.41-.62-3.09-.54s-2.89 1-3.08.77.09-.46.61-.88a4.31 4.31 0 0 1 2.45-.87 4.11 4.11 0 0 1 2.48.69c.54.37.73.73.63.83Zm-16.8 3.96a1.58 1.58 0 0 1-1.45 1.64 1.5 1.5 0 0 1-1.67-1.34 1.56 1.56 0 0 1 1.44-1.65 1.51 1.51 0 0 1 1.68 1.35Zm.23-2.94c-.19.21-1.41-.62-3.1-.55s-2.89 1-3.08.78.09-.47.61-.88a4.3 4.3 0 0 1 2.46-.87 4.18 4.18 0 0 1 2.48.68c.53.38.72.74.63.84Zm6.65 12.25a11.62 11.62 0 0 1 2.72-.61c.43-.06.84-.16.9-.46a2.2 2.2 0 0 0-.34-1.27c-.45-1-.92-2.1-1.42-3.22-2-4.6-3.41-8.39-3.22-8.47s1.93 3.59 3.9 8.19c.47 1.13.92 2.21 1.36 3.25a2.52 2.52 0 0 1 .29 1.68 1.11 1.11 0 0 1-.68.66 3.13 3.13 0 0 1-.73.13 11 11 0 0 1-2.78.12Z"/><path fill="#eb996e" d="M233.89 133.57a29.59 29.59 0 0 1-16.4-3.5c.14 0 5 8.5 16.7 6.75Zm-2.04-14.98a3.55 3.55 0 0 0-3.06-1.34 2.64 2.64 0 0 0-2 1.17 2.18 2.18 0 0 0 .07 2.33 2.27 2.27 0 0 0 2.45.68 6 6 0 0 0 2.19-1.47 1.77 1.77 0 0 0 .47-.58.69.69 0 0 0-.07-.72"/><path fill="#263238" d="M226.2 97.79c-.15.47-1.84.32-3.81.64s-3.55.93-3.83.53c-.13-.19.13-.63.76-1.11a6.37 6.37 0 0 1 2.81-1.11 6.46 6.46 0 0 1 3 .22c.75.26 1.13.61 1.07.83Zm15.17-1.12c-.28.4-1.46 0-2.86.09s-2.57.37-2.86 0c-.13-.19 0-.58.54-1a4 4 0 0 1 2.3-.72 3.89 3.89 0 0 1 2.31.67c.51.38.69.77.57.96Z"/><path fill="#263238" d="M204.73 129.07c3.39.55 3.62-1.18 6-3.61a11.06 11.06 0 0 0 3-9.46c-.5-3-2.24-6-1.32-8.86 1.23-3.81 6.45-5.18 7.7-9 .73-2.21-.11-4.73.73-6.9s2.85-3.29 4.88-4.11 4.21-1.43 5.89-2.84 2.65-4 1.46-5.83A116.07 116.07 0 0 0 206.65 86c-2 .83-4 1.81-5.13 3.63s-1 4.35-.82 6.6l2.85 32.88"/><path fill="#455a64" d="M196.23 91.1a1.4 1.4 0 0 1-.18-.55 2.7 2.7 0 0 1 .34-1.64 4.21 4.21 0 0 1 2-1.78 6.46 6.46 0 0 1 3.51-.25c1.29.19 2.64.65 4.11.87a5.41 5.41 0 0 0 4.39-.87c1.26-1 1.84-2.78 2.44-4.51a18.47 18.47 0 0 1 2.63-5.15 17 17 0 0 1 9-6.35 9.67 9.67 0 0 1 4.89-.07A7.61 7.61 0 0 1 233 73a5.65 5.65 0 0 1 1.48 3.19 5.49 5.49 0 0 1-.3 2.63 4.22 4.22 0 0 1-.87 1.44 1.62 1.62 0 0 1-.43.38 5.93 5.93 0 0 0 1.1-1.89 5.44 5.44 0 0 0 .2-2.52 5.37 5.37 0 0 0-1.46-3 7.29 7.29 0 0 0-3.51-2 9.33 9.33 0 0 0-4.65.12 16.57 16.57 0 0 0-8.71 6.19 18.14 18.14 0 0 0-2.56 5c-.61 1.71-1.2 3.54-2.62 4.71a4.68 4.68 0 0 1-2.38 1 8 8 0 0 1-2.4-.07c-1.52-.25-2.85-.73-4.1-.94a6.31 6.31 0 0 0-3.33.16 3.94 3.94 0 0 0-1.91 1.6 2.66 2.66 0 0 0-.42 1.53c.05.38.13.57.1.57Z"/><path fill="#cd5c5c" d="M194 104.37c.64-.34 20.48-3.41 29.74-4.65a179 179 0 0 1 20.36-1.24 25.34 25.34 0 0 1 1.28 5.82c.4 3.67-.25 4.5-.25 4.5l-51.35 1.31Z"/><path fill="#263238" d="M194 109.89c-1.12 3.63-2.52 9.62-5.31 11.58-1.68 1.17-3.75 1.63-5.65 2.4s-3.82 2-4.36 4c-1 3.66 3.16 7.31 2.06 10.94-.71 2.33-3.27 3.5-5.57 4.3s-4.9 1.71-5.94 3.92c-1.15 2.42.09 5.22.88 7.78s.78 6-1.65 7.15c1.88 1.24 4.51-.27 5.51-2.29s1-4.37 1.55-6.55 2.11-4.45 4.36-4.53c1.29 0 2.49.65 3.78.77 2.06.2 4-1.11 5.32-2.71s2.23-3.5 3.5-5.13c1.75-2.26 4.15-4 5.87-6.24s2.65-5.59 1-8"/><path fill="#263238" d="m213.47 109.61-6.9.28c-1.22 3.75 1.44 7.87.47 11.69a12.81 12.81 0 0 1-1.86 3.69l-9.24 14.19a13 13 0 0 0 5.44-.09 6.76 6.76 0 0 0 4.27-3.2c.84-1.6.82-3.52 1.5-5.19 1.48-3.68 6-5.56 7.14-9.34s-1.29-8.13-.82-12.03Zm32-3.97a3.56 3.56 0 0 1-.51.12l-1.48.24c-1.29.21-3.16.45-5.48.69-4.64.49-11.08.84-18.19.9s-13.55-.11-18.2-.21l-5.52-.15-1.5-.06a1.81 1.81 0 0 1-.52-.06 2.15 2.15 0 0 1 .52 0h7.02c4.66 0 11.09.11 18.2.06s13.52-.35 18.16-.75c2.31-.19 4.19-.37 5.48-.52l1.49-.15a1.64 1.64 0 0 1 .53-.11Zm-.07-2.83a3.08 3.08 0 0 1-.52 0l-1.5.06-5.52.15c-4.65.13-11.08.39-18.16.9s-13.49 1.2-18.1 1.81l-5.47.74-1.48.2a1.78 1.78 0 0 1-.53 0 2.22 2.22 0 0 1 .51-.14l1.47-.29c1.28-.25 3.14-.56 5.45-.91 4.61-.69 11-1.45 18.11-2s13.54-.71 18.2-.75h5.52l1.5.05a1.65 1.65 0 0 1 .52.18Z"/><path d="M197.87 106.26s15.66-.94 23.59-1 16.16.37 23.59-2.38c0 .04-30.89-.66-47.18 3.38Z" opacity=".4"/><path fill="#263238" d="M193 113.13a2.52 2.52 0 0 1-1.91-.2 3.77 3.77 0 0 1-1.64-1.37 3.72 3.72 0 0 1-.58-2.55 3.73 3.73 0 0 1 3.11-3.27 2.44 2.44 0 0 1 1.9.28 7.35 7.35 0 0 0-1.83.08 3.83 3.83 0 0 0-1.67.92 3.4 3.4 0 0 0-1 2 3.45 3.45 0 0 0 .46 2.23 3.64 3.64 0 0 0 1.4 1.3 8 8 0 0 0 1.76.58Z"/><path fill="#263238" d="M193.89 110.38a7.78 7.78 0 0 1-.25-2.87 7.85 7.85 0 0 1 .27-2.88 8.55 8.55 0 0 1 .25 2.88 8.46 8.46 0 0 1-.27 2.87Zm-.29.48c-.14 0-.53-1.11-1.68-1.91a9.37 9.37 0 0 0-2.36-.93c0-.07.3-.17.81-.15a3.6 3.6 0 0 1 1.85.65 3.68 3.68 0 0 1 1.25 1.53c.19.47.19.79.13.81Zm38.89 9.6a11.58 11.58 0 0 1-3.37-.59 8.32 8.32 0 0 1-3.19-1.25 18.81 18.81 0 0 1 3.32.74 11.1 11.1 0 0 1 3.24 1.1Z"/><path fill="#ffbe9d" d="m245.49 142.7 19.42-12.6 20.69-39.59 6.06-29.61H302s2.14 29.3-1.43 39.26-20.65 45.13-20.65 45.13l-23 21.81Z"/><path fill="#ffbe9d" d="M234.56 141.67c.44 0 10.34.59 10.34.59l10.73-3.86s2.9 38.95 2.9 38.07S194.47 194 194.47 194s-20.94 40.13-22.68 44.78-25.3 38.38-25.3 38.38l-10.76-5.52L161 222.5s18.47-50.59 20.32-55.89c4.53-13 18-16.62 18-16.62l10.68-5.58Z"/><path fill="#eb996e" d="M263.57 146.76c.06.06-.82.93-2 2.52a24.55 24.55 0 0 0-4.81 14.42c0 2 .18 3.21.08 3.22a3.3 3.3 0 0 1-.21-.85 16 16 0 0 1-.24-2.37 22.37 22.37 0 0 1 1.13-7.76 22.7 22.7 0 0 1 3.75-6.89 16.58 16.58 0 0 1 1.62-1.74c.41-.38.65-.58.68-.55Zm-67.64 30.09c-.15 0-.62-1.54-1.48-3.36s-1.77-3.18-1.65-3.27a7.86 7.86 0 0 1 2.12 3.05 8.12 8.12 0 0 1 1.01 3.58Z"/><path fill="#455a64" d="M276.88 27.81h5.73v56.94h-5.73z"/><path fill="#ffbe9d" d="M299 54.67C297 52.6 288.91 41 288.91 41s-15.1 1.38-15.1 4.85v2.35l1.52 2.91-.42 2.5s0 3.18.14 3.74 1.8 1.52 1.8 1.52l.56-2.35 2.81-1.11 2.78 3.84 8 2.75 1 1.4h8.87l1.13-2.2s-.89-4.45-3-6.53Z"/><path fill="#263238" d="M280.52 109.73a12.82 12.82 0 1 1 12.82-12.82 12.83 12.83 0 0 1-12.82 12.82Zm0-24.63a11.82 11.82 0 1 0 11.82 11.81 11.83 11.83 0 0 0-11.82-11.81Z"/><path fill="#455a64" d="M250.31 98.25h69.02v3.51h-69.02z"/><path fill="#263238" d="M250.31 98.25h33.02v3.51h-33.02z"/><path fill="#263238" d="M255.52 100.77c.32 1.17 1.7 6.11 4.3 15.42 2.72 9.78 6.5 23.41 10.81 38.94l.09.33h-28.2l.08-.32c3.68-15.55 6.92-29.18 9.23-39l3.69-15.41c-.28 1.2-1.42 6.22-3.57 15.72-2.22 9.73-5.32 23.29-8.86 38.77l-.24-.31h27.53l-.24.32c-4.16-15.46-7.81-29-10.42-38.76-2.54-9.47-3.89-14.47-4.2-15.7Z"/><path fill="#455a64" d="M239.57 154.05H275s-1.74 13.12-17.83 13c-15.94-.05-17.6-13-17.6-13Z"/><path fill="#fff" d="M261.06 165.14s-.27.11-.78.21a11.91 11.91 0 0 1-2.19.23 17.1 17.1 0 0 1-3.28-.22 20 20 0 0 1-3.87-1.08 19.17 19.17 0 0 1-3.55-1.91 16.62 16.62 0 0 1-2.51-2.11 13.43 13.43 0 0 1-1.43-1.68c-.29-.43-.44-.68-.41-.7s.75.87 2.09 2.12a20.91 20.91 0 0 0 2.53 2 22.11 22.11 0 0 0 3.47 1.82 21.55 21.55 0 0 0 3.77 1.09 19.86 19.86 0 0 0 3.19.33c1.83.01 2.96-.19 2.97-.1Z"/><path fill="#263238" d="M308.79 100.77c.32 1.17 1.7 6.11 4.3 15.42 2.72 9.78 6.5 23.41 10.81 38.94l.09.33h-28.2l.08-.32c3.69-15.55 6.92-29.18 9.23-39l3.69-15.41c-.27 1.2-1.41 6.22-3.57 15.72-2.22 9.73-5.32 23.29-8.86 38.77l-.24-.31h27.53l-.24.32c-4.16-15.46-7.8-29-10.42-38.76-2.54-9.47-3.89-14.47-4.2-15.7Z"/><path fill="#455a64" d="M292.84 154.05h35.42s-1.74 13.12-17.83 13c-15.92-.05-17.59-13-17.59-13Z"/><path fill="#fff" d="M314.34 165.14a2.41 2.41 0 0 1-.79.21 11.91 11.91 0 0 1-2.19.23 17.1 17.1 0 0 1-3.28-.22 20 20 0 0 1-3.87-1.08 19.17 19.17 0 0 1-3.55-1.91 17.14 17.14 0 0 1-2.51-2.11 12.4 12.4 0 0 1-1.42-1.68c-.3-.43-.45-.68-.42-.7s.75.87 2.1 2.12a20 20 0 0 0 2.52 2 22.11 22.11 0 0 0 3.47 1.82 21.55 21.55 0 0 0 3.77 1.09 19.86 19.86 0 0 0 3.19.33c1.83.01 2.96-.19 2.98-.1Z"/><path fill="#263238" d="M125.14 269.12s-4.77 4.1-1.94 8.27l3.39 1.72 11.88 29.41 8.17-3.9-14.43-28.35s1.36-4.13 0-5.64-3.21-2.63-7.07-1.51Z"/><path fill="#ffbe9d" d="M132.2 277.16s-7.27 9.63-7.58 10.84.76 4.7 1.37 5.61.25 6.82 2.4 7.73 3.81 1.66 5 1.21a19 19 0 0 0 2.32-1.06 5.53 5.53 0 0 1 4.35-4.24 3.52 3.52 0 0 1 4 2.45l2.33.05s-.47-9.27-.92-9.83-3.18-4.95-3.18-4.95l8-13.33-12.52-4Z"/><path fill="#e0e0e0" d="m201 471.77-64.6-163.51 14.6-3.14 58.44 163.16s2.52 9.73-.36 10.44C204 480 201 471.77 201 471.77Z"/><path fill="#263238" d="m201 471.77.15.34c.1.22.25.56.47 1a15.59 15.59 0 0 0 2.39 3.58 6.84 6.84 0 0 0 2.57 1.82 7.71 7.71 0 0 0 .86.21 4.09 4.09 0 0 0 1.87-.16 1.43 1.43 0 0 0 .65-.7 5.28 5.28 0 0 0 .42-2.1 17 17 0 0 0-.1-2.34 36.58 36.58 0 0 0-.93-5.1c-10.68-29.72-32.52-90.56-57.69-160.65-.3-.82-.59-1.64-.88-2.46l.3.17-14.63 3.14.18-.35 45.83 116.22c5.77 14.7 10.42 26.54 13.62 34.71l3.66 9.39c.41 1.07.73 1.88.94 2.45s.31.83.31.83-.13-.27-.35-.82-.56-1.36-1-2.42l-3.75-9.36-13.77-34.66-46-116.15-.11-.29.3-.06 14.63-3.14.22-.05.08.22.88 2.46c25 70.13 46.8 131 57.42 160.73a38.09 38.09 0 0 1 .9 5.14 17.31 17.31 0 0 1 .09 2.37 5.58 5.58 0 0 1-.45 2.17 1.6 1.6 0 0 1-.74.78 4.11 4.11 0 0 1-1 .2 4.39 4.39 0 0 1-1 0 5.39 5.39 0 0 1-3.5-2.11 14.9 14.9 0 0 1-2.36-3.63 10.21 10.21 0 0 1-.48-1.38Z"/><path fill="#263238" d="M205 470.42c-.14.05-13.73-35.58-30.37-79.57s-30-79.72-29.88-79.77 13.73 35.57 30.37 79.58 30.05 79.71 29.88 79.76Zm-68.33-168.24L125.5 312l-4.61 2.28 1.77 2.69 43-15.05-1.53-3.37-6.04 1.44-14.39-.3-7.03 2.49z"/><path fill="#cd5c5c" d="M286.75 226.93c-1.69-3-4.22-5.58-5.56-8.78-3.26-7.75 1.11-17.31-2.67-24.82-1.64-3.26-4.6-5.61-7.23-8.14-8.6-8.25-14.18-18.91-18.85-30a44.84 44.84 0 0 0 8.4 30.11c2.09 2.84 4.58 5.56 5.44 9 1.8 7.19-4.23 14.56-2.66 21.81 1.31 6.1 7.72 10.45 8 16.68.22 5-3.61 9.15-6.89 12.95a96.43 96.43 0 0 0-19.34 35c6.62-5.11 14.18-8.84 21.31-13.21s14-9.56 18.39-16.7 5.72-16.59 1.66-23.9Z"/><path fill="#cd5c5c" d="M247.77 143.47c1.5 3.9 3 7.84 4.67 11.73.1-1.11.22-2.21.4-3.31Z"/><g fill="#fff" opacity=".7"><path d="M286.75 226.93c-1.69-3-4.22-5.58-5.56-8.78-3.26-7.75 1.11-17.31-2.67-24.82-1.64-3.26-4.6-5.61-7.23-8.14-8.6-8.25-14.18-18.91-18.85-30a44.84 44.84 0 0 0 8.4 30.11c2.09 2.84 4.58 5.56 5.44 9 1.8 7.19-4.23 14.56-2.66 21.81 1.31 6.1 7.72 10.45 8 16.68.22 5-3.61 9.15-6.89 12.95a96.43 96.43 0 0 0-19.34 35c6.62-5.11 14.18-8.84 21.31-13.21s14-9.56 18.39-16.7 5.72-16.59 1.66-23.9Z"/><path d="M247.77 143.47c1.5 3.9 3 7.84 4.67 11.73.1-1.11.22-2.21.4-3.31Z"/></g><path fill="#cd5c5c" d="M263.92 288.67c4.69 16.14 10.65 33.91 25.39 42 5 2.72 10.83 4.24 14.63 8.44 6.41 7.08 4.82 19.39 12.14 25.54s18.61 2.31 27.68 5.31c5.51 1.83 9.85 6.08 15.05 8.66s12.56 2.87 15.8-1.94c.73 6-4.52 12.06-10.58 12.17l9.88 1.57c-3.08 6.88-12.87 7.54-19.86 4.74s-13.11-7.93-20.53-9.26c-8.25-1.48-17.22 1.94-24.92-1.37-10.62-4.57-12.53-18.59-19.19-28-5.31-7.53-13.74-12.11-21-17.86s-13.76-14.08-12.63-23.23"/><path fill="#fff" d="M263.92 288.67c4.69 16.14 10.65 33.91 25.39 42 5 2.72 10.83 4.24 14.63 8.44 6.41 7.08 4.82 19.39 12.14 25.54s18.61 2.31 27.68 5.31c5.51 1.83 9.85 6.08 15.05 8.66s12.56 2.87 15.8-1.94c.73 6-4.52 12.06-10.58 12.17l9.88 1.57c-3.08 6.88-12.87 7.54-19.86 4.74s-13.11-7.93-20.53-9.26c-8.25-1.48-17.22 1.94-24.92-1.37-10.62-4.57-12.53-18.59-19.19-28-5.31-7.53-13.74-12.11-21-17.86s-13.76-14.08-12.63-23.23" opacity=".7"/><path fill="#cd5c5c" d="M271 290.06c8.94 15.64 18 31.54 22.29 49 2.07 8.42 3.15 17.45 8.25 24.46s14.18 11.62 16.85 20c2.12 6.61-.37 13.81.33 20.71s4.43 13 9.31 17.72 10.82 8.26 16.81 11.49c3.71 2 7.67 4.12 9.76 7.78s1.92 8.08 3.42 12c2.65 6.89 10.23 10.9 17.59 11.4s14.6-1.89 21.5-4.51c0 0-3.26 13.84-19.68 13.84S333.27 471 333.27 471l-43.62-38.35-15.11-75.28-12-65.52Z"/><path d="M268.45 283.74c8.94 15.64 20.54 37.86 24.84 55.36 2.07 8.42 3.15 17.45 8.25 24.46s14.18 11.62 16.85 20c2.12 6.61-.37 13.81.33 20.71s4.43 13 9.31 17.72 10.82 8.26 16.81 11.49c3.71 2 7.67 4.12 9.76 7.78s1.92 8.08 3.42 12c2.65 6.89 10.23 10.9 17.59 11.4s14.6-1.89 21.5-4.51c0 0-3.2 13.88-19.23 13.84-16.31 0-44.61-2.95-44.61-2.95l-43.62-38.35-15.11-75.28-12-65.52Z" opacity=".4"/><path fill="#ffbe9d" d="m329.22 460.73 22.48 8.9a2.27 2.27 0 0 1 1.33 2.06 2.26 2.26 0 0 1-2.39 2.26L324 472.5Z"/><path fill="#ffbe9d" d="M264.5 272.21c.63 2 67.51 196.66 67.51 196.66h-20.89L254 333.39l8.58-58.76"/><path fill="#cd5c5c" d="M315.19 437.07c.33-25.29-23.53-43.73-29.53-57.38s6.33-20.3 7.33-32.95S272 302 272 302c-5.31-7.34-3.61-13.94-3.61-13.94.56-.67 1.14-1.34 1.72-2 4.45-5.09-.23-9.6-.84-12.95s-4.27-47.92-12.21-54.64l-55.24 1.22s-16.79 24.12-18.93 44.87 2.32 33.71 2.32 33.71S226 403.43 226.87 404.65s14.32 53.81 41.55 69.62l73.78-.19c-3.99-2.21-27.34-11.71-27.01-37.01Z"/><path fill="#cd5c5c" d="M226.34 166.63s-27.55 4.6-30.4 9.84c-1.24 2.28-4.14 18.79-4.14 18.79s-4.6 12.76 0 17.54a31 31 0 0 0 10.09 6.88l55.24-1.22s5.16.6 5.43-11.83-1-23-5-37.67l-9.85-27.72-6.71.76Z"/><path fill="#263238" d="M257.59 218.27c0 .14-12.56.63-28.06 1.09s-28.07.72-28.07.58 12.56-.64 28.06-1.1 28.07-.71 28.07-.57Z"/><path fill="#263238" d="M223.87 261.33a11.72 11.72 0 0 1 .73-1.56c.26-.5.56-1.1.89-1.82s.73-1.52 1.1-2.44c.8-1.81 1.65-4 2.48-6.5a72.45 72.45 0 0 0 3.36-16.66c.2-2.61.27-5 .24-7 0-1 0-1.88-.08-2.67s-.07-1.47-.11-2a11.8 11.8 0 0 1-.07-1.73 10.62 10.62 0 0 1 .27 1.71c.08.55.15 1.23.2 2s.14 1.69.15 2.68a63 63 0 0 1-.13 7 72.48 72.48 0 0 1-1.15 8.5 74.78 74.78 0 0 1-2.23 8.28 65.05 65.05 0 0 1-2.59 6.5c-.4.92-.83 1.71-1.18 2.42s-.69 1.3-1 1.78a10.82 10.82 0 0 1-.88 1.51Zm20.01-29.09c-.15 0 .21-3 .28-6.73s-.18-6.72 0-6.74a6.78 6.78 0 0 1 .35 2 40.88 40.88 0 0 1 .19 4.79 39.39 39.39 0 0 1-.38 4.77 6.53 6.53 0 0 1-.44 1.91Zm6.3 137.76a3.48 3.48 0 0 1-.25-.26l-.71-.8-2.69-3.09c-2.32-2.7-5.62-6.65-9.6-11.61-8-9.91-18.56-24-29.24-40.17a182.87 182.87 0 0 1-13.76-23.66 76.28 76.28 0 0 1-6.59-21.32 53 53 0 0 1-.14-15.05 36.13 36.13 0 0 1 1.12-5.41 2 2 0 0 1 0 .36c-.05.26-.13.6-.21 1s-.21 1-.32 1.7-.24 1.45-.34 2.33a54.76 54.76 0 0 0 .3 15 77.45 77.45 0 0 0 6.66 21.18 187.23 187.23 0 0 0 13.76 23.57c10.67 16.2 21.2 30.27 29.1 40.23 3.94 5 7.2 9 9.47 11.71 1.11 1.35 2 2.41 2.61 3.15l.67.83a1.76 1.76 0 0 1 .16.31ZM254 264.65a3.79 3.79 0 0 1-.35.66c-.28.46-.65 1.06-1.1 1.82-1 1.57-2.34 3.86-3.95 6.74a110.81 110.81 0 0 0-10.13 23.61 68 68 0 0 0-2.47 25.45 54.33 54.33 0 0 0 1.35 7.68c.2.9.43 1.58.54 2.05a4.51 4.51 0 0 1 .17.73 4.15 4.15 0 0 1-.27-.7c-.15-.46-.41-1.13-.64-2a49.94 49.94 0 0 1-1.52-7.69 66.16 66.16 0 0 1 2.37-25.66 105 105 0 0 1 10.31-23.65c1.66-2.86 3.08-5.13 4.1-6.67.5-.78.9-1.37 1.18-1.77a5.65 5.65 0 0 1 .41-.6Z"/><path fill="#263238" d="M315.19 433.64a2.56 2.56 0 0 1-.12-.41c-.07-.29-.17-.69-.3-1.19-.27-1.06-.61-2.62-1.23-4.59a85.84 85.84 0 0 0-6.65-16.09 97.59 97.59 0 0 0-15.12-20.89 98.77 98.77 0 0 0-11.3-10.24c-4.17-3.27-8.68-6.41-13.28-9.65s-9.07-6.48-13.14-9.9A110.9 110.9 0 0 1 243 350a129 129 0 0 1-15.23-21 149.28 149.28 0 0 1-7.91-15.6c-.83-1.88-1.42-3.37-1.82-4.39l-.44-1.15a2.17 2.17 0 0 1-.14-.4 3.45 3.45 0 0 1 .19.38l.49 1.13c.43 1 1 2.48 1.91 4.35a160.23 160.23 0 0 0 8 15.49 129.74 129.74 0 0 0 15.27 20.83 112.11 112.11 0 0 0 11 10.61c4.06 3.4 8.52 6.62 13.12 9.86s9.11 6.39 13.3 9.67a99.61 99.61 0 0 1 11.33 10.32 97.27 97.27 0 0 1 15.1 21.05 82.41 82.41 0 0 1 6.51 16.21c.6 2 .91 3.55 1.14 4.61.11.52.19.92.25 1.21a2 2 0 0 1 .12.46Z"/><path d="M191.52 314.5c10.14 19.34 22.25 38.67 37.08 54.69 14.55 15.73 12.73 27.5 17.56 52.36 2.8 14.4 15 29.52 35 33.56 16.42 3.33 23.39 12.23 24.82 17.82l.73 1.15L268 474s-6.94-3.73-14.75-13.55A113.42 113.42 0 0 1 238.69 436a489.57 489.57 0 0 1-18.55-48.17Z" opacity=".4"/><path fill="#263238" d="M190.13 201.89a4.21 4.21 0 0 1 .66-.45l1.94-1.2 1.41-.85 1.63-1.08c1.16-.79 2.52-1.64 3.93-2.71l2.23-1.64c.78-.58 1.54-1.23 2.36-1.87 1.64-1.27 3.29-2.76 5-4.31a119.25 119.25 0 0 0 10.55-10.93 123.29 123.29 0 0 0 9-12.22c1.19-2 2.42-3.86 3.37-5.71l1.45-2.64 1.21-2.49c.81-1.58 1.42-3 2-4.35.27-.64.53-1.24.77-1.79s.41-1.07.58-1.54c.34-.89.62-1.6.82-2.13a3.56 3.56 0 0 1 .32-.73 4.32 4.32 0 0 1-.22.76c-.18.54-.42 1.26-.73 2.17l-.53 1.56c-.19.56-.48 1.17-.74 1.82-.53 1.3-1.13 2.79-1.91 4.38q-.57 1.22-1.2 2.52c-.45.86-.93 1.75-1.42 2.67-.94 1.86-2.16 3.73-3.34 5.76a121.36 121.36 0 0 1-9 12.3 117.36 117.36 0 0 1-10.62 10.95c-1.77 1.54-3.44 3-5.1 4.28-.83.64-1.6 1.29-2.38 1.86l-2.27 1.62c-1.42 1.06-2.8 1.89-4 2.65l-1.66 1-1.43.82-2 1.11a5.67 5.67 0 0 1-.68.41Z"/><path fill="#263238" d="M242.1 141.23a4.39 4.39 0 0 1-.1.77c-.09.5-.21 1.24-.41 2.18-.38 1.89-1 4.62-1.9 7.95A103.68 103.68 0 0 1 229.4 177a78.09 78.09 0 0 1-17.27 20.59 60.46 60.46 0 0 1-6.6 4.81c-.81.53-1.48.88-1.91 1.14a3.12 3.12 0 0 1-.69.36 5 5 0 0 1 .63-.45c.42-.28 1.07-.66 1.86-1.22a70.64 70.64 0 0 0 6.47-4.92A80.59 80.59 0 0 0 229 176.73 109.28 109.28 0 0 0 239.34 152c.95-3.31 1.62-6 2-7.89q.31-1.35.51-2.16a5.21 5.21 0 0 1 .25-.72Zm15.18 37.35a4.86 4.86 0 0 1-.15 1.25 15.15 15.15 0 0 1-1 3.28 16.2 16.2 0 0 1-2.76 4.3 14.22 14.22 0 0 1-5.08 3.67 12.66 12.66 0 0 1-6.2.89 13.54 13.54 0 0 1-4.9-1.48 12.79 12.79 0 0 1-2.81-2 4.75 4.75 0 0 1-.85-.93 21.71 21.71 0 0 0 3.83 2.59 14.08 14.08 0 0 0 4.77 1.34 12.77 12.77 0 0 0 6-.9 14.12 14.12 0 0 0 4.92-3.51 16.64 16.64 0 0 0 2.79-4.14 28.57 28.57 0 0 0 1.44-4.36Z"/><path fill="#263238" d="M245.4 143.45a.73.73 0 0 1 0 .24l-.05.68c-.06.65-.14 1.53-.25 2.64-.25 2.3-.71 5.6-1.49 9.65a124.33 124.33 0 0 1-19.28 45.74l-2.33 3.24c-.75 1.05-1.54 2-2.28 3a31.24 31.24 0 0 1-4.58 5 30.92 30.92 0 0 1-8.22 5.24 22.32 22.32 0 0 1-2.51.89l-.67.17h-.23a.73.73 0 0 1 .22-.09l.65-.22c.57-.2 1.41-.51 2.46-1a31.94 31.94 0 0 0 8.06-5.33 31.29 31.29 0 0 0 4.48-5c.72-1 1.51-1.94 2.25-3l2.29-3.24a127.9 127.9 0 0 0 19.32-45.54c.82-4 1.34-7.32 1.65-9.6.14-1.11.26-2 .34-2.63 0-.27.08-.5.11-.68a.65.65 0 0 1 .06-.16Z"/><path d="M209 217.74a40.07 40.07 0 0 0 25.26-20c5.21-9.81 6.62-20.53 6.88-31.63-2 9.23-5.93 17.75-10.91 26.3-5.8 9.91-12.23 20.46-21.23 25.33Zm5.33-22.88 22.12-33.66c-1.34 6.82-4.65 13.14-8.75 18.76a143.22 143.22 0 0 1-13.88 15.57" opacity=".3"/><path fill="#263238" d="M254.2 340.33a2.06 2.06 0 0 1-.22-.52c-.13-.35-.33-.85-.54-1.53a37.1 37.1 0 0 1-1.32-5.81 40.32 40.32 0 0 1 2-19.43 50.26 50.26 0 0 1 5-9.63c1.78-2.8 3.45-5.28 4.7-7.45a40.7 40.7 0 0 0 2.69-5.28c.55-1.28.79-2 .84-2a2.15 2.15 0 0 1-.13.55c-.11.36-.26.88-.52 1.54a37.19 37.19 0 0 1-2.56 5.38c-1.22 2.21-2.86 4.72-4.62 7.53a51.45 51.45 0 0 0-4.9 9.55 41.38 41.38 0 0 0-2.16 19.2 45 45 0 0 0 1.14 5.81c.18.63.33 1.14.44 1.55a2.36 2.36 0 0 1 .16.54Z"/><path fill="#263238" d="M264.5 300.74c.07.06-1 1.33-2.47 3.54a49.43 49.43 0 0 0-4.83 9.19 49.93 49.93 0 0 0-2.74 10c-.43 2.64-.52 4.29-.61 4.28a4.73 4.73 0 0 1 0-1.16c0-.75.1-1.84.26-3.17a43.88 43.88 0 0 1 2.63-10.15 43.08 43.08 0 0 1 5-9.21 28.8 28.8 0 0 1 2-2.49 4.87 4.87 0 0 1 .76-.83Zm-58.86-56.49a4.44 4.44 0 0 1 .57-.95l1.68-2.48c1.41-2.1 3.28-5 5.17-8.42s3.4-6.51 4.45-8.81c.48-1.08.89-2 1.23-2.74a4.91 4.91 0 0 1 .5-1 4.25 4.25 0 0 1-.31 1.06c-.23.67-.6 1.63-1.08 2.8a87.24 87.24 0 0 1-9.66 17.3c-.74 1-1.36 1.84-1.81 2.39a4.87 4.87 0 0 1-.74.85Z"/><path d="m222.5 219.1-2.16.6q-5.59 10.86-11.17 21.74a4.66 4.66 0 0 0-.69 2.21 2.85 2.85 0 0 0 2.62 2.53 4.58 4.58 0 0 0 3.55-1.48 12.67 12.67 0 0 0 2.15-3.33c3.42-6.95 5.97-14.53 5.7-22.27Zm-2.26 93.67a90.83 90.83 0 0 0 35.26 39.91c5.27 3.22 10.91 5.91 15.66 9.86s8.63 9.5 8.79 15.68a113.61 113.61 0 0 1-59.45-63.16" opacity=".3"/><path fill="#fff" d="M217.74 181.6a7 7 0 0 1-.84 1.08c-.56.68-1.42 1.62-2.51 2.76a83 83 0 0 1-9.21 8.2 81.06 81.06 0 0 1-10.33 6.73c-1.39.76-2.52 1.34-3.33 1.7a7.66 7.66 0 0 1-1.26.53 7.06 7.06 0 0 1 1.17-.71c.77-.42 1.88-1 3.24-1.84a101.73 101.73 0 0 0 10.2-6.82 100.42 100.42 0 0 0 9.26-8c1.12-1.1 2-2 2.62-2.64a6.59 6.59 0 0 1 .99-.99Zm-.92 13.84a67.24 67.24 0 0 1-6 5.77 68 68 0 0 1-6.35 5.38 67.22 67.22 0 0 1 6-5.77 65.14 65.14 0 0 1 6.35-5.38ZM196 178.55a49.68 49.68 0 0 1-1.38 7.14 50.69 50.69 0 0 1-1.88 7 51.4 51.4 0 0 1 1.38-7.14 51.19 51.19 0 0 1 1.88-7Zm-6.16 81.97a9.06 9.06 0 0 1-.19-1.47c-.09-.94-.15-2.32-.14-4a50.65 50.65 0 0 1 .4-6 58 58 0 0 1 1.43-7.18 57.25 57.25 0 0 1 2.42-6.91 51.79 51.79 0 0 1 2.68-5.34 37.45 37.45 0 0 1 2.17-3.39 7.54 7.54 0 0 1 .9-1.16 7.78 7.78 0 0 1-.73 1.27c-.51.8-1.21 2-2 3.46a56.9 56.9 0 0 0-2.56 5.35 55.86 55.86 0 0 0-3.81 14 54.72 54.72 0 0 0-.51 5.91c-.06 1.69-.06 3.06 0 4a7.79 7.79 0 0 1-.06 1.46Zm11.97 36.4a6.11 6.11 0 0 1-.73-1.1c-.44-.72-1-1.79-1.74-3.13a89.6 89.6 0 0 1-4.77-10.84 91.27 91.27 0 0 1-3.29-11.37c-.32-1.48-.54-2.68-.67-3.52a6.94 6.94 0 0 1-.15-1.31 5.9 5.9 0 0 1 .35 1.27c.19.82.47 2 .83 3.48.73 2.93 1.86 7 3.42 11.28a114.53 114.53 0 0 0 4.61 10.84c.66 1.36 1.21 2.45 1.59 3.2a7 7 0 0 1 .55 1.2Zm-11.45 10.25a5.93 5.93 0 0 1-.65-1c-.4-.65-.92-1.63-1.51-2.86a48.22 48.22 0 0 1-4.63-20.64c0-1.37.06-2.47.14-3.23a5.65 5.65 0 0 1 .16-1.17c.09 0 0 1.68.07 4.39a54.91 54.91 0 0 0 4.6 20.5c1.09 2.49 1.9 3.96 1.82 4.01Zm36.06 38.92a87.53 87.53 0 0 1-5.78-7.83 91.84 91.84 0 0 1-5.36-8.14 91.77 91.77 0 0 1 5.79 7.84 92 92 0 0 1 5.35 8.13Zm13.49-40.5a3.24 3.24 0 0 1 0-.91 24 24 0 0 1 .14-2.48 41.43 41.43 0 0 1 4.77-15.59c.5-.92.94-1.65 1.27-2.14s.52-.75.55-.73-.58 1.17-1.49 3a51.52 51.52 0 0 0-3 7.54 52.14 52.14 0 0 0-1.75 7.93 31.67 31.67 0 0 1-.49 3.38Z"/><path fill="#263238" d="M233.29 297.65a6.74 6.74 0 0 1-1.23-.6 35.9 35.9 0 0 1-3.16-1.93 48 48 0 0 1-4.36-3.34 54.72 54.72 0 0 1-4.79-4.75 51.4 51.4 0 0 1-4.07-5.37 46.27 46.27 0 0 1-2.74-4.77c-.69-1.41-1.2-2.57-1.5-3.39a7.13 7.13 0 0 1-.43-1.29 6.72 6.72 0 0 1 .62 1.21c.35.8.91 1.93 1.64 3.3a53.16 53.16 0 0 0 6.88 10 57 57 0 0 0 4.7 4.74c1.55 1.35 3 2.5 4.26 3.4s2.32 1.6 3.06 2.06a7.4 7.4 0 0 1 1.12.73Zm105.95 176.43a1.18 1.18 0 0 1-.35 0h-1a35.11 35.11 0 0 1-3.91-.33 28.34 28.34 0 0 1-6-1.58 26.29 26.29 0 0 1-7.11-4.14c-4.79-3.87-9-9.95-12.71-17.12a83.63 83.63 0 0 1-4.44-11.85c-1.3-4.19-2.48-8.57-4-12.94a52.46 52.46 0 0 0-5.87-12.12 37.53 37.53 0 0 0-8.72-8.95c-3.19-2.42-6.45-4.44-9.46-6.36a99.47 99.47 0 0 1-8.21-5.66 34.7 34.7 0 0 1-9.57-10.73c-.43-.74-.7-1.45-1-2s-.44-1.13-.57-1.56-.21-.74-.28-1a3.08 3.08 0 0 1-.08-.34 1.31 1.31 0 0 1 .13.33l.33 1c.14.43.37.93.61 1.54s.58 1.28 1 2a35.43 35.43 0 0 0 9.61 10.53 98.22 98.22 0 0 0 8.22 5.58c3 1.91 6.29 3.91 9.52 6.35a37.7 37.7 0 0 1 8.85 9 52.49 52.49 0 0 1 5.9 12.24c1.54 4.4 2.72 8.78 4 13a85.57 85.57 0 0 0 4.39 11.79c3.61 7.13 7.82 13.2 12.51 17a26.21 26.21 0 0 0 7 4.16 29.63 29.63 0 0 0 5.94 1.65c1.68.24 3 .4 3.89.43l1 .07Z"/></svg>